<?xml version="1.0" encoding="utf-8"?>
<!-- Generator: Adobe Illustrator 20.1.0, SVG Export Plug-In . SVG Version: 6.00 Build 0)  -->
<svg version="1.1" id="Layer_1" xmlns="http://www.w3.org/2000/svg" xmlns:xlink="http://www.w3.org/1999/xlink" x="0px" y="0px"
	 width="900px" height="806.9px" viewBox="0 0 900 806.9" style="enable-background:new 0 0 900 806.9;" xml:space="preserve">
<style type="text/css">
	.st0{fill:#082890;}
	.st1{opacity:0.5;}
	.st2{fill:#93A5D6;}
	.st3{fill:#6178B7;}
	.st4{fill:#80B1BC;}
	.st5{fill:#002E64;}
</style>
<g transform="translate(-35 -201.839)">
	<g transform="translate(-0.33 -139.845)">
		<g>
			<path class="st0" d="M35.3,342.1h900v805.6h-900V342.1z"/>
		</g>
		<g transform="translate(260.012 66.714)" class="st1">
			<g>
				<path class="st2" d="M296.4,417.8l4.4-1l3.4-3.2l4-1.3l6.1-0.8l12.3,0.8l11.2,3l7,4l5.5,8l1.1,4.2l-1.1,3l3.8,3.4l2.5,6.3
					l-20.1-6.5l-9.9-7.2l-14.1-5.9l-15.2-1.3l-3.2-3.2L296.4,417.8z"/>
			</g>
			<g>
				<path class="st2" d="M270.1,445.7l2.8,4.4l2.8,1.7l1.9,3.4v6.3l-1.9,2.1l-3.4,1.7l-4.2,0.6l-3.6-0.6l0.8,7l1.3,6.1l6.3,4.4
					l7,3.2c0,0,4.6,0.8,5.1,0.9c0.6,0.2,5.1-2.8,5.1-2.8l2.5-4.2l0.6-4.7l0.8-3l0.9-3.8v-6.1l-0.9-5.1l-3.4-2.1l-1-0.4h-3.8
					l-4.2-1.5l-1.9-1.5l-1.9-2.8l-2.8-2.1L270.1,445.7z"/>
			</g>
			<g>
				<path class="st2" d="M250,449.3l2.5,2.5l1.1,3.2v7.2l1.1,2.8l1.9,1.1l5.1,0.4l-1.7,4.6h-3.4l-2.1-1l-4.6-3.6l-0.2-2.8l-2.5-5.9
					l-1.9-2.8L250,449.3z"/>
			</g>
			<g>
				<path class="st2" d="M235.4,463.8l1.7,4v3.4l-0.8,2.7l-1.9,1.3h-2.8l-2.5-2.3l2.1,8.4l3.4,8.4l-7,1.3l-1.7,4.6l9.7,4l5.5-2.5
					l3.6,4.6h6.5l1.9-1.1l0.6-2.1l0.6-4l-0.6-3.2v-1.9l0.6-4.4l-6.5-17.3l3.8-3.2l-2.3-4.9l-9.5,2.3L235.4,463.8z"/>
			</g>
			<g>
				<path class="st2" d="M223.6,441.2l4.2,2.3l3.2,2.3l4.6,6.1l0.8,3.2v3.8l2.3,1.3h7.4l4-2.3v-8.5l-8.9-7.2l-4.4-2.1l-1.1-2.5
					l-0.6-2.8L223.6,441.2z"/>
			</g>
			<g>
				<path class="st2" d="M170.4,464.2l-1.1,0.6l-1.1-0.4l-0.8-1v-1.5l0.9-2.5l0.6-1.5l-0.8-1.1c0,0-2.3-0.2-2.7,0
					c-0.4,0.2-2.5,1.9-2.5,1.9l-1.9,3.6l-0.9,2.8v2.7l0.6,2.5l0.4,2.8v2.1l-0.8,2.7l-0.6,3.2l-0.6,3v2.8l0.8,2.8l0.6,1.5l1.9,2.5
					h2.1l8.4-21.3L170.4,464.2z"/>
			</g>
			<g>
				<path class="st2" d="M142.1,505.2l-4,4.6l-0.8,3.2l1.1,3.2l2.5,3l3,1.7l3.6,0.8h4.4l1.9-1.1l0.8-3.4v-2.1l0.8-2.1l1.5-2.5
					l2.1-2.1l2.5-1.7l3-0.6l-2.7,17.7l-5.7,44.8h-10.4l-1.9-1.7l-3.6-0.4l-11.6-17.9l9.9-14.6l-12.5-19l5.7-9.9H142.1z"/>
			</g>
			<g>
				<path class="st2" d="M296.9,321.1v3l-2.8,1.7l-2.8,2.5l3.8,4.4l4.9,2.8l1.7,2.8l1.3,4.2h2.1l3,1.5l8-0.9l-1.7-14.6l-13.7-9.1
					L296.9,321.1z"/>
			</g>
			<g>
				<path class="st2" d="M-36.6,374.5v3.8l1.9,2.5c0.9,0.6,2,1,3,1.3c1.4,0.1,2.8,0.1,4.2,0l5.1,0.2l10.3,8l-9.3,10.3l-17.7-3.4
					l-12.4-22.6l6.3-4.4L-36.6,374.5z"/>
			</g>
			<g>
				<path class="st2" d="M1.4,391.8l2.5,1.5l2.3,3.6l3.2,1.7h4.9l4.4,1.9l4,3.6v3.6l2.7,1.7l3.4,2.1l3,3.8l2.7,2.5l2.7,2.5h3
					l1.5,3.4H46l3,2.7l1.9,3v3.6l2.7,1.7h3.6l2.8,3.6l3.2,1.9v2.7l4.4,1.3l5.9,3.2l3,3.2l3.2,2.7l1.1,3.2l5.5,0.2l4,1.1l2.3,4.4
					l9.9,1.1l-9.9,11.8l-59.5-23.4l-20.9-41.6l-8.2,7.6l-16.3-3.8l-7.4-7.6l4.9-9.5L1.4,391.8z"/>
			</g>
			<g>
				<path class="st2" d="M324.1,472.5l-1.1,3.6l-1.3,3.4l-1.9,1.7l-4.6,1.5l-8.7,2.1l-3.8,6.5l5.5,3.2h4.6l2.3-2.1l3.6-0.8l3.4,0.4
					l3.4-0.2l1.9-1.1l1.7-1.9l4.4-4.9l11.6-12.7v-3.8l-8.9,0.8l-9.5,0.8L324.1,472.5z"/>
			</g>
			<g>
				<path class="st3" d="M362.1,457.1h3.8l2.7,5.5l3.8,1.9l4,1.5h5.7l4.6-1.7l5.5-0.6h8.7l6.8,1l8.2,3l5.7,2.3l5.7,3.6l3,2.1h3.6
					l6.1-2.7l3.2-3.6l2.1-2.8l4.9-0.9h3.8l5.9,0.9l4.4,1.9l6.1,2.3l7.4,2.3l8.5,0.8l8.4-0.4l2.8-0.8v5.5l-1.5,2.8l-0.2,4.2l-0.9,2.3
					l-3,2.5l-4.4,2.1l-6.5,1.3l-8.4,0.8l-7,0.8l-3.2,0.8l-1.1,2.5l-1.9,1.7l-2.8,0.8l-4.9,0.9l-4,2.3l-3,3.8l-0.6,4.2l-1.9,2.8
					l-2.5,1.3h-5.5l-0.6,2.7h-9.7l-0.6-2.8l-2.3-1.3l-2.1,1l-1.3,2.1l-1.9,3.4l-3.8,4.2l-5.1,4.9l-1.5,3.8l0.9,2.7l2.5,2.1l4.6,2.1
					l5.3,1.3l1.7,1.9l3.8,2.3l5.7,2.5l6.1,3.4l0.9,2.1l0.4,3l-0.8,4.2l0.4,4l0.4,2.3l-0.9,2.7l-2.1,2.1l-0.2,3l-1.5,2.1l-3.4,2.3
					l-5.3,4l-5.7,3l-2.7,4.4c0,0-0.4,2.5,0,3.6c0.3,1.2,0.6,2.5,0.8,3.8l0.6,2.5l2.1,2.7l4.2,1.7l4.6,2.8l1.7,2.5l-0.2,2.8l-1.1,3.6
					l-1.3,2.8v3.6l-1.7,1.9l-3.4,1.7h-2.7l-2.1,1.7l-0.2,2.5l0.4,2.8l-2.3,2.7l-5.1,3h-4.7l-5.9,0.9l-4.4,1l-4.7,2.5l-1.9,3.4
					l-0.6,5.3l3,0.9l2.5,3l4.4,9.7l4.2,7l5.5,9.1l2.8,2.8l2.7,2.5l0.8,4.6l-0.8,5.1l-2.5,2.5l1.3,2.5l3.6,1.7h5.5l3.2-1.7l1.9-5.9
					l0.8-6.1l0.2-3.4l2.7,1.3l3.4,4.6l3.2,7.2l1.1,4.4l5.3,5.9l3.6,3.8l5.7,1h2.8l4.9,3.6l1.7,3.6l1.5,3.2l3.8,1.7l5.3,1.1l3.4,1.3
					h2.8l3-2.5l3.8-0.2l7.4,0.2l1.7,2.5l2.1,3.4l4.6,3.8l3.6,2.7l4.9,3.4h4.4l2.5-1.7v-4.9l-2.7-5.1l-1-4.4l0.2-4.6l1.3-4.2l3.6-1.7
					l5.1-1.5h3.4l1.7-2.3v-2.7l1.1-3.2l3.4-1.7l3.4-1.3l1.3-3.2l4-1l3.6,1l1.7,5.3l2.1,11.6l-0.8,11.4l1.9,4.2l4,3.8l6.5,5.3
					l1.7,3.2l1.1,3.6l-0.8,3.6h-2.5l-6.1,1.3l-0.6,5.1l1.1,3.8l3.6,3.6l4.2,1.1l1.9,5.1v5.9l-1.5,2.7l-2.7,3.6l-3,1.1l-3,0.8h-2.5
					l-4,2.7l-1,8.4l-2.7,5.3l-2.5,3.8l-3.2,3.6l-3.2,1.7h-4.2l-3.4-3l-1.9-5.3l1-6.1l-1.3-6.3l-2.7-2.5l-7,0.6l-4.4,0.6l-4.4-0.4
					l-3.6-1l-2.7-1.7l-2.8,1.7l-3.6,2.8l-2.7,0.6l-2.8-1.3l-1.1-4.9l1.5-11l-5.9-0.2l-2.5,1.9l-0.9,6.5l-4,4.7l-4.4,2.3h-3v-4.4
					l1.5-7.6l1.5-2.7l-0.4-3.6l-3.6-1.5l-4.4-0.8l-3-2.7l-6.3-0.9l-7.8-1.5l-2.5-3l-0.9-2.8l-5.3-2.1l-5.3-0.2l-3.4,1.7l-2.3,4.7
					l-4.2,3.4l-2.5,2.8l-1.3,5.3l1.1,3.2l-1.3,3.2l-4.9,3.6h-7.4l-8.2-0.2l-6.1-1.1l-4.2-1.7l-4.9,0.6l-4.4,3.4l-5.3,2.8l-8.4-1.7
					l-7-4.2l-7.2-0.4l-8.4,3l-4.9,4.4l-3.8,4v6.5l4.7,5.1l6.6,4l4.7,2.7l5.7,1.1l4.7,1l0.8,3.8l-3.4,3.8l-4.9,1.3l-7-0.9l-6.5-3
					L333,816l-1-2.5l-4,0.8l-2.1,3l-2.7,0.4l-1.7,4.2v5.5l1.3,4l6.6,4.7l0.8,3.4l0.2,3.8l0.6,2.7l3.4,2.1h3.4l4,5.5l0.6,3.6l1.9,2.5
					l-0.6,5.3l-3.2,4v4.6l0.6,4.2l1.9,1.7l4.9,1.3l1.3,7.4l-1.1,3.8v4.7l-4.4,0.9h-4.2L338,899l-1.5,4.2h-2.7l-1-3l-3.6-1.3
					l-4.4,0.2l-3.2-2.1l-3.6,0.8l-3,4.4l-3.8,2.8h-5.3l-4,3v5.3l-1.9,2.5l-4.4,2.3l-2.7,3l-4.6,2.5v8.9h-3.2l-1.9-2.3l-3-1.1
					l-5.3,0.8l-10.8-8.7l-4.4-3.8l-12.9-4.9V902l-5.3-4.4l-2.3-8l-1.1-5.5l-3.2-4.6l-7.8-7.2c0,0-3.4-2.5-5.5-2.8
					c-2.1-0.4-5.1-2.1-5.7-1.7c-0.4,0.4-5.7,0-5.7,0l-6.5,1.7l-6.1,2.8h-4.9l-2.7-1.7v-10.8l-1.9-4.6l-4-1.7h-4.4l-4.7,1.7l-7.8,1.3
					h-6.3l-2.5-1.3l-1.1-3.4l-2.8-5.5l-3.4-4.9l-3.4-0.9h-4l-2.7,1.9l-8.4,3.8l-5.7-0.8l-5.3-1.9l-5.1-6.1h-2.3l-1,3.2v3l-2.8,0.8
					h-3.6l-3.2-0.8l-3-3h-3.2l1.1-3.2l0.9-4l2.3-2.1l1.3-2.5l-1.3-2.5l-2.3-1.7l-4.2-0.2l-7,0.2l-4.7,1.5l-3.8,3.6l-4,4.9l-3.2,3
					l-3.8-0.9l-1.7-2.1L68,830l1.1-3.6l-0.2-4.6l-0.8-4.2l-1.9-3.6l-2.7-2.3l-2.5-0.4l-2.8-1.1l-5.1-5.5l-1.1-4.6l-2.8-3l-2.5-2.7
					l-6.3-16l0.8-5.1l1.7-2.8l4.7-1.1l1.1-4l-0.8-8.4l-1.7-5.1l-3-3.8l-1.3-3.4l0.6-6.1l-0.2-4l-2.1-10.1l-6.1-6.3l-7.8-5.7
					l-11.8-4.7l-4.4-3.8l-1.9-5.9l-2.5-7.8l-1.5-4.7l1.5-4.2l3.2-4l3.4-1.3l5.3-0.8l6.8,0.2l2.5-1.3l0.6-4.4l3.4-1.9l3-2.1l1.3-3.6
					l-1.3-2.8l-4.2-4.9l-5.5-1.3l-6.1-1.7l-9.3,0.4l-4.7-2.3l-3.8-5.1l-1.1-5.1v-8.4l2.7-3.8l100.5-66.9l51.3-8.9l43.1-18.2
					l14.8-9.1l5.3-1.5l10.1-9.5l13.9-16l9.9-20.9l3.6-5.9l30-3l55.1-15.6h10.5L362.1,457.1z"/>
			</g>
			<g>
				<path class="st2" d="M276.2,443.8l1.5,5.3l4,4.6l3.4,1.1l2.8,0.2l2.5,0.2l3.6,1.9l0.4,2.5l0.4,3.4v1.3l10.3-2.8l0.6-9.5
					l-0.2-11.2l-5.1-2.7l-4.4-2.9h-3.2L288,437l-6.8,3L276.2,443.8z"/>
			</g>
			<g>
				<path class="st2" d="M320.3,435.1l-7,3.8l-0.6,10.1v7.4l-2.7,4l19.9-5.7l-5.5-16.5L320.3,435.1z"/>
			</g>
		</g>
		<g transform="translate(340.41 0.57)">
			<g transform="translate(282.535)">
				<g>
					
						<rect x="-161.3" y="342.3" transform="matrix(0.5039 -0.8638 0.8638 0.5039 -375.2974 31.8338)" class="st2" width="2.6" height="0.7"/>
				</g>
				<g>
					<path class="st2" d="M-164.4,360.3h-0.7v-0.4h0.7V360.3z M-164.4,358.8h-0.7v-1.7h0.7V358.8z M-164.4,356.1h-0.7v-1.7h0.7
						V356.1z M-164.4,353.3h-0.7l0-0.5l0.4-1.2l0.6,0.2l-0.4,1.1V353.3z M-163.7,350.7l-0.6-0.2l0.5-1.6l0.6,0.2L-163.7,350.7z
						 M-162.9,348.2l-0.6-0.4l0.9-1.4l0.6,0.4L-162.9,348.2z"/>
				</g>
				<g>
					<polygon class="st2" points="-166.9,366.5 -167.2,365.9 -165.1,364.5 -165.1,361.8 -164.4,361.8 -164.4,364.8 					"/>
				</g>
				<g>
					
						<rect x="-172.8" y="368.5" transform="matrix(0.8515 -0.5244 0.5244 0.8515 -218.8567 -35.0645)" class="st2" width="2.9" height="0.7"/>
				</g>
			</g>
			<g transform="translate(332.713 56.45)">
				<g>
					<polygon class="st2" points="-186,325.3 -187.4,323.3 -188.7,325.3 -189.2,324.9 -187.4,322 -185.4,324.9 					"/>
				</g>
				<g>
					<path class="st2" d="M-187.1,374.7h-0.7v-2h0.7V374.7z M-187.1,371.3h-0.7v-2h0.7V371.3z M-187.1,367.9h-0.7v-2h0.7V367.9z
						 M-187.1,364.5h-0.7v-2h0.7V364.5z M-187.1,361.2h-0.7v-2h0.7V361.2z M-187.1,357.8h-0.7v-2h0.7V357.8z M-187.1,354.4h-0.7
						v-0.6l-0.1-1.4l0.7,0L-187.1,354.4z M-187.9,351l-0.1-2l0.7,0l0.1,2L-187.9,351z M-188.1,347.6l-0.1-2l0.7,0l0.1,2
						L-188.1,347.6z M-188.2,344.2l-0.1-2l0.7,0l0.1,2L-188.2,344.2z M-188.4,340.9l-0.1-2l0.7,0l0.1,2L-188.4,340.9z M-188.6,337.5
						l-0.1-2l0.7,0l0.1,2L-188.6,337.5z M-188.9,334.1l-0.3-2l0.7-0.1l0.3,2L-188.9,334.1z M-189.4,330.8l-0.3-2l0.7-0.1l0.3,2
						L-189.4,330.8z"/>
				</g>
				<g>
					<polygon class="st2" points="-187.7,380.6 -187.7,377 -187.1,377 -187.1,379.1 -185.5,377.7 -185.1,378.2 					"/>
				</g>
				<g>
					<path class="st2" d="M-183.5,374.4l-0.6-0.2l0.7-2l0.6,0.2L-183.5,374.4z M-182.4,371l-0.6-0.2l0.7-2l0.6,0.2L-182.4,371z
						 M-181.3,367.6l-0.6-0.2l0.7-2l0.6,0.2l-0.2,0.5L-181.3,367.6z M-180.1,364.3l-0.6-0.2l0.8-2l0.6,0.2L-180.1,364.3z
						 M-178.9,360.9l-0.6-0.2l0.1-0.3l-0.2-1.7l0.7-0.1l0.2,1.8L-178.9,360.9z M-179.8,357.3l-0.3-2.1l0.7-0.1l0.3,2.1L-179.8,357.3
						z M-180.2,353.8l-0.1-1.1l-0.2-1l0.7-0.1l0.2,1l0.1,1.1L-180.2,353.8z M-180.8,350.3l-0.4-2.1l0.7-0.1l0.4,2.1L-180.8,350.3z
						 M-181.4,346.8l-0.4-2.1l0.7-0.1l0.4,2.1L-181.4,346.8z M-182,343.3l-0.4-2.1l0.7-0.1l0.4,2.1L-182,343.3z M-182.6,339.7
						l-0.2-1.2l-0.4-0.7l0.6-0.3l0.5,0.8l0.2,1.3L-182.6,339.7z M-183.9,336.6l-0.8-1.4l-0.1-0.7l0.7-0.1l0.1,0.6l0.7,1.2
						L-183.9,336.6z M-184.9,333.1l-0.2-2.1l0.7-0.1l0.2,2.1L-184.9,333.1z M-185.4,329.6l-0.2-2.1l0.7-0.1l0.2,2.1L-185.4,329.6z"
						/>
				</g>
			</g>
			<g transform="translate(276.263 166.499)">
				<g>
					<polygon class="st2" points="-161,300.2 -161.7,300.2 -161.7,296.3 -163.7,294.5 -163.2,294 -161,296 					"/>
				</g>
				<g>
					<polygon class="st2" points="-167.4,291.5 -170,290.1 -170.8,286 -170.1,285.9 -169.4,289.7 -167.1,291 					"/>
				</g>
			</g>
			<g>
				<path class="st2" d="M150.4,375.4h-1.9v-0.7h1.9V375.4z M147.2,375.4h-1.9l-0.3-0.3l0.5-0.5l0.1,0.1h1.6V375.4z M144.1,374.2
					l-1.3-1.3v-0.5h0.7v0.2l1.1,1.1L144.1,374.2z M143.5,371.1h-0.7v-2h0.7V371.1z M143.5,367.8h-0.7v-2h0.7V367.8z"/>
			</g>
			<g>
				<path class="st2" d="M206,397l-0.4-0.3l0.3-0.4l0,0l0.1,0l0.1-0.1l0,0l1.4-0.6l0.3,0.6L206,397z M204.6,395.8l-0.8-0.7l-0.8-0.3
					l0.2-0.6l0.9,0.4l0.9,0.7L204.6,395.8z M209,395.6l-0.3-0.6l1.8-0.8l0.3,0.6L209,395.6z M217,394.8l-1.7-0.1l0-0.7l1.5,0.1
					l0.3-0.1l0.3,0.6L217,394.8z M214,394.7l-2-0.1l0-0.7l2,0.1L214,394.7z M201.8,394.4l-1.9-0.7l0.2-0.6l1.9,0.7L201.8,394.4z
					 M218.6,394.1l-0.3-0.6l1.8-0.8l0.3,0.6L218.6,394.1z M198.7,393.2l-1.9-0.7l0.2-0.6l1.9,0.7L198.7,393.2z M221.7,392.8
					l-0.3-0.6l1-0.5l0.3,0.6L221.7,392.8z M195.6,392l-1.6-0.6l-0.3-0.2l0.3-0.6l0.3,0.2l1.5,0.6L195.6,392z M192.5,390.6l-1.7-1
					l0.3-0.6l1.7,1L192.5,390.6z M189.6,388.9l-1.7-1l0.3-0.6l1.7,1L189.6,388.9z"/>
			</g>
			<g>
				<path class="st2" d="M282.1,484.5h-1.9v-0.7h1.9V484.5z M278.8,484.2l-1.9-0.5l0.2-0.6l1.9,0.5L278.8,484.2z M275.6,483
					l-0.6-1.9l0.6-0.2l0.6,1.9L275.6,483z M275.4,479.7h-0.7v-2h0.7V479.7z M275.4,476.3h-0.7v-1.1l-0.1-0.9l0.7-0.1l0.1,0.9
					L275.4,476.3z M253.5,474h-2v-0.7h2V474z M250.1,474h-2v-0.7h2V474z M246.8,474h-2v-0.7h2V474z M243.5,474h-0.2l-1.9-0.2
					l0.1-0.7l1.8,0.2l0.1,0V474z M254.8,474l0-0.7c0.8,0,1.4-0.1,1.9-0.2l0.1,0.7C256.3,473.9,255.6,473.9,254.8,474z M240.1,473.7
					l-2-0.2l0.1-0.7l2,0.2L240.1,473.7z M236.8,473.3l-2-0.2l0.1-0.7l2,0.2L236.8,473.3z M274.5,473l-0.2-2l0.7-0.1l0.2,2L274.5,473
					z M258.3,472.9l-0.6-0.2c0.1-0.4,0.3-1,0.8-1.9l0.6,0.3c-0.5,1.1-0.7,1.5-0.7,1.7c0,0,0,0,0,0
					C258.3,472.8,258.3,472.9,258.3,472.9z M233.6,472.2l-1.1-1.7l0.6-0.4l1.1,1.7L233.6,472.2z M259.6,470l-0.6-0.3
					c0.9-1.7,0.9-1.7,1.1-1.8l0.2,0l0,0.4l0.1,0.1C260.5,468.4,260.1,469.1,259.6,470z M231.7,469.8l-1.7-1l0.3-0.6l1.7,1
					L231.7,469.8z M274.1,469.7l-0.1-1.3l-0.3-0.1l0.2-0.6l0.6,0.2l0.2,1.7L274.1,469.7z M261.7,468.4l-0.1-0.7l2-0.2l0.1,0.7
					L261.7,468.4z M228.8,468.1l-0.2-0.1l-0.4-2l0.7-0.1l0.4,1.9l-0.2,0.1L228.8,468.1z M272.5,467.8l-1.9-0.7l0.2-0.6l1.9,0.7
					L272.5,467.8z M265.1,467.6l-0.4-0.5l1.6-1.2l0.4,0.5L265.1,467.6z M269.4,466.6l-1.9-0.7l0.2-0.6l1.9,0.7L269.4,466.6z
					 M227.8,464.7l-0.4-2l0.7-0.1l0.4,2L227.8,464.7z"/>
			</g>
			<g>
				<path class="st2" d="M256,1005.5l-0.1-0.7l2-0.4l0.1,0.7L256,1005.5z M254.6,1005.1l-1.9-0.7l0.2-0.6l1.9,0.7L254.6,1005.1z
					 M259.3,1004.8l-0.1-0.7l1.1-0.2l0.5-0.5l0.4,0.5l-0.7,0.6L259.3,1004.8z M251.5,1003.8l-1.2-0.5l-0.6-0.5l0.4-0.5l0.6,0.5
					l1,0.4L251.5,1003.8z M262.2,1003.1l-0.4-0.5l1-0.8l0.2-0.5l0.6,0.3l-0.3,0.6L262.2,1003.1z M248.7,1002l-1.5-1.3l0.4-0.5
					l1.5,1.3L248.7,1002z M264.2,1000.3l-0.6-0.3l0.8-1.8l0.6,0.3L264.2,1000.3z M246.1,999.9l-1.3-1.1l-0.3-0.1l0.3-0.6l0.3,0.2
					l1.3,1.1L246.1,999.9z M243.4,998l-1.7-1l0.3-0.6l1.7,1L243.4,998z M265.6,997.8l-0.2-0.6l1.9-0.6l0.2,0.6L265.6,997.8z
					 M268.8,996.8l-0.2-0.6l0.5-0.2l0.5-1l0.6,0.3l-0.6,1.3L268.8,996.8z M240.5,996.3l-1.5-0.9l-0.1,0l0.1-0.7l0.3,0.1l1.6,0.9
					L240.5,996.3z M237.6,995.2l-2-0.3l0.1-0.7l2,0.3L237.6,995.2z M234.1,994.4l-0.8-1.8l0.6-0.3l0.8,1.8L234.1,994.4z M270.7,994
					l-0.6-0.3l0.4-1l0.1-0.8l0.7,0.1l-0.1,1L270.7,994z M221.5,993.4l-1.7-0.5l0.2-0.6l1.5,0.4l0.2-0.1l0.4,0.6L221.5,993.4z
					 M218.5,992.5l-1.9-0.5l0.2-0.6l1.9,0.5L218.5,992.5z M223,992.4l-0.4-0.6l1.7-1.1l0.3,0.6l-0.4,0.3L223,992.4z M215.2,991.6
					l-1.6-1.3l0.4-0.5l1.6,1.3L215.2,991.6z M232.7,991.4l-0.7-1.7l0.1,0l0-0.4l0.4,0l0.8,1.8L232.7,991.4z M271.5,990.7l-0.7-0.1
					l0.3-2l0.7,0.1L271.5,990.7z M225.9,990.7l-0.3-0.6l1.7-1l0.2,0l0,0.5l0.1,0.1L225.9,990.7z M230.8,989.9l-2-0.1l0-0.7l2,0.1
					L230.8,989.9z M212.6,989.5l-1.3-1.1l-0.1,0l0.1-0.6l0.3,0.1l1.4,1.2L212.6,989.5z M209.8,988.1l-1.9-0.4l0.1-0.6l1.9,0.4
					L209.8,988.1z M271.9,987.4l-0.7-0.1l0.3-2l0.5-0.1l0.1,0.4l0.1,0l0,0.1l0,0.1l0,0L271.9,987.4z M206.8,986.6l-0.5-1.9l0.6-0.2
					l0.5,1.9L206.8,986.6z M273.4,985.6l-0.2-0.6l1.9-0.5l0.2,0.6L273.4,985.6z M276.7,984.7l-0.2-0.6l1.9-0.5l0.2,0.6L276.7,984.7z
					 M206,983.4l-0.7-1.9l0.6-0.2l0.7,1.9L206,983.4z M279.7,983.3l-0.6-0.2l0.6-1.9l0.6,0.2L279.7,983.3z M204.9,980.3l-0.7-1.9
					l0.6-0.2l0.7,1.9L204.9,980.3z M280.7,980.1l-0.6-0.2l0.3-1.1V978h0.7l0,0.9L280.7,980.1z M203.5,977.8l-1.8-0.9l0.3-0.6
					l1.8,0.9L203.5,977.8z M183.8,977.5h-0.7v-0.6h0.7V977.5z M281.1,976.7h-0.7v-2h0.7V976.7z M200.5,976.3l-1.7-0.8l0.1-0.2l0-0.4
					l0.2,0l1.7,0.8L200.5,976.3z M183.8,975.5h-0.7v-0.7l-0.5-1.1l0.6-0.3l0.5,1.3V975.5z M197.4,975.4l-2-0.2l0.1-0.7l2,0.2
					L197.4,975.4z M194.1,975l-2-0.2l0.1-0.7l2,0.2L194.1,975z M190.8,974.2l-1.7-1l0.3-0.6l1.7,1L190.8,974.2z M280.1,973.5
					l-0.7-1.9l0.6-0.2l0.7,1.9L280.1,973.5z M187.9,972.6l-0.3-0.2l-0.9-1.6l0.6-0.3l0.8,1.4l0.2,0.1L187.9,972.6z M182.2,972.5
					l-0.8-1.8l0.6-0.3l0.8,1.8L182.2,972.5z M279.1,970.7l-1.8-0.9l0.3-0.6l1.8,0.9L279.1,970.7z M186.1,969.7l-1.4-1.4l0.5-0.5
					l1.5,1.4l-0.3,0.2L186.1,969.7z M180.9,969.5l-0.9-1.8l0.6-0.3l0.9,1.8L180.9,969.5z M276.1,969.1l-1-0.5l-0.7-0.7l0.5-0.4
					l0.6,0.7l0.8,0.4L276.1,969.1z M183.7,967.4l-0.9-0.8l-0.2-1l0.6-0.1l0.2,0.8l0.7,0.7L183.7,967.4z M273.6,966.8l-1.3-1.5
					l0.5-0.4l1.3,1.5L273.6,966.8z M179.4,966.5l-0.9-1.8l0.6-0.3l0.9,1.8L179.4,966.5z M182.3,964.3l-0.4-1.9l0.6-0.1l0.4,1.9
					L182.3,964.3z M272.1,964.1h-0.7v-2h0.7V964.1z M177.9,964l-2-0.4l0.1-0.7l2,0.4L177.9,964z M174.6,963.3l-1.6-0.4l-0.3-0.5
					l0.6-0.4l0.2,0.3l1.3,0.3L174.6,963.3z M181,961.7l-1.5-1.3l0.4-0.5l1.5,1.3L181,961.7z M172,961.3l-1.1-1.7l0.6-0.4l1.1,1.7
					L172,961.3z M272.1,960.7h-0.7v-1.8l0.3-0.3l0.5,0.4l-0.1,0.1V960.7z M178.4,959.5l-0.5-0.4l-1.2-0.4l0.2-0.6l1.4,0.5l0.5,0.4
					L178.4,959.5z M171.7,958.4l-0.6-0.3l1-1.8l0.5,0.2l-0.1,0.4l0.1,0L171.7,958.4z M175.5,958.3l-1.9-0.7l0.2-0.6l1.9,0.7
					L175.5,958.3z M273.1,958l-0.5-0.4l1.2-1.6l0.5,0.4L273.1,958z M275.1,955.4l-0.5-0.4l0.5-0.7l0.6-0.9l0.5,0.4l-0.7,0.9
					L275.1,955.4z M277.1,952.6l-0.5-0.4l1.1-1.6l0.5,0.4L277.1,952.6z M279,949.9l-0.5-0.4l0.6-0.8l1-0.6l0.3,0.6l-0.9,0.5
					L279,949.9z M281.5,948l-0.3-0.6l1.7-1l0.3,0.6L281.5,948z M284.3,946.3l-0.3-0.6l0.7-0.4l0.8-0.8l0.5,0.5l-0.9,0.8L284.3,946.3
					z M286.9,944.1l-0.5-0.5l0.7-0.7v-0.7h0.7v1L286.9,944.1z M287.9,940.9h-0.7v-1.2l0.9-0.6l0.4,0.5l-0.6,0.4V940.9z M289.6,938.8
					l-0.4-0.5l1-0.7v-0.4h0.7v0.8L289.6,938.8z M290.9,935.8h-0.7v-2h0.7V935.8z M290.9,932.5h-0.7v-2h0.7V932.5z M290.9,929.2h-0.7
					v-0.7h2v0.7L290.9,929.2z M295.9,929.2h-2.3v-0.7h2v0.3l0.3,0V929.2z M295.9,927.5h-0.7v-2h0.7V927.5z M295.9,924.4l-0.4-0.5
					l1.6-1.3l0.4,0.5L295.9,924.4z M298.5,922.3l-0.4-0.5l0.3-0.2l0.5-1.4l0.6,0.2l-0.6,1.6L298.5,922.3z M299.9,919.2l-0.6-0.2
					l0.7-1.9l0.6,0.2L299.9,919.2z M311.8,918.8l-1.3-1l0.4-0.5l1,0.8l0.4-0.1l0.3,0.6L311.8,918.8z M313.8,918l-0.3-0.6l1.3-0.5
					v-0.2h0.7v0.6L313.8,918z M309.5,916.9l-1.6-1.2l0.4-0.5l1.6,1.2L309.5,916.9z M301,916.2l-0.5-0.4l1.2-1.6l0.5,0.4L301,916.2z
					 M315.4,915.3h-0.7v-2h0.7V915.3z M307,914.9l-1.8-1l0.3-0.6l1.8,1L307,914.9z M303,913.5l-0.5-0.4l0.8-1l1.1,0.6l-0.3,0.6
					l-0.6-0.3L303,913.5z M315.7,912.6l-0.3-0.6l1.8-0.8l0.3,0.6L315.7,912.6z M318.8,911.2l-0.4-0.5l1.5-1.3l0.4,0.5L318.8,911.2z
					 M321.3,909l-0.4-0.5l0.6-0.5l0.5-0.9l0.6,0.3l-0.6,1.1L321.3,909z M323.2,906.1l-0.6-0.3l0.3-0.5h1.8v0.7h-1.4L323.2,906.1z
					 M327.5,906h-1.5v-0.7h1.3l0.5-0.2l0.3,0.6L327.5,906z M329.4,905.2l-0.3-0.6l1.8-0.8l0.3,0.6L329.4,905.2z M331.4,903.3
					l-0.4-1.9l0.6-0.1l0.4,1.9L331.4,903.3z M330.6,900.1l-0.3-1.2l-0.1-0.8l0.7-0.1l0.1,0.8l0.3,1.2L330.6,900.1z M330.1,896.8
					l-0.3-2l0.7-0.1l0.3,2L330.1,896.8z M330.3,893.5l-0.7,0l0.1-2l0.7,0L330.3,893.5z M330.4,890.1l-0.7,0l0.1-2l0.7,0L330.4,890.1
					z M330.6,886.8l-0.7,0l0.1-0.4l0.8-1.5l0.6,0.3l-0.7,1.4L330.6,886.8z M332,883.9l-0.6-0.3l0.9-1.8l0.6,0.3L332,883.9z
					 M333.4,880.9l-0.6-0.3l0.4-0.8l0.3-1l0.6,0.2l-0.3,1.1L333.4,880.9z M334.5,877.7l-0.6-0.2l0.5-1.9l0.6,0.2L334.5,877.7z
					 M335.4,874.9l-0.2-0.6l1.9-0.7l0.2,0.6L335.4,874.9z M338.5,873.8l-0.2-0.6l1.8-0.7l0.1,0.1l0.4,0.2l-0.1,0.2L338.5,873.8z
					 M341.2,871.7l-0.6-0.3l1-1.7l0.6,0.3L341.2,871.7z M342.8,868.8l-0.6-0.3l0.1-0.2l1.1-1.4l0.5,0.4l-1.1,1.4L342.8,868.8z
					 M344.9,866.2l-0.5-0.4l1.3-1.5l0.5,0.4L344.9,866.2z M347,863.7l-0.5-0.4l1.3-1.5l0.5,0.4L347,863.7z M349.1,861.2l-0.4-0.6
					l1.7-1.1l0.4,0.6L349.1,861.2z M351.9,859.4l-0.4-0.6l1.7-1.1l0.4,0.6L351.9,859.4z M354.6,857.5l-0.4-0.6l1.7-1.1l0.4,0.6
					L354.6,857.5z M357.4,855.7l-0.4-0.6l0.5-0.3h1.6v0.7h-1.4L357.4,855.7z M362.2,855.5h-1.7v-0.7h1.4l0.2-0.2l0.4,0.5
					L362.2,855.5z M363.6,854.3l-0.4-0.5l1.6-1.3l0.4,0.5L363.6,854.3z M364.5,851.6l-0.5-1.9l0.3-0.1l0.3-0.2l0.1,0.2l0.5,1.9
					L364.5,851.6z M363.2,848.7l-1.1-1.5l0,0l0,0l0,0l0.4-0.5l0.2,0.1l1.1,1.5L363.2,848.7z M361,846.4l-1.7-1.1l0.4-0.6l1.7,1.1
					L361,846.4z M358.3,844.5l-1-0.7l0.3-1.2l0.6,0.2l-0.2,0.8l0.6,0.4L358.3,844.5z M358.5,841.5l-0.6-0.2l0.2-0.8l-0.4-0.8
					l0.6-0.3l0.6,1L358.5,841.5z M357,838.6l-0.7-1.2l-0.3-0.1l0.3-0.6l0.5,0.2l0.8,1.4L357,838.6z M354.8,836.6l-1.8-0.8l0.3-0.6
					l1.8,0.8L354.8,836.6z M450.5,835.5h-2v-0.7h1.8v0.1l0.4,0.3L450.5,835.5z M447.2,835.5l-1.7,0l-0.4-0.2l0.3-0.6l0.3,0.1h1.5
					V835.5z M351.8,834.9l-1.1-1.7l0.6-0.4l1.1,1.7L351.8,834.9z M443.9,834.8L442,834l0.3-0.6l1.8,0.8L443.9,834.8z M451.5,834.2
					l-0.5-0.4l1.2-1.6l0.5,0.4L451.5,834.2z M440.8,833.5l-0.4-0.2l-1.3-1.1l0.4-0.5l1.3,1.1l0.2,0.1L440.8,833.5z M349.9,832.2
					l-1.2-1.8l0.3-0.3l0.2,0.3l0.2-0.1l1.1,1.6L349.9,832.2z M453.6,831.6l-0.5-0.4l0.8-1.1l0.2-0.5l0.6,0.3l-0.3,0.6L453.6,831.6z
					 M438.2,831.3l-1.5-1.3l0.4-0.5l1.5,1.3L438.2,831.3z M416.3,831.2L415,831l0.1-0.7l1,0.1l0.6-0.5l0.4,0.5L416.3,831.2z
					 M413.7,830.9l-2-0.2l0.1-0.7l2,0.2L413.7,830.9z M410.4,830.5l-2-0.2l0.1-0.7l2,0.2L410.4,830.5z M407.1,830l-2-0.3l0.1-0.7
					l2,0.3L407.1,830z M418.1,829.7l-0.4-0.5l0.8-0.7l0.3-0.7l0.6,0.2l-0.3,0.9L418.1,829.7z M350.4,829.7l-0.5-0.5l1.5-1.4l0.5,0.5
					L350.4,829.7z M403.8,829.5l-2-0.3l0.1-0.7l2,0.3L403.8,829.5z M435.7,829.1l-1.4-1.5l0.5-0.5l1.4,1.5L435.7,829.1z
					 M382.9,829.1l-1-0.2l0.1-0.7l0.9,0.2l1-0.1l0.1,0.7L382.9,829.1z M400.5,829l-2-0.1l0-0.7l2,0.1L400.5,829z M385.3,828.8
					l-0.1-0.7l2-0.2l0.1,0.7L385.3,828.8z M397.2,828.8l-2-0.1l0-0.7l2,0.1L397.2,828.8z M380.6,828.6l-2-0.4l0.1-0.7l2,0.4
					L380.6,828.6z M455.2,828.6l-0.6-0.3l0.8-1.8l0.6,0.3L455.2,828.6z M393.9,828.6l-2-0.1l0-0.7l2,0.1L393.9,828.6z M388.6,828.4
					l-0.1-0.7l1.4-0.1l0.7,0l0,0.7l-0.6,0L388.6,828.4z M354.9,828.3h-2v-0.7h2V828.3z M377.3,828l-1.5-0.3l-0.3-0.8l0.6-0.2
					l0.2,0.4l1.1,0.2L377.3,828z M356.2,827.5l-0.4-0.5l1.5-1.2l0.2,0l0,0.6l0,0.1l0,0l0,0l0,0L356.2,827.5z M433.5,826.9l-2-0.3
					l0.1-0.7l2,0.3L433.5,826.9z M419.9,826.8l-0.6-0.2l0.6-1.5l0.7-0.2l0.2,0.6l-0.3,0.1L419.9,826.8z M430.2,826.5l-2-0.3l0.1-0.7
					l2,0.3L430.2,826.5z M359,826.3l-0.1-0.7l2-0.2l0.1,0.7L359,826.3z M362.3,826l0-0.5l-0.1-0.1l0.1-0.1l0,0l0,0l1.2-1.3l0.5,0.4
					l-1.3,1.5L362.3,826z M426.8,826l-1.9-0.7l0.2-0.6l1.9,0.7L426.8,826z M375.1,825.6l-0.7-1.9l0.6-0.2l0.7,1.9L375.1,825.6z
					 M456.6,825.5l-0.6-0.3l0.8-1.8l0.6,0.3L456.6,825.5z M422,825.1l-0.2-0.6l1.8-0.5l0.4,0.1l-0.2,0.6l-0.2-0.1L422,825.1z
					 M364,823.2l-0.1-2l0.7,0l0.1,2L364,823.2z M457.9,822.5l-0.6-0.3l0.3-0.8l-0.1-1l0.7-0.1l0.2,1.2L457.9,822.5z M375,822.4
					l-0.7-0.1l0.2-2l0.7,0.1L375,822.4z M363.8,819.9l0-0.6l0.7-1.4l0.6,0.3l-0.7,1.3l0,0.4L363.8,819.9z M374.5,819.3l-1.1-1.6
					l0.5-0.4l1.1,1.6L374.5,819.3z M457.3,819.2l-0.3-2l0.7-0.1l0.3,2L457.3,819.2z M365.7,817.1l-0.6-0.3l0.9-1.7l0.5,0l0,0.7
					l-0.1,0L365.7,817.1z M372.5,816.6l-0.4-0.6l-0.9,0l0-0.7l1.2,0l0.6,0.9L372.5,816.6z M456.8,815.9l-0.3-2l0.7-0.1l0.3,2
					L456.8,815.9z M369.9,815.9l-2-0.1l0-0.7l2,0.1L369.9,815.9z M457.3,812.6l-0.7-0.1l0.3-2l0.7,0.1L457.3,812.6z M457.7,809.3
					l-0.7-0.1l0.3-2l0.7,0.1L457.7,809.3z M458.1,806l-0.7-0.1l0.1-1.1l-0.3-0.7l0.6-0.2l0.3,0.9L458.1,806z M456.9,802.8l-0.6-1.9
					l0.6-0.2l0.6,1.9L456.9,802.8z M455.9,799.7l-0.4-1.3l-0.3-0.2l0.3-0.6l0.5,0.3l0.5,1.5L455.9,799.7z M453.9,797.5l-1.7-1
					l0.3-0.6l1.7,1L453.9,797.5z M451,795.9l-1.7-1l0.3-0.6l1.7,1L451,795.9z M448.1,794.3l-0.3-0.2l-1.5-0.3l0.2-0.6l1.6,0.4
					l0.4,0.2L448.1,794.3z M445,793.4l-1.9-0.5l0.2-0.6l1.9,0.5L445,793.4z M441.8,792.7l-1.9-0.5l0.2-0.6l1.9,0.5L441.8,792.7z
					 M438.5,791.9l-1.9-0.4l0.1-0.7l2,0.4L438.5,791.9z M435.3,791.2l-2-0.4l0.1-0.7l2,0.4L435.3,791.2z M432,790.5l-2-0.4l0.1-0.7
					l2,0.4L432,790.5z M428.8,789.8l-2-0.4l0.1-0.7l2,0.4L428.8,789.8z M425.5,788.7l-1.8-0.9l0.3-0.6l1.8,0.9L425.5,788.7z
					 M422.6,787.1l-1-0.6l-0.6-0.8l0.5-0.4l0.5,0.7l0.8,0.4L422.6,787.1z M420.2,784.7l-1.2-1.6l0.5-0.4l1.2,1.6L420.2,784.7z
					 M418.6,781.7l-0.4-2l0.7-0.1l0.4,2L418.6,781.7z M417.9,778.4l-0.4-2l0.7-0.1l0.4,2L417.9,778.4z M417.2,775.2l-0.2-1.1l0-0.9
					l0.7,0l0,0.8l0.2,1L417.2,775.2z M417.7,771.8l-0.7,0l0.1-2l0.7,0L417.7,771.8z M417.9,768.5l-0.7,0l0.1-2l0.7,0L417.9,768.5z
					 M418.1,765.2l-0.7-0.1l0.3-2l0.7,0.1L418.1,765.2z M418.7,761.9l-0.7-0.1l0.4-2.2h0.3l0,0.3l0.3,0L418.7,761.9z M423.5,760.3
					h-0.2l0-0.3l-0.2-0.2l1.3-1.5l0.5,0.4L423.5,760.3z M422,760.3h-2v-0.7h2V760.3z M425.8,757.6l-0.5-0.4l0.8-1l-0.1-0.4l0.7-0.1
					l0.1,0.7L425.8,757.6z M425.9,754.5l-0.1-1.2l-0.4-0.4l0.5-0.5l0.6,0.5l0.2,1.4L425.9,754.5z M424.4,752l-1.5-1.4l0.5-0.5
					l1.5,1.4L424.4,752z M422,749.6l-1.2-1.6l0.5-0.4l1.2,1.6L422,749.6z M420.1,746.7l-0.3-2l0.7-0.1l0.3,2L420.1,746.7z
					 M419.6,743.4l-0.3-2l0.7-0.1l0.3,2L419.6,743.4z M419.1,740.1l-0.1-0.4l-0.4-1.5l0.6-0.2l0.4,1.5l0.1,0.5L419.1,740.1z
					 M418.3,736.9l-0.4-1.3l-0.3-0.5l0.6-0.3l0.3,0.6l0.4,1.4L418.3,736.9z M417.1,734l-1-1.7l0.6-0.3l1,1.7L417.1,734z
					 M415.1,732.4h-2v-0.7h2V732.4z M411.7,732.4l-1.2,0l-0.9-0.3l0.2-0.6l0.8,0.3h1V732.4z M408.4,731.6l-1.9-0.7l0.2-0.6l1.9,0.7
					L408.4,731.6z M405.5,729.8l-1.2-1.6l0.5-0.4l1.2,1.6L405.5,729.8z M403.4,727.2l-0.9-1.1l-0.1-0.7l0.7-0.1l0.1,0.6l0.8,1
					L403.4,727.2z M402.2,724.1l-0.4-2.2h0.5v0.3l0.2,0l0.4,1.8L402.2,724.1z M404.8,722.5h-1.3v-0.7h1.1l0.7-0.3l0.2,0.6
					L404.8,722.5z M406.9,721.7l-0.2-0.6l1.2-0.5l0-0.3l0.7,0l0,0.7L406.9,721.7z M408.6,719.1l-0.7,0l0.1-2l0.7,0L408.6,719.1z
					 M408.8,715.7l-0.7,0l0.1-2l0.7,0L408.8,715.7z M408,712.7l-1.2-1.6l0.5-0.4l1.2,1.6L408,712.7z M406,710l-1.2-1.6l0.5-0.4
					l1.2,1.6L406,710z M404,707.3l-1.2-1.6l0.5-0.4l1.2,1.6L404,707.3z M402.1,704.5l-0.3-2l0.7-0.1l0.3,2L402.1,704.5z
					 M401.6,701.2l-0.3-2l0.7-0.1l0.3,2L401.6,701.2z M401,697.9l-0.3-2l0.7-0.1l0.3,2L401,697.9z M401.6,694.7l-0.6-0.2l0.6-1.9
					l0.6,0.2L401.6,694.7z M402.6,691.5l-0.6-0.2l0.6-1.9l0.6,0.2L402.6,691.5z M402.6,688.3l-0.3-2l0.7-0.1l0.3,2L402.6,688.3z
					 M402.2,685.1l-1.7-0.6l0.2-0.6l1.9,0.6l0.1,0.4l-0.4,0.1L402.2,685.1z M399.2,684.1l-0.6-0.2l-0.4-1.7l0.6-0.1l0.3,1.3l0.3,0.1
					L399.2,684.1z M397.9,680.9l-0.3-1.1h-0.3v-0.7h0.9l0.4,1.6L397.9,680.9z M396,679.8h-2v-0.7h2V679.8z M392.7,679.1l-1.5-1.3
					l0.4-0.5l1.5,1.3L392.7,679.1z M390.2,676.9l-0.7-0.7l-0.6-0.9l0.6-0.4l0.6,0.9l0.6,0.6L390.2,676.9z M388.2,674.2l-1.1-1.7
					l0.6-0.4l1.1,1.7L388.2,674.2z M386.4,671.4l-1.1-1.7l0.6-0.3l0,0l0,0l0,0l1,1.6L386.4,671.4z M384.8,668.4l-0.7-1.9l0.6-0.2
					l0.7,1.9L384.8,668.4z M383.6,665.3l-0.1-0.3h-1.2v-0.7h1.7l0.3,0.7L383.6,665.3z M380.9,664.9h-2v-0.7h2V664.9z M377.5,664.6
					l-1.8-0.8l0.3-0.6l1.8,0.8L377.5,664.6z M374.8,662.6l-0.7-1.9l0.6-0.2l0.7,1.9L374.8,662.6z M374.9,659.8l-0.5-0.5l1.4-1.5
					l0.5,0.5L374.9,659.8z M377.2,657.3l-0.5-0.5l0.3-0.4l1.7-0.3l0.1,0.7l-1.5,0.3L377.2,657.3z M380.2,656.6l-0.1-0.7l2-0.4
					l0.1,0.7L380.2,656.6z M383.4,656l-0.1-0.7l0.7-0.1l1.4,0v0.7h-1.3L383.4,656z M391.3,655.8H390v-0.7h0.9l0.4-0.6l0.6,0.3
					L391.3,655.8z M388.7,655.8h-2v-0.7h2V655.8z M392.6,653.7l-0.6-0.3l0.8-1.3l0-0.1l0.1-0.1l0,0l0.5-0.2l0.2,0.4L392.6,653.7z
					 M392.3,650.7l-0.7-1.8l0.2-0.1l0.2-0.4l0.2,0.1l0.8,1.9L392.3,650.7z M390.4,648.6l-1.8-0.8l0.3-0.6l1.8,0.8L390.4,648.6z
					 M387.4,647.3l-1-0.4l-0.9-0.3l0.2-0.6l0.9,0.3l1,0.4L387.4,647.3z M384.2,646.2l-1.9-0.6l0.2-0.6l1.9,0.6L384.2,646.2z
					 M381,645.3L380,645l-0.9-0.2l0.2-0.6l0.9,0.2l1.1,0.3L381,645.3z M377.8,644.5l-1.9-0.5l0.2-0.6l1.9,0.5L377.8,644.5z
					 M374.6,643.7l-0.2-0.1l-1.1-1.7l0.5-0.4l1.1,1.6l-0.1,0.1L374.6,643.7z M372.5,640.9l-0.2-0.2h-1.4V640h1.7l0.4,0.5
					L372.5,640.9z M369.6,640.6h-2V640h2V640.6z M366.2,640.1l-1.7-1l0.3-0.6l1.7,1L366.2,640.1z M363.4,638.3l-1.4-1.4l0.5-0.5
					l1.4,1.4L363.4,638.3z M361,636l-1.4-1.4l0.5-0.5l1.4,1.4L361,636z M358.8,633.3l-0.8-1.8l0.6-0.3l0.8,1.8L358.8,633.3z
					 M358.6,630.8l-0.2-0.6l1.9-0.6l0.2,0.6L358.6,630.8z M361.8,629.8l-0.2-0.6l0.4-0.1l0.4-1.2l0.6,0.2l-0.5,1.5L361.8,629.8z
					 M363.5,626.8l-0.6-0.2l0.2-0.6l0.1-1.3l0.7,0l-0.1,1.4L363.5,626.8z M363.8,623.4l-0.7,0l0.1-2l0.7,0L363.8,623.4z M364,620.1
					l-0.7,0l0-0.6l-0.3-1.3l0.6-0.2l0.4,1.4L364,620.1z M362.7,616.9l-0.5-1.9l0.6-0.2l0.5,1.9L362.7,616.9z M361.8,613.7l-0.3-1.1
					l-0.5-0.3l0.3-0.6l0.8,0.4l0.4,1.4L361.8,613.7z M359.8,611.7l-1.8-0.9l0.3-0.6l1.8,0.9L359.8,611.7z M357.6,609.8l-0.7,0l0.1-2
					l0.7,0L357.6,609.8z M357.9,606.5l-0.7,0l0.1-1.9l0.5-0.1l0.1,0.4l0,0l0.1,0.2l-0.1,0L357.9,606.5z M359.3,604.7l-0.2-0.6
					l1.9-0.5l0.2,0.6L359.3,604.7z M362.6,603.6l-0.3-0.6l1.8-1l0.3,0.6L362.6,603.6z M365.5,602l-0.3-0.6l1.8-1l0.3,0.6L365.5,602z
					 M368.4,600.4l-0.3-0.6l0.3-0.2h1.8v0.7h-1.6L368.4,600.4z M376.9,600.4h-2v-0.7h2V600.4z M373.6,600.4h-2v-0.7h2V600.4z
					 M378.2,599.6l-0.4-0.5l1.5-1.3l0.4,0.5L378.2,599.6z M380.7,597.5l-0.4-0.5l0.5-0.4l0.8-1l0.5,0.4l-0.8,1.1L380.7,597.5z
					 M382.9,594.8l-0.5-0.4l1.1-1.6l0.3-0.1l0.2,0.6l0,0l0,0l-0.1,0L382.9,594.8z M385.2,593l-0.2-0.6l1.9-0.6l0.2,0.6L385.2,593z
					 M388.4,591.7l-0.4-0.6l1.7-1.1l0.4,0.6L388.4,591.7z M390.9,589.4h-0.7v-2h0.7V589.4z M390.9,586.1h-0.7l0-1.8l0.1-0.3l0.6,0.2
					l-0.1,0.3V586.1z M391.4,583l-0.6-0.2l0.7-1.9l0.6,0.2L391.4,583z M392.6,579.9l-0.6-0.2l0.4-0.9l0.8-0.8l0.5,0.5l-0.8,0.8
					L392.6,579.9z M394.6,577.4l-0.5-0.5l1.4-1.4l0.5,0.5L394.6,577.4z M397,575.1l-0.4-0.5l1.5-1.3l0.4,0.5L397,575.1z M399.5,573
					l-0.4-0.5l0.8-0.7l0-0.6l0.7,0l0,0.9L399.5,573z M400.6,569.8l-0.7,0l0.1-2l0.7,0L400.6,569.8z M400.5,566.5L400.5,566.5
					l-0.5-0.1l0-0.5l1.8-0.7l0.2,0.6l-1.4,0.5l0,0l-0.1,0L400.5,566.5z M403.4,565.4l-0.2-0.4l-0.1,0l0.4-1.8l0.7,0.1l-0.4,2
					L403.4,565.4z M404.4,562.1l-0.7-0.1l0.4-1.6l0.3-0.4l0.6,0.4l-0.2,0.4L404.4,562.1z M405.7,559.2l-0.6-0.4l1.1-1.7l0.6,0.4
					L405.7,559.2z M407.5,556.4L407,556l1.1-1.7l0.6,0.4L407.5,556.4z M409.3,553.6l-0.6-0.4l0.1-0.1l0.4-1.7l0.6,0.2l-0.5,1.9
					L409.3,553.6z M410.2,550.3l-0.6-0.2l0.5-1.9l0.6,0.2L410.2,550.3z M414,547.2h-0.1l0-0.3l-0.2-0.2l1.5-1.3l0.4,0.5L414,547.2z
					 M412.5,547.2h-1.9V547l-0.4-0.1l0.1-0.4h2.1V547.2z M416.6,544.9l-0.4-0.5l1.5-1.3l0.4,0.5L416.6,544.9z M419,542.5l-0.6-0.4
					l1.1-1.7l0.6,0.4L419,542.5z M420.7,539.6l-0.6-0.4l0.3-0.4l0.9-1.2l0.5,0.4l-0.9,1.2L420.7,539.6z M422.7,537l-0.5-0.4l1.2-1.6
					l0.5,0.4L422.7,537z M424.6,534.4l-0.1-0.2l-0.3-0.3l0.1-0.1l2-0.6l0.2,0.6L424.6,534.4z M427.8,533.5l-0.2-0.6l1.9-0.6l0.2,0.6
					L427.8,533.5z M430.9,532.5l-0.2-0.6l1.9-0.6l0.2,0.6L430.9,532.5z M433.9,530.9l-0.6-0.2l0.5-1.9l0.6,0.2L433.9,530.9z
					 M434.7,527.7l-0.6-0.2l0.5-1.9l0.6,0.2L434.7,527.7z M435.4,524.4l-0.6-0.2l0.2-1v-0.8h0.7l0,1L435.4,524.4z M435.7,521.1H435
					v-2h0.7V521.1z M435.7,517.7H435v-2h0.7V517.7z M434.1,515.2l-1.6-1.2l0.4-0.5l1.6,1.2L434.1,515.2z M432.5,512.7h-0.7v-2h0.7
					V512.7z M327.8,511.7l-0.4-0.1l0.2-0.6l0.2,0.1l1.6-0.3l0.1,0.7L327.8,511.7z M326.2,511.2c-0.6-0.1-1.3-0.3-1.9-0.4l0.1-0.7
					c0.7,0.1,1.3,0.3,2,0.4L326.2,511.2z M330.9,511.1l-0.1-0.7l2-0.3l0.1,0.7L330.9,511.1z M322.9,510.6c-0.7-0.1-1.3-0.2-2-0.3
					l0.1-0.7c0.7,0.1,1.3,0.2,2,0.3L322.9,510.6z M334.2,510.6l-0.1-0.7l1.5-0.2l0.3-0.2l0.4,0.5l-0.5,0.3L334.2,510.6z
					 M431.9,509.4L431.9,509.4L431.9,509.4L431.9,509.4l-1-1.5l0.5-0.4l1.1,1.6v0.3L431.9,509.4z M337.3,509.2l-0.4-0.5l1.6-1.1
					l0.4,0.5L337.3,509.2z M340,507.3l-0.4-0.5l1.6-1.1l0.4,0.5L340,507.3z M430.1,506.8l-1.1-1.6l0.5-0.4l1.1,1.6L430.1,506.8z
					 M399.6,506.5l0-0.7l2-0.1l0,0.7L399.6,506.5z M403,506.4l0-0.7l2-0.1l0,0.7L403,506.4z M398.2,506.3l-1.8-0.8l0.3-0.6l1.8,0.8
					L398.2,506.3z M406.3,506.2l0-0.7l2-0.1l0,0.7L406.3,506.2z M409.7,505.9l-0.2-0.6l1.9-0.6l0.2,0.6L409.7,505.9z M342.8,505.4
					l-0.4-0.5l1.6-1.1l0.4,0.5L342.8,505.4z M395.2,505l-1.9-0.7l0.2-0.6l1.9,0.7L395.2,505z M412.8,504.8l-0.2-0.6l1.9-0.6l0.2,0.6
					L412.8,504.8z M428,504.3l-1.5-1.4l0.5-0.5l1.5,1.4L428,504.3z M392,503.8l-1.9-0.7l0.2-0.6l1.9,0.7L392,503.8z M345.5,503.8
					l-0.3-0.6l1.8-0.8l0.3,0.6L345.5,503.8z M416,503.8l-0.2-0.6l0.2-0.1l1.2-1.1l0.4,0.5l-1.4,1.2L416,503.8z M388.9,502.7L387,502
					l0.2-0.6l1.9,0.7L388.9,502.7z M348.6,502.5l-0.3-0.6l1.8-0.8l0.3,0.6L348.6,502.5z M425.6,502.1l-1.2-1.1l-0.2-0.1l0.2-0.6
					l0.4,0.1l1.3,1.2L425.6,502.1z M385.8,501.6L385.8,501.6l-1.9-0.5l0.2-0.6l2,0.5L385.8,501.6z M418.6,501.6l-0.4-0.5l1.5-1.3
					l0.4,0.5L418.6,501.6z M351.7,501.2l-0.3-0.6l1.8-0.8l0.3,0.6L351.7,501.2z M382.6,500.8l-1.9-0.5l0.2-0.6l1.9,0.5L382.6,500.8z
					 M422.9,500.6l-1.9-0.5l0.2-0.6l1.9,0.5L422.9,500.6z M379.3,499.9l-1.9-0.5l0.1-0.7l0.1,0l1.8,0.5L379.3,499.9z M354.8,499.9
					l-0.3-0.6l1.8-0.8l0.3,0.6L354.8,499.9z M376.1,499.2l-2-0.4l0.1-0.7l2,0.4L376.1,499.2z M357.8,498.7l-0.3-0.6l1.4-0.6h0.6v0.7
					h-0.6L357.8,498.7z M372.8,498.6l-2-0.4l0.1-0.7l2,0.4L372.8,498.6z M369.6,498.2h-2v-0.7h2V498.2z M366.3,498.2h-2v-0.7h2
					V498.2z M362.9,498.2h-2v-0.7h2V498.2z"/>
			</g>
			<g>
				<path class="st2" d="M215.7,1017.3h-0.7v-0.9h0.7V1017.3z M215.8,1015.6l-0.3-0.6l1.8-0.9l0.3,0.6L215.8,1015.6z M218.8,1014.1
					l-0.4-0.6l1.7-1.1l0.4,0.6L218.8,1014.1z M221.6,1012.2l-0.4-0.6l1.7-1.1l0.4,0.6L221.6,1012.2z M224.4,1010.4l-0.4-0.6l0.5-0.3
					l1.3-0.7l0.3,0.6l-1.2,0.7L224.4,1010.4z M227.3,1008.7l-0.3-0.6l1.2-0.7v-0.2h0.7v0.6L227.3,1008.7z M228.8,1005.9h-0.7v-0.8
					l-0.5-0.8l0.6-0.3l0.6,1V1005.9z M227,1003.1l-1-1.7l0.6-0.3l1,1.7L227,1003.1z M218.6,1002.9l-0.6-0.2l0.2-0.6l0.4,0.1l1.3-0.5
					l0.2,0.6L218.6,1002.9z M216.7,1002.3l-1.9-0.5l0.2-0.6l1.9,0.5L216.7,1002.3z M221.4,1001.9l-0.1-0.3l-0.3-0.2l1.2-1.6l0.5,0.4
					L221.4,1001.9L221.4,1001.9z M225.3,1000.6l-1.9-0.6l0.2-0.6l1.9,0.6L225.3,1000.6z M215,1000.4h-0.7v-2h0.7V1000.4z"/>
			</g>
			<g>
				<path class="st4" d="M178.6,1044l-0.6-0.3l0.8-1.8l0.6,0.3L178.6,1044z M179.9,1040.9l-0.6-0.3l0.8-1.8l0.6,0.2l0,0
					L179.9,1040.9z M181.2,1037.8l-0.6-0.2l0.6-1.9l0.6,0.2L181.2,1037.8z M184.2,1035.2h-2.1v-0.7h2v0.3l0.3,0.2L184.2,1035.2z
					 M185.2,1034.1l-0.5-0.5l1.1-1.2v-0.1h0.7v0.4L185.2,1034.1z M174.9,1031.2l-0.6-0.3l0.8-1.8l0.6,0.3L174.9,1031.2z M186.5,1031
					h-0.7v-2h0.7V1031z M176.2,1028.1l-0.6-0.3l0.8-1.8l0.6,0.3L176.2,1028.1z M186.5,1027.6h-0.7v-2h0.7V1027.6z M177.6,1025.2
					l-0.5-0.4l1.2-1.6l0.5,0.4L177.6,1025.2z M185.6,1024.5l-0.9-1.8l0.6-0.3l0.9,1.8L185.6,1024.5z M179.7,1022.6l-0.5-0.4l0.3-0.4
					l1.7-0.4l0.1,0.7l-1.5,0.3L179.7,1022.6z M182.6,1021.8l-0.1-0.7l1.9-0.4l0.2,0.5l-0.4,0.2l0,0l-0.2,0.1l0,0L182.6,1021.8z"/>
			</g>
			<g>
				<path class="st2" d="M141,1046.9h-2v-0.7h2V1046.9z M137.7,1046.9h-2v-0.7h2V1046.9z M134.3,1046.7l-1.8-0.9l0.3-0.6l1.8,0.9
					L134.3,1046.7z M142.5,1046.6l-0.4-0.5l1.6-1.2l0.4,0.5L142.5,1046.6z M131.3,1045.2l-0.7-0.4l-1.1-0.1l0.1-0.7l1.3,0.1l0.8,0.4
					L131.3,1045.2z M145.1,1044.6l-0.4-0.5l1.6-1.2l0.4,0.5L145.1,1044.6z M128.2,1044.6l-1.7-0.2l-0.3,0v-0.7h0.3l1.7,0.2
					L128.2,1044.6z M124.9,1044.5h-2v-0.7h2V1044.5z M121.9,1043.2l-0.9-1.8l0.6-0.3l0.9,1.8L121.9,1043.2z M147.9,1042.8l-0.3-0.6
					l1.8-0.9l0.3,0.6L147.9,1042.8z M165.9,1041.7l-2-0.3l0.1-0.7l2,0.3L165.9,1041.7z M150.8,1041.3l-0.3-0.6l0.6-0.3h1.5v0.7h-1.3
					L150.8,1041.3z M162.6,1041.2l-2-0.1l0-0.7l2,0.1L162.6,1041.2z M159.3,1041.1l-2-0.1l0-0.7l2,0.1L159.3,1041.1z M155.9,1041.1
					h-2v-0.7h2V1041.1z M120.5,1040.2l-0.7-1.9l0.6-0.2l0.7,1.9L120.5,1040.2z M108,1039.3h-2v-0.7h1.8v0.1l0.4,0.3L108,1039.3z
					 M104.7,1039.3H104l-1.3-0.6l0.3-0.6l1.1,0.6h0.6V1039.3z M109.2,1038.1l-0.5-0.5l1.4-1.4l0.5,0.5L109.2,1038.1z M101.5,1038.1
					l-0.4-0.2l-1.1-1.3l0.5-0.4l1.1,1.2l0.2,0.1L101.5,1038.1z M119.3,1037.1l-0.1-0.4l-1-1.1l0.5-0.4l1.1,1.3l0.2,0.4L119.3,1037.1
					z M111.5,1035.7l-0.5-0.5l0.2-0.2l0.6-1.4l0.6,0.3l-0.7,1.6L111.5,1035.7z M99.2,1035.6l-0.4-0.4h-1.1v-0.7h1.4l0.6,0.7
					L99.2,1035.6z M96.3,1035.2h-2v-0.7h2V1035.2z M93,1035.2h-2v-0.7h2V1035.2z M117.3,1034.6l-0.3-0.4l-1.2-0.4l0.2-0.6l1.4,0.4
					l0.5,0.5L117.3,1034.6z M89.9,1034.1l-1.3-1.4l0-0.3l0.6,0l0,0l0.1,0l0,0.1l1.1,1.2L89.9,1034.1z M114.5,1033.4l-1.9-0.6
					l0.2-0.6l1.9,0.6L114.5,1033.4z M88.5,1031l-0.1-2l0.7,0l0.1,2L88.5,1031z M88.4,1027.7l0-1l1-0.9l0.5,0.5L89,1027l0,0.7
					L88.4,1027.7z M90.8,1025.4l-0.5-0.5l0.3-0.3l-0.2-1.2l0.7-0.1l0.3,1.6L90.8,1025.4z M90.1,1022.1l-0.4-2l0.7-0.1l0.4,2
					L90.1,1022.1z M90.8,1019.1l-0.6-0.3l0.9-1.8l0.6,0.3L90.8,1019.1z M92.3,1016.1l-0.6-0.3l0.5-1l1-0.5l0.3,0.6l-0.8,0.4
					L92.3,1016.1z M94.7,1014.3l-0.3-0.6l1.8-0.9l0.3,0.6L94.7,1014.3z M97.8,1012.5l-0.6-0.2l0.6-1.9l0.6,0.2L97.8,1012.5z
					 M98.8,1009.3l-0.6-0.2l0.4-1.3l-0.1-0.2l0.5-0.4l0.4,0.5L98.8,1009.3z M97.6,1006.5l-1.2-1.5l0.2-0.1l0-0.4l0.3,0l1.3,1.6
					L97.6,1006.5z M93.3,1005.3l0-0.7l2-0.1l0,0.7L93.3,1005.3z M92.1,1004.3l-1.3-1.6l0.5-0.4l1.3,1.6L92.1,1004.3z M90,1001.7
					l-0.4-0.5l-0.9-0.9l0.5-0.5l1,0.9l0.4,0.5L90,1001.7z M87.7,999.4l-1.4-1.4l0.5-0.5l1.4,1.4L87.7,999.4z M85.5,996.8l-0.6-1.9
					l0.6-0.2l0.6,1.9L85.5,996.8z M84.5,993.6l-0.6-1.9l0.6-0.2l0.6,1.9L84.5,993.6z M83.3,991.3h-2v-0.7h2V991.3z M80,991.3h-2
					v-0.7h2V991.3z M76.6,991.3h-0.4l-1.4-1.1l0.4-0.5l1.3,1h0.2V991.3z M73.7,989.4l-1.6-1.2l0.4-0.5l1.6,1.2L73.7,989.4z
					 M71.1,987.3l-1.4-1.4l0.5-0.5l1.4,1.4L71.1,987.3z M68.8,984.9l-1.4-1.4l0.5-0.5l1.4,1.4L68.8,984.9z M66.5,982.5l-0.2-0.2
					l-1.4-0.7l0.3-0.6l1.6,0.8l0.2,0.2L66.5,982.5z M63.6,981l-1.8-0.9l0.3-0.6l1.8,0.9L63.6,981z M60.7,979.5l-1.8-0.9l0.3-0.6
					l1.8,0.9L60.7,979.5z M57.7,978l-1.6-0.8l-0.1,0l0.1-0.7l0.3,0.1l1.6,0.8L57.7,978z M54.7,977.1l-2-0.2l0.1-0.7l2,0.2
					L54.7,977.1z M51.3,976.8l-2-0.2l0.1-0.7l2,0.2L51.3,976.8z M48,976.5l-2-0.2l0.1-0.7l2,0.2L48,976.5z M44.7,976.2l-1.4-0.1
					l-0.7-0.3l0.3-0.6l0.6,0.3l1.2,0.1L44.7,976.2z M41.5,975.2l-1.8-0.8l0.3-0.6l1.8,0.8L41.5,975.2z M38.4,973.8l-1.1-0.5h-0.6
					v-0.7l0.8,0l1.2,0.6L38.4,973.8z M35.4,973.2l-1.1,0l-0.9-0.3l0.2-0.6l0.9,0.3h1V973.2z M32.1,972.5l-1.9-0.6l0.2-0.6l1.9,0.6
					L32.1,972.5z M28.9,971.4l-1.3-0.4l-0.6-0.3l0.3-0.6l0.5,0.3l1.3,0.4L28.9,971.4z M25.8,970l-1.8-0.9l0.3-0.6l1.8,0.9L25.8,970z
					 M22.9,968.4l-0.4-0.2l-0.3-1.8l0.7-0.1l0.3,1.5l0.1,0.1L22.9,968.4z M21.9,965.1l-0.4-2l0.7-0.1l0.4,2L21.9,965.1z M22.4,961.8
					l-0.6-0.2l0.5-1.9l0.6,0.2L22.4,961.8z M23.5,959.4l-0.1-0.7l2-0.3l0.1,0.7L23.5,959.4z M26.8,958.9l-0.1-0.7l0.8-0.1l0.7-0.7
					l0.5,0.5l-0.8,0.8L26.8,958.9z M29.6,957l-0.5-0.5l0.3-0.3v-1.3h0.7v1.6L29.6,957z M30.1,953.6h-0.7v-2h0.7V953.6z M30.1,950.3
					h-0.7v-2h0.7V950.3z M30.1,946.9h-0.7v-1.7h0.9v0.7h-0.3V946.9z M33.7,945.9h-2v-0.7h2V945.9z M34,944.9l-0.1-2l0.7,0l0.1,2
					L34,944.9z M33.9,941.5l0-1.4l-0.1,0l0.2-0.6l0.5,0.2l0.1,1.9L33.9,941.5z M32.5,939.7l-1.9-0.6l0.2-0.6l1.9,0.6L32.5,939.7z
					 M29.3,938.7l-0.3-0.1l-1.6-0.6l0.2-0.6l1.9,0.7L29.3,938.7z M26.1,937.6l-1.9-0.7l-0.1-0.2l0.4-0.2l0.1-0.2l1.8,0.7L26.1,937.6
					z M23.5,935.6l-1-1.7l0.6-0.3l1,1.7L23.5,935.6z M21.7,932.7l-0.1-0.2l-1.4-0.8l0.3-0.6l1.5,0.9l0.2,0.4L21.7,932.7z
					 M14.2,931.2l-0.1-0.7l2-0.4l0.1,0.7L14.2,931.2z M19.1,931l-0.9-0.5l-0.7,0.1l-0.1-0.7l0.9-0.2l1.1,0.7L19.1,931z M14.4,929.7
					h-0.7v-2h0.7V929.7z"/>
			</g>
			<g>
				<path class="st2" d="M-21.5,921.8h-2v-0.7h2V921.8z M-24.8,921.8h-2v-0.7h2V921.8z M-28.2,921.7l-2-0.1l0-0.7l2,0.1L-28.2,921.7
					z M-31.5,921.5l-2-0.1l0-0.7l2,0.1L-31.5,921.5z M8.5,921.5c0,0-0.7-0.6-1.5-1.3l0.4-0.5c0.8,0.7,1.5,1.3,1.5,1.3L8.5,921.5z
					 M-34.8,921.3l-1.8-0.1l-0.3-0.1l0.3-0.6l0.2,0.1l1.6,0.1L-34.8,921.3z M-20.2,921l-0.4-0.5l1.6-1.2l0.4,0.5L-20.2,921z
					 M-38.1,920.4l-1.8-0.9l0.3-0.6l1.8,0.9L-38.1,920.4z M6,919.3c-1.2-1.1-1.3-1.2-1.3-1.3c0,0-0.1-0.1-0.1-0.2l0.6-0.3
					c0.1,0.1,0.1,0.2,0.1,0.2c0,0,0.2,0.2,1.2,1.1L6,919.3z M-17.5,919.1l-0.3-0.6l1.8-0.9l0.3,0.6L-17.5,919.1z M-41.1,918.9
					l-1.7-0.8l0.1-0.6l0.2,0.1l1.6,0.8L-41.1,918.9z M-10.2,918.1h-1.1v-0.7h0.9l0.8-0.4l0.3,0.6L-10.2,918.1z M-12.6,918.1h-2v-0.7
					h2V918.1z M-44.1,917.8l-1.9-0.5l0.2-0.6l1.9,0.5L-44.1,917.8z M-47.3,917l-0.3-0.1l-1.1-1.5l0.5-0.4l1,1.3l0.1,0L-47.3,917z
					 M-8,917l-0.3-0.6l1.8-0.9l0.3,0.6L-8,917z M3.8,916.6c-0.4-0.6-0.7-1.1-0.7-1.1l-0.3-0.6l0.6-0.3l0.3,0.6l0,0
					c0.1,0.2,0.4,0.5,0.7,1.1L3.8,916.6z M-5.1,915.4l-0.4-0.5l1.6-1.2l0.4,0.5L-5.1,915.4z M-49.6,914.4l-1-1.3l-0.2-0.2l0.5-0.5
					l0.2,0.2l1,1.4L-49.6,914.4z M2.1,913.8l-0.2-0.4H0.7v-0.7h1.6l0.4,0.7L2.1,913.8z M-2.4,913.4L-2.4,913.4L-2.4,913.4l-0.1-0.1
					l-0.3-0.4l0.2-0.1h2v0.7L-2.4,913.4z M-51.8,911.9l-1.4-1.4l0.5-0.5l1.4,1.4L-51.8,911.9z M-52.5,909.2l-0.6-0.3l0.8-1.8
					l0.6,0.3L-52.5,909.2z M-51.2,906.2l-0.6-0.3l1-1.8l0.6,0.3L-51.2,906.2z M-49.6,903.3l-0.6-0.3l0.5-1l0.7-0.7l0.5,0.5l-0.7,0.7
					L-49.6,903.3z M-47.5,900.8l-0.5-0.5l0.7-0.7V899h0.7v0.9L-47.5,900.8z M-46.6,897.6h-0.7v-1l-0.4-0.7l0.6-0.3l0.5,0.9V897.6z
					 M-48.4,894.8l-1-1.7l0.6-0.3l1,1.7L-48.4,894.8z M-50.1,892l-1.2-1.6l0.5-0.4l1.2,1.6L-50.1,892z M-52.2,889.4l-1.2-1.6
					l0.5-0.4l1.2,1.6L-52.2,889.4z M-54.2,886.8l-1.2-1.6l0.5-0.4l1.2,1.6L-54.2,886.8z M-56.2,884.1L-56.2,884.1l-1.6-1l0.4-0.6
					l1.7,1.1l0.1,0.1L-56.2,884.1z M-58.9,882.3l-1.7-1.1l0.4-0.6l1.7,1.1L-58.9,882.3z M-60.7,879.9h-0.7v-2h0.7V879.9z
					 M-60.5,876.7l-0.6-0.2l0.7-1.9l0.6,0.2L-60.5,876.7z M-59.4,873.9l-0.4-0.6l1.7-1.1l0.4,0.6L-59.4,873.9z M-56.7,872l-0.4-0.6
					l1.7-1.1l0.4,0.6L-56.7,872z M-51.9,870.7h-2V870h2V870.7z M-50.5,870.4l-0.3-0.6l1.8-0.8l0.3,0.6L-50.5,870.4z M-49.2,868.2
					l-0.5-1.9l0.6-0.2l0.5,1.9L-49.2,868.2z M-50.4,865.4l-1.4-1.4l0.5-0.5l1.4,1.4L-50.4,865.4z M-52.8,863.8h-2v-0.7h2V863.8z
					 M-56.2,863.8h-0.2l-1.6-1.3l0.4-0.5l1.5,1.2l-0.1,0.2V863.8z M-59,861.7l-1.6-1.3l0.4-0.5l1.6,1.3L-59,861.7z M-60.8,859.3
					h-0.7v-2h0.7V859.3z M-60.8,855.9h-0.7v-0.8l-0.7-0.5l0.4-0.5l1,0.7V855.9z M-63.3,853.9l-1.6-1.1l0.4-0.5l1.6,1.1L-63.3,853.9z
					 M-66,852l-0.8-0.6l0.4-0.5l0.8,0.6L-66,852z"/>
			</g>
			<g>
				<path class="st2" d="M-24.9,844.6l-0.8-0.3l0.3-0.6l0.6,0.2l1.1-0.3l0.2,0.6L-24.9,844.6z M-22.3,844l-0.2-0.6l1.9-0.5l0.2,0.6
					L-22.3,844z M-26.9,843.8l-1.8-0.8l0.3-0.6l1.8,0.8L-26.9,843.8z M-30,842.8l-2-0.3l0.1-0.7l2,0.3L-30,842.8z M-19.4,842.3h-0.7
					v-2h0.7V842.3z M-33.3,842.2l-1.6-0.3l-0.4-0.3l0.4-0.5l0.3,0.2l1.5,0.2L-33.3,842.2z M-36.4,840.8l-1.6-1.2l0.4-0.5l1.6,1.2
					L-36.4,840.8z M-19.4,839h-0.7v-1.1l-0.2-0.7l0.6-0.2l0.3,0.9V839z M-39,838.8l-0.1-0.1l0.4-0.5l0.1,0.1L-39,838.8z
					 M-20.7,835.9l-0.6-1.9l0.6-0.2l0.6,1.9L-20.7,835.9z M-21.7,832.7l-0.2-0.6l0.7-1.5l0.6,0.3l-0.6,1.3l0.1,0.3L-21.7,832.7z
					 M-20,829.6l-0.6-0.3l0.5-1l-0.2-0.5l0.6-0.2l0.3,0.8L-20,829.6z M-20.8,826.6l-0.7-1.9l0.6-0.2l0.7,1.9L-20.8,826.6z
					 M-22.1,823.5l-0.2-0.6l-1-0.4l0.2-0.6l1.3,0.5l0.3,0.8L-22.1,823.5z M-24.6,822l-1.9-0.7l0.2-0.6l1.9,0.7L-24.6,822z
					 M-27.8,820.8l-1.3-1.5l0.5-0.4l1.3,1.5L-27.8,820.8z M-30,818.3l-1.3-1.5l0.5-0.4l1.3,1.5L-30,818.3z M-32.2,815.8l-0.4-0.4
					l-0.7-1.4l0.6-0.3l0.6,1.3l0.3,0.3L-32.2,815.8z M-33.9,812.8l-0.9-1.8l0.6-0.3l0.9,1.8L-33.9,812.8z M-35.5,810.2l-1.6-1.2
					l0.4-0.5l1.6,1.2L-35.5,810.2z M-38.2,808.2l-1.5-1.1l-0.1-0.4l0.7-0.1l0,0.2l1.3,1L-38.2,808.2z M-39.9,805.3l-0.3-2l0.7-0.1
					l0.3,2L-39.9,805.3z M-40.5,802l-0.3-2l0.7-0.1l0.3,2L-40.5,802z M-41.1,798.7l-0.1-0.8l-0.1-1.3l0.7,0l0.1,1.2l0.1,0.7
					L-41.1,798.7z M-41.3,795.4l-0.1-2l0.7,0l0.1,2L-41.3,795.4z M-41.5,792.1l-0.1-1.6l-0.1-0.1l0.5-0.5l0.3,0.3l0.1,1.8
					L-41.5,792.1z M-42.6,789.4L-44,788l0.5-0.5l1.4,1.4L-42.6,789.4z M-45,787.1l-1.4-1.4l0.5-0.5l0.2,0.2l1.2,1.2L-45,787.1z
					 M-47.3,784.7l-1.4-1.4l0.5-0.5l1.4,1.4L-47.3,784.7z M-49.6,782.3l-0.9-1L-51,781l0.3-0.6l0.6,0.3l1,1L-49.6,782.3z
					 M-52.2,780.4l-1.8-1l0.3-0.6l1.8,1L-52.2,780.4z M-55.1,778.8l-1.8-1l0.3-0.6l1.8,1L-55.1,778.8z M-58,777.2l-0.9-0.5l-0.6-1
					l0.6-0.4l0.5,0.8l0.7,0.4L-58,777.2z M-60.3,774.6l-1.1-1.7l0.6-0.4l1.1,1.7L-60.3,774.6z M-62.1,771.8l-1.1-1.7l0.6-0.4
					l1.1,1.7L-62.1,771.8z M-63.9,769l-0.6-0.9l-0.6-0.5l0.4-0.5l0.8,0.6l0.6,0.9L-63.9,769z M-66.2,766.8l-1.5-1.3l0.4-0.5l1.5,1.3
					L-66.2,766.8z M-68.7,764.7l-1.5-1.3l0.4-0.5l1.5,1.3L-68.7,764.7z M-71.3,762.6l-1.5-1.3l0.4-0.5l1.5,1.3L-71.3,762.6z
					 M-73.9,760.4l-1.4-1.5l0.5-0.5l1.4,1.5L-73.9,760.4z M-76.2,758l-1.4-1.5l0.5-0.5l1.4,1.5L-76.2,758z M-78.4,755.5l-0.2-0.2v-2
					h0.7v1.9h-0.1L-78.4,755.5z M-77.9,752h-0.7v-2h0.7V752z M-77.9,748.7h-0.7v-1l0.7-1l0.6,0.4l-0.6,0.8V748.7z M-76.6,745.9
					l-0.6-0.4l1.1-1.7l0.6,0.4L-76.6,745.9z M-74.8,743.2l-0.6-0.4l1.1-1.7l0.6,0.4L-74.8,743.2z M-36.7,742.5l-0.2-0.1l0.2-0.4
					l-0.1-0.2l1.8-0.7l0.3,0.6L-36.7,742.5z M-38.1,741.7l-1.7-1l0.3-0.6l1.7,1L-38.1,741.7z M-33.6,741.2l-0.3-0.6l1.8-0.8l0.3,0.6
					L-33.6,741.2z M-72.9,740.5l-0.2-0.2l-0.3-0.2l0.1-0.1l1.5-1.2l0.4,0.5L-72.9,740.5z M-41,740l-1.7-1l0.3-0.6l1.7,1L-41,740z
					 M-30.5,739.9l-0.3-0.6l0.6-0.2l0.1-1l0.7,0.1l-0.1,1.4L-30.5,739.9z M-70.4,738.4l-0.4-0.5l1.6-1.2l0.4,0.5L-70.4,738.4z
					 M-43.9,738.4l-1.7-1l0.3-0.6l1.7,1L-43.9,738.4z M-29.3,736.8l-0.7-0.1l0.2-2l0.7,0.1L-29.3,736.8z M-46.6,736.4l-1-1.7
					l0.6-0.3l1,1.7L-46.6,736.4z M-67.8,736.2l-0.5-0.5l1.4-1.5l0.5,0.5L-67.8,736.2z M-65.5,733.8l-0.5-0.5l1.4-1.5l0.5,0.5
					L-65.5,733.8z M-28.9,733.5l-0.7-0.1l0.2-2l0.7,0.1L-28.9,733.5z M-48.3,733.5l-1-1.7l0.6-0.3l1,1.7L-48.3,733.5z M-63.2,731.4
					l-0.5-0.5l0.2-0.2l0.9-1.4l0.6,0.4l-0.9,1.4L-63.2,731.4z M-50,730.6l-0.6-1.1l-0.3-0.7l0.6-0.3l0.3,0.7l0.6,1L-50,730.6z
					 M-61.4,728.6l-0.6-0.4l1.1-1.7l0.6,0.4L-61.4,728.6z M-51.5,727.6l-0.8-1.8l0.6-0.3l0.8,1.8L-51.5,727.6z M-59.5,725.8
					l-0.6-0.4l1.1-1.7l0.6,0.4L-59.5,725.8z M-52.7,724.5l-0.1-0.3h-1.2v-0.7h1.7l0.3,0.7L-52.7,724.5z M-55.4,724.2h-2v-0.7h2
					V724.2z"/>
			</g>
			<g>
				<path class="st2" d="M62.6,544.8l-1.1-1.2l0.5-0.5l1.1,1.2L62.6,544.8z M60.6,542.6l-1.2-1.3l0.4-0.7l0.6,0.3l-0.1,0.2l0.8,0.9
					L60.6,542.6z M61.1,539.9l-0.6-0.3l0.6-1l1-0.3l0.2,0.6l-0.8,0.3L61.1,539.9z M63.6,538.5l-0.2-0.6l1.9-0.6l0.2,0.6L63.6,538.5z
					 M66.7,536.9l-0.6-0.3l0.9-1.7l0.2,0.1l0.2-0.3l0.3,0.2L66.7,536.9z M65.9,534.4l-1.5-1.3l0.4-0.5l1.5,1.3L65.9,534.4z
					 M63.3,533l-2-0.2l0.1-0.7l2,0.2L63.3,533z"/>
			</g>
			<g>
				<path class="st2" d="M94,570.9l-0.4-0.1l0.1-0.7l0.4,0.1L94,570.9z M92.2,570.6l-2-0.4l0.1-0.7l2,0.4L92.2,570.6z M88.9,570
					l-2-0.4l0.1-0.7l2,0.4L88.9,570z M85.6,569.4l-2-0.4l0.2-0.6l0,0l1.9,0.3L85.6,569.4z M82.4,568.5l-1.9-0.7l0.2-0.6l1.9,0.7
					L82.4,568.5z M80.7,566.3H80v-1.2l-0.2-0.6l0.6-0.2l0.3,0.8V566.3z M79.3,563.2l-0.7-1.9l0.6-0.2L80,563L79.3,563.2z M78,560.5
					l-1.6-1.2l0.4-0.5l1.6,1.2L78,560.5z M75.4,558.4l-0.2-0.1l-1.5-0.8L74,557l1.6,0.8l0.2,0.2L75.4,558.4z M72.5,557l-1.8-0.9
					l0.3-0.6l1.8,0.9L72.5,557z"/>
			</g>
		</g>
		<g transform="translate(377.188 240.91)" class="st1">
			<g>
				<path class="st2" d="M429.3,565.6h-6.6l-2.3,0.8l-2.3,1l-1.9,2.3v2.1l-1.3,0.9l-2.5,1l-2.5,2.1l-0.8,3.2l-3.8,4.4l-2.8,3v2.3
					l-1.1,2.1l-1.5,2.8v4H376l-2.7,4l3,7.6l4.6,2.5l14.4-0.6l8.4-2.7l8.5-4l5.3-0.9l5.1-8.4l4.4-7.2l-0.4-5.5l-1.1-3.4l1.5-5.9
					l3.2-2.1v-3.8L429.3,565.6z"/>
			</g>
			<g>
				<path class="st2" d="M122.2,703.3l5.5-1.7l9.5-4.2l2.7-5.3l4.6-1.3h4.6l6.3,4l4.7,4.6l1.3,5.1l5.7,3.8l5.3,3.8l2.5,5.9v5.9
					l-4.6,1.9l-9.3-1.9l-3.2,1.9l-2.3,4.7l-7,3.2h-5.5l-3.2-5.3l-2.7-2.5l1.3-3.2v-3.4l-2.8-3.8h-9.7L122.2,703.3z"/>
			</g>
			<g>
				<path class="st2" d="M110,652.8v-3.4l5.1-2.5l7,1.3l4,1.7l4.7,5.9l3.8,4.6l1.9,4.7l-2.5,2.8l-3.6,1.3l-3.8,2.1l-6.5-4.6l-1.1-3
					v-3.2l-2.1-2.7l-4.4-1.9L110,652.8z"/>
			</g>
			<g>
				<path class="st2" d="M-71,561.6l2.7-1.9l1.5-2.3l3.2-1.3l3.8,1.3l4.4,2.8l1.3,3.2l5.1,4l1.7,4.2v8.7h-8.2l-6.6-1.5l-4.9-4.2
					l-2.8-4.7l-1.1-5.3V561.6z"/>
			</g>
			<g>
				<path class="st2" d="M-24.4,580.4l4.6,2.8v2.8l2.8,2.1l4.2,2.8l4.9,3.8h2.5l2.5,1.9h7.2l3.2,1.3l1.7,3.8v4.2l-1.5,2.8l-5.5,1.3
					h-3l-2.5,2.5l-0.2,3.2l-0.8,2.3l-3.4,1.3H-14l-5.1-4.2l-5.3-3.2l-4.4-0.4l-4-0.8l1.3-3.8l3.4-0.8l4.2-2.3l1.9-2.5v-3.2l-1.1-2.7
					l-2.5-2.1h-3.8l-3.4-0.6v-10.4l4.6-1L-24.4,580.4z"/>
			</g>
			<g>
				<path class="st2" d="M206.9,315h3.2l1.9-2.8h11.6l2.8-3.2l5.9-1.1l6.5-8.2l4.4,3.6v5.1l3.6,1l4.7,0.6h3.6l3.2-0.8l3.2-1.7
					l2.5-5.1l6.3-2.7h12.5l5.3,1.9l3.6,2.1v3.6l-1.1,3.6l-5.1,1.9l-3.6,2.1l-3.2,1.5l0.2,2.7h4.9l2.5,1.1l1.5,4.2l1.7,3.2l1.1,3.6
					v4.6l-1.7,2.8l-4.7,2.1l-4.4,4.7l-7,3.8l-4.7,7.2l-4.6,6.5l1.5,2.1l3.8,1.5l8,5.9l7,2.5l5.1,1l5.5,5.5l5.3,3.2l5.1,2.1l1.1,3.2
					l-1.9,4.7l-4.6,4.4l-6.3,3.6l-5.5,2.7l-1.9,4.6l-0.8,5.9l2.1,6.3l2.1,3.4l-4.4,4.7h-3.8l-2.8,2.8h-6.6l-0.8-3.2l-1.7-3.8
					l-1.9-3.4l-2.5-0.8l-2.1,2.8l-1.1,4.2l0.6,4.2l2.7,6.5l-1.5,3.2l-5.5,3.2l-4.7,2.1l-2.5,1.9l-0.2,8.5l0.2,15.8l-1,4.2l-4.2,3.2
					l-5.9,2.5l-4.7,1.5h-4.6l-2.8-6.8l-4.2-0.2l-2.8-3.6l-3.4-1.5l-3.4-3.6l-6.5,2.5l-1.1,3.2l-1.1,3.2c-2.5,1.7-1.9,7-1.9,7v12.5
					l-2.1,2.8l-2.8,2.5l-3.2-0.9l-1.9-2.1l-3.6,0.2l-3.4,4.4l-2.7,5.1l-1.5,7.6l1.5,4.6l6.3,4.2h7.6l6.8,1.1h6.1l5.3-2.5l5.1-6.3
					l0.2-5.9l-0.2-5.9v-5.5l-1.7-4.4l2.1-2.1l3.2,1l2.7,4.4l0.6,4.4l-0.8,4.7l-0.8,6.8l2.7,4.7l4.4,2.1l4.4,1.5l2.5,2.7h2.7l2.1,3.4
					l7,2.1l3.4,2.8h7.6l8,1.7l6.3,2.5h4.6l2.5,4.6l3.2,8.9l0.8,6.8l-0.6,4.7h-3.6l-1.5,2.1l-0.2,11.4l-0.6,8.4l-0.9,2.8l1.7,2.5h2.8
					l3.6,2.8h2.5l2.5,1.1h3.4l3.4,4.2l5.3,1.7l-4.4,1l-4.6-1.7l-6.1-0.2l-5.3-2.1l-3.6,1.9v2.1h-2.1l-3.8-1.7l-1.7-2.1h-5.9L262,600
					l-2.5,1.7h-5.9l-7-1.5l-4.6-1.5l-4.6-0.2l-4.4,1.7l-1.1,3.2h-3.6l-4.4-1.5v-4.2l0.9-4.4l2.5-4.9l3.2-3.8l0.8-2.8l-1.5-3
					l-2.7-2.1l-2.1-0.8l0.2-3.8l-1.1-2.5l-3.4-0.2h-5.1l-3.8-1.1l-1.1-2.7l0.6-8.2l-0.6-5.9l-1.1-3l-2.5-2.7l-2.8-0.2l-2.1,1.1
					l-0.6,2.5l-1.5,1.9l-2.3,1.9l-0.6,3.2l-0.4,5.3l-0.8,4.2l-1.1,2.7l-3.2,1.5l-3.6,0.6l-1.3,2.8l-0.6,3.2l-0.8,2.5l-2.5,2.3
					l-3.6,0.8l-4.4,0.2l-3.8-0.2l-1.9-0.9l-1.3-2.1l-0.8-2.1v-2.5l-1.1-2.3l-2.3-1.1l-3,0.2l-2.5,0.6l-2.8,0.6l-2.7-0.6l-1.1-0.2
					l-1.5-1.3v-4.7l2.8-2.5l3.8-5.3l1.1-3l0.8-3.4l0.2-2.7h2.8l4.2-1.7l3.2-4l1.5-4.9l0.6-13.3l0.2-6.8l-0.8-11l-1.5-5.3l-2.3-4.9
					l-2.8-4l-2.5-2.1l-2.3,0.2l-3,2.3l-2.5,4.9l-4,7.2l-5.5,7.6l-5.3,4.8l-6.3,5.1l-3.4,3.2l-3.6,1.5l-3.2,2.3l-1,3.8v3.8l1.1,3
					c0,0,1.9,4.6,1.9,4.9c0.2,0.4,0.8,6.3,0.8,6.3s-0.4,2.8-0.4,3.2c0,0.4-1.1,1.3-1.1,1.3l-2.5,0.8l-4-0.2l-3-1.9l-4-3.2l-1.5-3.6
					l-1.9-3l-2.8-1.5l-2.5,0.6l-8.2,1.7l-2.9,2.3l-1.9,2.1l-1.5,4.2v4.2l1.7,4.2l2.3,3.2l2.8,2.7l1.5,2.8l0.8,3.2l0.6,5.7l-0.6,3.8
					l-1.9,2.3l-6.1,1.3l-4.2,0.2l-4.9-1l-4.6-2.3l-3.8-3l-6.6-8l-4.2-4.6l-1.9-6.1l1.1-4.9l-1.1-4.6l-4-3l-5.9-2.5l-5.3,1l-2.5,0.8
					l-1,1.1l-1.7-1.3v-3.2l-4.2-2.8l-4.9-1.7l-27.2-0.2l-2.8,1.5h-23.4l-21.3-0.8l-5.5,1.3l-11.2-2.1l-9.5-0.4l-3.4,0.8l-4.4-2.7
					l-1.9-1.9l-3-0.6l-1.5-3.6l1.1-4.2l2.1-1.9l2.8,0.2l1.5-1.7l-0.4-2.7l-4.2-3.4l-3.2-1.9l-1.9-1.3l-1.9-3.4l0.8-3.2l2.1-2.1
					l2.1-0.4l2.7-0.6l0.8-3.2l1.1-2.5l1.1-2.1l1.7-1l2.5-1.9l0.2-3l-0.2-3.4l1.3-2.1l2.8-0.9l5.1-1.9l51.3-104.1L22.5,392l4.4,1
					l6.5,0.6l28.7-9.9l53.9-57l12,1.5h4.7l3-2.1l0.6-5.3v-6.5l1.7-4.7l3.6-2.7l10.1,1l4.2,8.4l7.4-2.1l3.2-1.5l2.7-2.3l3-1l2.3-2.7
					l0.6-6.8l1.7-2.5l1.1-8l-1-6.3l-4.2-2.3h-4.2l-4.2-1.5l-4.2-4.4l-1.5-5.1l5.1-3.8l5.9-2.7l5.7-2.1h31.7l7.4,7.4l5.7,11.6
					l-2.7,5.9l-1.1,4.7l-3.6,2.7l-4.4,1.7l-3,3.6l-3.8,3.2l-1,3.2L206.9,315z"/>
			</g>
		</g>
		<g transform="translate(0 0)">
			<g>
				<path class="st5" d="M619.4,342.1l7.6,25.5l11.4,6.5h15.4l17.9,10.3l-4.4,6.5h-8.2l-0.6,8.2l7.6,9.5h5.7l8.9,7.6l2.5,8.2
					l6.8,4.4l-2.5,8.7l12,7.6l6.3,2.5l5.7-4.9v12l-5.7,3.8l5.7,2.5l8.7-4.9l2.5-6.3c-2.5,6.3,3.2,11.4,3.2,11.4l-3.8,8.2l-2.5,5.7
					l6.3,6.3l3.8-7.6l10.6,1.3l-6.3,6.3l6.3,3.8h7.6l10.6,4.9h22l7.6,7.6l3.8,13.3l-5.7,4.9l5.7,4.4l3.8,8.2l4.4,10.6l-2.5,6.3
					l6.8,6.3l5.7,5.7v9.5h5.7v15.8l3.2,10.1l5.7,4.9v8.2h-5.7v8.2l8.2,3.2l-2.5,6.8l-3.2,6.3l3.2,8.7h8.2l2.5,5.7v4.2h4.4l1.9,3.8
					l7.2,2.1l10.3,10.8l5.5,1.9h16.7l5.9,7.2l1.5,7.4v3.8h11.2l4.4-3l4.7-16.5l4.9-8.4l4,0.4l2.5-4.9v-6.8l6.3,0.4v-14.2l6.5,2.5
					l1.9,12.5v5.3l-5.3,1l-1,6.3l3,3l3,3V342.1H619.4z"/>
			</g>
			<g>
				<path class="st5" d="M935.3,703.9l-4.9,5.7v19.2l2.5,5.1h-8.5l-8.9,13.5l-14.1,19.2l-14.1,18.6l-4.2,10.3l-2.8,9.9l-4.2,3.8
					l-3.8,24.3l-3.2,19.2v5.1l5.1,2.3l1,8.4l-4.2,14.4l-6.1,2.3v16l-4.2,7h-7l-8.4-3.8l-3.8-8.4l-3.8,8l-4.2,4.2l-9.9,8.4l-3.2,15.4
					v15l-4.7,1.9h-11.8l-3.8,5.7h-4.2l-5.7-5.7l-7,2.3l-6.1,6.4l-2.3,5.7l-8.4,5.1l-12.2,8.4l-5.1,10.8l-4.7,4.2v10.3l10.3,2.8
					l8.4,3.2l-2.3,5.1h-8l-5.7,5.7l1,5.7h-7l-2.3,11.2l-4.2,3.2l-7-2.3l-5.1-1.9v6.5l7.4,8.4l2.3,8.9h-18.8l-1.9-5.7h-6.5l2.8-4.7
					l-2.8-5.7l-8.4-0.9v-6.5l-6.5-4.2l-14.4,0.9l-2.3,5.1l-6.1-1.3l-6.1-4.2l-2.8,6.1v11.4l7,1.9l-2.8,5.7l-4.2,3.8l-7,3.2l-4.2-1.9
					l-8.9,1.9l1.9-6.5l-7.4,3.8c0,0-6.5,2.8-8.4,2.8h-6.1v8h-6.1l-2.8-4.6l-5.7-4.2l2.3-7l-6.5-1.3l-4.7,5.1v5.1l5.1,1.9l4.4,1.9
					l0.8,4.9l-6.3-1.7l-8.4-3v-6.3l5.1-10.8l2.1-12.7l-4.6-10.8l-9.7-7.6l-2.5-3.8l-9.5,1.1l-3,4.9l-6.3,2.7l-4.4,5.7l-3-1.3
					l6.3-7.8l-1.3-4l-7.8,1.1l-3.2,1.1l3.6-5.5l-0.8-4l-6.5-2.5l-6.3,1.7l-5.7,5.5l-1.3,14.4v5.5l-7,1.9l-3,7.8l-7,0.8v-4.9
					l-10.1,2.5l-10.1,6.3v4.9l-8.7,1.1l-27.7,16.5l-2.7,5.7l-5.1,3l4.6,3.6l8.7,5.9l-0.8,2.5h-4.6l-3.6,3.6l-4.4-2.7v-5.1l-5.5-4.9
					l-5.9,0.2l-1.1,4.6l6.3,1.9l3,2.7l-10.8,1.7l-8.2-1.3l-3.8,7.8l2.1,5.5l-0.6,4.6l-1.7,6.5l7.4,3.2l1.1,6.3l6.3,2.5l1.7,6.5
					l-2.5,6.5l-0.8,5.7h495L935.3,703.9z"/>
			</g>
			<g>
				<path class="st5" d="M420.7,1101.3h-5.5l-2.3,3.4v5.5l6.5-0.9l1.3-3.4L420.7,1101.3z"/>
			</g>
			<g>
				<path class="st5" d="M410.1,1109.3l2.8,4l0.8,3.4h4.6l6.1,3.6l2.7,7l2.8,3.2h5.7l2.8,2.3l-0.6,5.1l-4.4,2.1c0,0-1.9,0.4-1.9,0.8
					v6.6H374l2.5-5.7v-11.6l-3.6-3.8l1.3-4.2l3.8-4.2l2.7-1.9l7.2,1.1l3-3.6l1.1-7.2l-0.9-6.3h-3l-0.4-3.4l1.1-2.7l3-1.9l3,1.1
					l0.6,3.4l0.8,5.3l1.1,6.1l-2.7,8.7l-4,5.3l-1.9,6.5l1.9,4.4l7,3l3.8-0.2l-1.5-2.1l-4.4-2.8l-2.3-4.4l2.1-6.8l3.6-1.7l2.8,0.4
					l1.9,4.7l0.6,2.3h3.4l1.5-2.5l-0.4-3.2h-3.2l-3.4-3.2l-0.9-4.4l3-2.1L410.1,1109.3z"/>
			</g>
			<g>
				<path class="st5" d="M321.6,1147.7l1.1-7.6l2.3-4.2l5.1-6.8l3.6-4h-3l-1.9-2.7l0.8-4.6l4.2-1.7l10.3-5.9l6.8-6.3l5.5-10.3
					l2.7-3.4l2.7-1.7h4.6v-4.4l1.7-4.4h4.9l2.8,2.1l2.5,4.4l-0.8,4.2l-4.6,0.8l1.7,3.6l3.6,2.7l3.8,1.1v2.7l-1.3,5.3l-6.8,9.1
					l-6.6,6.3l-1.3,3.2l1.7,2.5l3.6,0.8l1.7,2.3l-0.8,4.4l-2.3,4l-4,2.7l0.8,5.1L321.6,1147.7z"/>
			</g>
			<g>
				<path class="st5" d="M384.1,1010.5l3.8,3.8v5.5l-3.8,5.5l-9.3,2.8l-14.6-0.6l-17.1,2.5l-5.1-1.1l-5.1,2.5l-3.6,3l-6.1,2.1h-3.6
					l-1.1,4.6l-6.1,2.1l-11,7.6l-14.4,9.7l-6.6,5.7l-4.7,9.7v12.9l1.3,3.6h3l-1.1,4.7l-4.4,1.3l-4.9-1.7l-1.3-4.4l-7.2-3.2l-3-4.7
					l-3.6-4.6v-23.2l4.2-4.4l4-1.1l5.1,0.2l2.7,0.6l3-0.6v-4.9l0.6-3.6l4.9-2.3l9.7-0.2l2.3-3.2l-0.2-4.7l3.6-1.1l7.4-0.4l4.2-5.1
					l7.4-5.5l3-4.7l9.1-0.4l10.1-1.5l8-3h8.5l4.6,3.8l4.7,0.8l7-0.6l4.7-0.8l3-3.2L384.1,1010.5z"/>
			</g>
			<g>
				<path class="st5" d="M35.3,878.7l9.5,6.1l6.8,1.7l4.7-2.5l5.1,2.5l1.7,4.2l3,2.7l1.3-3.4l-7.2-11.2l-6.8-5.1l0.8-4.7l5.1,1.7
					l5.5,4.7l2.7,5.9l3,2.5v-8.5l5.5,2.7l3.4,3.4l5.5,2.5l1.7,3.8l-7.2,0.4l3.4,3.8l9.5,0.4l5.5,1.7l4.4,5.1l8.2,2.5l3.8,6.8v5.9
					h5.1l1.7,6.1l4.7-6.1l3,6.1l4.2,2.5l6.5,3.6l1.3,4.9l4.4,3v7.8l-3.4,3h7.2l1.7,7.2l-3,2.7l3,3.8l-1.7,16.3h-5.5l-6.5-1.3v6.1
					l2.1,3.8h5.1l2.5,4.2l-0.4,7.2h-6.1l1.3,5.9l2.1,7.8l3.8,2.1l1,11.2l-0.8,15.4l1.7,15.4l-0.8,13.7l-5.9,5.3l-3,4.6l-9.5,1.3
					h-9.5l-1.7-5.9h-6.5l-5.5-7.8L102,1051l-2.5-11.2l-2.1-4.4l-4.2-2.7v4.4l-2.3,11l-4.2,3l-5.1-0.4l-4.4-0.8l-0.9,4.9l-3.4,4.4
					l-1.7,3l-4.2-0.9l-1,6.5l2.7,4v8.5l0.9,7.4l5.9,3.8l5.9-8.2l-4.7-2.8l2.5-8.5l4.7-3.2l6.5,0.8c0,0,1.7,7.4,1.7,11
					c0,3.6,1.1,11.2,1.1,11.2l3.2,4.2l5.1-2.7l6.1-12.5h9.5l3,4.4l8.9,2.7l4.2-2.1l1-3l6.5,3.4l1,12l3.4,1.3l8.5-6.1l2.1-9.3
					l9.3-3.2l4.4-8.5l2.7-9.1l4.2,2.1l2.1,7l5.1,4.2l2.1,6.5l-1.3,6.8l-4.2,3.4l-5.1-1.5l-4.4-2.5l-5.9,1l0.4,6.8l-0.9,6.5l7.8,5.5
					l8.9-2.7l2.7-4.4h12.9l2.7,4.4h18l4.2,2.7h19.6l-5.1,5.3l-5.1,4.6l-3,3h9.5l9.3,3.4l5.5,3l12.3-1.7l6.5,0.4v6.1l-3.8,3.8h-4.2
					l0.4,6.1h3.8l3.8-5.1l7.6-0.4v-3l-4.4-0.4l0.4-5.5l4.2-3.4v-6.1l-3.4-3l-1.3-9.9h7.8l2.7,8h4.2v6.3l-1.7,2.7l15.8,10.3l5.1,4.7
					l3,9.9H35.3V878.7z"/>
			</g>
			<g>
				<path class="st5" d="M216,1079.8l1.1,4.6l3.2,1.7l-2.1,6.3h-6.6l-8.9-1.9v-6.3l3.6-4.4l4-2.1L216,1079.8z"/>
			</g>
			<g>
				<path class="st5" d="M853.8,753.5l-3.2,4.9l-5.5,3v10.1l4.4,7.2l6.8,3.6h5.1v-20.9L853.8,753.5z"/>
			</g>
			<g>
				<path class="st5" d="M76,408.7l6.3,22l11.6,13.7v5.5l5.1,2.8l5.3-2.5v11h6.6v4.9h-5.5l-5.1,7.6l-1.3,4.4l-5.5,3v5.9l1.9,10.4v12
					l1.5,7.6h5.5l1.9,8.9l6.6,4.4v18.4l-6.6,5.5l-0.4,26.4l-1.5,12l4.9,11l3.6,13.5l5.3,10.8l7.6-16.9l7.4-1.5v-9.9l3,4.4l1.7,5.7
					l5.5,1.9l5.9,0.6v6.3l-5.7,0.6l-7.2-2.3l-3.2-2.5l-5.1,4.2l-3.2,6.3l-1.9,5.7l10.6,2.5l3.4,5.1h14.1l7.8-5.7l6.3-2.8l6.1,0.2
					l6.5,2.3l-3.8,0.6h-8.7l-4.9,2.7l-4.7,2.8l1.1,4.2l5.3,1.1l7.2,4.7l4.7-3.2l3.8-4l7-3l4,2.1l-4.4,2.3l-5.1,2.7l-1.3,6.1l0.6,7.6
					l6.8,5.9h3.4l1.5,8l3.4,3.8l3.6,1.7l1.7-4.2l2.3-2.7l5.3,1.5v3.6l6.5,1.7l13.5,1.1l4,1.7l3.8,2.3l2.1,3.2l-4.4,3.6l4.4,4.6h8.9
					l3.2-5.5l3.2,1.7l2.5,3.8h6.6l4.4,5.1l6.5,6.5l5.7,5.1l6.3-1.5l-2.5-7.8l3,1.9l7.6,1.9v7.6l8.4,5.1l3,3l2.3-6.8l2.8,1.5v9.9
					l7,8.2l8,2.7l6.5-4.4l1.3-7l-4-4l-4.2-0.9l0.4-4l4.6-0.6v-3.2l-7.2-5.9l-2.3-4.9l4,1.9l8.7,8.5l4.2,1.5l3.4,0.6v-5.3l-1.7-2.8
					l-4-0.6l1.1-5.5v-4.4l2.7,3l0.2,4.9l2.3,1l2.1-1.9l3.4-7.2l0.4-12l2.1-0.2l1.5,4.6l-0.6,8.5l-2.8,6.8l-2.7,2.7l-0.2,6.6l1,6.8
					l8-0.8l2.8-3.4l9.5,0.6l6.1-3.2l6.3-7l6.6-11.4v-4.9l4.2-4.6l3.4-13.7l-2.5-6.8l-3.4-3l-6.5-0.2l-6.3,0.4l-3.8-1.3l1.9-2.8
					l9.5,0.6l7.4,2.1l2.8,1.3l0.8-2.3l-3.4-3.6l-2.5-3.2l0.4-4.4l3.8,2.3l1.7,1.9l3.6,0.9l8-10.3l2.8-8.9l1.1-4.2l-4.9-6.5l-1.1-2.5
					l-2.8-0.6l1-2.7l8-0.6l1.7-9.5l1.1-11.2l-1.7-4.2l-4.7,2.7l-3.6-0.2l-2.3-7.2l-2.5-5.1l1.1-4.9l4.7-3.2l5.1-2.7l1.3-5.9l6.8-5.5
					l2.7-4.9v-7.4l-5.1-2.5h-5.5l-5.7-1.1l-2.8-0.8l-4.6,0.4l-3.6,4l-3.6,1.5l-2.1-1.5l1.9-4l4.2-3.4l7-2.8l7.8-2.8v-3l-2.8-4.9
					l-5.1-1.5l-5.3-1.7l-2.5-5.9l-8.2-2.3l-6.1,0.4l-7.4,7.6l-7.2,7.4l-6.8,4.2l-8.4-1.9l-11.2-2.7l-0.4-4.9l-3.2-1.5l-2.3-3.2
					l-6.1,1.5l-0.6-9.1l-7.2,2.3l0.4-6.6h-5.9v-7.6l-6.1-0.4v-3.2l-4-0.4l-3.8-3l-1.1-5.7l-7-1.3l-3-8.4l-1.9-7l-5.9-1.9l-5.7,1.1
					l-2.3,5.3v5.1h-5.5l1.9-4.9l2.3-4.6l-0.8-2.1l-2.8-0.4l-2.1,3.4l-2.8,3.6l-0.6,2.8h-3l-1.5-1.3l-1.3-4.2l-4.4-1.9l0.6-3.4
					l4.4,0.4l5.1-1.1l3.6-0.9l4.4-3.2l-0.6-4.7l-0.8-4.2l-4.7-0.6l0.2-4l-4.2-1.7l0.2-4.6l-5.9-1l-3.6-1.5l-7.2,0.6l-1.5,4.6
					l-2.8,6.1l1.5,6.3l6.6-0.2l0.4,3l-3.2,2.3l-4.2-0.4l-0.2-3.6l-3.4-5.1l-6.1-2.8l-2.5-4l-4-2.5l1.5-4.2l8.4,0.2l0.4-8l0.8-4.6
					l-3-5.9l-2.5-1.7l-1.3-6.3l-4.6-2.5l-0.9-6.5l-4-2.1l-3-1.3l0.9-4.7l-5.1-3.6l-2.3-4.2l-6.1-1.3l-2.5-3.4h-5.7l-6.8-2.7h-3.4
					l-1.3-4l-8.5-7.8l-7-1.7l-0.4-3.4H152l-2.5-5.5H139l-1.3-3.6h-4.4l-0.8-5.1l-22.6-2.7H90.8l-15.2,2.8l-10.3-2.8l-11.4,6.5
					l-6.8,5.9l-1.5,6.3l8.4,7l12.5,23.9L76,408.7z"/>
			</g>
			<g>
				<path class="st5" d="M665.2,457l10.4,2.1h10.4v17.9l2.5,4.9h3.6l-1.5,4.7l-10.8,6.1l-16.7,12.5l-2.8,8.4v4.9l-9.1-2.5l-9.1-2.5
					l-3.8-5.9l-2.9-7.4l-8-2.5l-3.8-5.1l-2.5-9.1v-6.3l8.7-0.8l15.8-2.1l11-4.9l5.7-7.4L665.2,457z"/>
			</g>
			<g>
				<path class="st5" d="M567.2,357.8h4v4.9l2.7,2.7h8.5l7.8,2.8v6.3l5.7,2.3v4l2.3,2.7l2.7-1.7v-7.4l4-0.6l4.4-3h4l2.8,3l1.7-3h3.2
					l1.3,3.2l4.4,1.1l1.5-4.4l3.4,4.4l3.2,1.1l3.2,2.1l7.2-0.4l3.4,1.5l1.7,4l-1.5,6.8l-2.7,2.8l1.5,3.4l5.1,2.3l4.9,2.8l5.5,5.7
					l2.1,7.8v6.3l-6.6,1.1h-12.2l-4-5.1l-8.9-5.1l-5.1-1.5l-1.1,3.8l2.7,3.2l4.6,3.2l5.5,1.7l5.7,2.8l7.4,2.3l7.2,5.7l1.5,6.3
					l-1.5,3.2h-14.1l-3.2,1.5h6.3l6.1,0.8l1.1,4.2l2.1,7l-2.1,4.2l-4.6,2.5h-4.2v4.6l-4.2,1.7l-9.7,2.1l-7.2,1.3h-7.2l-3.2-2.1
					l3.2-5.9l1.7-3l4.2-1.7l-3-2.3l-2.8,0.4l-4.2,4.2l-1.9,1.3l-3.4-1.3l-2.3-4.9l-1.7-8h-3.2l-1.5,7l-0.2,2.7l-4.9-3.8l-3.8-3.8
					l1.1-9.1l0.6-9.1l-1.9-4.7h-3v9.1l-1.5,17.5l-2.1,4.6l-3,1l-2.1-1.9l-1.1-2.1l-2.1-3.2l-2.7-1.1l-0.2,4.2l2.1,0.9l1.7,4.4
					l-3.8,3.2h-4.2l-1-2.1l-5.1-0.4c0,0-1.1-4.2-1.1-4.7v-5.3l2.7-4.7l5.1-4.7l0.9-24.7l2.1-4.9l1.5-5.7l-2.5-3.8l-1.3-3.2v-2.7
					l-3.6-0.2l-3-1.1l-0.2-3l-3.4-3l-1.3-3l-4.7-0.2v-6.6l2.7-4.6l2.5-2.8l2.8-1.1l1.1,4.2l0.4,4.7l2.5,2.1l2.5-1.1l0.6-3.2l3.6-1.7
					l-1.9-2.1l-3.6,1.3l-2.5-2.1l0.2-3l-3.2-1.1l0.2-3.4l3-0.6l0.4-5.3L567.2,357.8z"/>
			</g>
			<g>
				<path class="st5" d="M35.5,575.1l5.3-2.5l6.5,8.7l4.2,10.1l-1.3,4.2l-4.9,4.2h-9.7V575.1z"/>
			</g>
			<g>
				<path class="st5" d="M251.9,342.1l7.8,8.2l-1.9,6.5l1.7,7.4l-3.8,3.2l12.9,5.9l14.1-1.1l3.2,6.8l10.8-1.1l5.3,1.1h9.9l4.7,2.7
					h5.7v4.6l4.7,4.2l-2.7,1.5h-6.8l0.6,4.7l5.7,1.7h5.3l-2.1,5.1l-1.5,5.3l1.7,3h8l2.7-3.8l3.8-1v1.9l-2.8,1.9l-1.3,4.6l4.2,0.6
					h10.8l8.9,7.8l3.2,1.9l8.7-1.1l5.3,0.2l4,1v5.3l6.8,2.3l2.8,5.7l7.4,2.3l8.4-1.3l3.8-3.4l2.3-4.6l5.5-0.6l3,2.7l-1.7,3.4
					l-5.1-0.6l-2.3,4.6l-5.3,1.9h-9.7v4.2l6.3,5.1c0,0,8,4.6,8.5,4.4c0.6-0.2,9.9-2.1,9.9-2.1l16.9-1.3l5.5-0.6l7.6-10.4l3-5.7
					l-1.1-7.8l-4-2.8l-1.9-1.7l1.3-2.7l3.6-0.6l-0.8-5.5l-1-3.6l-4.9-0.6l0.4-4.7l1.3-2.8l2.8,1.9l2.1,3l3.2,5.5v6.8l0.6,4.9l2.5,4
					v8.4l-3.8,6.8l-3,4.9l-1.1,3.4l2.7,2.1l8.9-1.5l13.1-12.7l1-6.1l2.8-23l-1.5-8.9l-3.6-1.9h-5.1l-3-2.5v-3l5.5,1.5l5.5,0.8l0.2-4
					l-1.7-5.3l-3.4-2.8l-4.9-3l-8-1.3l-2.5-2.1l-0.4-2.7l-5.5-2.5l-2.3-4.7l-0.4-4.7l3-2.3l1.9-7.2l1.9-10.3l3.6-3.8h-40.8l1.9,6.8
					l1.9,4l0.6,2.8l4.4,1.3l-0.6,1.5l-5.1,0.6l-3.4,5.7c0,0,0,3.2,0.6,3.4c0.6,0.2,3.8,3,3.8,3l-1.3,4.9l-4.2-1l-7-3l-4.2,3.2
					l-3.2,4.4l0.2-8.5l1.1-4.7l2.3-4c0,0-1.3-4-1.9-4h-3l1-3.4c0,0,0.6-4.4,0.2-4.9c-0.4-0.6-3-2.3-3-2.3l-5.7,5.3l-1,4.2l1,2.5
					l5.3,0.4l-1.5,5.9l-2.5,3.4l-0.6,10.3l-2.7,0.6l0.9-7.2l-0.6-4.4l-4.4,0.6l-2.1-1c0,0-0.2-5.5-0.6-5.7c-0.6-0.4-4.6-0.6-4.6-0.6
					l-3-1.3l-0.6-4.9l-0.8-10.3l2.3-3.2H251.9z"/>
			</g>
			<g>
				<path class="st5" d="M562.6,342.1l-4.6,4.4l1.5,4.7l18,0.4l3.2,3l4.9,7.4l7,2.1l2.3,3.8l4.4,1.9v2.3l4.2-1l6.6-2.5l4.9-0.8
					l3.4,0.8l2.7-3.2l3-3l4.2-7.6l-3.8-2.8l0.6-9.9H562.6z"/>
			</g>
			<g>
				<path class="st5" d="M559.6,342.1l-7.8,4.6l4,3l-0.6,5.9v3.6h5.7l-1.1,6.1l-6.6,1.5h-7.4l-2.1,1.3l-3.2,7.4v2.1l-3.8,1.9
					l-3.6-2.1l-2.1-4.6l-3.8-1.7l-7.8-0.4l-2.8,1.9v5.9l4.2,2.1l6.8,3.8l1,4.9l1.1,6.6l-0.4,5.5l1.9,4.4l4.2,1h6.5l2.5,3.8l-0.9,6.6
					l3.2,1.9l0.6,7.2l6.1,4.4l3.6,4.9l-0.4,8.4l-3,3.2l-4-1l-1.1-1.3l-1.7-6.6l-3,0.9l-0.4,4.4l1.1,6.8l0.9,5.3l-2.7,4.9
					c0,0-4.2,2.5-4.6,2.3c-0.4-0.2-4.4,1.3-4.4,1.3l-1.7,4.6h-2.7l-4.4-4l-0.8-3.8l-2.7-6.5l0.8-8.4l4.4-3.4l-3.2-2.1l-2.1-2.7
					l-1.7-7.4l1-5.3l1.9-2.3l-2.1-1.3l-3.2,6.5l-1.1,6.6v11l-1.5,7l-3.2,5.1l-1.1,2.5l-14.1-0.2l-3.4-3.4l-8.7-1.9l-4-3.4l3.2-3.8
					l4.6-2.3l3.4-10.4l2.5-3.6l8.4-1l2.1-7.2l1.5-3.6l-1.5-4.4l-1-10.4l-2.8-5.1l-4-4.4l-1-6.5l1.1-3.6l5.3-2.1l-0.2-4.6h-6.6
					l-5.5,0.4l1.1-5.9l0.4-6.1l-4.4-3.2l-4.6,3l-3,1.5l-4.7-0.8l-4.4-3.2l-2.3-2.7l-1-7.6l1.1-5.5l3.8-4l0.2-2.8h52.8l-5.7,9.5
					l-5.3,7.4l1,2.5l3.6,0.4l4.2,3.4l3-2.1l-1.7-7.8l2.8-4.9l2.7-1.5l3.4-1.7l-0.6-3l1.7-2.1h26V342.1z"/>
			</g>
			<g>
				<path class="st5" d="M553,484.5l3,1.3l1.5,1.9l4.6-0.9l9.9,0.4l5.9,3.4h4.6l2.5-3H601l4.7,1.9l2.7,4l-0.9,3.8l-3.2,1.5h-13.5
					l0.8,1.5l4.2,0.9h5.5l3.8,1l-0.2,2.1l6.1,1.1l5.1,2.8l1.3,2.8l1.1,4.7c-0.3,1-0.7,1.9-1.1,2.8c-0.4,0.6-4.2,4-4.7,3.8
					c-0.6-0.2-5.5,2.1-5.5,2.1l-2.7,4.9l-5.9,1.7l-4.7,1.5l-5.7-3.2l1.5-5.5l-3.6-4l-1.5-6.3l-0.9-7.4l-3-3.6l-3.2,1.3L575,506
					l0.9,4l-0.6,2.7l-1.1,4l2.7,1.9l-1,4.2l-2.1,1.9l-3,3l-4,2.5l-2.7-1.9l0.4-3.8l0.8-11.4l-0.2-4.4h-4l-4.2-0.9l-1.5-3.8l0.9-6.3
					l-0.9-2.1l-3-1l-3.8-2.5l1.3-3.2l0.8-3.4L553,484.5z"/>
			</g>
			<g>
				<path class="st5" d="M583,541.7v-4.4l1.9-6.8l2.7,1.1l4.7,2.1l2.7,0.2l8.2-1.3l4.7-3.4l2.3-3.4l2.8-1.5l6.3-2.7h3.4l1.7,3.4
					l-3.6,2.3c0,0-0.8,2.5-1.7,2.5c-1,0-3.6,2.1-3.6,2.1l-0.2,2.1l3.2-2.1l3.8-2.7l3.8,0.4l1.5,1.9l-1.3,4.4l3.8,1.7l2.7,0.2
					l-1.3,5.5l-2.3,3.2l-15.8,4.6l-8.5,3.6h-14.6l-0.8-7.2l4.2-4.4l1-4.2l4.6-3.4l-7,0.6l-4.6,0.8l-1.1,5.1L583,541.7z"/>
			</g>
			<g>
				<path class="st5" d="M520.3,468.4l-1.3,2.5l3,2.3l1.7-2.3l0.9-2.5H520.3z"/>
			</g>
			<g>
				<path class="st5" d="M519.9,482.1l-3.2,0.9v-3.4l-0.9-6.5l-2.1-2.5l1.5-2.5l-1.5-1.9H511l-1.7,1.9H500l-0.2,4.9l-1.1,5.7v5.7
					l3.2,2.1c0,0-0.6,5.7-1.7,6.6c-1.1,1,1.9,3.2,1.9,3.2l2.7,1.1l1.1-2.3l-0.8-4.9h2.3l3.2-1.5l3.8-0.6c0,0-0.6,2.1-0.6,2.3v2.5
					l1.7,0.6l2.5-1.3c0,0,0.4-3.8,0-4s-0.2-2.5-0.2-2.5L519.9,482.1z"/>
			</g>
			<g>
				<path class="st5" d="M519,487.8h2.8l-0.8-4l0.8-3.8l4-1l5.9,0.6l3.6,2.5l0.6,4.9v4.4c0,0,3,1,3.4,1s5.5,3,5.5,3l1.7,5.1l1.7,2.8
					l0.6,6.6v5.5l-2.1,3l-3.8-1.5l-0.6-6.3l-1.1-3.4l-0.6-5.5l-2.3-1l-0.4,3.8l-0.2,3.8l-1.3,0.8l-2.1-0.8l0.2-3.4l-1.7-1.5l-1,4
					l0.6,2.8l0.4,3.2l-2.1,1.3c0,0-2.3-0.2-2.5-0.6c-0.2-0.4-1.9-2.5-1.9-2.5l-2.8-1.9l-3.8,1.1l-2.1-1.1l-0.8,5.5l-1,3l-2.5-0.8
					l0.8-2.5c0,0,0.6-4.7,0.6-5.1c-0.1-0.6-0.2-1.1-0.4-1.7l2.3-1.9l0.4-5.7l-0.4-4.2l2.1-0.2v-4l0.9-1.9L519,487.8z"/>
			</g>
			<g>
				<path class="st5" d="M479.1,503.1l3.2,5.5c0,0,5.7,0.6,6.6,0c0.8-0.6,6.3-3.8,6.3-3.8l1.9-4.2l-3-6.8l-3.8-4.2l0.8-1.9l2.7-1.1
					l1.3-1.9l-0.6-10.1l-4.9-5.3l-6.5-2.7l-5.9,3.4l-2.8,1.7l-1.3-2.1l-0.8-3l-4.4-1.1l-10.4,1.9l-7.6,0.4l-2.7,2.3
					c0,0-0.4,4.2-1,3.4c-0.4-0.8-2.5-1.3-2.5-1.3v-2.8l-3-1.5l-4.7,1.7l-4.4,3.4l-3.8,5.9l-1.3,5.1l2.7,5.1l3.2,2.3l3.2,1.7h3.2
					l1,2.7l2.7,1l4.4-2.1l5.1-2.1l5.3-1.7l3.4-1.3l2.7-3.4l2.3,0.4l0.4,2.8l6.1-1.1l4.9,2.1l2.7,4.2v4.7L479.1,503.1z"/>
			</g>
			<g>
				<path class="st5" d="M504.3,523.5v-7l-4.7-1.1l-3-1.7l-1.3-3.2l-2.3-1.5l2.5-2.5l2.5-2.3l1.5-2.7h5.5l4.9,4.7l2.3,4v2.3
					c0,0-0.8,4.4-1.5,4.7c-0.8,0.4-1.7,2.7-1.7,2.7s-1.3,3.4-1.7,2.8c-0.4-0.6-0.2,1-0.2,1h-2.7L504.3,523.5z"/>
			</g>
			<g>
				<path class="st5" d="M439.2,500.7l1.3,2.3l-0.6,5.7l3.8-0.2l2.8-3l5.5-0.8l3.4-3.4l5.5,1l5.7,1.3l3.2-1.3l6.3,0.2l2.3,2.5
					l1.3,5.7l-2.1,6.1l-3.8,2.8h-3.6l-0.2,5.3h4.7l0.2,4.6l-1.1,3.2l-3.8,1.5l-3.6-0.9l-1.5-3l-3.4-2.7v2.1l0.8,4.6l0.9,2.8l4.6,0.6
					h3l1.5,2.1l-1.3,4.6l-1.9,6.5l-3.8,3.2h-12.2l-2.8,1.1l2.1,1.3h7.4l0.2,6.1c0,0,1.3,4,1.3,3.8s2.1,2.1,2.1,2.1l4.2,2.1l1.7,2.7
					l0.2,6.5l-1.3,1.5h-5.5l-1.5-1.9l-3.4-0.6l-1.1,2.5l-0.4,2.7h-3.8l-1.3,2.7l-0.4,3l-2.5,1.1l-2.8,1.9l-2.1,2.8l-2.7,1.7l2.8,1.7
					l3.4-2.1l4.4-4l3.8-1.9l-0.2-2.8l4.7-0.4l2.5-1.3l7.8,0.6l4.7,0.4l2.8,1.7l1.1,3.8l0.4,2.5l2.1-0.6v-8l-1.9-2.8l-3.8-1.3
					l-1.3-6.8l-2.3-5.5l-0.6-2.8l-3.6-0.9l-3-3.2l0.6-3l1.7-2.3l3.4-0.9l1.5,0.4l1.5,0.4l2.3-0.4l-4.7-2.1l1.3-2.1l1.9-2.1l0.8-3.6
					l1.1-4.4l2.5-2.3l3-2.1h7.4l3.4,4.6c0,0,1.7,3.8,1.5,4c-0.4,0.2,2.7,3,2.7,3l0.9,2.8v3.6l-2.1,2.7l-4.6-0.6l-3.4,1.3
					c0,0-0.2,2.1,0.4,2.1s2.8,1.7,2.8,1.7l3.2-0.6l4.6-2.5l4.2,1.9l1.9,3.4v5.5l0.9,6.3v4.7l-1.3,4.2l-1.3,5.7l-2.1,2.7
					c0,0-5.3,1.3-5.9,1.3c-0.6,0-5.9-0.2-5.9-0.2l-3.2-3l-1.5,2.8l1.5,5.5l1.7,4.6l-3.2,4.7l-4.7,4.7h-4.6l-4.2,1.9l-1.1,4.7
					l-2.7,1.3c0,0-2.5-1.7-2.8-1.7c-0.4,0-2.7,4.7-2.7,4.7l-1.1,5.1c0,0-2.3,3.4-4,3.8c-1.1,0.2-2.3,0.2-3.4,0l-4,2.3l-1,1.5h-5.5
					l-1.3,2.1l-3.8,1.7v3h-4.6l-1.5-2.8l-2.3-3l-4.6,2.8l-1.9,3.2l-6.6-3.4l-3.8,0.2l-4.2-3.6l-2.5-4l1.9-6.3l2.5,0.6l1.3-2.8l1-2.1
					l2.5-3v-1.3l-4.2,0.6l-1.3-2.8l-0.6-4.4l3,0.8l1-3.2l-1-2.8l3.2-6.8v-8l3.2-2.7l0.4-8.7l2.1-5.7l3.4-4.9l6.3-0.6l3.2-2.1v-3.4
					c0,0-1.5-3.6-2.3-3.4c-0.8,0.2-4-1.3-4-1.3l-4.2-0.6l-0.6-5.1l0.4-10.6l2.1-4.4l4.2-2.3l2.7,0.6l-0.6-4.4l0.4-3.6l0.4-3h2.1
					l0.2-3l-1-4.6l-3.8,0.2l-4.6-0.4l0.2-7l3.6-3.6h2.8l2.5-4.2l1.3-3.8h4L439.2,500.7z"/>
			</g>
			<g>
				<path class="st5" d="M493.1,525.4l0.8,3.4c0.5,0.7,1.1,1.3,1.7,1.9c0.9,0.6,1.7,1.2,2.5,1.9c0.8,0.8,3.2,0.9,3.6,0.9
					c0.4-0.2,2.7-0.9,2.7-0.9s2.3-1.5,2.7-1.5c0.4,0,2.5-1.5,2.5-1.5v-3.4l-1.9-1.3h-3l-2.3,0.4l-3.6,0.6l-2.8-0.9L493.1,525.4z"/>
			</g>
			<g>
				<path class="st5" d="M510.6,530.1l-3,1.7l-3.2,2.1l-3,1.5l-1.3,2.5v2.5l1.3,3l1.1,3.2l4,2.5l3,3.4l3.2,1.3c0,0,2.5-0.6,2.7-1
					s1.5-3.4,1.5-3.4v-5.3c0,0-0.4-3-1-3.4c-0.6-0.2-2.5-0.9-2.5-0.9l1.3-2.5l-0.8-2.8c0,0-0.6-1.5-1.3-1.7
					C511.7,532.4,510.6,530.1,510.6,530.1z"/>
			</g>
			<g>
				<path class="st5" d="M519.1,533.3l-1.3,2.7l-0.6,3.2l1.9,4.7l0.8,1.5v3.6l-1.3,3.4l1.3,1.5l3.4,1v3.2l0.8,4.7l3.6,3l4.2,3.6
					l4,1.3l2.7-2.8l2.3-2.7v-3.8l-1.7-4.2l-2.1-3.4h1.1l2.7-0.6l0.6-4.4c0,0-0.6-1.7-0.9-1.9s-2.3-1.9-2.3-1.9h-1.9l-3.2-0.8
					c0,0-2.8-0.6-3.6-0.4c-0.8,0.2-1-2.7-1-2.7l-0.2-2.7l1.1-0.6l-0.8-4.4l-4-2.5l-3.8,0.6L519.1,533.3z"/>
			</g>
			<g>
				<path class="st5" d="M545.7,522.3l-1.5,1.7l-0.6,2.7l0.9,4.2v6.5l-0.9,2.1l0.9,3l3.2,1.5l1.9-3.4l1.9-3.6l0.9-5.1l-0.6-4.2
					l-2.5-3l-2.3-2.8L545.7,522.3z"/>
			</g>
			<g>
				<path class="st5" d="M564,539.6l-1.3,4.4v3.8H559l1.7,5.7l-4.4,2.5v4.6l2.7,3h9.7l4-1.9V558l-4-0.8h-4.2l2.1-2.9l4.9-1l4.4,1
					l3.8-1v-7.2l-1.5-4.4l-2.9-4h-4.7l-2.5,2.3L564,539.6z"/>
			</g>
			<g>
				<path class="st5" d="M517.2,572.1l-2.3-1h-2.5l-2.5,2.3v3h2.5l3.2-1.3l1.5,0.4L517.2,572.1z"/>
			</g>
			<g>
				<path class="st5" d="M510,579.7v2.7l2.5,1.5l4.2-1.3l0.6-2.8h-1.9l-1.7,1.1L510,579.7z"/>
			</g>
			<g>
				<path class="st5" d="M107.3,712.3l-2.8,3l2.8,5.5l4.6,4l2.1-6.3l-2.8-6.3H107.3z"/>
			</g>
			<g>
				<path class="st5" d="M396.2,1089.3l1.9-2.7h4.6l3,1.3l1.9,4.4h-5.7l-2.8,1h-2.3l-1.3-1.7L396.2,1089.3z"/>
			</g>
			<g>
				<path class="st5" d="M400.6,1096l-0.6,2.5l1.5,1.7h3.2l2.1-0.6v-2.8l-1.9-0.6c-0.8,0.1-1.5,0.1-2.3,0
					C402,1096,401.3,1096,400.6,1096z"/>
			</g>
			<g>
				<path class="st5" d="M423.2,1069.8c0,0.4-0.6,3.4-0.6,3.4l1.9,2.1h5.9l1.1-4c0,0-1.3-1.5-2.1-1.5c-0.8,0-2.3,0.9-2.3,0.9
					L423.2,1069.8z"/>
			</g>
			<g>
				<path class="st5" d="M440.3,1056.1l-2.5,4.4l2.5,3.8l1.9,1.5l2.7-2.5l1.1-3.2l-2.8-3L440.3,1056.1z"/>
			</g>
			<g>
				<path class="st5" d="M440.1,1053.6l3-1.3h2.8l1,1.3l2.7,0.8l2.3-2.1l-1.1-3l-2.7-2.5l-2.1-1.7l-3.4,0.8l-0.8,1.9l-1.7,0.8
					l-0.8,2.1L440.1,1053.6z"/>
			</g>
			<g>
				<path class="st5" d="M704,988.3h4.2l3.6,2.8l2.1,4.2l-2.8,1.5h-3.6c-0.6,0-3.6-0.8-3.6-0.8l-1.1-3.4L704,988.3z"/>
			</g>
			<g>
				<path class="st5" d="M730.4,978.8v-9.9l4.4-1.3l5.7-1l6.3,1.3l2.1,3.6l-2.7,4l-5.7,3.2c0,0-3,3.2-4.2,3.6c-1.1,0.4-4,0-4,0
					L730.4,978.8z"/>
			</g>
			<g>
				<path class="st5" d="M718,970.6c0.8-0.2,3.6-1,3.6-1h4.2l2.7,1l0.8,0.9v3.8l0.4,3.6l0.6,1.9h-1.5l-2.1-0.6l-2.8-2.1l-1.7-2.8
					l-1.7-2.1l-1.7-1.1L718,970.6z"/>
			</g>
			<g>
				<path class="st5" d="M719.7,932.2l2.5-3.8l4.4-2.7l5.3-4l4.7-4.6l3-2.3l2.8,3.2v12.2l-5.1,1.9l-6.3,2.8l-3.4,3h-3.8l-4.2-2.3
					V932.2z"/>
			</g>
			<g>
				<path class="st5" d="M685.2,952.4h7.6l4.2-1.3h3.6l-3-1.9l-2.5-1.5l0.6-3.2l1.1-2.5h8l1.3-3.2l2.5-1.9h5.5c0,0,3.4,0.4,4,1
					c0.6,0.6,3.8,2.7,3.8,2.7l2.3,4.2l-0.8,7.6l-0.4,5.1l-6.1,0.9l-2.7,2.5v8.5h-3l0.6,2.7l-1.3,2.8h-5.5l-6.8-0.8h-4.4l-1.3-4.9
					l-2.8-1.3l-2.8-1.7l-2.3-2.8v-5.7L685.2,952.4z"/>
			</g>
			<g>
				<path class="st5" d="M682.1,968.7l4,1l3,2.5l2.1,4.4l-1.1,2.7h-2.3c0,0-2.5-2.5-2.7-3c-0.2-0.6-0.8-3-0.8-3l-3.4-1.1
					L682.1,968.7z"/>
			</g>
			<g>
				<path class="st5" d="M708.3,903.9c0,0-1.5,4.2-2.3,4.2c-1,0-1.9,1.5-1.9,1.5l2.1,3.2h3.4l1.1-3.4v-3L708.3,903.9z"/>
			</g>
			<g>
				<path class="st5" d="M723.9,896.5l-1.7,2.7l1,2.3h3.6l0.9-2.5v-2.5H723.9z"/>
			</g>
			<g>
				<path class="st5" d="M189.2,871.3l-3.8,0.9l-1.3,2.3l0.6,2.7l1.9,0.8l2.7-1.7l2.3,0.2l1.7-1.9v-2.3l-1.9-1H189.2z"/>
			</g>
			<g>
				<path class="st5" d="M193.9,875.6l-0.8,1.1c0,0-2.5,1.3-2.8,1.1c-0.6-0.2-1.7,0.6-1.7,0.6l-1.5,0.6l1.1,2.3h5.1l1.5-1.7l1.5-2.5
					L193.9,875.6z"/>
			</g>
			<g>
				<path class="st5" d="M236.3,885.7c0.2,0.2,1.5-2.3,1.5-2.3h5.7l1.1,2.3c0,0,0.8,2.1,0,2.1c-0.8,0.2-3.2,0.8-3.2,0.8H239
					l-1.9-1.1L236.3,885.7z"/>
			</g>
			<g>
				<path class="st5" d="M616.2,1048.3l-1.3,4.6l3.6,3.2l1.7-6.5L616.2,1048.3z"/>
			</g>
			<g>
				<path class="st5" d="M496.9,1035.8v2.8l3.4,1h3.4l1.7-1.9c0,0,3.2-0.2,3.6,0c0.4,0.2,4.4,0,4.4,0h3.6v-8.2
					c-1.9-1.1-3.4,0.8-3.4,0.8l-0.2,2.1l-2.7,2.1h-7c0,0-1.7,1.9-2.3,1.7c-0.6-0.2-2.8,0.4-2.8,0.4L496.9,1035.8z"/>
			</g>
			<g>
				<path class="st5" d="M508.1,1022.7l-1.7,3l-3.2,1.3v2.3l2.5,1.7l2.5,1.1h2.5l3.2-1.9v-5.3l-1-2.3H508.1L508.1,1022.7z"/>
			</g>
			<g>
				<path class="st5" d="M480,1020.4l-3.8,3.2l-0.9,2.8l-1.9,0.9l1.1,2.8h2.1l2.5-0.9l3.2-1l1.7-3l-0.8-2.7L480,1020.4z"/>
			</g>
			<g>
				<path class="st5" d="M489.7,1015.6l-2.5,1.7l1.3,2.1l3-1.9v-1.9H489.7z"/>
			</g>
			<g>
				<path class="st5" d="M496.9,1003.1h-2.7l-0.8,3.6l2.7,1.5l1.7-0.9l1.7-1.7l0.8-1.3L496.9,1003.1z"/>
			</g>
			<g>
				<path class="st5" d="M448.5,1015.6l-2.5,1.9l2.5,2.8l2.1-2.3L448.5,1015.6z"/>
			</g>
			<g>
				<path class="st5" d="M433.8,969.7l-2.3,2.3c0,0-0.2,4.2,0,4.4c1.4,0.4,2.8,0.7,4.2,1l3.8-2.1l-4-1.7L433.8,969.7z"/>
			</g>
			<g>
				<path class="st5" d="M525.8,977.5l-2.1,4.9v3.8l-1.5,4.2l-3.6,3.8v6.3l2.3,8.7h4.9v-5.1l2.8-3.2l3.8-0.6l4.9-2.3l3.8-2.8
					l2.3-5.9l-2.3-4.4l-5.7-0.2l-1.7-2.3l-1.9-0.9l-2.1,3.4l0.4-4l-0.8-1.9L525.8,977.5z"/>
			</g>
			<g>
				<path class="st5" d="M548.4,993c-0.6,0.3-1.3,0.5-1.9,0.8c-0.2,0-1,1.1-1,1.1c0.3,1,0.7,2,1.1,3c0.2,0.2,1.3,1.7,1.3,1.7
					l1.9,0.4h2.8l2.3-1l0.8-2.3v-1.5l-2.1-0.4l-1.7,0.8l-1.9,0.2l-1.1-1.1l0.4-0.8L548.4,993z"/>
			</g>
			<g>
				<path class="st5" d="M487.2,982.4l6.1-3.4l2.5-3.4l-0.4-4.7l11.4-4.2l1.3-2.5l2.5,2.5l1,3.4l-1,2.1l2.3-0.6l0.6-1.9l-0.9-1.7
					l2.3-1.3l2.1,2.1l1.3,3.2v3.4l-1.3,7.2l1.9-3.4l1.1-1.7l1.9,2.5v6.1l-2.1,3.4l-1.7,0.9l-1.3,1.1l-4.2-1.1l-3.8,0.2l-2.1,0.9
					l-1.3-1.7c0,0-3.6,0.6-4,0.6c-0.4,0-3.8,1.3-3.8,1.3s-1.9-0.6-2.1-1c-0.1-0.5-0.1-1,0-1.5l0.2-3.8l-1.5-2.8l-2.8,0.6l-3.4,0.4
					L487.2,982.4z"/>
			</g>
			<g>
				<path class="st5" d="M482.3,969.7h3.6l5.1,0.6l2.5,1.3v3l-1,2.1l-3,2.3l-3,1.9l-1.5-1.9v-1.5l3-1.3l-3,0.2l-0.9-2.5v-2.3
					L482.3,969.7z"/>
			</g>
			<g>
				<path class="st5" d="M495.4,944.2v3.2l-2.8,3.2l-5.3,3.2v2.3l-0.6,1.7l1.7,0.6l-0.2,1.7l-2.1,1.1l-1.7,0.8l1,0.8h1.1l0.2,1.3
					l-1.7,0.6l-1.1,1.1v2.1l2.8,0.6h4.9l2.3,1.1l2.8-0.8l3.4-2.1l2.8-1.1l2.3-1.1l-0.4-2.3l1.3-1.3l-2.1-2.1l-2.3-1.1l1.1-1.5
					l1.9-0.6c0,0,1.7-0.9,1.3-1.1c-0.4-0.2,0-2.5,0-2.5l-1.3-1.7l-3.2-1.3l-2.3-2.1l-1.5-2.1L495.4,944.2z"/>
			</g>
			<g>
				<path class="st5" d="M481.7,944.2h2.3l2.7,0.6l2.1,1.7l-0.8,2.1c0,0-0.4,2.5-0.6,2.5s-1.3,1.7-2.1,1.1c-0.8-0.7-1.5-1.6-2.1-2.5
					l-1.3-1.5l0.6-1.9L481.7,944.2z"/>
			</g>
			<g>
				<path class="st5" d="M448.3,947.6l-1.3,1.5l0.8,2.7l3,0.6l2.5-0.4c0,0,1.1-2.8,0.8-3c-0.4-0.2-1.3-3-1.3-3h-1.9v1.9L448.3,947.6
					z"/>
			</g>
			<g>
				<path class="st5" d="M350.8,903.9l-4,4.4v3.6l3.4-1.1l4.7-0.6l3.6-0.2l3.6-2.1l-0.8-2.8h-4.2L350.8,903.9z"/>
			</g>
			<g>
				<path class="st5" d="M348.4,912.9l-2.3,2.1l1.1,4l3.8,1.3l3.4,3.2l1.3,3l2.8-1.7v-4l-1.7-3.8l-2.5,0.2l-3.4-1.5l-0.6-2.1
					L348.4,912.9z"/>
			</g>
			<g>
				<path class="st5" d="M352.4,911l-0.6,1.7v1.5l1.5,1.5h1.3l2.5,0.6l1,1.7l1.7,0.6l3.6-0.4l1.7-0.2l2.5-2.5l0.8-3v-4l-2.1-1
					l-2.5-0.4l-0.8,1.7c-0.5,0.5-1.1,0.9-1.7,1.3c-0.2,0-2.8,0.9-3,0.9c-0.2,0-2.5-0.2-2.5-0.2L352.4,911z"/>
			</g>
			<g>
				<path class="st5" d="M404.4,917.8c-0.6,0.5-1.2,1.1-1.7,1.7l0.8,2.3l2.1,1.1l1.7-0.6h2.5l1-2.1l-0.2-2.1l-2.1-1.1l-2.8,0.6
					L404.4,917.8z"/>
			</g>
			<g>
				<path class="st5" d="M398.5,933l-1.9,2.3l0.9,2.3l1,1.3l4.9-0.8l3.4-1l2.3-1.9l1.3-2.3v-3.4l-1.9-1.9H405l-1.3,2.3v1.7l-1.5,1.5
					H400L398.5,933z"/>
			</g>
			<g>
				<path class="st5" d="M391.3,927.7l-3.4,2.8l-2.1,2.7l-1.7,2.7v2.3l2.7-1l1.1,3.2l2.3-3.2l3.4-1.1l1.5-2.8l1.5-3.8l-3,1.1
					L391.3,927.7z"/>
			</g>
			<g>
				<path class="st5" d="M371.7,938.9l2.8-5.7l5.9-3.6h3.6l-0.8,3.6l-4.4,4l1.3,3.2l-2.5,2.1L371.7,938.9z"/>
			</g>
			<g>
				<path class="st5" d="M385.2,942.5l-4,1.7l0.6,1.9h4.2l0.8-2.5L385.2,942.5z"/>
			</g>
			<g>
				<path class="st5" d="M366.2,931.3v2.8l1.1,1.9l2.1-1.9l2.3-1.9v-2.7h-2.7L366.2,931.3z"/>
			</g>
			<g>
				<path class="st5" d="M397.6,908.9l-2.5,1.9l1.1,1.3l2.1,0.8l1.5,0.8h3.4v-3.4c-1.9-0.2-2.7-2.3-2.7-2.3L397.6,908.9z"/>
			</g>
			<g>
				<path class="st5" d="M382.9,913.6l-0.8,1.9l2.3,1.7l2.8,2.3l0.8,3.6v2.7h3.6l2.5,1.9l2.3-1.9c0,0-1.7-4.9-2.1-5.1
					c-0.4-0.2,0.6-2.3,0.6-2.3v-2.7c0,0-2.5-0.4-3-0.4c-0.6,0-0.8,1.3-1.7,1.1c-0.9-0.4-4.2-1.9-4.2-1.9L382.9,913.6z"/>
			</g>
			<g>
				<path class="st5" d="M386.7,910v1.9l2.7,1.5l4.9-0.8c0,0-3-2.1-4-1.9S386.7,910,386.7,910z"/>
			</g>
			<g>
				<path class="st5" d="M398.3,915.9l-1.7,3l0.8,2.3l1.9,3.2l1.5-2.1c0,0-1.5-1.7-1.5-2.7C399.1,918.4,398.8,917.1,398.3,915.9z"/>
			</g>
			<g>
				<path class="st5" d="M377.8,915.2l4.4,2.1l3.4,3.4v4.4l2.1,2.7h-1.9l-1.9-2.7l-1.1-3.6l-3.2-1.3l-1.7-2.8h-2.5L377.8,915.2z"/>
			</g>
			<g>
				<path class="st5" d="M373.1,918.4l2.3,1.3l2.5,1.7l-1.1,0.8l-2.8,0.9l-2.1-2.8L373.1,918.4z"/>
			</g>
			<g>
				<path class="st5" d="M374.8,923.7l2.5-0.9l1-1l2.1,1.1l0.2,1.5l1.7,1.7l1.9,1.7l-1.5,0.4l-1.3-1.7l-2.7-1.5l-0.4-0.6l-2.5,0.6
					L374.8,923.7z"/>
			</g>
			<g>
				<path class="st5" d="M369.1,923.1l-2.7,2.7l1.9,1.5h2.3l1.9,0.4c0.1-0.4,0.1-0.8,0-1.1c-0.2-0.4-2.3-1.1-2.3-1.1L369.1,923.1z"
					/>
			</g>
			<g>
				<path class="st5" d="M374.8,927.7l-1.9,1.3l0.4,1.1l0.2,1.3l1.9-0.4l1-0.4l1.5-1.1l-1.5-0.8L374.8,927.7z"/>
			</g>
			<g>
				<path class="st5" d="M280.2,870.1l-1,4.4h4.9v-3.2L280.2,870.1z"/>
			</g>
			<g>
				<path class="st5" d="M287.4,874.5l-2.1,3.2c2.1,0.8,4,2,5.7,3.4l1.5,3.4l1.7-3.4l-1.5-3.4l-1.7-2.3L287.4,874.5z"/>
			</g>
			<g>
				<path class="st5" d="M298.2,832.7l1,2.8l-1,3.4l3.2-3.2l3-2.1l3.4,0.8l2.5,1.3c0,0-3.4,3.6-4.2,3.2c-0.8-0.6-1.9,0-1.9,0h-2.8
					l0.6,3.8l2.5,2.5l3.6-1.7l2.5,1.7c0,0,1.7,3.2,0,3.2c-1.7,0-3.4-0.8-4.2,0c-0.6,0.9-1.2,1.8-1.5,2.8h4l0.8,5.5l-0.6,5.3h-4.2
					l-1.5,2.3l-4.9-2.1l-6.5-1l-3.2-1.3l-4.2-0.2l1.3-6.8l-1.7-2.5l6.8,0.2l3.4-2.3h-7.2l-3-1.3l1.3-4.2l2.5-2.5l2.1-3l2.8-0.6
					l-0.6-2.8L298.2,832.7z"/>
			</g>
			<g>
				<path class="st5" d="M275.4,833.7l3.8-0.9l4.9-3.4l3.8-4.2h5.3l1.3,2.5l-1.5,3.4l-3,4l-4.6,4.6v3.4h-6.3l4,1.7l-1.5,2.8l-3.4,3
					l-4.2,2.8h-3.4l1.3,3.4l-1.3,3.8h-4l2.8,3.8l-2.8,1.3h-2.8v8.9H261l-2.3-2.3l-7.6-1.1l-6.3,1.1v-4.7l3.8-1.7l4.2,1.5l0.8-1.7
					l-3.2-1.3l-2.3-2.7l1.7-3l2.8-1.3l4.2,1.1l2.7-0.2l1.1-2.3l0.2-4.2l-0.4-1.5l-5.7,0.6l-4.2-0.4l-11,0.4l-2.8-1.9l-6.8,2.3
					l-5.3-0.8l2.3-5.3l0.6-3l2.5-1.1l6.1-9.5l1.9-0.2l4.9,0.2l1.1,1.7l1.9,3.2l2.1,2.3l2.3,0.6l1.1-1.5l-1.5-3l-2.8-1.1l-1.7-1.9
					l-1.3-2.5l0.9-0.9c0,0,3.2-0.4,3.4-0.4c0.8,0.5,1.7,1,2.5,1.5l2.8,1.7l1,2.7l3,1.9l1.7-1l1.7-0.8l-0.4-3.4l-3.8-0.4l-2.8-1.1
					l-1.9-2.3v-4.4l0.2-3.4l3.2-0.6l1.3-3.4l2.8-3.2l2.1-3h3.4l2.7,2.8l-1.9,2.3l-1.1,2.5l0.8,2.3l2.5-1.3l1.3-0.8l1.5-3.6
					c0,0,0.4-2.5,0.2-2.8c-0.2-0.4,0.4-2.3,0.4-2.3l-0.2-1.7c0,0,3-1.1,3-1c0,0.2,4.7,0,4.7,0l4.6,1.7c0,0,2.7,1.1,2.3,1.3
					c-0.4,0-0.4,4-0.4,4l-0.8,2.1l0.8,2.1l3,1.9c0,0,0.8,2.1,0.4,2.1c-0.4,0-1.5,1.9-1.7,1.9s-2.8,2.7-2.8,2.7l-1.5,3.4l-4.9,3
					l-3.6,1.7L275.4,833.7z"/>
			</g>
			<g>
				<path class="st5" d="M484.6,515.7l-3,1.1l-1.7,2.5l-0.4,4.2l1.5,3.4l3.6,2.9l1.9,1.1l2.1-0.8l1.7-3.2l0.6-4.4l-1.3-5.3l-1.7-1.1
					L484.6,515.7z"/>
			</g>
			<g>
				<path class="st5" d="M410.5,898.4h-2.7l-2.1,1.7l-1,2.1v3.2h4.4l1.7-3.6L410.5,898.4z"/>
			</g>
		</g>
	</g>
</g>
</svg>
