<?xml version="1.0" encoding="utf-8"?>
<!-- Generator: Adobe Illustrator 21.0.2, SVG Export Plug-In . SVG Version: 6.00 Build 0)  -->
<svg version="1.1" id="Layer_1" xmlns="http://www.w3.org/2000/svg" xmlns:xlink="http://www.w3.org/1999/xlink" x="0px" y="0px"
	 width="900px" height="807.2px" viewBox="0 0 900 807.2" style="enable-background:new 0 0 900 807.2;" xml:space="preserve">
<style type="text/css">
	.st0{fill:#082890;}
	.st1{opacity:0.5;}
	.st2{fill:#93A5D6;}
	.st3{fill:#6178B7;}
	.st4{fill:#80B1BC;}
	.st5{opacity:0.5;fill:#93A4D4;}
	.st6{fill:#002E64;}
	.st7{display:none;fill:none;stroke:#000000;stroke-miterlimit:10;}
</style>
<rect x="0" y="0.2" class="st0" width="900" height="806.9"/>
<g transform="translate(260.012 66.714)" class="st1">
	<g>
		<path class="st2" d="M261.1,76.3l4.4-1l3.4-3.2l4-1.3L279,70l12.3,0.8l11.2,3l7,4l5.5,8l1.1,4.2l-1.1,3l3.8,3.4l2.5,6.3l-20.1-6.5
			l-9.9-7.2l-14.1-5.9L262,81.8l-3.2-3.2L261.1,76.3z"/>
	</g>
	<g>
		<path class="st2" d="M234.8,104.2l2.8,4.4l2.8,1.7l1.9,3.4v6.3l-1.9,2.1l-3.4,1.7l-4.2,0.6l-3.6-0.6l0.8,7l1.3,6.1l6.3,4.4l7,3.2
			c0,0,4.6,0.8,5.1,0.9c0.6,0.2,5.1-2.8,5.1-2.8l2.5-4.2l0.6-4.7l0.8-3l0.9-3.8v-6.1l-0.9-5.1l-3.4-2.1l-1-0.4h-3.8l-4.2-1.5
			l-1.9-1.5l-1.9-2.8l-2.8-2.1L234.8,104.2z"/>
	</g>
	<g>
		<path class="st2" d="M214.7,107.8l2.5,2.5l1.1,3.2v7.2l1.1,2.8l1.9,1.1l5.1,0.4l-1.7,4.6h-3.4l-2.1-1l-4.6-3.6l-0.2-2.8l-2.5-5.9
			l-1.9-2.8L214.7,107.8z"/>
	</g>
	<g>
		<path class="st2" d="M200.1,122.3l1.7,4v3.4l-0.8,2.7l-1.9,1.3h-2.8l-2.5-2.3l2.1,8.4l3.4,8.4l-7,1.3l-1.7,4.6l9.7,4l5.5-2.5
			l3.6,4.6h6.5l1.9-1.1l0.6-2.1l0.6-4l-0.6-3.2v-1.9l0.6-4.4l-6.5-17.3l3.8-3.2l-2.3-4.9l-9.5,2.3L200.1,122.3z"/>
	</g>
	<g>
		<path class="st2" d="M188.3,99.7l4.2,2.3l3.2,2.3l4.6,6.1l0.8,3.2v3.8l2.3,1.3h7.4l4-2.3v-8.5l-8.9-7.2l-4.4-2.1l-1.1-2.5
			l-0.6-2.8L188.3,99.7z"/>
	</g>
	<g>
		<path class="st2" d="M135.1,122.7l-1.1,0.6l-1.1-0.4l-0.8-1v-1.5l0.9-2.5l0.6-1.5l-0.8-1.1c0,0-2.3-0.2-2.7,0s-2.5,1.9-2.5,1.9
			l-1.9,3.6l-0.9,2.8v2.7l0.6,2.5l0.4,2.8v2.1l-0.8,2.7l-0.6,3.2l-0.6,3v2.8l0.8,2.8l0.6,1.5l1.9,2.5h2.1l8.4-21.3L135.1,122.7z"/>
	</g>
	<g>
		<path class="st2" d="M106.8,163.7l-4,4.6l-0.8,3.2l1.1,3.2l2.5,3l3,1.7l3.6,0.8h4.4l1.9-1.1l0.8-3.4v-2.1l0.8-2.1l1.5-2.5l2.1-2.1
			l2.5-1.7l3-0.6l-2.7,17.7l-5.7,44.8h-10.4l-1.9-1.7l-3.6-0.4l-11.6-17.9l9.9-14.6l-12.5-19l5.7-9.9h10.4V163.7z"/>
	</g>
	<g>
		<path class="st2" d="M261.6-20.4v3l-2.8,1.7l-2.8,2.5l3.8,4.4l4.9,2.8l1.7,2.8l1.3,4.2h2.1l3,1.5l8-0.9L279.1-13l-13.7-9.1
			L261.6-20.4z"/>
	</g>
	<g>
		<path class="st2" d="M-71.9,33v3.8l1.9,2.5c0.9,0.6,2,1,3,1.3c1.4,0.1,2.8,0.1,4.2,0l5.1,0.2l10.3,8l-9.3,10.3l-17.7-3.4
			l-12.4-22.6l6.3-4.4L-71.9,33z"/>
	</g>
	<g>
		<path class="st2" d="M-33.9,50.3l2.5,1.5l2.3,3.6l3.2,1.7h4.9l4.4,1.9l4,3.6v3.6l2.7,1.7l3.4,2.1l3,3.8l2.7,2.5l2.7,2.5h3l1.5,3.4
			h4.3l3,2.7l1.9,3v3.6l2.7,1.7h3.6l2.8,3.6l3.2,1.9v2.7l4.4,1.3l5.9,3.2l3,3.2l3.2,2.7l1.1,3.2l5.5,0.2l4,1.1l2.3,4.4l9.9,1.1
			l-9.9,11.8l-59.5-23.4l-20.9-41.6l-8.2,7.6l-16.3-3.8l-7.4-7.6l4.9-9.5L-33.9,50.3z"/>
	</g>
	<g>
		<path class="st2" d="M288.8,131l-1.1,3.6l-1.3,3.4l-1.9,1.7l-4.6,1.5l-8.7,2.1l-3.8,6.5l5.5,3.2h4.6l2.3-2.1l3.6-0.8l3.4,0.4
			l3.4-0.2l1.9-1.1l1.7-1.9l4.4-4.9l11.6-12.7v-3.8l-8.9,0.8l-9.5,0.8L288.8,131z"/>
	</g>
	<g>
		<path class="st3" d="M326.8,115.6h3.8l2.7,5.5l3.8,1.9l4,1.5h5.7l4.6-1.7l5.5-0.6h8.7l6.8,1l8.2,3l5.7,2.3l5.7,3.6l3,2.1h3.6
			l6.1-2.7l3.2-3.6l2.1-2.8l4.9-0.9h3.8l5.9,0.9l4.4,1.9l6.1,2.3l7.4,2.3l8.5,0.8l8.4-0.4l2.8-0.8v5.5l-1.5,2.8l-0.2,4.2l-0.9,2.3
			l-3,2.5l-4.4,2.1l-6.5,1.3l-8.4,0.8l-7,0.8l-3.2,0.8l-1.1,2.5l-1.9,1.7l-2.8,0.8l-4.9,0.9l-4,2.3l-3,3.8l-0.6,4.2l-1.9,2.8
			l-2.5,1.3h-5.5l-0.6,2.7h-9.7l-0.6-2.8l-2.3-1.3l-2.1,1l-1.3,2.1l-1.9,3.4l-3.8,4.2l-5.1,4.9l-1.5,3.8l0.9,2.7l2.5,2.1l4.6,2.1
			l5.3,1.3l1.7,1.9l3.8,2.3l5.7,2.5l6.1,3.4l0.9,2.1l0.4,3l-0.8,4.2l0.4,4l0.4,2.3l-0.9,2.7l-2.1,2.1l-0.2,3l-1.5,2.1l-3.4,2.3
			l-5.3,4l-5.7,3l-2.7,4.4c0,0-0.4,2.5,0,3.6c0.3,1.2,0.6,2.5,0.8,3.8l0.6,2.5l2.1,2.7l4.2,1.7l4.6,2.8l1.7,2.5l-0.2,2.8l-1.1,3.6
			l-1.3,2.8v3.6l-1.7,1.9l-3.4,1.7h-2.7l-2.1,1.7l-0.2,2.5l0.4,2.8l-2.3,2.7l-5.1,3h-4.7l-5.9,0.9l-4.4,1l-4.7,2.5l-1.9,3.4
			l-0.6,5.3l3,0.9l2.5,3l4.4,9.7l4.2,7l5.5,9.1l2.8,2.8l2.7,2.5l0.8,4.6l-0.8,5.1l-2.5,2.5l1.3,2.5l3.6,1.7h5.5l3.2-1.7l1.9-5.9
			l0.8-6.1l0.2-3.4l2.7,1.3l3.4,4.6l3.2,7.2l1.1,4.4l5.3,5.9l3.6,3.8l5.7,1h2.8l4.9,3.6l1.7,3.6l1.5,3.2l3.8,1.7l5.3,1.1l3.4,1.3
			h2.8l3-2.5l3.8-0.2l7.4,0.2l1.7,2.5l2.1,3.4l4.6,3.8l3.6,2.7l4.9,3.4h4.4l2.5-1.7v-4.9l-2.7-5.1l-1-4.4l0.2-4.6l1.3-4.2l3.6-1.7
			l5.1-1.5h3.4l1.7-2.3v-2.7l1.1-3.2l3.4-1.7l3.4-1.3l1.3-3.2l4-1l3.6,1l1.7,5.3l2.1,11.6l-0.8,11.4l1.9,4.2l4,3.8l6.5,5.3l1.7,3.2
			l1.1,3.6l-0.8,3.6h-2.5l-6.1,1.3l-0.6,5.1l1.1,3.8l3.6,3.6l4.2,1.1l1.9,5.1v5.9l-1.5,2.7l-2.7,3.6l-3,1.1l-3,0.8h-2.5l-4,2.7
			l-1,8.4l-2.7,5.3L505,466l-3.2,3.6l-3.2,1.7h-4.2l-3.4-3l-1.9-5.3l1-6.1l-1.3-6.3l-2.7-2.5l-7,0.6l-4.4,0.6l-4.4-0.4l-3.6-1
			l-2.7-1.7l-2.8,1.7l-3.6,2.8l-2.7,0.6l-2.8-1.3l-1.1-4.9l1.5-11l-5.9-0.2l-2.5,1.9l-0.9,6.5l-4,4.7l-4.4,2.3h-3v-4.4l1.5-7.6
			l1.5-2.7l-0.4-3.6l-3.6-1.5l-4.4-0.8l-3-2.7l-6.3-0.9l-7.8-1.5l-2.5-3l-0.9-2.8l-5.3-2.1l-5.3-0.2l-3.4,1.7l-2.3,4.7l-4.2,3.4
			l-2.5,2.8l-1.3,5.3l1.1,3.2l-1.3,3.2l-4.9,3.6h-7.4l-8.2-0.2l-6.1-1.1l-4.2-1.7l-4.9,0.6l-4.4,3.4l-5.3,2.8l-8.4-1.7l-7-4.2
			l-7.2-0.4l-8.4,3l-4.9,4.4l-3.8,4v6.5l4.7,5.1l6.6,4l4.7,2.7l5.7,1.1l4.7,1l0.8,3.8l-3.4,3.8l-4.9,1.3l-7-0.9l-6.5-3l-4-3.2
			l-1-2.5l-4,0.8l-2.1,3l-2.7,0.4l-1.7,4.2v5.5l1.3,4l6.6,4.7l0.8,3.4l0.2,3.8l0.6,2.7l3.4,2.1h3.4l4,5.5l0.6,3.6l1.9,2.5l-0.6,5.3
			l-3.2,4v4.6l0.6,4.2l1.9,1.7l4.9,1.3l1.3,7.4l-1.1,3.8v4.7l-4.4,0.9h-4.2l-1.5,1.4l-1.5,4.2h-2.7l-1-3l-3.6-1.3l-4.4,0.2l-3.2-2.1
			l-3.6,0.8l-3,4.4l-3.8,2.8h-5.3l-4,3v5.3l-1.9,2.5l-4.4,2.3l-2.7,3l-4.6,2.5v8.9h-3.2l-1.9-2.3l-3-1.1l-5.3,0.8l-10.8-8.7
			l-4.4-3.8l-12.9-4.9v-10.5l-5.3-4.4l-2.3-8l-1.1-5.5l-3.2-4.6l-7.8-7.2c0,0-3.4-2.5-5.5-2.8c-2.1-0.4-5.1-2.1-5.7-1.7
			c-0.4,0.4-5.7,0-5.7,0l-6.5,1.7l-6.1,2.8h-4.9l-2.7-1.7v-10.8l-1.9-4.6l-4-1.7h-4.4l-4.7,1.7l-7.8,1.3h-6.3l-2.5-1.3l-1.1-3.4
			l-2.8-5.5l-3.4-4.9l-3.4-0.9h-4l-2.7,1.9l-8.4,3.8l-5.7-0.8l-5.3-1.9l-5.1-6.1h-2.3l-1,3.2v3l-2.8,0.8h-3.6l-3.2-0.8l-3-3h-3.2
			l1.1-3.2l0.9-4l2.3-2.1l1.3-2.5l-1.3-2.5l-2.3-1.7l-4.2-0.2l-7,0.2l-4.7,1.5l-3.8,3.6l-4,4.9l-3.2,3l-3.8-0.9l-1.7-2.1l1-4.6
			l1.1-3.6l-0.2-4.6l-0.8-4.2l-1.9-3.6l-2.7-2.3l-2.5-0.4l-2.8-1.1l-5.1-5.5l-1.1-4.6l-2.8-3l-2.5-2.7l-6.3-16l0.8-5.1l1.7-2.8
			l4.7-1.1l1.1-4l-0.8-8.4l-1.7-5.1l-3-3.8l-1.3-3.4l0.6-6.1l-0.2-4L4.9,383l-6.1-6.3L-9,371l-11.8-4.7l-4.4-3.8l-1.9-5.9l-2.5-7.8
			l-1.5-4.7l1.5-4.2l3.2-4l3.4-1.3l5.3-0.8l6.8,0.2l2.5-1.3l0.6-4.4l3.4-1.9l3-2.1l1.3-3.6l-1.3-2.8l-4.2-4.9l-5.5-1.3l-6.1-1.7
			l-9.3,0.4l-4.7-2.3L-35,303l-1.1-5.1v-8.4l2.7-3.8l100.5-66.9l51.3-8.9l43.1-18.2l14.8-9.1l5.3-1.5l10.1-9.5l13.9-16l9.9-20.9
			l3.6-5.9l30-3l55.1-15.6h10.5L326.8,115.6z"/>
	</g>
	<g>
		<path class="st2" d="M240.9,102.3l1.5,5.3l4,4.6l3.4,1.1l2.8,0.2l2.5,0.2l3.6,1.9l0.4,2.5l0.4,3.4v1.3l10.3-2.8l0.6-9.5l-0.2-11.2
			l-5.1-2.7l-4.4-2.9h-3.2l-4.8,1.8l-6.8,3L240.9,102.3z"/>
	</g>
	<g>
		<path class="st2" d="M285,93.6l-7,3.8l-0.6,10.1v7.4l-2.7,4l19.9-5.7l-5.5-16.5L285,93.6z"/>
	</g>
</g>
<g transform="translate(340.41 0.57)">
	<g transform="translate(282.535)">
		<g>
			
				<rect x="-196.5" y="0.9" transform="matrix(0.5039 -0.8638 0.8638 0.5039 -97.9012 -168.0461)" class="st2" width="2.6" height="0.7"/>
		</g>
		<g>
			<path class="st2" d="M-199.7,18.8h-0.7v-0.4h0.7V18.8z M-199.7,17.3h-0.7v-1.7h0.7V17.3z M-199.7,14.6h-0.7v-1.7h0.7V14.6z
				 M-199.7,11.8h-0.7v-0.5l0.4-1.2l0.6,0.2l-0.4,1.1L-199.7,11.8L-199.7,11.8z M-199,9.2l-0.6-0.2l0.5-1.6l0.6,0.2L-199,9.2z
				 M-198.2,6.7l-0.6-0.4l0.9-1.4l0.6,0.4L-198.2,6.7z"/>
		</g>
		<g>
			<polygon class="st2" points="-202.2,25 -202.5,24.4 -200.4,23 -200.4,20.3 -199.7,20.3 -199.7,23.3 			"/>
		</g>
		<g>
			
				<rect x="-208.1" y="27" transform="matrix(0.8515 -0.5244 0.5244 0.8515 -45.0407 -104.2929)" class="st2" width="2.9" height="0.7"/>
		</g>
	</g>
	<g transform="translate(332.713 56.45)">
		<g>
			<polygon class="st2" points="-221.3,-16.2 -222.7,-18.2 -224,-16.2 -224.5,-16.6 -222.7,-19.5 -220.7,-16.6 			"/>
		</g>
		<g>
			<path class="st2" d="M-222.4,33.2h-0.7v-2h0.7V33.2z M-222.4,29.8h-0.7v-2h0.7V29.8z M-222.4,26.4h-0.7v-2h0.7V26.4z M-222.4,23
				h-0.7v-2h0.7V23z M-222.4,19.7h-0.7v-2h0.7V19.7z M-222.4,16.3h-0.7v-2h0.7V16.3z M-222.4,12.9h-0.7v-0.6l-0.1-1.4h0.7
				L-222.4,12.9z M-223.2,9.5l-0.1-2h0.7l0.1,2H-223.2z M-223.4,6.1l-0.1-2h0.7l0.1,2H-223.4z M-223.5,2.7l-0.1-2h0.7l0.1,2H-223.5z
				 M-223.7-0.6l-0.1-2h0.7l0.1,2H-223.7z M-223.9-4l-0.1-2h0.7l0.1,2H-223.9z M-224.2-7.4l-0.3-2l0.7-0.1l0.3,2L-224.2-7.4z
				 M-224.7-10.7l-0.3-2l0.7-0.1l0.3,2L-224.7-10.7z"/>
		</g>
		<g>
			<polygon class="st2" points="-223,39.1 -223,35.5 -222.4,35.5 -222.4,37.6 -220.8,36.2 -220.4,36.7 			"/>
		</g>
		<g>
			<path class="st2" d="M-218.8,32.9l-0.6-0.2l0.7-2l0.6,0.2L-218.8,32.9z M-217.7,29.5l-0.6-0.2l0.7-2l0.6,0.2L-217.7,29.5z
				 M-216.6,26.1l-0.6-0.2l0.7-2l0.6,0.2l-0.2,0.5L-216.6,26.1z M-215.4,22.8l-0.6-0.2l0.8-2l0.6,0.2L-215.4,22.8z M-214.2,19.4
				l-0.6-0.2l0.1-0.3l-0.2-1.7l0.7-0.1l0.2,1.8L-214.2,19.4z M-215.1,15.8l-0.3-2.1l0.7-0.1l0.3,2.1L-215.1,15.8z M-215.5,12.3
				l-0.1-1.1l-0.2-1l0.7-0.1l0.2,1l0.1,1.1L-215.5,12.3z M-216.1,8.8l-0.4-2.1l0.7-0.1l0.4,2.1L-216.1,8.8z M-216.7,5.3l-0.4-2.1
				l0.7-0.1l0.4,2.1L-216.7,5.3z M-217.3,1.8l-0.4-2.1l0.7-0.1l0.4,2.1L-217.3,1.8z M-217.9-1.8l-0.2-1.2l-0.4-0.7l0.6-0.3l0.5,0.8
				l0.2,1.3L-217.9-1.8z M-219.2-4.9l-0.8-1.4l-0.1-0.7l0.7-0.1l0.1,0.6l0.7,1.2L-219.2-4.9z M-220.2-8.4l-0.2-2.1l0.7-0.1l0.2,2.1
				L-220.2-8.4z M-220.7-11.9l-0.2-2.1l0.7-0.1l0.2,2.1L-220.7-11.9z"/>
		</g>
	</g>
	<g transform="translate(276.263 166.499)">
		<g>
			<polygon class="st2" points="-196.3,-41.3 -197,-41.3 -197,-45.2 -199,-47 -198.5,-47.5 -196.3,-45.5 			"/>
		</g>
		<g>
			<polygon class="st2" points="-202.7,-50 -205.3,-51.4 -206.1,-55.5 -205.4,-55.6 -204.7,-51.8 -202.4,-50.5 			"/>
		</g>
	</g>
	<g>
		<path class="st2" d="M115.1,33.9h-1.9v-0.7h1.9V33.9z M111.9,33.9H110l-0.3-0.3l0.5-0.5l0.1,0.1h1.6L111.9,33.9L111.9,33.9z
			 M108.8,32.7l-1.3-1.3v-0.5h0.7v0.2l1.1,1.1L108.8,32.7z M108.2,29.6h-0.7v-2h0.7V29.6z M108.2,26.3h-0.7v-2h0.7V26.3z"/>
	</g>
	<g>
		<path class="st2" d="M170.7,55.5l-0.4-0.3l0.3-0.4l0,0h0.1l0.1-0.1l0,0l1.4-0.6l0.3,0.6L170.7,55.5z M169.3,54.3l-0.8-0.7
			l-0.8-0.3l0.2-0.6l0.9,0.4l0.9,0.7L169.3,54.3z M173.7,54.1l-0.3-0.6l1.8-0.8l0.3,0.6L173.7,54.1z M181.7,53.3l-1.7-0.1v-0.7
			l1.5,0.1l0.3-0.1l0.3,0.6L181.7,53.3z M178.7,53.2l-2-0.1v-0.7l2,0.1V53.2z M166.5,52.9l-1.9-0.7l0.2-0.6l1.9,0.7L166.5,52.9z
			 M183.3,52.6L183,52l1.8-0.8l0.3,0.6L183.3,52.6z M163.4,51.7l-1.9-0.7l0.2-0.6l1.9,0.7L163.4,51.7z M186.4,51.3l-0.3-0.6l1-0.5
			l0.3,0.6L186.4,51.3z M160.3,50.5l-1.6-0.6l-0.3-0.2l0.3-0.6l0.3,0.2l1.5,0.6L160.3,50.5z M157.2,49.1l-1.7-1l0.3-0.6l1.7,1
			L157.2,49.1z M154.3,47.4l-1.7-1l0.3-0.6l1.7,1L154.3,47.4z"/>
	</g>
	<g>
		<path class="st2" d="M246.8,143h-1.9v-0.7h1.9V143z M243.5,142.7l-1.9-0.5l0.2-0.6l1.9,0.5L243.5,142.7z M240.3,141.5l-0.6-1.9
			l0.6-0.2l0.6,1.9L240.3,141.5z M240.1,138.2h-0.7v-2h0.7V138.2z M240.1,134.8h-0.7v-1.1l-0.1-0.9l0.7-0.1l0.1,0.9V134.8z
			 M218.2,132.5h-2v-0.7h2V132.5z M214.8,132.5h-2v-0.7h2V132.5z M211.5,132.5h-2v-0.7h2V132.5z M208.2,132.5H208l-1.9-0.2l0.1-0.7
			l1.8,0.2h0.1L208.2,132.5L208.2,132.5z M219.5,132.5v-0.7c0.8,0,1.4-0.1,1.9-0.2l0.1,0.7C221,132.4,220.3,132.4,219.5,132.5z
			 M204.8,132.2l-2-0.2l0.1-0.7l2,0.2L204.8,132.2z M201.5,131.8l-2-0.2l0.1-0.7l2,0.2L201.5,131.8z M239.2,131.5l-0.2-2l0.7-0.1
			l0.2,2L239.2,131.5z M223,131.4l-0.6-0.2c0.1-0.4,0.3-1,0.8-1.9l0.6,0.3c-0.5,1.1-0.7,1.5-0.7,1.7l0,0
			C223,131.3,223,131.4,223,131.4z M198.3,130.7l-1.1-1.7l0.6-0.4l1.1,1.7L198.3,130.7z M224.3,128.5l-0.6-0.3
			c0.9-1.7,0.9-1.7,1.1-1.8h0.2v0.4l0.1,0.1C225.2,126.9,224.8,127.6,224.3,128.5z M196.4,128.3l-1.7-1l0.3-0.6l1.7,1L196.4,128.3z
			 M238.8,128.2l-0.1-1.3l-0.3-0.1l0.2-0.6l0.6,0.2l0.2,1.7L238.8,128.2z M226.4,126.9l-0.1-0.7l2-0.2l0.1,0.7L226.4,126.9z
			 M193.5,126.6l-0.2-0.1l-0.4-2l0.7-0.1l0.4,1.9l-0.2,0.1L193.5,126.6z M237.2,126.3l-1.9-0.7l0.2-0.6l1.9,0.7L237.2,126.3z
			 M229.8,126.1l-0.4-0.5l1.6-1.2l0.4,0.5L229.8,126.1z M234.1,125.1l-1.9-0.7l0.2-0.6l1.9,0.7L234.1,125.1z M192.5,123.2l-0.4-2
			l0.7-0.1l0.4,2L192.5,123.2z"/>
	</g>
	<g>
		<path class="st2" d="M220.7,664l-0.1-0.7l2-0.4l0.1,0.7L220.7,664z M219.3,663.6l-1.9-0.7l0.2-0.6l1.9,0.7L219.3,663.6z
			 M224,663.3l-0.1-0.7l1.1-0.2l0.5-0.5l0.4,0.5l-0.7,0.6L224,663.3z M216.2,662.3l-1.2-0.5l-0.6-0.5l0.4-0.5l0.6,0.5l1,0.4
			L216.2,662.3z M226.9,661.6l-0.4-0.5l1-0.8l0.2-0.5l0.6,0.3l-0.3,0.6L226.9,661.6z M213.4,660.5l-1.5-1.3l0.4-0.5l1.5,1.3
			L213.4,660.5z M228.9,658.8l-0.6-0.3l0.8-1.8l0.6,0.3L228.9,658.8z M210.8,658.4l-1.3-1.1l-0.3-0.1l0.3-0.6l0.3,0.2l1.3,1.1
			L210.8,658.4z M208.1,656.5l-1.7-1l0.3-0.6l1.7,1L208.1,656.5z M230.3,656.3l-0.2-0.6l1.9-0.6l0.2,0.6L230.3,656.3z M233.5,655.3
			l-0.2-0.6l0.5-0.2l0.5-1l0.6,0.3l-0.6,1.3L233.5,655.3z M205.2,654.8l-1.5-0.9h-0.1l0.1-0.7l0.3,0.1l1.6,0.9L205.2,654.8z
			 M202.3,653.7l-2-0.3l0.1-0.7l2,0.3L202.3,653.7z M198.8,652.9l-0.8-1.8l0.6-0.3l0.8,1.8L198.8,652.9z M235.4,652.5l-0.6-0.3
			l0.4-1l0.1-0.8l0.7,0.1l-0.1,1L235.4,652.5z M186.2,651.9l-1.7-0.5l0.2-0.6l1.5,0.4l0.2-0.1l0.4,0.6L186.2,651.9z M183.2,651
			l-1.9-0.5l0.2-0.6l1.9,0.5L183.2,651z M187.7,650.9l-0.4-0.6l1.7-1.1l0.3,0.6l-0.4,0.3L187.7,650.9z M179.9,650.1l-1.6-1.3
			l0.4-0.5l1.6,1.3L179.9,650.1z M197.4,649.9l-0.7-1.7h0.1v-0.4h0.4l0.8,1.8L197.4,649.9z M236.2,649.2l-0.7-0.1l0.3-2l0.7,0.1
			L236.2,649.2z M190.6,649.2l-0.3-0.6l1.7-1h0.2v0.5l0.1,0.1L190.6,649.2z M195.5,648.4l-2-0.1v-0.7l2,0.1V648.4z M177.3,648
			l-1.3-1.1h-0.1l0.1-0.6l0.3,0.1l1.4,1.2L177.3,648z M174.5,646.6l-1.9-0.4l0.1-0.6l1.9,0.4L174.5,646.6z M236.6,645.9l-0.7-0.1
			l0.3-2l0.5-0.1l0.1,0.4h0.1v0.1v0.1l0,0L236.6,645.9z M171.5,645.1l-0.5-1.9l0.6-0.2l0.5,1.9L171.5,645.1z M238.1,644.1l-0.2-0.6
			l1.9-0.5l0.2,0.6L238.1,644.1z M241.4,643.2l-0.2-0.6l1.9-0.5l0.2,0.6L241.4,643.2z M170.7,641.9L170,640l0.6-0.2l0.7,1.9
			L170.7,641.9z M244.4,641.8l-0.6-0.2l0.6-1.9l0.6,0.2L244.4,641.8z M169.6,638.8l-0.7-1.9l0.6-0.2l0.7,1.9L169.6,638.8z
			 M245.4,638.6l-0.6-0.2l0.3-1.1v-0.8h0.7v0.9L245.4,638.6z M168.2,636.3l-1.8-0.9l0.3-0.6l1.8,0.9L168.2,636.3z M148.5,636h-0.7
			v-0.6h0.7V636z M245.8,635.2h-0.7v-2h0.7V635.2z M165.2,634.8l-1.7-0.8l0.1-0.2v-0.4h0.2l1.7,0.8L165.2,634.8z M148.5,634h-0.7
			v-0.7l-0.5-1.1l0.6-0.3l0.5,1.3L148.5,634L148.5,634z M162.1,633.9l-2-0.2l0.1-0.7l2,0.2L162.1,633.9z M158.8,633.5l-2-0.2
			l0.1-0.7l2,0.2L158.8,633.5z M155.5,632.7l-1.7-1l0.3-0.6l1.7,1L155.5,632.7z M244.8,632l-0.7-1.9l0.6-0.2l0.7,1.9L244.8,632z
			 M152.6,631.1l-0.3-0.2l-0.9-1.6l0.6-0.3l0.8,1.4l0.2,0.1L152.6,631.1z M146.9,631l-0.8-1.8l0.6-0.3l0.8,1.8L146.9,631z
			 M243.8,629.2l-1.8-0.9l0.3-0.6l1.8,0.9L243.8,629.2z M150.8,628.2l-1.4-1.4l0.5-0.5l1.5,1.4l-0.3,0.2L150.8,628.2z M145.6,628
			l-0.9-1.8l0.6-0.3l0.9,1.8L145.6,628z M240.8,627.6l-1-0.5l-0.7-0.7l0.5-0.4l0.6,0.7l0.8,0.4L240.8,627.6z M148.4,625.9l-0.9-0.8
			l-0.2-1l0.6-0.1l0.2,0.8l0.7,0.7L148.4,625.9z M238.3,625.3l-1.3-1.5l0.5-0.4l1.3,1.5L238.3,625.3z M144.1,625l-0.9-1.8l0.6-0.3
			l0.9,1.8L144.1,625z M147,622.8l-0.4-1.9l0.6-0.1l0.4,1.9L147,622.8z M236.8,622.6h-0.7v-2h0.7V622.6z M142.6,622.5l-2-0.4
			l0.1-0.7l2,0.4L142.6,622.5z M139.3,621.8l-1.6-0.4l-0.3-0.5l0.6-0.4l0.2,0.3l1.3,0.3L139.3,621.8z M145.7,620.2l-1.5-1.3l0.4-0.5
			l1.5,1.3L145.7,620.2z M136.7,619.8l-1.1-1.7l0.6-0.4l1.1,1.7L136.7,619.8z M236.8,619.2h-0.7v-1.8l0.3-0.3l0.5,0.4l-0.1,0.1
			L236.8,619.2L236.8,619.2z M143.1,618l-0.5-0.4l-1.2-0.4l0.2-0.6l1.4,0.5l0.5,0.4L143.1,618z M136.4,616.9l-0.6-0.3l1-1.8l0.5,0.2
			l-0.1,0.4h0.1L136.4,616.9z M140.2,616.8l-1.9-0.7l0.2-0.6l1.9,0.7L140.2,616.8z M237.8,616.5l-0.5-0.4l1.2-1.6l0.5,0.4
			L237.8,616.5z M239.8,613.9l-0.5-0.4l0.5-0.7l0.6-0.9l0.5,0.4l-0.7,0.9L239.8,613.9z M241.8,611.1l-0.5-0.4l1.1-1.6l0.5,0.4
			L241.8,611.1z M243.7,608.4l-0.5-0.4l0.6-0.8l1-0.6l0.3,0.6l-0.9,0.5L243.7,608.4z M246.2,606.5l-0.3-0.6l1.7-1l0.3,0.6
			L246.2,606.5z M249,604.8l-0.3-0.6l0.7-0.4l0.8-0.8l0.5,0.5l-0.9,0.8L249,604.8z M251.6,602.6l-0.5-0.5l0.7-0.7v-0.7h0.7v1
			L251.6,602.6z M252.6,599.4h-0.7v-1.2l0.9-0.6l0.4,0.5l-0.6,0.4L252.6,599.4L252.6,599.4z M254.3,597.3l-0.4-0.5l1-0.7v-0.4h0.7
			v0.8L254.3,597.3z M255.6,594.3h-0.7v-2h0.7V594.3z M255.6,591h-0.7v-2h0.7V591z M255.6,587.7h-0.7V587h2v0.7H255.6z M260.6,587.7
			h-2.3V587h2v0.3h0.3V587.7z M260.6,586h-0.7v-2h0.7V586z M260.6,582.9l-0.4-0.5l1.6-1.3l0.4,0.5L260.6,582.9z M263.2,580.8
			l-0.4-0.5l0.3-0.2l0.5-1.4l0.6,0.2l-0.6,1.6L263.2,580.8z M264.6,577.7l-0.6-0.2l0.7-1.9l0.6,0.2L264.6,577.7z M276.5,577.3
			l-1.3-1l0.4-0.5l1,0.8l0.4-0.1l0.3,0.6L276.5,577.3z M278.5,576.5l-0.3-0.6l1.3-0.5v-0.2h0.7v0.6L278.5,576.5z M274.2,575.4
			l-1.6-1.2l0.4-0.5l1.6,1.2L274.2,575.4z M265.7,574.7l-0.5-0.4l1.2-1.6l0.5,0.4L265.7,574.7z M280.1,573.8h-0.7v-2h0.7V573.8z
			 M271.7,573.4l-1.8-1l0.3-0.6l1.8,1L271.7,573.4z M267.7,572l-0.5-0.4l0.8-1l1.1,0.6l-0.3,0.6l-0.6-0.3L267.7,572z M280.4,571.1
			l-0.3-0.6l1.8-0.8l0.3,0.6L280.4,571.1z M283.5,569.7l-0.4-0.5l1.5-1.3l0.4,0.5L283.5,569.7z M286,567.5l-0.4-0.5l0.6-0.5l0.5-0.9
			l0.6,0.3l-0.6,1.1L286,567.5z M287.9,564.6l-0.6-0.3l0.3-0.5h1.8v0.7L287.9,564.6L287.9,564.6z M292.2,564.5h-1.5v-0.7h1.3
			l0.5-0.2l0.3,0.6L292.2,564.5z M294.1,563.7l-0.3-0.6l1.8-0.8l0.3,0.6L294.1,563.7z M296.1,561.8l-0.4-1.9l0.6-0.1l0.4,1.9
			L296.1,561.8z M295.3,558.6l-0.3-1.2l-0.1-0.8l0.7-0.1l0.1,0.8l0.3,1.2L295.3,558.6z M294.8,555.3l-0.3-2l0.7-0.1l0.3,2
			L294.8,555.3z M295,552h-0.7l0.1-2h0.7L295,552z M295.1,548.6h-0.7l0.1-2h0.7L295.1,548.6z M295.3,545.3h-0.7l0.1-0.4l0.8-1.5
			l0.6,0.3l-0.7,1.4L295.3,545.3z M296.7,542.4l-0.6-0.3l0.9-1.8l0.6,0.3L296.7,542.4z M298.1,539.4l-0.6-0.3l0.4-0.8l0.3-1l0.6,0.2
			l-0.3,1.1L298.1,539.4z M299.2,536.2l-0.6-0.2l0.5-1.9l0.6,0.2L299.2,536.2z M300.1,533.4l-0.2-0.6l1.9-0.7l0.2,0.6L300.1,533.4z
			 M303.2,532.3l-0.2-0.6l1.8-0.7l0.1,0.1l0.4,0.2l-0.1,0.2L303.2,532.3z M305.9,530.2l-0.6-0.3l1-1.7l0.6,0.3L305.9,530.2z
			 M307.5,527.3l-0.6-0.3l0.1-0.2l1.1-1.4l0.5,0.4L307.5,527.3L307.5,527.3z M309.6,524.7l-0.5-0.4l1.3-1.5l0.5,0.4L309.6,524.7z
			 M311.7,522.2l-0.5-0.4l1.3-1.5l0.5,0.4L311.7,522.2z M313.8,519.7l-0.4-0.6l1.7-1.1l0.4,0.6L313.8,519.7z M316.6,517.9l-0.4-0.6
			l1.7-1.1l0.4,0.6L316.6,517.9z M319.3,516l-0.4-0.6l1.7-1.1l0.4,0.6L319.3,516z M322.1,514.2l-0.4-0.6l0.5-0.3h1.6v0.7h-1.4
			L322.1,514.2z M326.9,514h-1.7v-0.7h1.4l0.2-0.2l0.4,0.5L326.9,514z M328.3,512.8l-0.4-0.5l1.6-1.3l0.4,0.5L328.3,512.8z
			 M329.2,510.1l-0.5-1.9l0.3-0.1l0.3-0.2l0.1,0.2l0.5,1.9L329.2,510.1z M327.9,507.2l-1.1-1.5l0,0l0,0l0,0l0.4-0.5l0.2,0.1l1.1,1.5
			L327.9,507.2z M325.7,504.9l-1.7-1.1l0.4-0.6l1.7,1.1L325.7,504.9z M323,503l-1-0.7l0.3-1.2l0.6,0.2l-0.2,0.8l0.6,0.4L323,503z
			 M323.2,500l-0.6-0.2l0.2-0.8l-0.4-0.8l0.6-0.3l0.6,1L323.2,500z M321.7,497.1l-0.7-1.2l-0.3-0.1l0.3-0.6l0.5,0.2l0.8,1.4
			L321.7,497.1z M319.5,495.1l-1.8-0.8l0.3-0.6l1.8,0.8L319.5,495.1z M415.2,494h-2v-0.7h1.8v0.1l0.4,0.3L415.2,494z M411.9,494
			h-1.7l-0.4-0.2l0.3-0.6l0.3,0.1h1.5L411.9,494L411.9,494z M316.5,493.4l-1.1-1.7l0.6-0.4l1.1,1.7L316.5,493.4z M408.6,493.3
			l-1.9-0.8l0.3-0.6l1.8,0.8L408.6,493.3z M416.2,492.7l-0.5-0.4l1.2-1.6l0.5,0.4L416.2,492.7z M405.5,492l-0.4-0.2l-1.3-1.1
			l0.4-0.5l1.3,1.1l0.2,0.1L405.5,492z M314.6,490.7l-1.2-1.8l0.3-0.3l0.2,0.3l0.2-0.1l1.1,1.6L314.6,490.7z M418.3,490.1l-0.5-0.4
			l0.8-1.1l0.2-0.5l0.6,0.3l-0.3,0.6L418.3,490.1z M402.9,489.8l-1.5-1.3l0.4-0.5l1.5,1.3L402.9,489.8z M381,489.7l-1.3-0.2l0.1-0.7
			l1,0.1l0.6-0.5l0.4,0.5L381,489.7z M378.4,489.4l-2-0.2l0.1-0.7l2,0.2L378.4,489.4z M375.1,489l-2-0.2l0.1-0.7l2,0.2L375.1,489z
			 M371.8,488.5l-2-0.3l0.1-0.7l2,0.3L371.8,488.5z M382.8,488.2l-0.4-0.5l0.8-0.7l0.3-0.7l0.6,0.2l-0.3,0.9L382.8,488.2z
			 M315.1,488.2l-0.5-0.5l1.5-1.4l0.5,0.5L315.1,488.2z M368.5,488l-2-0.3l0.1-0.7l2,0.3L368.5,488z M400.4,487.6l-1.4-1.5l0.5-0.5
			l1.4,1.5L400.4,487.6z M347.6,487.6l-1-0.2l0.1-0.7l0.9,0.2l1-0.1l0.1,0.7L347.6,487.6z M365.2,487.5l-2-0.1v-0.7l2,0.1V487.5z
			 M350,487.3l-0.1-0.7l2-0.2l0.1,0.7L350,487.3z M361.9,487.3l-2-0.1v-0.7l2,0.1V487.3z M345.3,487.1l-2-0.4l0.1-0.7l2,0.4
			L345.3,487.1z M419.9,487.1l-0.6-0.3l0.8-1.8l0.6,0.3L419.9,487.1z M358.6,487.1l-2-0.1v-0.7l2,0.1V487.1z M353.3,486.9l-0.1-0.7
			l1.4-0.1h0.7v0.7h-0.6L353.3,486.9z M319.6,486.8h-2v-0.7h2V486.8z M342,486.5l-1.5-0.3l-0.3-0.8l0.6-0.2l0.2,0.4l1.1,0.2
			L342,486.5z M320.9,486l-0.4-0.5l1.5-1.2h0.2v0.6v0.1l0,0l0,0l0,0L320.9,486z M398.2,485.4l-2-0.3l0.1-0.7l2,0.3L398.2,485.4z
			 M384.6,485.3l-0.6-0.2l0.6-1.5l0.7-0.2l0.2,0.6l-0.3,0.1L384.6,485.3z M394.9,485l-2-0.3l0.1-0.7l2,0.3L394.9,485z M323.7,484.8
			l-0.1-0.7l2-0.2l0.1,0.7L323.7,484.8z M327,484.5V484l-0.1-0.1l0.1-0.1l0,0l0,0l1.2-1.3l0.5,0.4l-1.3,1.5L327,484.5z M391.5,484.5
			l-1.9-0.7l0.2-0.6l1.9,0.7L391.5,484.5z M339.8,484.1l-0.7-1.9l0.6-0.2l0.7,1.9L339.8,484.1z M421.3,484l-0.6-0.3l0.8-1.8l0.6,0.3
			L421.3,484z M386.7,483.6l-0.2-0.6l1.8-0.5l0.4,0.1l-0.2,0.6l-0.2-0.1L386.7,483.6z M328.7,481.7l-0.1-2h0.7l0.1,2H328.7z
			 M422.6,481l-0.6-0.3l0.3-0.8l-0.1-1l0.7-0.1l0.2,1.2L422.6,481z M339.7,480.9l-0.7-0.1l0.2-2l0.7,0.1L339.7,480.9z M328.5,478.4
			v-0.6l0.7-1.4l0.6,0.3l-0.7,1.3v0.4H328.5z M339.2,477.8l-1.1-1.6l0.5-0.4l1.1,1.6L339.2,477.8z M422,477.7l-0.3-2l0.7-0.1l0.3,2
			L422,477.7z M330.4,475.6l-0.6-0.3l0.9-1.7h0.5v0.7h-0.1L330.4,475.6z M337.2,475.1l-0.4-0.6h-0.9v-0.7h1.2l0.6,0.9L337.2,475.1z
			 M421.5,474.4l-0.3-2l0.7-0.1l0.3,2L421.5,474.4z M334.6,474.4l-2-0.1v-0.7l2,0.1V474.4z M422,471.1l-0.7-0.1l0.3-2l0.7,0.1
			L422,471.1z M422.4,467.8l-0.7-0.1l0.3-2l0.7,0.1L422.4,467.8z M422.8,464.5l-0.7-0.1l0.1-1.1l-0.3-0.7l0.6-0.2l0.3,0.9V464.5z
			 M421.6,461.3l-0.6-1.9l0.6-0.2l0.6,1.9L421.6,461.3z M420.6,458.2l-0.4-1.3l-0.3-0.2l0.3-0.6l0.5,0.3l0.5,1.5L420.6,458.2z
			 M418.6,456l-1.7-1l0.3-0.6l1.7,1L418.6,456z M415.7,454.4l-1.7-1l0.3-0.6l1.7,1L415.7,454.4z M412.8,452.8l-0.3-0.2l-1.5-0.3
			l0.2-0.6l1.6,0.4l0.4,0.2L412.8,452.8z M409.7,451.9l-1.9-0.5l0.2-0.6l1.9,0.5L409.7,451.9z M406.5,451.2l-1.9-0.5l0.2-0.6
			l1.9,0.5L406.5,451.2z M403.2,450.4l-1.9-0.4l0.1-0.7l2,0.4L403.2,450.4z M400,449.7l-2-0.4l0.1-0.7l2,0.4L400,449.7z M396.7,449
			l-2-0.4l0.1-0.7l2,0.4L396.7,449z M393.5,448.3l-2-0.4l0.1-0.7l2,0.4L393.5,448.3z M390.2,447.2l-1.8-0.9l0.3-0.6l1.8,0.9
			L390.2,447.2z M387.3,445.6l-1-0.6l-0.6-0.8l0.5-0.4l0.5,0.7l0.8,0.4L387.3,445.6z M384.9,443.2l-1.2-1.6l0.5-0.4l1.2,1.6
			L384.9,443.2z M383.3,440.2l-0.4-2l0.7-0.1l0.4,2L383.3,440.2z M382.6,436.9l-0.4-2l0.7-0.1l0.4,2L382.6,436.9z M381.9,433.7
			l-0.2-1.1v-0.9h0.7v0.8l0.2,1L381.9,433.7z M382.4,430.3h-0.7l0.1-2h0.7L382.4,430.3z M382.6,427h-0.7l0.1-2h0.7L382.6,427z
			 M382.8,423.7l-0.7-0.1l0.3-2l0.7,0.1L382.8,423.7z M383.4,420.4l-0.7-0.1l0.4-2.2h0.3v0.3h0.3L383.4,420.4z M388.2,418.8H388
			v-0.3l-0.2-0.2l1.3-1.5l0.5,0.4L388.2,418.8z M386.7,418.8h-2v-0.7h2V418.8z M390.5,416.1l-0.5-0.4l0.8-1l-0.1-0.4l0.7-0.1
			l0.1,0.7L390.5,416.1z M390.6,413l-0.1-1.2l-0.4-0.4l0.5-0.5l0.6,0.5l0.2,1.4L390.6,413z M389.1,410.5l-1.5-1.4l0.5-0.5l1.5,1.4
			L389.1,410.5z M386.7,408.1l-1.2-1.6l0.5-0.4l1.2,1.6L386.7,408.1z M384.8,405.2l-0.3-2l0.7-0.1l0.3,2L384.8,405.2z M384.3,401.9
			l-0.3-2l0.7-0.1l0.3,2L384.3,401.9z M383.8,398.6l-0.1-0.4l-0.4-1.5l0.6-0.2l0.4,1.5l0.1,0.5L383.8,398.6z M383,395.4l-0.4-1.3
			l-0.3-0.5l0.6-0.3l0.3,0.6l0.4,1.4L383,395.4z M381.8,392.5l-1-1.7l0.6-0.3l1,1.7L381.8,392.5z M379.8,390.9h-2v-0.7h2V390.9z
			 M376.4,390.9h-1.2l-0.9-0.3l0.2-0.6l0.8,0.3h1v0.6H376.4z M373.1,390.1l-1.9-0.7l0.2-0.6l1.9,0.7L373.1,390.1z M370.2,388.3
			l-1.2-1.6l0.5-0.4l1.2,1.6L370.2,388.3z M368.1,385.7l-0.9-1.1l-0.1-0.7l0.7-0.1l0.1,0.6l0.8,1L368.1,385.7z M366.9,382.6
			l-0.4-2.2h0.5v0.3h0.2l0.4,1.8L366.9,382.6z M369.5,381h-1.3v-0.7h1.1l0.7-0.3l0.2,0.6L369.5,381z M371.6,380.2l-0.2-0.6l1.2-0.5
			v-0.3h0.7v0.7L371.6,380.2z M373.3,377.6h-0.7l0.1-2h0.7L373.3,377.6z M373.5,374.2h-0.7l0.1-2h0.7L373.5,374.2z M372.7,371.2
			l-1.2-1.6l0.5-0.4l1.2,1.6L372.7,371.2z M370.7,368.5l-1.2-1.6l0.5-0.4l1.2,1.6L370.7,368.5z M368.7,365.8l-1.2-1.6l0.5-0.4
			l1.2,1.6L368.7,365.8z M366.8,363l-0.3-2l0.7-0.1l0.3,2L366.8,363z M366.3,359.7l-0.3-2l0.7-0.1l0.3,2L366.3,359.7z M365.7,356.4
			l-0.3-2l0.7-0.1l0.3,2L365.7,356.4z M366.3,353.2l-0.6-0.2l0.6-1.9l0.6,0.2L366.3,353.2z M367.3,350l-0.6-0.2l0.6-1.9l0.6,0.2
			L367.3,350z M367.3,346.8l-0.3-2l0.7-0.1l0.3,2L367.3,346.8z M366.9,343.6l-1.7-0.6l0.2-0.6l1.9,0.6l0.1,0.4l-0.4,0.1L366.9,343.6
			z M363.9,342.6l-0.6-0.2l-0.4-1.7l0.6-0.1l0.3,1.3l0.3,0.1L363.9,342.6z M362.6,339.4l-0.3-1.1H362v-0.7h0.9l0.4,1.6L362.6,339.4z
			 M360.7,338.3h-2v-0.7h2V338.3z M357.4,337.6l-1.5-1.3l0.4-0.5l1.5,1.3L357.4,337.6z M354.9,335.4l-0.7-0.7l-0.6-0.9l0.6-0.4
			l0.6,0.9l0.6,0.6L354.9,335.4z M352.9,332.7l-1.1-1.7l0.6-0.4l1.1,1.7L352.9,332.7z M351.1,329.9l-1.1-1.7l0.6-0.3l0,0l0,0l0,0
			l1,1.6L351.1,329.9z M349.5,326.9l-0.7-1.9l0.6-0.2l0.7,1.9L349.5,326.9z M348.3,323.8l-0.1-0.3H347v-0.7h1.7l0.3,0.7L348.3,323.8
			z M345.6,323.4h-2v-0.7h2V323.4z M342.2,323.1l-1.8-0.8l0.3-0.6l1.8,0.8L342.2,323.1z M339.5,321.1l-0.7-1.9l0.6-0.2l0.7,1.9
			L339.5,321.1z M339.6,318.3l-0.5-0.5l1.4-1.5l0.5,0.5L339.6,318.3z M341.9,315.8l-0.5-0.5l0.3-0.4l1.7-0.3l0.1,0.7l-1.5,0.3
			L341.9,315.8z M344.9,315.1l-0.1-0.7l2-0.4l0.1,0.7L344.9,315.1z M348.1,314.5l-0.1-0.7l0.7-0.1h1.4v0.7h-1.3L348.1,314.5z
			 M356,314.3h-1.3v-0.7h0.9l0.4-0.6l0.6,0.3L356,314.3z M353.4,314.3h-2v-0.7h2V314.3z M357.3,312.2l-0.6-0.3l0.8-1.3v-0.1l0.1-0.1
			l0,0l0.5-0.2l0.2,0.4L357.3,312.2z M357,309.2l-0.7-1.8l0.2-0.1l0.2-0.4l0.2,0.1l0.8,1.9L357,309.2z M355.1,307.1l-1.8-0.8
			l0.3-0.6l1.8,0.8L355.1,307.1z M352.1,305.8l-1-0.4l-0.9-0.3l0.2-0.6l0.9,0.3l1,0.4L352.1,305.8z M348.9,304.7l-1.9-0.6l0.2-0.6
			l1.9,0.6L348.9,304.7z M345.7,303.8l-1-0.3l-0.9-0.2l0.2-0.6l0.9,0.2l1.1,0.3L345.7,303.8z M342.5,303l-1.9-0.5l0.2-0.6l1.9,0.5
			L342.5,303z M339.3,302.2l-0.2-0.1l-1.1-1.7l0.5-0.4l1.1,1.6l-0.1,0.1L339.3,302.2z M337.2,299.4l-0.2-0.2h-1.4v-0.7h1.7l0.4,0.5
			L337.2,299.4z M334.3,299.1h-2v-0.6h2V299.1z M330.9,298.6l-1.7-1l0.3-0.6l1.7,1L330.9,298.6z M328.1,296.8l-1.4-1.4l0.5-0.5
			l1.4,1.4L328.1,296.8z M325.7,294.5l-1.4-1.4l0.5-0.5l1.4,1.4L325.7,294.5z M323.5,291.8l-0.8-1.8l0.6-0.3l0.8,1.8L323.5,291.8z
			 M323.3,289.3l-0.2-0.6l1.9-0.6l0.2,0.6L323.3,289.3z M326.5,288.3l-0.2-0.6l0.4-0.1l0.4-1.2l0.6,0.2l-0.5,1.5L326.5,288.3z
			 M328.2,285.3l-0.6-0.2l0.2-0.6l0.1-1.3h0.7l-0.1,1.4L328.2,285.3z M328.5,281.9h-0.7l0.1-2h0.7L328.5,281.9z M328.7,278.6H328
			V278l-0.3-1.3l0.6-0.2l0.4,1.4V278.6z M327.4,275.4l-0.5-1.9l0.6-0.2l0.5,1.9L327.4,275.4z M326.5,272.2l-0.3-1.1l-0.5-0.3
			l0.3-0.6l0.8,0.4l0.4,1.4L326.5,272.2z M324.5,270.2l-1.8-0.9l0.3-0.6l1.8,0.9L324.5,270.2z M322.3,268.3h-0.7l0.1-2h0.7
			L322.3,268.3z M322.6,265h-0.7l0.1-1.9l0.5-0.1l0.1,0.4l0,0l0.1,0.2h-0.1V265z M324,263.2l-0.2-0.6l1.9-0.5l0.2,0.6L324,263.2z
			 M327.3,262.1l-0.3-0.6l1.8-1l0.3,0.6L327.3,262.1z M330.2,260.5l-0.3-0.6l1.8-1l0.3,0.6L330.2,260.5z M333.1,258.9l-0.3-0.6
			l0.3-0.2h1.8v0.7h-1.6L333.1,258.9z M341.6,258.9h-2v-0.7h2V258.9z M338.3,258.9h-2v-0.7h2V258.9z M342.9,258.1l-0.4-0.5l1.5-1.3
			l0.4,0.5L342.9,258.1z M345.4,256l-0.4-0.5l0.5-0.4l0.8-1l0.5,0.4l-0.8,1.1L345.4,256z M347.6,253.3l-0.5-0.4l1.1-1.6l0.3-0.1
			l0.2,0.6l0,0l0,0h-0.1L347.6,253.3z M349.9,251.5l-0.2-0.6l1.9-0.6l0.2,0.6L349.9,251.5z M353.1,250.2l-0.4-0.6l1.7-1.1l0.4,0.6
			L353.1,250.2z M355.6,247.9h-0.7v-2h0.7V247.9z M355.6,244.6h-0.7v-1.8l0.1-0.3l0.6,0.2l-0.1,0.3v1.6H355.6z M356.1,241.5
			l-0.6-0.2l0.7-1.9l0.6,0.2L356.1,241.5z M357.3,238.4l-0.6-0.2l0.4-0.9l0.8-0.8l0.5,0.5l-0.8,0.8L357.3,238.4z M359.3,235.9
			l-0.5-0.5l1.4-1.4l0.5,0.5L359.3,235.9z M361.7,233.6l-0.4-0.5l1.5-1.3l0.4,0.5L361.7,233.6z M364.2,231.5l-0.4-0.5l0.8-0.7v-0.6
			h0.7v0.9L364.2,231.5z M365.3,228.3h-0.7l0.1-2h0.7L365.3,228.3z M365.2,225L365.2,225l-0.5-0.1v-0.5l1.8-0.7l0.2,0.6l-1.4,0.5
			l0,0h-0.1V225z M368.1,223.9l-0.2-0.4h-0.1l0.4-1.8l0.7,0.1l-0.4,2L368.1,223.9z M369.1,220.6l-0.7-0.1l0.4-1.6l0.3-0.4l0.6,0.4
			l-0.2,0.4L369.1,220.6z M370.4,217.7l-0.6-0.4l1.1-1.7l0.6,0.4L370.4,217.7z M372.2,214.9l-0.5-0.4l1.1-1.7l0.6,0.4L372.2,214.9z
			 M374,212.1l-0.6-0.4l0.1-0.1l0.4-1.7l0.6,0.2L374,212.1L374,212.1z M374.9,208.8l-0.6-0.2l0.5-1.9l0.6,0.2L374.9,208.8z
			 M378.7,205.7h-0.1v-0.3l-0.2-0.2l1.5-1.3l0.4,0.5L378.7,205.7z M377.2,205.7h-1.9v-0.2l-0.4-0.1l0.1-0.4h2.1L377.2,205.7
			L377.2,205.7z M381.3,203.4l-0.4-0.5l1.5-1.3l0.4,0.5L381.3,203.4z M383.7,201l-0.6-0.4l1.1-1.7l0.6,0.4L383.7,201z M385.4,198.1
			l-0.6-0.4l0.3-0.4l0.9-1.2l0.5,0.4l-0.9,1.2L385.4,198.1z M387.4,195.5l-0.5-0.4l1.2-1.6l0.5,0.4L387.4,195.5z M389.3,192.9
			l-0.1-0.2l-0.3-0.3l0.1-0.1l2-0.6l0.2,0.6L389.3,192.9z M392.5,192l-0.2-0.6l1.9-0.6l0.2,0.6L392.5,192z M395.6,191l-0.2-0.6
			l1.9-0.6l0.2,0.6L395.6,191z M398.6,189.4l-0.6-0.2l0.5-1.9l0.6,0.2L398.6,189.4z M399.4,186.2l-0.6-0.2l0.5-1.9l0.6,0.2
			L399.4,186.2z M400.1,182.9l-0.6-0.2l0.2-1v-0.8h0.7v1L400.1,182.9z M400.4,179.6h-0.7v-2h0.7V179.6z M400.4,176.2h-0.7v-2h0.7
			V176.2z M398.8,173.7l-1.6-1.2l0.4-0.5l1.6,1.2L398.8,173.7z M397.2,171.2h-0.7v-2h0.7V171.2z M292.5,170.2l-0.4-0.1l0.2-0.6
			l0.2,0.1l1.6-0.3l0.1,0.7L292.5,170.2z M290.9,169.7c-0.6-0.1-1.3-0.3-1.9-0.4l0.1-0.7c0.7,0.1,1.3,0.3,2,0.4L290.9,169.7z
			 M295.6,169.6l-0.1-0.7l2-0.3l0.1,0.7L295.6,169.6z M287.6,169.1c-0.7-0.1-1.3-0.2-2-0.3l0.1-0.7c0.7,0.1,1.3,0.2,2,0.3
			L287.6,169.1z M298.9,169.1l-0.1-0.7l1.5-0.2l0.3-0.2l0.4,0.5l-0.5,0.3L298.9,169.1z M396.6,167.9L396.6,167.9L396.6,167.9
			L396.6,167.9l-1-1.5l0.5-0.4l1.1,1.6v0.3H396.6z M302,167.7l-0.4-0.5l1.6-1.1l0.4,0.5L302,167.7z M304.7,165.8l-0.4-0.5l1.6-1.1
			l0.4,0.5L304.7,165.8z M394.8,165.3l-1.1-1.6l0.5-0.4l1.1,1.6L394.8,165.3z M364.3,165v-0.7l2-0.1v0.7L364.3,165z M367.7,164.9
			v-0.7l2-0.1v0.7L367.7,164.9z M362.9,164.8l-1.8-0.8l0.3-0.6l1.8,0.8L362.9,164.8z M371,164.7V164l2-0.1v0.7L371,164.7z
			 M374.4,164.4l-0.2-0.6l1.9-0.6l0.2,0.6L374.4,164.4z M307.5,163.9l-0.4-0.5l1.6-1.1l0.4,0.5L307.5,163.9z M359.9,163.5l-1.9-0.7
			l0.2-0.6l1.9,0.7L359.9,163.5z M377.5,163.3l-0.2-0.6l1.9-0.6l0.2,0.6L377.5,163.3z M392.7,162.8l-1.5-1.4l0.5-0.5l1.5,1.4
			L392.7,162.8z M356.7,162.3l-1.9-0.7l0.2-0.6l1.9,0.7L356.7,162.3z M310.2,162.3l-0.3-0.6l1.8-0.8l0.3,0.6L310.2,162.3z
			 M380.7,162.3l-0.2-0.6l0.2-0.1l1.2-1.1l0.4,0.5l-1.4,1.2L380.7,162.3z M353.6,161.2l-1.9-0.7l0.2-0.6l1.9,0.7L353.6,161.2z
			 M313.3,161l-0.3-0.6l1.8-0.8l0.3,0.6L313.3,161z M390.3,160.6l-1.2-1.1l-0.2-0.1l0.2-0.6l0.4,0.1l1.3,1.2L390.3,160.6z
			 M350.5,160.1L350.5,160.1l-1.9-0.5l0.2-0.6l2,0.5L350.5,160.1z M383.3,160.1l-0.4-0.5l1.5-1.3l0.4,0.5L383.3,160.1z M316.4,159.7
			l-0.3-0.6l1.8-0.8l0.3,0.6L316.4,159.7z M347.3,159.3l-1.9-0.5l0.2-0.6l1.9,0.5L347.3,159.3z M387.6,159.1l-1.9-0.5l0.2-0.6
			l1.9,0.5L387.6,159.1z M344,158.4l-1.9-0.5l0.1-0.7h0.1l1.8,0.5L344,158.4z M319.5,158.4l-0.3-0.6l1.8-0.8l0.3,0.6L319.5,158.4z
			 M340.8,157.7l-2-0.4l0.1-0.7l2,0.4L340.8,157.7z M322.5,157.2l-0.3-0.6l1.4-0.6h0.6v0.7h-0.6L322.5,157.2z M337.5,157.1l-2-0.4
			l0.1-0.7l2,0.4L337.5,157.1z M334.3,156.7h-2V156h2V156.7z M331,156.7h-2V156h2V156.7z M327.6,156.7h-2V156h2V156.7z"/>
	</g>
	<g>
		<path class="st2" d="M180.4,675.8h-0.7v-0.9h0.7V675.8z M180.5,674.1l-0.3-0.6l1.8-0.9l0.3,0.6L180.5,674.1z M183.5,672.6
			l-0.4-0.6l1.7-1.1l0.4,0.6L183.5,672.6z M186.3,670.7l-0.4-0.6l1.7-1.1l0.4,0.6L186.3,670.7z M189.1,668.9l-0.4-0.6l0.5-0.3
			l1.3-0.7l0.3,0.6l-1.2,0.7L189.1,668.9z M192,667.2l-0.3-0.6l1.2-0.7v-0.2h0.7v0.6L192,667.2z M193.5,664.4h-0.7v-0.8l-0.5-0.8
			l0.6-0.3l0.6,1L193.5,664.4L193.5,664.4z M191.7,661.6l-1-1.7l0.6-0.3l1,1.7L191.7,661.6z M183.3,661.4l-0.6-0.2l0.2-0.6l0.4,0.1
			l1.3-0.5l0.2,0.6L183.3,661.4z M181.4,660.8l-1.9-0.5l0.2-0.6l1.9,0.5L181.4,660.8z M186.1,660.4l-0.1-0.3l-0.3-0.2l1.2-1.6
			l0.5,0.4L186.1,660.4L186.1,660.4z M190,659.1l-1.9-0.6l0.2-0.6l1.9,0.6L190,659.1z M179.7,658.9H179v-2h0.7V658.9z"/>
	</g>
	<g>
		<path class="st4" d="M143.3,702.5l-0.6-0.3l0.8-1.8l0.6,0.3L143.3,702.5z M144.6,699.4l-0.6-0.3l0.8-1.8l0.6,0.2l0,0L144.6,699.4z
			 M145.9,696.3l-0.6-0.2l0.6-1.9l0.6,0.2L145.9,696.3z M148.9,693.7h-2.1V693h2v0.3l0.3,0.2L148.9,693.7z M149.9,692.6l-0.5-0.5
			l1.1-1.2v-0.1h0.7v0.4L149.9,692.6z M139.6,689.7l-0.6-0.3l0.8-1.8l0.6,0.3L139.6,689.7z M151.2,689.5h-0.7v-2h0.7V689.5z
			 M140.9,686.6l-0.6-0.3l0.8-1.8l0.6,0.3L140.9,686.6z M151.2,686.1h-0.7v-2h0.7V686.1z M142.3,683.7l-0.5-0.4l1.2-1.6l0.5,0.4
			L142.3,683.7z M150.3,683l-0.9-1.8l0.6-0.3l0.9,1.8L150.3,683z M144.4,681.1l-0.5-0.4l0.3-0.4l1.7-0.4l0.1,0.7l-1.5,0.3
			L144.4,681.1z M147.3,680.3l-0.1-0.7l1.9-0.4l0.2,0.5l-0.4,0.2l0,0l-0.2,0.1l0,0L147.3,680.3z"/>
	</g>
	<g>
		<path class="st2" d="M105.7,705.4h-2v-0.7h2V705.4z M102.4,705.4h-2v-0.7h2V705.4z M99,705.2l-1.8-0.9l0.3-0.6l1.8,0.9L99,705.2z
			 M107.2,705.1l-0.4-0.5l1.6-1.2l0.4,0.5L107.2,705.1z M96,703.7l-0.7-0.4l-1.1-0.1l0.1-0.7l1.3,0.1l0.8,0.4L96,703.7z
			 M109.8,703.1l-0.4-0.5l1.6-1.2l0.4,0.5L109.8,703.1z M92.9,703.1l-1.7-0.2h-0.3v-0.7h0.3l1.7,0.2V703.1z M89.6,703h-2v-0.7h2V703
			z M86.6,701.7l-0.9-1.8l0.6-0.3l0.9,1.8L86.6,701.7z M112.6,701.3l-0.3-0.6l1.8-0.9l0.3,0.6L112.6,701.3z M130.6,700.2l-2-0.3
			l0.1-0.7l2,0.3L130.6,700.2z M115.5,699.8l-0.3-0.6l0.6-0.3h1.5v0.7H116L115.5,699.8z M127.3,699.7l-2-0.1v-0.7l2,0.1V699.7z
			 M124,699.6l-2-0.1v-0.7l2,0.1V699.6z M120.6,699.6h-2v-0.7h2V699.6z M85.2,698.7l-0.7-1.9l0.6-0.2l0.7,1.9L85.2,698.7z
			 M72.7,697.8h-2v-0.7h1.8v0.1l0.4,0.3L72.7,697.8z M69.4,697.8h-0.7l-1.3-0.6l0.3-0.6l1.1,0.6h0.6V697.8z M73.9,696.6l-0.5-0.5
			l1.4-1.4l0.5,0.5L73.9,696.6z M66.2,696.6l-0.4-0.2l-1.1-1.3l0.5-0.4l1.1,1.2l0.2,0.1L66.2,696.6z M84,695.6l-0.1-0.4l-1-1.1
			l0.5-0.4l1.1,1.3l0.2,0.4L84,695.6z M76.2,694.2l-0.5-0.5l0.2-0.2l0.6-1.4l0.6,0.3l-0.7,1.6L76.2,694.2z M63.9,694.1l-0.4-0.4
			h-1.1V693h1.4l0.6,0.7L63.9,694.1z M61,693.7h-2V693h2V693.7z M57.7,693.7h-2V693h2V693.7z M82,693.1l-0.3-0.4l-1.2-0.4l0.2-0.6
			l1.4,0.4l0.5,0.5L82,693.1z M54.6,692.6l-1.3-1.4v-0.3h0.6l0,0H54v0.1l1.1,1.2L54.6,692.6z M79.2,691.9l-1.9-0.6l0.2-0.6l1.9,0.6
			L79.2,691.9z M53.2,689.5l-0.1-2h0.7l0.1,2H53.2z M53.1,686.2v-1l1-0.9l0.5,0.5l-0.9,0.7v0.7H53.1z M55.5,683.9l-0.5-0.5l0.3-0.3
			l-0.2-1.2l0.7-0.1l0.3,1.6L55.5,683.9z M54.8,680.6l-0.4-2l0.7-0.1l0.4,2L54.8,680.6z M55.5,677.6l-0.6-0.3l0.9-1.8l0.6,0.3
			L55.5,677.6z M57,674.6l-0.6-0.3l0.5-1l1-0.5l0.3,0.6l-0.8,0.4L57,674.6z M59.4,672.8l-0.3-0.6l1.8-0.9l0.3,0.6L59.4,672.8z
			 M62.5,671l-0.6-0.2l0.6-1.9l0.6,0.2L62.5,671z M63.5,667.8l-0.6-0.2l0.4-1.3l-0.1-0.2l0.5-0.4l0.4,0.5L63.5,667.8z M62.3,665
			l-1.2-1.5l0.2-0.1V663h0.3l1.3,1.6L62.3,665z M58,663.8v-0.7l2-0.1v0.7L58,663.8z M56.8,662.8l-1.3-1.6l0.5-0.4l1.3,1.6
			L56.8,662.8z M54.7,660.2l-0.4-0.5l-0.9-0.9l0.5-0.5l1,0.9l0.4,0.5L54.7,660.2z M52.4,657.9l-1.4-1.4l0.5-0.5l1.4,1.4L52.4,657.9z
			 M50.2,655.3l-0.6-1.9l0.6-0.2l0.6,1.9L50.2,655.3z M49.2,652.1l-0.6-1.9l0.6-0.2l0.6,1.9L49.2,652.1z M48,649.8h-2v-0.7h2V649.8z
			 M44.7,649.8h-2v-0.7h2V649.8z M41.3,649.8h-0.4l-1.4-1.1l0.4-0.5l1.3,1h0.2L41.3,649.8L41.3,649.8z M38.4,647.9l-1.6-1.2l0.4-0.5
			l1.6,1.2L38.4,647.9z M35.8,645.8l-1.4-1.4l0.5-0.5l1.4,1.4L35.8,645.8z M33.5,643.4l-1.4-1.4l0.5-0.5l1.4,1.4L33.5,643.4z
			 M31.2,641l-0.2-0.2l-1.4-0.7l0.3-0.6l1.6,0.8l0.2,0.2L31.2,641z M28.3,639.5l-1.8-0.9l0.3-0.6l1.8,0.9L28.3,639.5z M25.4,638
			l-1.8-0.9l0.3-0.6l1.8,0.9L25.4,638z M22.4,636.5l-1.6-0.8h-0.1l0.1-0.7l0.3,0.1l1.6,0.8L22.4,636.5z M19.4,635.6l-2-0.2l0.1-0.7
			l2,0.2L19.4,635.6z M16,635.3l-2-0.2l0.1-0.7l2,0.2L16,635.3z M12.7,635l-2-0.2l0.1-0.7l2,0.2L12.7,635z M9.4,634.7L8,634.6
			l-0.7-0.3l0.3-0.6l0.6,0.3l1.2,0.1L9.4,634.7z M6.2,633.7l-1.8-0.8l0.3-0.6l1.8,0.8L6.2,633.7z M3.1,632.3L2,631.8H1.4v-0.7h0.8
			l1.2,0.6L3.1,632.3z M0.1,631.7H-1l-0.9-0.3l0.2-0.6l0.9,0.3h1v0.6H0.1z M-3.2,631l-1.9-0.6l0.2-0.6l1.9,0.6L-3.2,631z
			 M-6.4,629.9l-1.3-0.4l-0.6-0.3l0.3-0.6l0.5,0.3l1.3,0.4L-6.4,629.9z M-9.5,628.5l-1.8-0.9l0.3-0.6l1.8,0.9L-9.5,628.5z
			 M-12.4,626.9l-0.4-0.2l-0.3-1.8l0.7-0.1l0.3,1.5l0.1,0.1L-12.4,626.9z M-13.4,623.6l-0.4-2l0.7-0.1l0.4,2L-13.4,623.6z
			 M-12.9,620.3l-0.6-0.2l0.5-1.9l0.6,0.2L-12.9,620.3z M-11.8,617.9l-0.1-0.7l2-0.3l0.1,0.7L-11.8,617.9z M-8.5,617.4l-0.1-0.7
			l0.8-0.1l0.7-0.7l0.5,0.5l-0.8,0.8L-8.5,617.4z M-5.7,615.5l-0.5-0.5l0.3-0.3v-1.3h0.7v1.6L-5.7,615.5z M-5.2,612.1h-0.7v-2h0.7
			V612.1z M-5.2,608.8h-0.7v-2h0.7V608.8z M-5.2,605.4h-0.7v-1.7H-5v0.7h-0.3v1H-5.2z M-1.6,604.4h-2v-0.7h2V604.4z M-1.3,603.4
			l-0.1-2h0.7l0.1,2H-1.3z M-1.4,600v-1.4h-0.1l0.2-0.6l0.5,0.2l0.1,1.9L-1.4,600z M-2.8,598.2l-1.9-0.6l0.2-0.6l1.9,0.6L-2.8,598.2
			z M-6,597.2l-0.3-0.1l-1.6-0.6l0.2-0.6l1.9,0.7L-6,597.2z M-9.2,596.1l-1.9-0.7l-0.1-0.2l0.4-0.2l0.1-0.2l1.8,0.7L-9.2,596.1z
			 M-11.8,594.1l-1-1.7l0.6-0.3l1,1.7L-11.8,594.1z M-13.6,591.2l-0.1-0.2l-1.4-0.8l0.3-0.6l1.5,0.9l0.2,0.4L-13.6,591.2z
			 M-21.1,589.7l-0.1-0.7l2-0.4l0.1,0.7L-21.1,589.7z M-16.2,589.5l-0.9-0.5l-0.7,0.1l-0.1-0.7l0.9-0.2l1.1,0.7L-16.2,589.5z
			 M-20.9,588.2h-0.7v-2h0.7V588.2z"/>
	</g>
	<g>
		<path class="st2" d="M-56.8,580.3h-2v-0.7h2V580.3z M-60.1,580.3h-2v-0.7h2V580.3z M-63.5,580.2l-2-0.1v-0.7l2,0.1V580.2z
			 M-66.8,580l-2-0.1v-0.7l2,0.1V580z M-26.8,580c0,0-0.7-0.6-1.5-1.3l0.4-0.5c0.8,0.7,1.5,1.3,1.5,1.3L-26.8,580z M-70.1,579.8
			l-1.8-0.1l-0.3-0.1l0.3-0.6l0.2,0.1l1.6,0.1V579.8z M-55.5,579.5l-0.4-0.5l1.6-1.2l0.4,0.5L-55.5,579.5z M-73.4,578.9l-1.8-0.9
			l0.3-0.6l1.8,0.9L-73.4,578.9z M-29.3,577.8c-1.2-1.1-1.3-1.2-1.3-1.3c0,0-0.1-0.1-0.1-0.2l0.6-0.3c0.1,0.1,0.1,0.2,0.1,0.2
			s0.2,0.2,1.2,1.1L-29.3,577.8z M-52.8,577.6l-0.3-0.6l1.8-0.9l0.3,0.6L-52.8,577.6z M-76.4,577.4l-1.7-0.8l0.1-0.6l0.2,0.1
			l1.6,0.8L-76.4,577.4z M-45.5,576.6h-1.1v-0.7h0.9l0.8-0.4l0.3,0.6L-45.5,576.6z M-47.9,576.6h-2v-0.7h2V576.6z M-79.4,576.3
			l-1.9-0.5l0.2-0.6l1.9,0.5L-79.4,576.3z M-82.6,575.5l-0.3-0.1l-1.1-1.5l0.5-0.4l1,1.3h0.1L-82.6,575.5z M-43.3,575.5l-0.3-0.6
			l1.8-0.9l0.3,0.6L-43.3,575.5z M-31.5,575.1c-0.4-0.6-0.7-1.1-0.7-1.1l-0.3-0.6l0.6-0.3l0.3,0.6l0,0c0.1,0.2,0.4,0.5,0.7,1.1
			L-31.5,575.1z M-40.4,573.9l-0.4-0.5l1.6-1.2l0.4,0.5L-40.4,573.9z M-84.9,572.9l-1-1.3l-0.2-0.2l0.5-0.5l0.2,0.2l1,1.4
			L-84.9,572.9z M-33.2,572.3l-0.2-0.4h-1.2v-0.7h1.6l0.4,0.7L-33.2,572.3z M-37.7,571.9L-37.7,571.9L-37.7,571.9L-37.7,571.9
			l-0.4-0.5l0.2-0.1h2v0.7L-37.7,571.9z M-87.1,570.4l-1.4-1.4l0.5-0.5l1.4,1.4L-87.1,570.4z M-87.8,567.7l-0.6-0.3l0.8-1.8l0.6,0.3
			L-87.8,567.7z M-86.5,564.7l-0.6-0.3l1-1.8l0.6,0.3L-86.5,564.7z M-84.9,561.8l-0.6-0.3l0.5-1l0.7-0.7l0.5,0.5l-0.7,0.7
			L-84.9,561.8z M-82.8,559.3l-0.5-0.5l0.7-0.7v-0.6h0.7v0.9L-82.8,559.3z M-81.9,556.1h-0.7v-1l-0.4-0.7l0.6-0.3l0.5,0.9
			C-81.9,555-81.9,556.1-81.9,556.1z M-83.7,553.3l-1-1.7l0.6-0.3l1,1.7L-83.7,553.3z M-85.4,550.5l-1.2-1.6l0.5-0.4l1.2,1.6
			L-85.4,550.5z M-87.5,547.9l-1.2-1.6l0.5-0.4l1.2,1.6L-87.5,547.9z M-89.5,545.3l-1.2-1.6l0.5-0.4l1.2,1.6L-89.5,545.3z
			 M-91.5,542.6L-91.5,542.6l-1.6-1l0.4-0.6l1.7,1.1l0.1,0.1L-91.5,542.6z M-94.2,540.8l-1.7-1.1l0.4-0.6l1.7,1.1L-94.2,540.8z
			 M-96,538.4h-0.7v-2h0.7V538.4z M-95.8,535.2l-0.6-0.2l0.7-1.9l0.6,0.2L-95.8,535.2z M-94.7,532.4l-0.4-0.6l1.7-1.1l0.4,0.6
			L-94.7,532.4z M-92,530.5l-0.4-0.6l1.7-1.1l0.4,0.6L-92,530.5z M-87.2,529.2h-2v-0.7h2V529.2z M-85.8,528.9l-0.3-0.6l1.8-0.8
			l0.3,0.6L-85.8,528.9z M-84.5,526.7l-0.5-1.9l0.6-0.2l0.5,1.9L-84.5,526.7z M-85.7,523.9l-1.4-1.4l0.5-0.5l1.4,1.4L-85.7,523.9z
			 M-88.1,522.3h-2v-0.7h2V522.3z M-91.5,522.3h-0.2l-1.6-1.3l0.4-0.5l1.5,1.2l-0.1,0.2C-91.5,521.9-91.5,522.3-91.5,522.3z
			 M-94.3,520.2l-1.6-1.3l0.4-0.5l1.6,1.3L-94.3,520.2z M-96.1,517.8h-0.7v-2h0.7V517.8z M-96.1,514.4h-0.7v-0.8l-0.7-0.5l0.4-0.5
			l1,0.7V514.4z M-98.6,512.4l-1.6-1.1l0.4-0.5l1.6,1.1L-98.6,512.4z M-101.3,510.5l-0.8-0.6l0.4-0.5l0.8,0.6L-101.3,510.5z"/>
	</g>
	<g>
		<path class="st2" d="M-60.2,503.1l-0.8-0.3l0.3-0.6l0.6,0.2l1.1-0.3l0.2,0.6L-60.2,503.1z M-57.6,502.5l-0.2-0.6l1.9-0.5l0.2,0.6
			L-57.6,502.5z M-62.2,502.3l-1.8-0.8l0.3-0.6l1.8,0.8L-62.2,502.3z M-65.3,501.3l-2-0.3l0.1-0.7l2,0.3L-65.3,501.3z M-54.7,500.8
			h-0.7v-2h0.7V500.8z M-68.6,500.7l-1.6-0.3l-0.4-0.3l0.4-0.5l0.3,0.2l1.5,0.2L-68.6,500.7z M-71.7,499.3l-1.6-1.2l0.4-0.5l1.6,1.2
			L-71.7,499.3z M-54.7,497.5h-0.7v-1.1l-0.2-0.7l0.6-0.2l0.3,0.9C-54.7,496.4-54.7,497.5-54.7,497.5z M-74.3,497.3L-74.3,497.3
			l0.3-0.6l0.1,0.1L-74.3,497.3z M-56,494.4l-0.6-1.9l0.6-0.2l0.6,1.9L-56,494.4z M-57,491.2l-0.2-0.6l0.7-1.5l0.6,0.3l-0.6,1.3
			l0.1,0.3L-57,491.2z M-55.3,488.1l-0.6-0.3l0.5-1l-0.2-0.5l0.6-0.2l0.3,0.8L-55.3,488.1z M-56.1,485.1l-0.7-1.9l0.6-0.2l0.7,1.9
			L-56.1,485.1z M-57.4,482l-0.2-0.6l-1-0.4l0.2-0.6l1.3,0.5l0.3,0.8L-57.4,482z M-59.9,480.5l-1.9-0.7l0.2-0.6l1.9,0.7L-59.9,480.5
			z M-63.1,479.3l-1.3-1.5l0.5-0.4l1.3,1.5L-63.1,479.3z M-65.3,476.8l-1.3-1.5l0.5-0.4l1.3,1.5L-65.3,476.8z M-67.5,474.3l-0.4-0.4
			l-0.7-1.4l0.6-0.3l0.6,1.3l0.3,0.3L-67.5,474.3z M-69.2,471.3l-0.9-1.8l0.6-0.3l0.9,1.8L-69.2,471.3z M-70.8,468.7l-1.6-1.2
			l0.4-0.5l1.6,1.2L-70.8,468.7z M-73.5,466.7l-1.5-1.1l-0.1-0.4l0.7-0.1v0.2l1.3,1L-73.5,466.7z M-75.2,463.8l-0.3-2l0.7-0.1l0.3,2
			L-75.2,463.8z M-75.8,460.5l-0.3-2l0.7-0.1l0.3,2L-75.8,460.5z M-76.4,457.2l-0.1-0.8l-0.1-1.3h0.7l0.1,1.2l0.1,0.7L-76.4,457.2z
			 M-76.6,453.9l-0.1-2h0.7l0.1,2H-76.6z M-76.8,450.6l-0.1-1.6l-0.1-0.1l0.5-0.5l0.3,0.3l0.1,1.8L-76.8,450.6z M-77.9,447.9
			l-1.4-1.4l0.5-0.5l1.4,1.4L-77.9,447.9z M-80.3,445.6l-1.4-1.4l0.5-0.5l0.2,0.2l1.2,1.2L-80.3,445.6z M-82.6,443.2l-1.4-1.4
			l0.5-0.5l1.4,1.4L-82.6,443.2z M-84.9,440.8l-0.9-1l-0.5-0.3l0.3-0.6l0.6,0.3l1,1L-84.9,440.8z M-87.5,438.9l-1.8-1l0.3-0.6l1.8,1
			L-87.5,438.9z M-90.4,437.3l-1.8-1l0.3-0.6l1.8,1L-90.4,437.3z M-93.3,435.7l-0.9-0.5l-0.6-1l0.6-0.4l0.5,0.8l0.7,0.4L-93.3,435.7
			z M-95.6,433.1l-1.1-1.7l0.6-0.4l1.1,1.7L-95.6,433.1z M-97.4,430.3l-1.1-1.7l0.6-0.4l1.1,1.7L-97.4,430.3z M-99.2,427.5l-0.6-0.9
			l-0.6-0.5l0.4-0.5l0.8,0.6l0.6,0.9L-99.2,427.5z M-101.5,425.3l-1.5-1.3l0.4-0.5l1.5,1.3L-101.5,425.3z M-104,423.2l-1.5-1.3
			l0.4-0.5l1.5,1.3L-104,423.2z M-106.6,421.1l-1.5-1.3l0.4-0.5l1.5,1.3L-106.6,421.1z M-109.2,418.9l-1.4-1.5l0.5-0.5l1.4,1.5
			L-109.2,418.9z M-111.5,416.5l-1.4-1.5l0.5-0.5l1.4,1.5L-111.5,416.5z M-113.7,414l-0.2-0.2v-2h0.7v1.9h-0.1L-113.7,414z
			 M-113.2,410.5h-0.7v-2h0.7V410.5z M-113.2,407.2h-0.7v-1l0.7-1l0.6,0.4l-0.6,0.8V407.2z M-111.9,404.4l-0.6-0.4l1.1-1.7l0.6,0.4
			L-111.9,404.4z M-110.1,401.7l-0.6-0.4l1.1-1.7l0.6,0.4L-110.1,401.7z M-72,401l-0.2-0.1l0.2-0.4l-0.1-0.2l1.8-0.7l0.3,0.6
			L-72,401z M-73.4,400.2l-1.7-1l0.3-0.6l1.7,1L-73.4,400.2z M-68.9,399.7l-0.3-0.6l1.8-0.8l0.3,0.6L-68.9,399.7z M-108.2,399
			l-0.2-0.2l-0.3-0.2l0.1-0.1l1.5-1.2l0.4,0.5L-108.2,399z M-76.3,398.5l-1.7-1l0.3-0.6l1.7,1L-76.3,398.5z M-65.8,398.4l-0.3-0.6
			l0.6-0.2l0.1-1l0.7,0.1l-0.1,1.4L-65.8,398.4z M-105.7,396.9l-0.4-0.5l1.6-1.2l0.4,0.5L-105.7,396.9z M-79.2,396.9l-1.7-1l0.3-0.6
			l1.7,1L-79.2,396.9z M-64.6,395.3l-0.7-0.1l0.2-2l0.7,0.1L-64.6,395.3z M-81.9,394.9l-1-1.7l0.6-0.3l1,1.7L-81.9,394.9z
			 M-103.1,394.7l-0.5-0.5l1.4-1.5l0.5,0.5L-103.1,394.7z M-100.8,392.3l-0.5-0.5l1.4-1.5l0.5,0.5L-100.8,392.3z M-64.2,392
			l-0.7-0.1l0.2-2l0.7,0.1L-64.2,392z M-83.6,392l-1-1.7l0.6-0.3l1,1.7L-83.6,392z M-98.5,389.9l-0.5-0.5l0.2-0.2l0.9-1.4l0.6,0.4
			l-0.9,1.4L-98.5,389.9z M-85.3,389.1l-0.6-1.1l-0.3-0.7l0.6-0.3l0.3,0.7l0.6,1L-85.3,389.1z M-96.7,387.1l-0.6-0.4l1.1-1.7
			l0.6,0.4L-96.7,387.1z M-86.8,386.1l-0.8-1.8l0.6-0.3l0.8,1.8L-86.8,386.1z M-94.8,384.3l-0.6-0.4l1.1-1.7l0.6,0.4L-94.8,384.3z
			 M-88,383l-0.1-0.3h-1.2V382h1.7l0.3,0.7L-88,383z M-90.7,382.7h-2V382h2V382.7z"/>
	</g>
	<g>
		<path class="st2" d="M27.3,203.3l-1.1-1.2l0.5-0.5l1.1,1.2L27.3,203.3z M25.3,201.1l-1.2-1.3l0.4-0.7l0.6,0.3l-0.1,0.2l0.8,0.9
			L25.3,201.1z M25.8,198.4l-0.6-0.3l0.6-1l1-0.3l0.2,0.6l-0.8,0.3L25.8,198.4z M28.3,197l-0.2-0.6l1.9-0.6l0.2,0.6L28.3,197z
			 M31.4,195.4l-0.6-0.3l0.9-1.7l0.2,0.1l0.2-0.3l0.3,0.2L31.4,195.4z M30.6,192.9l-1.5-1.3l0.4-0.5l1.5,1.3L30.6,192.9z M28,191.5
			l-2-0.2l0.1-0.7l2,0.2L28,191.5z"/>
	</g>
	<g>
		<path class="st2" d="M58.7,229.4l-0.4-0.1l0.1-0.7l0.4,0.1L58.7,229.4z M56.9,229.1l-2-0.4L55,228l2,0.4L56.9,229.1z M53.6,228.5
			l-2-0.4l0.1-0.7l2,0.4L53.6,228.5z M50.3,227.9l-2-0.4l0.2-0.6l0,0l1.9,0.3L50.3,227.9z M47.1,227l-1.9-0.7l0.2-0.6l1.9,0.7
			L47.1,227z M45.4,224.8h-0.7v-1.2l-0.2-0.6l0.6-0.2l0.3,0.8C45.4,223.6,45.4,224.8,45.4,224.8z M44,221.7l-0.7-1.9l0.6-0.2
			l0.8,1.9L44,221.7z M42.7,219l-1.6-1.2l0.4-0.5l1.6,1.2L42.7,219z M40.1,216.9l-0.2-0.1l-1.5-0.8l0.3-0.5l1.6,0.8l0.2,0.2
			L40.1,216.9z M37.2,215.5l-1.8-0.9l0.3-0.6l1.8,0.9L37.2,215.5z"/>
	</g>
</g>
<path transform="translate(377.188 240.91)" class="st5" d="M394,224.1h-6.6l-2.3,0.8l-2.3,1l-1.9,2.3v2.1l-1.3,0.9l-2.5,1l-2.5,2.1
	l-0.8,3.2l-3.8,4.4l-2.8,3v2.3l-1.1,2.1l-1.5,2.8v4h-23.9l-2.7,4l3,7.6l4.6,2.5l14.4-0.6l8.4-2.7l8.5-4l5.3-0.9l5.1-8.4l4.4-7.2
	l-0.4-5.5l-1.1-3.4l1.5-5.9l3.2-2.1v-3.8L394,224.1z M86.9,361.8l5.5-1.7l9.5-4.2l2.7-5.3l4.6-1.3h4.6l6.3,4l4.7,4.6l1.3,5.1
	l5.7,3.8l5.3,3.8l2.5,5.9v5.9l-4.6,1.9l-9.3-1.9l-3.2,1.9l-2.3,4.7l-7,3.2h-5.5l-3.2-5.3l-2.7-2.5l1.3-3.2v-3.4l-2.8-3.8h-9.7
	L86.9,361.8z M74.7,311.3v-3.4l5.1-2.5l7,1.3l4,1.7l4.7,5.9l3.8,4.6l1.9,4.7l-2.5,2.8l-3.6,1.3l-3.8,2.1l-6.5-4.6l-1.1-3V319
	l-2.1-2.7l-4.4-1.9L74.7,311.3z M-106.3,220.1l2.7-1.9l1.5-2.3l3.2-1.3l3.8,1.3l4.4,2.8l1.3,3.2l5.1,4l1.7,4.2v8.7h-8.2l-6.6-1.5
	l-4.9-4.2l-2.8-4.7l-1.1-5.3L-106.3,220.1L-106.3,220.1z M-59.7,238.9l4.6,2.8v2.8l2.8,2.1l4.2,2.8l4.9,3.8h2.5l2.5,1.9h7.2l3.2,1.3
	l1.7,3.8v4.2l-1.5,2.8l-5.5,1.3h-3l-2.5,2.5l-0.2,3.2l-0.8,2.3l-3.4,1.3h-6.3l-5.1-4.2l-5.3-3.2l-4.4-0.4l-4-0.8l1.3-3.8l3.4-0.8
	l4.2-2.3l1.9-2.5v-3.2l-1.1-2.7l-2.5-2.1h-3.8l-3.4-0.6v-10.4l4.6-1L-59.7,238.9z M171.6-26.5h3.2l1.9-2.8h11.6l2.8-3.2l5.9-1.1
	l6.5-8.2l4.4,3.6v5.1l3.6,1l4.7,0.6h3.6l3.2-0.8l3.2-1.7l2.5-5.1l6.3-2.7h12.5l5.3,1.9l3.6,2.1v3.6l-1.1,3.6l-5.1,1.9l-3.6,2.1
	l-3.2,1.5l0.2,2.7h4.9l2.5,1.1l1.5,4.2l1.7,3.2l1.1,3.6v4.6l-1.7,2.8l-4.7,2.1l-4.4,4.7l-7,3.8l-4.7,7.2l-4.6,6.5l1.5,2.1l3.8,1.5
	l8,5.9l7,2.5l5.1,1l5.5,5.5l5.3,3.2l5.1,2.1l1.1,3.2l-1.9,4.7l-4.6,4.4l-6.3,3.6l-5.5,2.7l-1.9,4.6l-0.8,5.9l2.1,6.3l2.1,3.4
	l-4.4,4.7h-3.8l-2.8,2.8h-6.6l-0.8-3.2l-1.7-3.8l-1.9-3.4l-2.5-0.8l-2.1,2.8l-1.1,4.2l0.6,4.2l2.7,6.5l-1.5,3.2l-5.5,3.2l-4.7,2.1
	l-2.5,1.9l-0.2,8.5l0.2,15.8l-1,4.2l-4.2,3.2l-5.9,2.5l-4.7,1.5h-4.6l-2.8-6.8l-4.2-0.2l-2.8-3.6l-3.4-1.5l-3.4-3.6l-6.5,2.5
	l-1.1,3.2l-1.1,3.2c-2.5,1.7-1.9,7-1.9,7v12.5l-2.1,2.8l-2.8,2.5l-3.2-0.9l-1.9-2.1l-3.6,0.2l-3.4,4.4l-2.7,5.1l-1.5,7.6l1.5,4.6
	l6.3,4.2h7.6l6.8,1.1h6.1l5.3-2.5l5.1-6.3l0.2-5.9l-0.2-5.9v-5.5l-1.7-4.4l2.1-2.1l3.2,1l2.7,4.4l0.6,4.4l-0.8,4.7l-0.8,6.8l2.7,4.7
	l4.4,2.1l4.4,1.5l2.5,2.7h2.7l2.1,3.4l7,2.1l3.4,2.8h7.6l8,1.7l6.3,2.5h4.6l2.5,4.6l3.2,8.9l0.8,6.8l-0.6,4.7h-3.6l-1.5,2.1
	l-0.2,11.4l-0.6,8.4l-0.9,2.8l1.7,2.5h2.8l3.6,2.8h2.5l2.5,1.1h3.4l3.4,4.2l5.3,1.7l-4.4,1l-4.6-1.7l-6.1-0.2l-5.3-2.1l-3.6,1.9v2.1
	h-2.1l-3.8-1.7l-1.7-2.1h-5.9l-6.2,0.8l-2.5,1.7h-5.9l-7-1.5l-4.6-1.5l-4.6-0.2l-4.4,1.7l-1.1,3.2H193l-4.4-1.5v-4.2l0.9-4.4
	l2.5-4.9l3.2-3.8l0.8-2.8l-1.5-3l-2.7-2.1l-2.1-0.8l0.2-3.8l-1.1-2.5l-3.4-0.2h-5.1l-3.8-1.1l-1.1-2.7l0.6-8.2l-0.6-5.9l-1.1-3
	l-2.5-2.7l-2.8-0.2l-2.1,1.1l-0.6,2.5l-1.5,1.9l-2.3,1.9l-0.6,3.2l-0.4,5.3l-0.8,4.2l-1.1,2.7l-3.2,1.5l-3.6,0.6l-1.3,2.8l-0.6,3.2
	l-0.8,2.5l-2.5,2.3l-3.6,0.8l-4.4,0.2l-3.8-0.2l-1.9-0.9l-1.3-2.1l-0.8-2.1V233l-1.1-2.3l-2.3-1.1l-3,0.2l-2.5,0.6l-2.8,0.6
	l-2.7-0.6l-1.1-0.2l-1.5-1.3v-4.7l2.8-2.5l3.8-5.3l1.1-3l0.8-3.4l0.2-2.7h2.8l4.2-1.7l3.2-4l1.5-4.9l0.6-13.3l0.2-6.8l-0.8-11
	l-1.5-5.3l-2.3-4.9l-2.8-4l-2.5-2.1l-2.3,0.2l-3,2.3l-2.5,4.9l-4,7.2l-5.5,7.6l-5.3,4.8l-6.3,5.1l-3.4,3.2l-3.6,1.5l-3.2,2.3l-1,3.8
	v3.8l1.1,3c0,0,1.9,4.6,1.9,4.9c0.2,0.4,0.8,6.3,0.8,6.3s-0.4,2.8-0.4,3.2s-1.1,1.3-1.1,1.3l-2.5,0.8l-4-0.2l-3-1.9l-4-3.2l-1.5-3.6
	l-1.9-3l-2.8-1.5l-2.5,0.6l-8.2,1.7l-2.9,2.3l-1.9,2.1l-1.5,4.2v4.2l1.7,4.2l2.3,3.2l2.8,2.7l1.5,2.8l0.8,3.2l0.6,5.7l-0.6,3.8
	l-1.9,2.3l-6.1,1.3l-4.2,0.2l-4.9-1l-4.6-2.3l-3.8-3l-6.6-8l-4.2-4.6l-1.9-6.1l1.1-4.9l-1.1-4.6l-4-3l-5.9-2.5l-5.3,1l-2.5,0.8
	l-1,1.1l-1.7-1.3V205l-4.2-2.8l-4.9-1.7l-27.2-0.2l-2.8,1.5h-23.4l-21.3-0.8l-5.5,1.3l-11.2-2.1l-9.5-0.4l-3.4,0.8l-4.4-2.7
	l-1.9-1.9l-3-0.6l-1.5-3.6l1.1-4.2l2.1-1.9l2.8,0.2l1.5-1.7l-0.4-2.7l-4.2-3.4l-3.2-1.9l-1.9-1.3l-1.9-3.4l0.8-3.2l2.1-2.1l2.1-0.4
	l2.7-0.6l0.8-3.2l1.1-2.5l1.1-2.1l1.7-1l2.5-1.9l0.2-3l-0.2-3.4l1.3-2.1l2.8-0.9l5.1-1.9l51.3-104.1l38,11.4l4.4,1l6.5,0.6l28.7-9.9
	l53.9-57l12,1.5h4.7l3-2.1l0.6-5.3v-6.5l1.7-4.7l3.6-2.7l10.1,1l4.2,8.4l7.4-2.1l3.2-1.5l2.7-2.3l3-1l2.3-2.7l0.6-6.8l1.7-2.5l1.1-8
	l-1-6.3l-4.2-2.3h-4.2l-4.2-1.5l-4.2-4.4l-1.5-5.1l5.1-3.8l5.9-2.7l5.7-2.1h31.7l7.4,7.4l5.7,11.6l-2.7,5.9l-1.1,4.7l-3.6,2.7
	l-4.4,1.7l-3,3.6l-3.8,3.2l-1,3.2L171.6-26.5z"/>
<path transform="translate(0 0)" class="st6" d="M584.1,0.6l7.6,25.5l11.4,6.5h15.4l17.9,10.3l-4.4,6.5h-8.2l-0.6,8.2l7.6,9.5h5.7
	l8.9,7.6l2.5,8.2l6.8,4.4l-2.5,8.7l12,7.6l6.3,2.5l5.7-4.9v12l-5.7,3.8l5.7,2.5l8.7-4.9l2.5-6.3c-2.5,6.3,3.2,11.4,3.2,11.4
	l-3.8,8.2l-2.5,5.7l6.3,6.3l3.8-7.6l10.6,1.3l-6.3,6.3l6.3,3.8h7.6l10.6,4.9h22l7.6,7.6l3.8,13.3l-5.7,4.9l5.7,4.4l3.8,8.2l4.4,10.6
	l-2.5,6.3l6.8,6.3l5.7,5.7v9.5h5.7v15.8l3.2,10.1l5.7,4.9v8.2h-5.7v8.2l8.2,3.2l-2.5,6.8l-3.2,6.3l3.2,8.7h8.2l2.5,5.7v4.2h4.4
	l1.9,3.8l7.2,2.1l10.3,10.8l5.5,1.9h16.7l5.9,7.2l1.5,7.4v3.8h11.2l4.4-3l4.7-16.5l4.9-8.4l4,0.4l2.5-4.9v-6.8l6.3,0.4v-14.2
	l6.5,2.5l1.9,12.5v5.3l-5.3,1l-1,6.3l3,3l3,3V0.6H584.1z M900,362.4l-4.9,5.7v19.2l2.5,5.1h-8.5l-8.9,13.5l-14.1,19.2L852,443.7
	l-4.2,10.3l-2.8,9.9l-4.2,3.8L837,492l-3.2,19.2v5.1l5.1,2.3l1,8.4l-4.2,14.4l-6.1,2.3v16l-4.2,7h-7l-8.4-3.8l-3.8-8.4l-3.8,8
	l-4.2,4.2l-9.9,8.4l-3.2,15.4v15l-4.7,1.9h-11.8l-3.8,5.7h-4.2l-5.7-5.7l-7,2.3l-6.1,6.4l-2.3,5.7l-8.4,5.1l-12.2,8.4l-5.1,10.8
	l-4.7,4.2v10.3l10.3,2.8l8.4,3.2l-2.3,5.1h-8l-5.7,5.7l1,5.7h-7l-2.3,11.2l-4.2,3.2l-7-2.3l-5.1-1.9v6.5l7.4,8.4l2.3,8.9h-18.8
	l-1.9-5.7h-6.5l2.8-4.7l-2.8-5.7l-8.4-0.9v-6.5l-6.5-4.2l-14.4,0.9l-2.3,5.1l-6.1-1.3l-6.1-4.2l-2.8,6.1v11.4l7,1.9l-2.8,5.7
	l-4.2,3.8l-7,3.2l-4.2-1.9L603,722l1.9-6.5l-7.4,3.8c0,0-6.5,2.8-8.4,2.8H583v8h-6.1l-2.8-4.6l-5.7-4.2l2.3-7l-6.5-1.3l-4.7,5.1v5.1
	l5.1,1.9l4.4,1.9l0.8,4.9l-6.3-1.7l-8.4-3v-6.3l5.1-10.8l2.1-12.7l-4.6-10.8L548,679l-2.5-3.8l-9.5,1.1l-3,4.9l-6.3,2.7l-4.4,5.7
	l-3-1.3l6.3-7.8l-1.3-4l-7.8,1.1l-3.2,1.1l3.6-5.5l-0.8-4l-6.5-2.5l-6.3,1.7l-5.7,5.5l-1.3,14.4v5.5l-7,1.9l-3,7.8l-7,0.8v-4.9
	l-10.1,2.5l-10.1,6.3v4.9l-8.7,1.1l-27.7,16.5l-2.7,5.7l-5.1,3l4.6,3.6l8.7,5.9l-0.8,2.5h-4.6l-3.6,3.6l-4.4-2.7v-5.1l-5.5-4.9
	l-5.9,0.2l-1.1,4.6l6.3,1.9l3,2.7l-10.8,1.7l-8.2-1.3l-3.8,7.8l2.1,5.5l-0.6,4.6l-1.7,6.5l7.4,3.2l1.1,6.3l6.3,2.5l1.7,6.5l-2.5,6.5
	l-0.8,5.7l498.2-0.1L900,362.4z M385.4,759.8h-5.5l-2.3,3.4v5.5l6.5-0.9l1.3-3.4V759.8z M374.8,767.8l2.8,4l0.8,3.4h4.6l6.1,3.6
	l2.7,7l2.8,3.2h5.7l2.8,2.3l-0.6,5.1l-4.4,2.1c0,0-1.9,0.4-1.9,0.8l0,7.8h-58l3-6.9v-11.6l-3.6-3.8l1.3-4.2l3.8-4.2l2.7-1.9l7.2,1.1
	l3-3.6l1.1-7.2l-0.9-6.3h-3l-0.4-3.4l1.1-2.7l3-1.9l3,1.1l0.6,3.4l0.8,5.3l1.1,6.1l-2.7,8.7l-4,5.3l-1.9,6.5l1.9,4.4l7,3l3.8-0.2
	l-1.5-2.1l-4.4-2.8l-2.3-4.4l2.1-6.8l3.6-1.7l2.8,0.4l1.9,4.7l0.6,2.3h3.4l1.5-2.5l-0.4-3.2h-3.2l-3.4-3.2l-0.9-4.4l3-2.1
	L374.8,767.8z M286.2,807.1l1.2-8.5l2.3-4.2l5.1-6.8l3.6-4h-3l-1.9-2.7l0.8-4.6l4.2-1.7l10.3-5.9l6.8-6.3l5.5-10.3l2.7-3.4l2.7-1.7
	h4.6v-4.4l1.7-4.4h4.9l2.8,2.1l2.5,4.4l-0.8,4.2l-4.6,0.8l1.7,3.6l3.6,2.7l3.8,1.1v2.7l-1.3,5.3l-6.8,9.1l-6.6,6.3l-1.3,3.2l1.7,2.5
	l3.6,0.8l1.7,2.3l-0.8,4.4l-2.3,4l-4,2.7l1,6.7H286.2z M348.8,669l3.8,3.8v5.5l-3.8,5.5l-9.3,2.8l-14.6-0.6l-17.1,2.5l-5.1-1.1
	l-5.1,2.5l-3.6,3l-6.1,2.1h-3.6l-1.1,4.6l-6.1,2.1l-11,7.6l-14.4,9.7l-6.6,5.7l-4.7,9.7v12.9l1.3,3.6h3l-1.1,4.7l-4.4,1.3l-4.9-1.7
	l-1.3-4.4l-7.2-3.2l-3-4.7l-3.6-4.6v-23.2l4.2-4.4l4-1.1l5.1,0.2l2.7,0.6l3-0.6v-4.9l0.6-3.6l4.9-2.3l9.7-0.2l2.3-3.2l-0.2-4.7
	l3.6-1.1l7.4-0.4l4.2-5.1l7.4-5.5l3-4.7l9.1-0.4l10.1-1.5l8-3h8.5l4.6,3.8l4.7,0.8l7-0.6l4.7-0.8l3-3.2L348.8,669z M0,537.2l9.5,6.1
	l6.8,1.7l4.7-2.5l5.1,2.5l1.7,4.2l3,2.7l1.3-3.4l-7.2-11.2l-6.8-5.1l0.8-4.7l5.1,1.7l5.5,4.7l2.7,5.9l3,2.5v-8.5l5.5,2.7l3.4,3.4
	l5.5,2.5l1.7,3.8l-7.2,0.4l3.4,3.8l9.5,0.4l5.5,1.7l4.4,5.1l8.2,2.5l3.8,6.8v5.9H84l1.7,6.1l4.7-6.1l3,6.1l4.2,2.5l6.5,3.6l1.3,4.9
	l4.4,3v7.8l-3.4,3h7.2l1.7,7.2l-3,2.7l3,3.8l-1.7,16.3h-5.5l-6.5-1.3v6.1l2.1,3.8h5.1l2.5,4.2l-0.4,7.2h-6.1l1.3,5.9l2.1,7.8
	l3.8,2.1l1,11.2l-0.8,15.4l1.7,15.4l-0.8,13.7l-5.9,5.3l-3,4.6l-9.5,1.3h-9.5l-1.7-5.9H77l-5.5-7.8l-4.8-13.2l-2.5-11.2l-2.1-4.4
	l-4.2-2.7v4.4l-2.3,11l-4.2,3l-5.1-0.4l-4.4-0.8l-0.9,4.9l-3.4,4.4l-1.7,3l-4.2-0.9l-1,6.5l2.7,4v8.5l0.9,7.4l5.9,3.8l5.9-8.2
	l-4.7-2.8l2.5-8.5l4.7-3.2l6.5,0.8c0,0,1.7,7.4,1.7,11s1.1,11.2,1.1,11.2l3.2,4.2l5.1-2.7l6.1-12.5h9.5l3,4.4l8.9,2.7l4.2-2.1l1-3
	l6.5,3.4l1,12l3.4,1.3l8.5-6.1l2.1-9.3l9.3-3.2l4.4-8.5l2.7-9.1l4.2,2.1l2.1,7l5.1,4.2l2.1,6.5l-1.3,6.8l-4.2,3.4l-5.1-1.5l-4.4-2.5
	l-5.9,1l0.4,6.8l-0.9,6.5l7.8,5.5l8.9-2.7l2.7-4.4h12.9l2.7,4.4h18l4.2,2.7h19.6l-5.1,5.3l-5.1,4.6l-3,3h9.5l9.3,3.4l5.5,3l12.3-1.7
	l6.5,0.4v6.1l-3.8,3.8h-4.2l0.4,6.1h3.8l3.8-5.1l7.6-0.4v-3l-4.4-0.4l0.4-5.5l4.2-3.4v-6.1l-3.4-3l-1.3-9.9h7.8l2.7,8h4.2v6.3
	l-1.7,2.7l15.8,10.3l5.1,4.7l3,9.9H0V537.2z M180.7,738.3l1.1,4.6l3.2,1.7l-2.1,6.3h-6.6l-8.9-1.9v-6.3l3.6-4.4l4-2.1L180.7,738.3z
	 M818.5,412l-3.2,4.9l-5.5,3V430l4.4,7.2l6.8,3.6h5.1v-20.9L818.5,412z M40.7,67.2l6.3,22l11.6,13.7v5.5l5.1,2.8l5.3-2.5v11h6.6v4.9
	h-5.5l-5.1,7.6l-1.3,4.4l-5.5,3v5.9l1.9,10.4v12l1.5,7.6h5.5l1.9,8.9l6.6,4.4v18.4l-6.6,5.5l-0.4,26.4l-1.5,12l4.9,11l3.6,13.5
	l5.3,10.8l7.6-16.9l7.4-1.5v-9.9l3,4.4l1.7,5.7l5.5,1.9l5.9,0.6v6.3l-5.7,0.6l-7.2-2.3l-3.2-2.5l-5.1,4.2l-3.2,6.3l-1.9,5.7
	l10.6,2.5l3.4,5.1h14.1l7.8-5.7l6.3-2.8l6.1,0.2l6.5,2.3l-3.8,0.6H128l-4.9,2.7l-4.7,2.8l1.1,4.2l5.3,1.1l7.2,4.7l4.7-3.2l3.8-4l7-3
	l4,2.1l-4.4,2.3l-5.1,2.7l-1.3,6.1l0.6,7.6l6.8,5.9h3.4l1.5,8l3.4,3.8l3.6,1.7l1.7-4.2l2.3-2.7l5.3,1.5v3.6l6.5,1.7l13.5,1.1l4,1.7
	l3.8,2.3l2.1,3.2l-4.4,3.6l4.4,4.6h8.9l3.2-5.5l3.2,1.7l2.5,3.8h6.6l4.4,5.1l6.5,6.5l5.7,5.1l6.3-1.5l-2.5-7.8l3,1.9l7.6,1.9v7.6
	l8.4,5.1l3,3l2.3-6.8l2.8,1.5v9.9l7,8.2l8,2.7l6.5-4.4l1.3-7l-4-4l-4.2-0.9l0.4-4l4.6-0.6v-3.2l-7.2-5.9l-2.3-4.9l4,1.9l8.7,8.5
	l4.2,1.5l3.4,0.6v-5.3l-1.7-2.8l-4-0.6l1.1-5.5v-4.4l2.7,3l0.2,4.9l2.3,1l2.1-1.9l3.4-7.2l0.4-12l2.1-0.2l1.5,4.6l-0.6,8.5l-2.8,6.8
	l-2.7,2.7l-0.2,6.6l1,6.8l8-0.8l2.8-3.4l9.5,0.6l6.1-3.2l6.3-7l6.6-11.4V348l4.2-4.6l3.4-13.7l-2.5-6.8l-3.4-3l-6.5-0.2l-6.3,0.4
	l-3.8-1.3l1.9-2.8l9.5,0.6l7.4,2.1l2.8,1.3l0.8-2.3l-3.4-3.6l-2.5-3.2l0.4-4.4l3.8,2.3l1.7,1.9l3.6,0.9l8-10.3l2.8-8.9l1.1-4.2
	l-4.9-6.5l-1.1-2.5l-2.8-0.6l1-2.7l8-0.6l1.7-9.5l1.1-11.2l-1.7-4.2l-4.7,2.7l-3.6-0.2l-2.3-7.2l-2.5-5.1l1.1-4.9l4.7-3.2l5.1-2.7
	l1.3-5.9l6.8-5.5l2.7-4.9v-7.4l-5.1-2.5h-5.5l-5.7-1.1l-2.8-0.8l-4.6,0.4l-3.6,4l-3.6,1.5l-2.1-1.5l1.9-4l4.2-3.4l7-2.8l7.8-2.8v-3
	l-2.8-4.9l-5.1-1.5l-5.3-1.7l-2.5-5.9l-8.2-2.3l-6.1,0.4l-7.4,7.6l-7.2,7.4l-6.8,4.2l-8.4-1.9l-11.2-2.7l-0.4-4.9l-3.2-1.5l-2.3-3.2
	l-6.1,1.5l-0.6-9.1l-7.2,2.3l0.4-6.6h-5.9v-7.6l-6.1-0.4v-3.2l-4-0.4l-3.8-3l-1.1-5.7l-7-1.3l-3-8.4l-1.9-7l-5.9-1.9l-5.7,1.1
	l-2.3,5.3v5.1h-5.5l1.9-4.9l2.3-4.6l-0.8-2.1l-2.8-0.4l-2.1,3.4l-2.8,3.6l-0.6,2.8h-3l-1.5-1.3l-1.3-4.2l-4.4-1.9l0.6-3.4l4.4,0.4
	l5.1-1.1l3.6-0.9l4.4-3.2l-0.6-4.7l-0.8-4.2l-4.7-0.6l0.2-4l-4.2-1.7l0.2-4.6l-5.9-1l-3.6-1.5l-7.2,0.6l-1.5,4.6l-2.8,6.1l1.5,6.3
	l6.6-0.2l0.4,3l-3.2,2.3l-4.2-0.4l-0.2-3.6l-3.4-5.1l-6.1-2.8l-2.5-4l-4-2.5l1.5-4.2l8.4,0.2l0.4-8l0.8-4.6l-3-5.9l-2.5-1.7
	l-1.3-6.3l-4.6-2.5l-0.9-6.5l-4-2.1l-3-1.3l0.9-4.7l-5.1-3.6l-2.3-4.2l-6.1-1.3l-2.5-3.4h-5.7l-6.8-2.7h-3.4l-1.3-4l-8.5-7.8l-7-1.7
	l-0.4-3.4h-7.7l-2.5-5.5h-10.5l-1.3-3.6H98l-0.8-5.1L74.6,7.5H55.5l-15.2,2.8L30,7.5L18.6,14l-6.8,5.9l-1.5,6.3l8.4,7l12.5,23.9
	L40.7,67.2z M629.9,115.5l10.4,2.1h10.4v17.9l2.5,4.9h3.6l-1.5,4.7l-10.8,6.1l-16.7,12.5l-2.8,8.4v4.9l-9.1-2.5l-9.1-2.5l-3.8-5.9
	l-2.9-7.4l-8-2.5l-3.8-5.1l-2.5-9.1v-6.3l8.7-0.8l15.8-2.1l11-4.9l5.7-7.4L629.9,115.5z M531.9,16.3h4v4.9l2.7,2.7h8.5l7.8,2.8V33
	l5.7,2.3v4l2.3,2.7l2.7-1.7v-7.4l4-0.6l4.4-3h4l2.8,3l1.7-3h3.2l1.3,3.2l4.4,1.1l1.5-4.4l3.4,4.4l3.2,1.1l3.2,2.1l7.2-0.4l3.4,1.5
	l1.7,4l-1.5,6.8l-2.7,2.8l1.5,3.4l5.1,2.3l4.9,2.8l5.5,5.7l2.1,7.8v6.3l-6.6,1.1h-12.2l-4-5.1l-8.9-5.1l-5.1-1.5L592,73l2.7,3.2
	l4.6,3.2l5.5,1.7l5.7,2.8l7.4,2.3l7.2,5.7l1.5,6.3l-1.5,3.2H611l-3.2,1.5h6.3l6.1,0.8l1.1,4.2l2.1,7l-2.1,4.2l-4.6,2.5h-4.2v4.6
	l-4.2,1.7l-9.7,2.1l-7.2,1.3h-7.2l-3.2-2.1l3.2-5.9l1.7-3l4.2-1.7l-3-2.3l-2.8,0.4l-4.2,4.2l-1.9,1.3l-3.4-1.3l-2.3-4.9l-1.7-8h-3.2
	l-1.5,7l-0.2,2.7l-4.9-3.8l-3.8-3.8l1.1-9.1l0.6-9.1l-1.9-4.7h-3v9.1l-1.5,17.5l-2.1,4.6l-3,1l-2.1-1.9l-1.1-2.1l-2.1-3.2l-2.7-1.1
	l-0.2,4.2l2.1,0.9l1.7,4.4l-3.8,3.2H535l-1-2.1l-5.1-0.4c0,0-1.1-4.2-1.1-4.7v-5.3l2.7-4.7l5.1-4.7l0.9-24.7l2.1-4.9l1.5-5.7
	l-2.5-3.8l-1.3-3.2v-2.7l-3.6-0.2l-3-1.1l-0.2-3l-3.4-3l-1.3-3l-4.7-0.2v-6.6l2.7-4.6l2.5-2.8l2.8-1.1l1.1,4.2l0.4,4.7l2.5,2.1
	l2.5-1.1l0.6-3.2l3.6-1.7l-1.9-2.1l-3.6,1.3l-2.5-2.1l0.2-3l-3.2-1.1l0.2-3.4l3-0.6l0.4-5.3L531.9,16.3z M0.2,233.6l5.3-2.5l6.5,8.7
	l4.2,10.1l-1.3,4.2l-4.9,4.2H0.3L0.2,233.6L0.2,233.6z M216.6,0.6l7.8,8.2l-1.9,6.5l1.7,7.4l-3.8,3.2l12.9,5.9l14.1-1.1l3.2,6.8
	l10.8-1.1l5.3,1.1h9.9l4.7,2.7h5.7v4.6l4.7,4.2l-2.7,1.5h-6.8l0.6,4.7l5.7,1.7h5.3l-2.1,5.1l-1.5,5.3l1.7,3h8l2.7-3.8l3.8-1v1.9
	l-2.8,1.9l-1.3,4.6l4.2,0.6h10.8l8.9,7.8l3.2,1.9l8.7-1.1l5.3,0.2l4,1v5.3l6.8,2.3l2.8,5.7l7.4,2.3l8.4-1.3l3.8-3.4l2.3-4.6l5.5-0.6
	l3,2.7l-1.7,3.4l-5.1-0.6l-2.3,4.6L373,102h-9.7v4.2l6.3,5.1c0,0,8,4.6,8.5,4.4c0.6-0.2,9.9-2.1,9.9-2.1l16.9-1.3l5.5-0.6l7.6-10.4
	l3-5.7l-1.1-7.8l-4-2.8l-1.9-1.7l1.3-2.7l3.6-0.6l-0.8-5.5l-1-3.6l-4.9-0.6l0.4-4.7l1.3-2.8l2.8,1.9l2.1,3l3.2,5.5V80l0.6,4.9l2.5,4
	v8.4l-3.8,6.8l-3,4.9l-1.1,3.4l2.7,2.1l8.9-1.5l13.1-12.7l1-6.1l2.8-23l-1.5-8.9l-3.6-1.9h-5.1l-3-2.5v-3l5.5,1.5l5.5,0.8l0.2-4
	l-1.7-5.3l-3.4-2.8l-4.9-3l-8-1.3l-2.5-2.1l-0.4-2.7l-5.5-2.5l-2.3-4.7l-0.4-4.7l3-2.3l1.9-7.2l1.9-10.3l3.6-3.8h-40.8l1.9,6.8
	l1.9,4l0.6,2.8l4.4,1.3l-0.6,1.5l-5.1,0.6l-3.4,5.7c0,0,0,3.2,0.6,3.4c0.6,0.2,3.8,3,3.8,3l-1.3,4.9l-4.2-1l-7-3l-4.2,3.2l-3.2,4.4
	l0.2-8.5l1.1-4.7l2.3-4c0,0-1.3-4-1.9-4h-3l1-3.4c0,0,0.6-4.4,0.2-4.9c-0.4-0.6-3-2.3-3-2.3l-5.7,5.3l-1,4.2l1,2.5l5.3,0.4l-1.5,5.9
	l-2.5,3.4l-0.6,10.3l-2.7,0.6l0.9-7.2l-0.6-4.4l-4.4,0.6l-2.1-1c0,0-0.2-5.5-0.6-5.7c-0.6-0.4-4.6-0.6-4.6-0.6l-3-1.3l-0.6-4.9
	l-0.8-10.3l2.3-3.2H216.6V0.6z M527.3,0.6L522.7,5l1.5,4.7l18,0.4l3.2,3l4.9,7.4l7,2.1l2.3,3.8l4.4,1.9v2.3l4.2-1l6.6-2.5l4.9-0.8
	l3.4,0.8l2.7-3.2l3-3l4.2-7.6l-3.8-2.8l0.6-9.9L527.3,0.6L527.3,0.6z M524.3,0.6l-7.8,4.6l4,3l-0.6,5.9v3.6h5.7l-1.1,6.1l-6.6,1.5
	h-7.4l-2.1,1.3l-3.2,7.4v2.1l-3.8,1.9l-3.6-2.1l-2.1-4.6l-3.8-1.7l-7.8-0.4l-2.8,1.9V37l4.2,2.1l6.8,3.8l1,4.9l1.1,6.6l-0.4,5.5
	l1.9,4.4l4.2,1h6.5l2.5,3.8l-0.9,6.6l3.2,1.9l0.6,7.2l6.1,4.4l3.6,4.9l-0.4,8.4l-3,3.2l-4-1l-1.1-1.3l-1.7-6.6l-3,0.9l-0.4,4.4
	l1.1,6.8l0.9,5.3l-2.7,4.9c0,0-4.2,2.5-4.6,2.3c-0.4-0.2-4.4,1.3-4.4,1.3l-1.7,4.6H494l-4.4-4l-0.8-3.8l-2.7-6.5l0.8-8.4l4.4-3.4
	l-3.2-2.1l-2.1-2.7l-1.7-7.4l1-5.3l1.9-2.3l-2.1-1.3l-3.2,6.5l-1.1,6.6v11l-1.5,7l-3.2,5.1l-1.1,2.5l-14.1-0.2l-3.4-3.4l-8.7-1.9
	l-4-3.4l3.2-3.8l4.6-2.3l3.4-10.4l2.5-3.6l8.4-1l2.1-7.2l1.5-3.6l-1.5-4.4l-1-10.4l-2.8-5.1l-4-4.4l-1-6.5l1.1-3.6l5.3-2.1l-0.2-4.6
	h-6.6l-5.5,0.4l1.1-5.9l0.4-6.1l-4.4-3.2l-4.6,3l-3,1.5l-4.7-0.8l-4.4-3.2l-2.3-2.7l-1-7.6l1.1-5.5l3.8-4l0.2-2.8h52.8l-5.7,9.5
	l-5.3,7.4l1,2.5l3.6,0.4l4.2,3.4l3-2.1l-1.7-7.8l2.8-4.9l2.7-1.5l3.4-1.7l-0.6-3l1.7-2.1h26v0.5H524.3z M517.7,143l3,1.3l1.5,1.9
	l4.6-0.9l9.9,0.4l5.9,3.4h4.6l2.5-3h16l4.7,1.9l2.7,4l-0.9,3.8l-3.2,1.5h-13.5l0.8,1.5l4.2,0.9h5.5l3.8,1l-0.2,2.1l6.1,1.1l5.1,2.8
	l1.3,2.8l1.1,4.7c-0.3,1-0.7,1.9-1.1,2.8c-0.4,0.6-4.2,4-4.7,3.8c-0.6-0.2-5.5,2.1-5.5,2.1l-2.7,4.9l-5.9,1.7l-4.7,1.5l-5.7-3.2
	l1.5-5.5l-3.6-4l-1.5-6.3l-0.9-7.4l-3-3.6l-3.2,1.3l-2.5,2.2l0.9,4l-0.6,2.7l-1.1,4l2.7,1.9l-1,4.2l-2.1,1.9l-3,3l-4,2.5l-2.7-1.9
	l0.4-3.8l0.8-11.4l-0.2-4.4h-4l-4.2-0.9l-1.5-3.8l0.9-6.3l-0.9-2.1l-3-1l-3.8-2.5l1.3-3.2l0.8-3.4L517.7,143z M547.7,200.2v-4.4
	l1.9-6.8l2.7,1.1l4.7,2.1l2.7,0.2l8.2-1.3l4.7-3.4l2.3-3.4l2.8-1.5l6.3-2.7h3.4l1.7,3.4l-3.6,2.3c0,0-0.8,2.5-1.7,2.5
	c-1,0-3.6,2.1-3.6,2.1l-0.2,2.1l3.2-2.1l3.8-2.7l3.8,0.4l1.5,1.9l-1.3,4.4l3.8,1.7l2.7,0.2l-1.3,5.5l-2.3,3.2l-15.8,4.6l-8.5,3.6
	H555l-0.8-7.2l4.2-4.4l1-4.2l4.6-3.4l-7,0.6l-4.6,0.8l-1.1,5.1L547.7,200.2z M485,126.9l-1.3,2.5l3,2.3l1.7-2.3l0.9-2.5H485z
	 M484.6,140.6l-3.2,0.9v-3.4l-0.9-6.5l-2.1-2.5l1.5-2.5l-1.5-1.9h-2.7l-1.7,1.9h-9.3l-0.2,4.9l-1.1,5.7v5.7l3.2,2.1
	c0,0-0.6,5.7-1.7,6.6c-1.1,1,1.9,3.2,1.9,3.2l2.7,1.1l1.1-2.3l-0.8-4.9h2.3l3.2-1.5l3.8-0.6c0,0-0.6,2.1-0.6,2.3v2.5l1.7,0.6
	l2.5-1.3c0,0,0.4-3.8,0-4s-0.2-2.5-0.2-2.5L484.6,140.6z M483.7,146.3h2.8l-0.8-4l0.8-3.8l4-1l5.9,0.6l3.6,2.5l0.6,4.9v4.4
	c0,0,3,1,3.4,1s5.5,3,5.5,3l1.7,5.1l1.7,2.8l0.6,6.6v5.5l-2.1,3l-3.8-1.5l-0.6-6.3l-1.1-3.4l-0.6-5.5l-2.3-1l-0.4,3.8l-0.2,3.8
	l-1.3,0.8l-2.1-0.8l0.2-3.4l-1.7-1.5l-1,4l0.6,2.8l0.4,3.2l-2.1,1.3c0,0-2.3-0.2-2.5-0.6c-0.2-0.4-1.9-2.5-1.9-2.5l-2.8-1.9
	l-3.8,1.1l-2.1-1.1l-0.8,5.5l-1,3l-2.5-0.8l0.8-2.5c0,0,0.6-4.7,0.6-5.1c-0.1-0.6-0.2-1.1-0.4-1.7l2.3-1.9l0.4-5.7l-0.4-4.2l2.1-0.2
	v-4l0.9-1.9L483.7,146.3z M443.8,161.6l3.2,5.5c0,0,5.7,0.6,6.6,0c0.8-0.6,6.3-3.8,6.3-3.8l1.9-4.2l-3-6.8l-3.8-4.2l0.8-1.9l2.7-1.1
	l1.3-1.9l-0.6-10.1l-4.9-5.3l-6.5-2.7l-5.9,3.4l-2.8,1.7l-1.3-2.1l-0.8-3l-4.4-1.1l-10.4,1.9l-7.6,0.4l-2.7,2.3c0,0-0.4,4.2-1,3.4
	c-0.4-0.8-2.5-1.3-2.5-1.3v-2.8l-3-1.5l-4.7,1.7l-4.4,3.4l-3.8,5.9l-1.3,5.1l2.7,5.1l3.2,2.3l3.2,1.7h3.2l1,2.7l2.7,1l4.4-2.1
	l5.1-2.1l5.3-1.7l3.4-1.3l2.7-3.4l2.3,0.4l0.4,2.8l6.1-1.1l4.9,2.1l2.7,4.2v4.7L443.8,161.6z M469,182v-7l-4.7-1.1l-3-1.7L460,169
	l-2.3-1.5l2.5-2.5l2.5-2.3l1.5-2.7h5.5l4.9,4.7l2.3,4v2.3c0,0-0.8,4.4-1.5,4.7c-0.8,0.4-1.7,2.7-1.7,2.7s-1.3,3.4-1.7,2.8
	c-0.4-0.6-0.2,1-0.2,1h-2.7L469,182z M403.9,159.2l1.3,2.3l-0.6,5.7l3.8-0.2l2.8-3l5.5-0.8l3.4-3.4l5.5,1l5.7,1.3l3.2-1.3l6.3,0.2
	l2.3,2.5l1.3,5.7l-2.1,6.1l-3.8,2.8h-3.6l-0.2,5.3h4.7l0.2,4.6l-1.1,3.2l-3.8,1.5l-3.6-0.9l-1.5-3l-3.4-2.7v2.1l0.8,4.6l0.9,2.8
	l4.6,0.6h3l1.5,2.1l-1.3,4.6l-1.9,6.5l-3.8,3.2h-12.2l-2.8,1.1l2.1,1.3h7.4l0.2,6.1c0,0,1.3,4,1.3,3.8s2.1,2.1,2.1,2.1l4.2,2.1
	l1.7,2.7l0.2,6.5l-1.3,1.5h-5.5l-1.5-1.9l-3.4-0.6l-1.1,2.5l-0.4,2.7h-3.8l-1.3,2.7l-0.4,3l-2.5,1.1l-2.8,1.9l-2.1,2.8l-2.7,1.7
	l2.8,1.7l3.4-2.1l4.4-4l3.8-1.9l-0.2-2.8l4.7-0.4l2.5-1.3l7.8,0.6l4.7,0.4l2.8,1.7l1.1,3.8l0.4,2.5l2.1-0.6v-8l-1.9-2.8l-3.8-1.3
	l-1.3-6.8l-2.3-5.5l-0.6-2.8l-3.6-0.9l-3-3.2l0.6-3l1.7-2.3l3.4-0.9l1.5,0.4l1.5,0.4l2.3-0.4l-4.7-2.1l1.3-2.1l1.9-2.1l0.8-3.6
	l1.1-4.4l2.5-2.3l3-2.1h7.4l3.4,4.6c0,0,1.7,3.8,1.5,4c-0.4,0.2,2.7,3,2.7,3l0.9,2.8v3.6l-2.1,2.7l-4.6-0.6l-3.4,1.3
	c0,0-0.2,2.1,0.4,2.1s2.8,1.7,2.8,1.7l3.2-0.6l4.6-2.5l4.2,1.9l1.9,3.4v5.5l0.9,6.3v4.7l-1.3,4.2l-1.3,5.7l-2.1,2.7
	c0,0-5.3,1.3-5.9,1.3s-5.9-0.2-5.9-0.2l-3.2-3l-1.5,2.8l1.5,5.5l1.7,4.6l-3.2,4.7l-4.7,4.7h-4.6l-4.2,1.9l-1.1,4.7l-2.7,1.3
	c0,0-2.5-1.7-2.8-1.7c-0.4,0-2.7,4.7-2.7,4.7l-1.1,5.1c0,0-2.3,3.4-4,3.8c-1.1,0.2-2.3,0.2-3.4,0l-4,2.3l-1,1.5h-5.5l-1.3,2.1
	l-3.8,1.7v3h-4.6l-1.5-2.8l-2.3-3l-4.6,2.8l-1.9,3.2l-6.6-3.4l-3.8,0.2l-4.2-3.6l-2.5-4l1.9-6.3l2.5,0.6l1.3-2.8l1-2.1l2.5-3v-1.3
	l-4.2,0.6l-1.3-2.8l-0.6-4.4l3,0.8l1-3.2l-1-2.8l3.2-6.8v-8l3.2-2.7l0.4-8.7l2.1-5.7l3.4-4.9l6.3-0.6l3.2-2.1v-3.4
	c0,0-1.5-3.6-2.3-3.4c-0.8,0.2-4-1.3-4-1.3l-4.2-0.6l-0.6-5.1l0.4-10.6l2.1-4.4l4.2-2.3l2.7,0.6l-0.6-4.4l0.4-3.6l0.4-3h2.1l0.2-3
	l-1-4.6l-3.8,0.2l-4.6-0.4l0.2-7l3.6-3.6h2.8l2.5-4.2l1.3-3.8h4L403.9,159.2z M457.8,183.9l0.8,3.4c0.5,0.7,1.1,1.3,1.7,1.9
	c0.9,0.6,1.7,1.2,2.5,1.9c0.8,0.8,3.2,0.9,3.6,0.9c0.4-0.2,2.7-0.9,2.7-0.9s2.3-1.5,2.7-1.5c0.4,0,2.5-1.5,2.5-1.5v-3.4l-1.9-1.3h-3
	l-2.3,0.4l-3.6,0.6l-2.8-0.9L457.8,183.9z M475.3,188.6l-3,1.7l-3.2,2.1l-3,1.5l-1.3,2.5v2.5l1.3,3l1.1,3.2l4,2.5l3,3.4l3.2,1.3
	c0,0,2.5-0.6,2.7-1s1.5-3.4,1.5-3.4v-5.3c0,0-0.4-3-1-3.4c-0.6-0.2-2.5-0.9-2.5-0.9l1.3-2.5l-0.8-2.8c0,0-0.6-1.5-1.3-1.7
	C476.4,190.9,475.3,188.6,475.3,188.6z M483.8,191.8l-1.3,2.7l-0.6,3.2l1.9,4.7l0.8,1.5v3.6l-1.3,3.4l1.3,1.5l3.4,1v3.2l0.8,4.7
	l3.6,3l4.2,3.6l4,1.3l2.7-2.8l2.3-2.7v-3.8l-1.7-4.2l-2.1-3.4h1.1l2.7-0.6l0.6-4.4c0,0-0.6-1.7-0.9-1.9s-2.3-1.9-2.3-1.9h-1.9
	l-3.2-0.8c0,0-2.8-0.6-3.6-0.4c-0.8,0.2-1-2.7-1-2.7l-0.2-2.7l1.1-0.6l-0.8-4.4l-4-2.5l-3.8,0.6L483.8,191.8z M510.4,180.8l-1.5,1.7
	l-0.6,2.7l0.9,4.2v6.5l-0.9,2.1l0.9,3l3.2,1.5l1.9-3.4l1.9-3.6l0.9-5.1l-0.6-4.2l-2.5-3l-2.3-2.8L510.4,180.8z M528.7,198.1
	l-1.3,4.4v3.8h-3.7l1.7,5.7l-4.4,2.5v4.6l2.7,3h9.7l4-1.9v-3.7l-4-0.8h-4.2l2.1-2.9l4.9-1l4.4,1l3.8-1v-7.2l-1.5-4.4l-2.9-4h-4.7
	l-2.5,2.3L528.7,198.1z M481.9,230.6l-2.3-1h-2.5l-2.5,2.3v3h2.5l3.2-1.3l1.5,0.4L481.9,230.6z M474.7,238.2v2.7l2.5,1.5l4.2-1.3
	l0.6-2.8h-1.9l-1.7,1.1L474.7,238.2z M72,370.8l-2.8,3l2.8,5.5l4.6,4l2.1-6.3l-2.8-6.3L72,370.8L72,370.8z M360.9,747.8l1.9-2.7h4.6
	l3,1.3l1.9,4.4h-5.7l-2.8,1h-2.3l-1.3-1.7L360.9,747.8z M365.3,754.5l-0.6,2.5l1.5,1.7h3.2l2.1-0.6v-2.8l-1.9-0.6
	c-0.8,0.1-1.5,0.1-2.3,0C366.7,754.5,366,754.5,365.3,754.5z M387.9,728.3c0,0.4-0.6,3.4-0.6,3.4l1.9,2.1h5.9l1.1-4
	c0,0-1.3-1.5-2.1-1.5c-0.8,0-2.3,0.9-2.3,0.9L387.9,728.3z M405,714.6l-2.5,4.4l2.5,3.8l1.9,1.5l2.7-2.5l1.1-3.2l-2.8-3L405,714.6z
	 M404.8,712.1l3-1.3h2.8l1,1.3l2.7,0.8l2.3-2.1l-1.1-3l-2.7-2.5l-2.1-1.7l-3.4,0.8l-0.8,1.9l-1.7,0.8l-0.8,2.1L404.8,712.1z
	 M668.7,646.8h4.2l3.6,2.8l2.1,4.2l-2.8,1.5h-3.6c-0.6,0-3.6-0.8-3.6-0.8l-1.1-3.4L668.7,646.8z M695.1,637.3v-9.9l4.4-1.3l5.7-1
	l6.3,1.3l2.1,3.6l-2.7,4l-5.7,3.2c0,0-3,3.2-4.2,3.6c-1.1,0.4-4,0-4,0L695.1,637.3z M682.7,629.1c0.8-0.2,3.6-1,3.6-1h4.2l2.7,1
	l0.8,0.9v3.8l0.4,3.6l0.6,1.9h-1.5l-2.1-0.6l-2.8-2.1l-1.7-2.8l-1.7-2.1l-1.7-1.1L682.7,629.1z M684.4,590.7l2.5-3.8l4.4-2.7l5.3-4
	l4.7-4.6l3-2.3l2.8,3.2v12.2l-5.1,1.9l-6.3,2.8l-3.4,3h-3.8l-4.2-2.3L684.4,590.7L684.4,590.7z M649.9,610.9h7.6l4.2-1.3h3.6l-3-1.9
	l-2.5-1.5l0.6-3.2l1.1-2.5h8l1.3-3.2l2.5-1.9h5.5c0,0,3.4,0.4,4,1s3.8,2.7,3.8,2.7l2.3,4.2l-0.8,7.6l-0.4,5.1l-6.1,0.9l-2.7,2.5v8.5
	h-3l0.6,2.7l-1.3,2.8h-5.5l-6.8-0.8h-4.4l-1.3-4.9l-2.8-1.3l-2.8-1.7l-2.3-2.8v-5.7L649.9,610.9z M646.8,627.2l4,1l3,2.5l2.1,4.4
	l-1.1,2.7h-2.3c0,0-2.5-2.5-2.7-3c-0.2-0.6-0.8-3-0.8-3l-3.4-1.1L646.8,627.2z M673,562.4c0,0-1.5,4.2-2.3,4.2c-1,0-1.9,1.5-1.9,1.5
	l2.1,3.2h3.4l1.1-3.4v-3L673,562.4z M688.6,555l-1.7,2.7l1,2.3h3.6l0.9-2.5V555H688.6z M153.9,529.8l-3.8,0.9l-1.3,2.3l0.6,2.7
	l1.9,0.8l2.7-1.7l2.3,0.2l1.7-1.9v-2.3l-1.9-1H153.9z M158.6,534.1l-0.8,1.1c0,0-2.5,1.3-2.8,1.1c-0.6-0.2-1.7,0.6-1.7,0.6l-1.5,0.6
	l1.1,2.3h5.1l1.5-1.7l1.5-2.5L158.6,534.1z M201,544.2c0.2,0.2,1.5-2.3,1.5-2.3h5.7l1.1,2.3c0,0,0.8,2.1,0,2.1
	c-0.8,0.2-3.2,0.8-3.2,0.8h-2.4l-1.9-1.1L201,544.2z M580.9,706.8l-1.3,4.6l3.6,3.2l1.7-6.5L580.9,706.8z M461.6,694.3v2.8l3.4,1
	h3.4l1.7-1.9c0,0,3.2-0.2,3.6,0s4.4,0,4.4,0h3.6V688c-1.9-1.1-3.4,0.8-3.4,0.8l-0.2,2.1l-2.7,2.1h-7c0,0-1.7,1.9-2.3,1.7
	c-0.6-0.2-2.8,0.4-2.8,0.4L461.6,694.3z M472.8,681.2l-1.7,3l-3.2,1.3v2.3l2.5,1.7l2.5,1.1h2.5l3.2-1.9v-5.3l-1-2.3h-4.8V681.2z
	 M444.7,678.9l-3.8,3.2l-0.9,2.8l-1.9,0.9l1.1,2.8h2.1l2.5-0.9l3.2-1l1.7-3l-0.8-2.7L444.7,678.9z M454.4,674.1l-2.5,1.7l1.3,2.1
	l3-1.9v-1.9L454.4,674.1L454.4,674.1z M461.6,661.6h-2.7l-0.8,3.6l2.7,1.5l1.7-0.9l1.7-1.7l0.8-1.3L461.6,661.6z M413.2,674.1
	l-2.5,1.9l2.5,2.8l2.1-2.3L413.2,674.1z M398.5,628.2l-2.3,2.3c0,0-0.2,4.2,0,4.4c1.4,0.4,2.8,0.7,4.2,1l3.8-2.1l-4-1.7L398.5,628.2
	z M490.5,636l-2.1,4.9v3.8l-1.5,4.2l-3.6,3.8v6.3l2.3,8.7h4.9v-5.1l2.8-3.2l3.8-0.6l4.9-2.3l3.8-2.8l2.3-5.9l-2.3-4.4l-5.7-0.2
	l-1.7-2.3l-1.9-0.9l-2.1,3.4l0.4-4l-0.8-1.9L490.5,636z M513.1,651.5c-0.6,0.3-1.3,0.5-1.9,0.8c-0.2,0-1,1.1-1,1.1
	c0.3,1,0.7,2,1.1,3c0.2,0.2,1.3,1.7,1.3,1.7l1.9,0.4h2.8l2.3-1l0.8-2.3v-1.5l-2.1-0.4l-1.7,0.8l-1.9,0.2l-1.1-1.1l0.4-0.8
	L513.1,651.5z M451.9,640.9l6.1-3.4l2.5-3.4l-0.4-4.7l11.4-4.2l1.3-2.5l2.5,2.5l1,3.4l-1,2.1l2.3-0.6l0.6-1.9l-0.9-1.7l2.3-1.3
	l2.1,2.1l1.3,3.2v3.4l-1.3,7.2l1.9-3.4l1.1-1.7l1.9,2.5v6.1l-2.1,3.4l-1.7,0.9l-1.3,1.1l-4.2-1.1l-3.8,0.2l-2.1,0.9l-1.3-1.7
	c0,0-3.6,0.6-4,0.6s-3.8,1.3-3.8,1.3s-1.9-0.6-2.1-1c-0.1-0.5-0.1-1,0-1.5l0.2-3.8l-1.5-2.8l-2.8,0.6l-3.4,0.4L451.9,640.9z
	 M447,628.2h3.6l5.1,0.6l2.5,1.3v3l-1,2.1l-3,2.3l-3,1.9l-1.5-1.9V636l3-1.3l-3,0.2l-0.9-2.5v-2.3L447,628.2z M460.1,602.7v3.2
	l-2.8,3.2l-5.3,3.2v2.3l-0.6,1.7l1.7,0.6l-0.2,1.7l-2.1,1.1l-1.7,0.8l1,0.8h1.1l0.2,1.3l-1.7,0.6l-1.1,1.1v2.1l2.8,0.6h4.9l2.3,1.1
	l2.8-0.8l3.4-2.1l2.8-1.1l2.3-1.1l-0.4-2.3l1.3-1.3l-2.1-2.1l-2.3-1.1l1.1-1.5l1.9-0.6c0,0,1.7-0.9,1.3-1.1c-0.4-0.2,0-2.5,0-2.5
	l-1.3-1.7l-3.2-1.3l-2.3-2.1l-1.5-2.1L460.1,602.7z M446.4,602.7h2.3l2.7,0.6l2.1,1.7l-0.8,2.1c0,0-0.4,2.5-0.6,2.5
	s-1.3,1.7-2.1,1.1c-0.8-0.7-1.5-1.6-2.1-2.5l-1.3-1.5l0.6-1.9L446.4,602.7z M413,606.1l-1.3,1.5l0.8,2.7l3,0.6l2.5-0.4
	c0,0,1.1-2.8,0.8-3c-0.4-0.2-1.3-3-1.3-3h-1.9v1.9L413,606.1z M315.5,562.4l-4,4.4v3.6l3.4-1.1l4.7-0.6l3.6-0.2l3.6-2.1l-0.8-2.8
	h-4.2L315.5,562.4z M313.1,571.4l-2.3,2.1l1.1,4l3.8,1.3l3.4,3.2l1.3,3l2.8-1.7v-4l-1.7-3.8l-2.5,0.2l-3.4-1.5l-0.6-2.1L313.1,571.4
	z M317.1,569.5l-0.6,1.7v1.5l1.5,1.5h1.3l2.5,0.6l1,1.7l1.7,0.6l3.6-0.4l1.7-0.2l2.5-2.5l0.8-3v-4l-2.1-1l-2.5-0.4l-0.8,1.7
	c-0.5,0.5-1.1,0.9-1.7,1.3c-0.2,0-2.8,0.9-3,0.9s-2.5-0.2-2.5-0.2L317.1,569.5z M369.1,576.3c-0.6,0.5-1.2,1.1-1.7,1.7l0.8,2.3
	l2.1,1.1l1.7-0.6h2.5l1-2.1l-0.2-2.1l-2.1-1.1l-2.8,0.6L369.1,576.3z M363.2,591.5l-1.9,2.3l0.9,2.3l1,1.3l4.9-0.8l3.4-1l2.3-1.9
	l1.3-2.3V588l-1.9-1.9h-3.5l-1.3,2.3v1.7l-1.5,1.5h-2.2L363.2,591.5z M356,586.2l-3.4,2.8l-2.1,2.7l-1.7,2.7v2.3l2.7-1l1.1,3.2
	l2.3-3.2l3.4-1.1l1.5-2.8l1.5-3.8l-3,1.1L356,586.2z M336.4,597.4l2.8-5.7l5.9-3.6h3.6l-0.8,3.6l-4.4,4l1.3,3.2l-2.5,2.1
	L336.4,597.4z M349.9,601l-4,1.7l0.6,1.9h4.2l0.8-2.5L349.9,601z M330.9,589.8v2.8l1.1,1.9l2.1-1.9l2.3-1.9V588h-2.7L330.9,589.8z
	 M362.3,567.4l-2.5,1.9l1.1,1.3l2.1,0.8l1.5,0.8h3.4v-3.4c-1.9-0.2-2.7-2.3-2.7-2.3L362.3,567.4z M347.6,572.1l-0.8,1.9l2.3,1.7
	l2.8,2.3l0.8,3.6v2.7h3.6l2.5,1.9l2.3-1.9c0,0-1.7-4.9-2.1-5.1c-0.4-0.2,0.6-2.3,0.6-2.3v-2.7c0,0-2.5-0.4-3-0.4
	c-0.6,0-0.8,1.3-1.7,1.1c-0.9-0.4-4.2-1.9-4.2-1.9L347.6,572.1z M351.4,568.5v1.9l2.7,1.5l4.9-0.8c0,0-3-2.1-4-1.9
	S351.4,568.5,351.4,568.5z M363,574.4l-1.7,3l0.8,2.3l1.9,3.2l1.5-2.1c0,0-1.5-1.7-1.5-2.7C363.8,576.9,363.5,575.6,363,574.4z
	 M342.5,573.7l4.4,2.1l3.4,3.4v4.4l2.1,2.7h-1.9l-1.9-2.7l-1.1-3.6l-3.2-1.3l-1.7-2.8h-2.5L342.5,573.7z M337.8,576.9l2.3,1.3
	l2.5,1.7l-1.1,0.8l-2.8,0.9l-2.1-2.8L337.8,576.9z M339.5,582.2l2.5-0.9l1-1l2.1,1.1l0.2,1.5l1.7,1.7l1.9,1.7l-1.5,0.4l-1.3-1.7
	l-2.7-1.5l-0.4-0.6l-2.5,0.6L339.5,582.2z M333.8,581.6l-2.7,2.7l1.9,1.5h2.3l1.9,0.4c0.1-0.4,0.1-0.8,0-1.1
	c-0.2-0.4-2.3-1.1-2.3-1.1L333.8,581.6z M339.5,586.2l-1.9,1.3l0.4,1.1l0.2,1.3l1.9-0.4l1-0.4l1.5-1.1l-1.5-0.8L339.5,586.2z
	 M244.9,528.6l-1,4.4h4.9v-3.2L244.9,528.6z M252.1,533l-2.1,3.2c2.1,0.8,4,2,5.7,3.4l1.5,3.4l1.7-3.4l-1.5-3.4l-1.7-2.3L252.1,533z
	 M262.9,491.2l1,2.8l-1,3.4l3.2-3.2l3-2.1l3.4,0.8l2.5,1.3c0,0-3.4,3.6-4.2,3.2c-0.8-0.6-1.9,0-1.9,0h-2.8l0.6,3.8l2.5,2.5l3.6-1.7
	l2.5,1.7c0,0,1.7,3.2,0,3.2s-3.4-0.8-4.2,0c-0.6,0.9-1.2,1.8-1.5,2.8h4l0.8,5.5l-0.6,5.3h-4.2l-1.5,2.3l-4.9-2.1l-6.5-1l-3.2-1.3
	l-4.2-0.2l1.3-6.8l-1.7-2.5l6.8,0.2l3.4-2.3h-7.2l-3-1.3l1.3-4.2l2.5-2.5l2.1-3l2.8-0.6l-0.6-2.8L262.9,491.2z M240.1,492.2l3.8-0.9
	l4.9-3.4l3.8-4.2h5.3l1.3,2.5l-1.5,3.4l-3,4l-4.6,4.6v3.4h-6.3l4,1.7l-1.5,2.8l-3.4,3l-4.2,2.8h-3.4l1.3,3.4l-1.3,3.8h-4l2.8,3.8
	l-2.8,1.3h-2.8v8.9h-2.8l-2.3-2.3l-7.6-1.1l-6.3,1.1v-4.7l3.8-1.7l4.2,1.5l0.8-1.7l-3.2-1.3l-2.3-2.7l1.7-3l2.8-1.3l4.2,1.1l2.7-0.2
	l1.1-2.3l0.2-4.2l-0.4-1.5l-5.7,0.6l-4.2-0.4l-11,0.4l-2.8-1.9l-6.8,2.3l-5.3-0.8l2.3-5.3l0.6-3l2.5-1.1l6.1-9.5l1.9-0.2l4.9,0.2
	l1.1,1.7l1.9,3.2l2.1,2.3l2.3,0.6l1.1-1.5l-1.5-3l-2.8-1.1l-1.7-1.9l-1.3-2.5l0.9-0.9c0,0,3.2-0.4,3.4-0.4c0.8,0.5,1.7,1,2.5,1.5
	l2.8,1.7l1,2.7l3,1.9l1.7-1l1.7-0.8l-0.4-3.4l-3.8-0.4l-2.8-1.1l-1.9-2.3V481l0.2-3.4l3.2-0.6l1.3-3.4l2.8-3.2l2.1-3h3.4l2.7,2.8
	l-1.9,2.3l-1.1,2.5l0.8,2.3l2.5-1.3l1.3-0.8l1.5-3.6c0,0,0.4-2.5,0.2-2.8c-0.2-0.4,0.4-2.3,0.4-2.3l-0.2-1.7c0,0,3-1.1,3-1
	c0,0.2,4.7,0,4.7,0l4.6,1.7c0,0,2.7,1.1,2.3,1.3c-0.4,0-0.4,4-0.4,4l-0.8,2.1l0.8,2.1l3,1.9c0,0,0.8,2.1,0.4,2.1s-1.5,1.9-1.7,1.9
	s-2.8,2.7-2.8,2.7l-1.5,3.4l-4.9,3l-3.6,1.7L240.1,492.2z M449.3,174.2l-3,1.1l-1.7,2.5l-0.4,4.2l1.5,3.4l3.6,2.9l1.9,1.1l2.1-0.8
	l1.7-3.2l0.6-4.4l-1.3-5.3l-1.7-1.1L449.3,174.2z M375.2,556.9h-2.7l-2.1,1.7l-1,2.1v3.2h4.4l1.7-3.6L375.2,556.9z"/>
<rect x="0" y="0.2" class="st7" width="900" height="806.9"/>
</svg>
