<?xml version="1.0" encoding="utf-8"?>
<!-- Generator: Adobe Illustrator 20.1.0, SVG Export Plug-In . SVG Version: 6.00 Build 0)  -->
<svg version="1.1" id="Layer_1" xmlns="http://www.w3.org/2000/svg" xmlns:xlink="http://www.w3.org/1999/xlink" x="0px" y="0px"
	 width="445.4px" height="452px" viewBox="0 0 445.4 452" style="enable-background:new 0 0 445.4 452;" xml:space="preserve">
<style type="text/css">
	.st0{opacity:0.51;}
	.st1{clip-path:url(#SVGID_2_);}
	.st2{fill:none;stroke:#93A5D6;stroke-width:0.7;stroke-miterlimit:10;}
	.st3{fill:none;stroke:#93A5D6;stroke-miterlimit:10;stroke-dasharray:6.0156,6.0156;}
	.st4{fill:none;stroke:#93A5D6;stroke-miterlimit:10;stroke-dasharray:6;}
	.st5{fill:#0B58B1;stroke:#BECFFC;stroke-width:2;stroke-miterlimit:10;}
	.st6{fill:#FFA62C;}
	.st7{fill:#B7674A;}
</style>
<g id="DAO_Scheme_inverted_-__x3C_Group_x3E_">
	<g>
		<g class="st0">
			<defs>
				<circle id="SVGID_1_" class="st0" cx="226.6" cy="218.8" r="218.3"/>
			</defs>
			<clipPath id="SVGID_2_">
				<use xlink:href="#SVGID_1_"  style="overflow:visible;"/>
			</clipPath>
			<g class="st1">
				<line class="st2" x1="42.6" y1="-160.1" x2="-219.9" y2="294.6"/>
				<line class="st2" x1="47.8" y1="-157.1" x2="-214.7" y2="297.6"/>
				<line class="st2" x1="53" y1="-154.1" x2="-209.5" y2="300.6"/>
				<line class="st2" x1="58.2" y1="-151.1" x2="-204.4" y2="303.6"/>
				<line class="st2" x1="63.3" y1="-148.2" x2="-199.2" y2="306.5"/>
				<line class="st2" x1="68.5" y1="-145.2" x2="-194" y2="309.5"/>
				<line class="st2" x1="73.7" y1="-142.2" x2="-188.8" y2="312.5"/>
				<line class="st2" x1="78.9" y1="-139.2" x2="-183.7" y2="315.5"/>
				<line class="st2" x1="84" y1="-136.2" x2="-178.5" y2="318.5"/>
				<line class="st2" x1="89.2" y1="-133.2" x2="-173.3" y2="321.5"/>
				<line class="st2" x1="99.5" y1="-127.2" x2="-163" y2="327.5"/>
				<line class="st2" x1="94.4" y1="-130.2" x2="-168.1" y2="324.5"/>
				<line class="st2" x1="104.7" y1="-124.3" x2="-157.8" y2="330.4"/>
				<line class="st2" x1="109.9" y1="-121.3" x2="-152.6" y2="333.4"/>
				<line class="st2" x1="115.1" y1="-118.3" x2="-147.5" y2="336.4"/>
				<line class="st2" x1="125.4" y1="-112.3" x2="-137.1" y2="342.4"/>
				<line class="st2" x1="130.6" y1="-109.3" x2="-131.9" y2="345.4"/>
				<line class="st2" x1="151.3" y1="-97.4" x2="-111.2" y2="357.3"/>
				<line class="st2" x1="135.8" y1="-106.3" x2="-126.8" y2="348.4"/>
				<line class="st2" x1="156.5" y1="-94.4" x2="-106.1" y2="360.3"/>
				<line class="st2" x1="161.6" y1="-91.4" x2="-100.9" y2="363.3"/>
				<line class="st2" x1="140.9" y1="-103.4" x2="-121.6" y2="351.3"/>
				<line class="st2" x1="172" y1="-85.4" x2="-90.5" y2="369.3"/>
				<line class="st2" x1="146.1" y1="-100.4" x2="-116.4" y2="354.3"/>
				<line class="st2" x1="187.5" y1="-76.5" x2="-75" y2="378.2"/>
				<line class="st2" x1="218.5" y1="-58.6" x2="-44" y2="396.2"/>
				<line class="st2" x1="203" y1="-67.5" x2="-59.5" y2="387.2"/>
				<line class="st2" x1="182.3" y1="-79.5" x2="-80.2" y2="375.2"/>
				<line class="st2" x1="197.8" y1="-70.5" x2="-64.7" y2="384.2"/>
				<line class="st2" x1="228.9" y1="-52.6" x2="-33.6" y2="402.1"/>
				<line class="st2" x1="353" y1="19.1" x2="90.5" y2="473.8"/>
				<line class="st2" x1="166.8" y1="-88.4" x2="-95.7" y2="366.3"/>
				<line class="st2" x1="177.2" y1="-82.4" x2="-85.4" y2="372.3"/>
				<line class="st2" x1="192.7" y1="-73.5" x2="-69.9" y2="381.2"/>
				<line class="st2" x1="234.1" y1="-49.6" x2="-28.5" y2="405.1"/>
				<line class="st2" x1="306.5" y1="-7.8" x2="44" y2="446.9"/>
				<line class="st2" x1="270.3" y1="-28.7" x2="7.7" y2="426"/>
				<line class="st2" x1="120.2" y1="-115.3" x2="-142.3" y2="339.4"/>
				<line class="st2" x1="208.2" y1="-64.5" x2="-54.3" y2="390.2"/>
				<line class="st2" x1="249.6" y1="-40.6" x2="-12.9" y2="414.1"/>
				<line class="st2" x1="280.6" y1="-22.7" x2="18.1" y2="432"/>
				<line class="st2" x1="213.4" y1="-61.5" x2="-49.2" y2="393.2"/>
				<line class="st2" x1="244.4" y1="-43.6" x2="-18.1" y2="411.1"/>
				<line class="st2" x1="265.1" y1="-31.7" x2="2.6" y2="423"/>
				<line class="st2" x1="223.7" y1="-55.6" x2="-38.8" y2="399.1"/>
				<line class="st2" x1="239.2" y1="-46.6" x2="-23.3" y2="408.1"/>
				<line class="st2" x1="259.9" y1="-34.7" x2="-2.6" y2="420"/>
				<line class="st2" x1="275.4" y1="-25.7" x2="12.9" y2="429"/>
				<line class="st2" x1="301.3" y1="-10.8" x2="38.8" y2="443.9"/>
				<line class="st2" x1="296.1" y1="-13.8" x2="33.6" y2="441"/>
				<line class="st2" x1="337.5" y1="10.1" x2="75" y2="464.8"/>
				<line class="st2" x1="285.8" y1="-19.7" x2="23.3" y2="435"/>
				<line class="st2" x1="327.2" y1="4.2" x2="64.7" y2="458.9"/>
				<line class="st2" x1="316.8" y1="-1.8" x2="54.3" y2="452.9"/>
				<line class="st2" x1="378.9" y1="34" x2="116.4" y2="488.7"/>
				<line class="st2" x1="347.9" y1="16.1" x2="85.3" y2="470.8"/>
				<line class="st2" x1="322" y1="1.2" x2="59.5" y2="455.9"/>
				<line class="st2" x1="342.7" y1="13.1" x2="80.2" y2="467.8"/>
				<line class="st2" x1="363.4" y1="25.1" x2="100.9" y2="479.8"/>
				<line class="st2" x1="332.4" y1="7.2" x2="69.8" y2="461.9"/>
				<line class="st2" x1="373.7" y1="31.1" x2="111.2" y2="485.8"/>
				<line class="st2" x1="368.6" y1="28.1" x2="106" y2="482.8"/>
				<line class="st2" x1="389.3" y1="40" x2="126.7" y2="494.7"/>
				<line class="st2" x1="384.1" y1="37" x2="121.6" y2="491.7"/>
				<line class="st2" x1="291" y1="-16.7" x2="28.4" y2="438"/>
				<line class="st2" x1="358.2" y1="22.1" x2="95.7" y2="476.8"/>
				<line class="st2" x1="430.6" y1="63.9" x2="168.1" y2="518.6"/>
				<line class="st2" x1="466.9" y1="84.8" x2="204.3" y2="539.5"/>
				<line class="st2" x1="394.4" y1="43" x2="131.9" y2="497.7"/>
				<line class="st2" x1="399.6" y1="46" x2="137.1" y2="500.7"/>
				<line class="st2" x1="410" y1="52" x2="147.4" y2="506.7"/>
				<line class="st2" x1="425.5" y1="60.9" x2="162.9" y2="515.6"/>
				<line class="st2" x1="420.3" y1="57.9" x2="157.8" y2="512.6"/>
				<line class="st2" x1="435.8" y1="66.9" x2="173.3" y2="521.6"/>
				<line class="st2" x1="404.8" y1="49" x2="142.3" y2="503.7"/>
				<line class="st2" x1="415.1" y1="54.9" x2="152.6" y2="509.7"/>
				<line class="st2" x1="254.8" y1="-37.6" x2="-7.8" y2="417.1"/>
				<line class="st2" x1="311.7" y1="-4.8" x2="49.1" y2="449.9"/>
				<line class="st2" x1="441" y1="69.9" x2="178.5" y2="524.6"/>
				<line class="st2" x1="451.3" y1="75.9" x2="188.8" y2="530.6"/>
				<line class="st2" x1="446.2" y1="72.9" x2="183.6" y2="527.6"/>
				<line class="st2" x1="508.2" y1="108.7" x2="245.7" y2="563.4"/>
				<line class="st2" x1="456.5" y1="78.8" x2="194" y2="533.5"/>
				<line class="st2" x1="482.4" y1="93.8" x2="219.9" y2="548.5"/>
				<line class="st2" x1="492.7" y1="99.7" x2="230.2" y2="554.5"/>
				<line class="st2" x1="472" y1="87.8" x2="209.5" y2="542.5"/>
				<line class="st2" x1="477.2" y1="90.8" x2="214.7" y2="545.5"/>
				<line class="st2" x1="497.9" y1="102.7" x2="235.4" y2="557.4"/>
				<line class="st2" x1="518.6" y1="114.7" x2="256.1" y2="569.4"/>
				<line class="st2" x1="503.1" y1="105.7" x2="240.5" y2="560.4"/>
				<line class="st2" x1="513.4" y1="111.7" x2="250.9" y2="566.4"/>
				<line class="st2" x1="461.7" y1="81.8" x2="199.2" y2="536.5"/>
				<line class="st2" x1="487.6" y1="96.8" x2="225" y2="551.5"/>
				<line class="st2" x1="523.8" y1="117.7" x2="261.2" y2="572.4"/>
				<line class="st2" x1="528.9" y1="120.7" x2="266.4" y2="575.4"/>
				<line class="st2" x1="534.1" y1="123.6" x2="271.6" y2="578.3"/>
				<line class="st2" x1="539.3" y1="126.6" x2="276.8" y2="581.3"/>
				<line class="st2" x1="544.5" y1="129.6" x2="281.9" y2="584.3"/>
				<line class="st2" x1="554.8" y1="135.6" x2="292.3" y2="590.3"/>
				<line class="st2" x1="560" y1="138.6" x2="297.5" y2="593.3"/>
				<line class="st2" x1="549.6" y1="132.6" x2="287.1" y2="587.3"/>
				<line class="st2" x1="565.2" y1="141.6" x2="302.6" y2="596.3"/>
				<line class="st2" x1="570.3" y1="144.6" x2="307.8" y2="599.3"/>
				<line class="st2" x1="585.8" y1="153.5" x2="323.3" y2="608.2"/>
				<line class="st2" x1="575.5" y1="147.5" x2="313" y2="602.2"/>
				<line class="st2" x1="580.7" y1="150.5" x2="318.1" y2="605.2"/>
				<line class="st2" x1="591" y1="156.5" x2="328.5" y2="611.2"/>
				<line class="st2" x1="596.2" y1="159.5" x2="333.7" y2="614.2"/>
				<line class="st2" x1="601.4" y1="162.5" x2="338.8" y2="617.2"/>
				<line class="st2" x1="606.5" y1="165.5" x2="344" y2="620.2"/>
				<line class="st2" x1="622.1" y1="174.4" x2="359.5" y2="629.1"/>
				<line class="st2" x1="611.7" y1="168.4" x2="349.2" y2="623.2"/>
				<line class="st2" x1="616.9" y1="171.4" x2="354.4" y2="626.1"/>
			</g>
		</g>
		<g>
			<g>
				<circle class="st3" cx="226.6" cy="218.8" r="218.3"/>
			</g>
			<line class="st4" x1="369" y1="53.3" x2="276.3" y2="155.4"/>
			<line class="st4" x1="295.8" y1="261.1" x2="425.5" y2="308.9"/>
			<line class="st4" x1="225" y1="300.4" x2="210.5" y2="436.9"/>
			<line class="st4" x1="149" y1="242.3" x2="15.1" y2="274.8"/>
			<line class="st4" x1="155.9" y1="179.2" x2="32.7" y2="118.5"/>
		</g>
		<circle class="st5" cx="227.4" cy="218.8" r="80.9"/>
		<g>
			<path class="st6" d="M370.7,67.4c-7.8,0-14.1-6.3-14.1-14.1s6.3-14.1,14.1-14.1c7.8,0,14.1,6.3,14.1,14.1S378.5,67.4,370.7,67.4z
				"/>
			<path class="st7" d="M370.7,40.2c7.2,0,13.1,5.9,13.1,13.1s-5.9,13.1-13.1,13.1s-13.1-5.9-13.1-13.1S363.5,40.2,370.7,40.2
				 M370.7,38.2c-8.3,0-15.1,6.8-15.1,15.1c0,8.3,6.8,15.1,15.1,15.1c8.3,0,15.1-6.8,15.1-15.1C385.8,45,379.1,38.2,370.7,38.2
				L370.7,38.2z"/>
		</g>
		<g>
			<path class="st6" d="M425.5,323c-7.8,0-14.1-6.3-14.1-14.1c0-7.8,6.3-14.1,14.1-14.1c7.8,0,14.1,6.3,14.1,14.1
				C439.6,316.7,433.3,323,425.5,323z"/>
			<path class="st7" d="M425.5,295.8c7.2,0,13.1,5.9,13.1,13.1s-5.9,13.1-13.1,13.1s-13.1-5.9-13.1-13.1S418.3,295.8,425.5,295.8
				 M425.5,293.8c-8.3,0-15.1,6.8-15.1,15.1c0,8.3,6.8,15.1,15.1,15.1c8.3,0,15.1-6.8,15.1-15.1
				C440.6,300.6,433.8,293.8,425.5,293.8L425.5,293.8z"/>
		</g>
		<g>
			<path class="st6" d="M210.5,451c-7.8,0-14.1-6.3-14.1-14.1s6.3-14.1,14.1-14.1c7.8,0,14.1,6.3,14.1,14.1S218.2,451,210.5,451z"/>
			<g>
				<path class="st7" d="M210.5,423.8c7.2,0,13.1,5.9,13.1,13.1s-5.9,13.1-13.1,13.1s-13.1-5.9-13.1-13.1S203.3,423.8,210.5,423.8
					 M210.5,421.8c-8.3,0-15.1,6.8-15.1,15.1c0,8.3,6.8,15.1,15.1,15.1s15.1-6.8,15.1-15.1C225.6,428.6,218.8,421.8,210.5,421.8
					L210.5,421.8z"/>
			</g>
		</g>
		<g>
			<path class="st6" d="M15.1,288.9c-7.8,0-14.1-6.3-14.1-14.1c0-7.8,6.3-14.1,14.1-14.1s14.1,6.3,14.1,14.1
				C29.2,282.5,22.8,288.9,15.1,288.9z"/>
			<g>
				<path class="st7" d="M15.1,261.7c7.2,0,13.1,5.9,13.1,13.1s-5.9,13.1-13.1,13.1S2,282,2,274.8S7.9,261.7,15.1,261.7 M15.1,259.7
					c-8.3,0-15.1,6.8-15.1,15.1c0,8.3,6.8,15.1,15.1,15.1c8.3,0,15.1-6.8,15.1-15.1C30.2,266.4,23.4,259.7,15.1,259.7L15.1,259.7z"
					/>
			</g>
		</g>
		<g>
			<path class="st6" d="M30.2,132.5c-7.8,0-14.1-6.3-14.1-14.1s6.3-14.1,14.1-14.1s14.1,6.3,14.1,14.1S37.9,132.5,30.2,132.5z"/>
			<g>
				<path class="st7" d="M30.2,105.4c7.2,0,13.1,5.9,13.1,13.1c0,7.2-5.9,13.1-13.1,13.1s-13.1-5.9-13.1-13.1
					C17.1,111.3,22.9,105.4,30.2,105.4 M30.2,103.4c-8.3,0-15.1,6.8-15.1,15.1c0,8.3,6.8,15.1,15.1,15.1c8.3,0,15.1-6.8,15.1-15.1
					C45.2,110.1,38.5,103.4,30.2,103.4L30.2,103.4z"/>
			</g>
		</g>
	</g>
</g>
</svg>
