<?xml version="1.0" encoding="utf-8"?>
<!-- Generator: Adobe Illustrator 20.1.0, SVG Export Plug-In . SVG Version: 6.00 Build 0)  -->
<svg version="1.1" id="Layer_1" xmlns="http://www.w3.org/2000/svg" xmlns:xlink="http://www.w3.org/1999/xlink" x="0px" y="0px"
	 width="453.7px" height="466.2px" viewBox="0 0 453.7 466.2" style="enable-background:new 0 0 453.7 466.2;" xml:space="preserve"
	>
<style type="text/css">
	.st0{opacity:0.51;}
	.st1{clip-path:url(#SVGID_2_);}
	.st2{fill:none;stroke:#93A5D6;stroke-width:0.7;stroke-miterlimit:10;}
	.st3{fill:none;stroke:#93A5D6;stroke-miterlimit:10;stroke-dasharray:6.0156,6.0156;}
	.st4{fill:none;stroke:#93A5D6;stroke-miterlimit:10;stroke-dasharray:6;}
	.st5{fill:#0B58B1;stroke:#BECFFC;stroke-width:2;stroke-miterlimit:10;}
	.st6{fill:#FFA62C;}
	.st7{fill:#B7674A;}
</style>
<g id="DAO_Scheme_inverted_-__x3C_Group_x3E_">
	<g>
		<g class="st0">
			<defs>
				<circle id="SVGID_1_" class="st0" cx="226.6" cy="233" r="218.3"/>
			</defs>
			<clipPath id="SVGID_2_">
				<use xlink:href="#SVGID_1_"  style="overflow:visible;"/>
			</clipPath>
			<g class="st1">
				<line class="st2" x1="42.6" y1="-145.9" x2="-219.9" y2="308.8"/>
				<line class="st2" x1="47.8" y1="-142.9" x2="-214.7" y2="311.8"/>
				<line class="st2" x1="53" y1="-139.9" x2="-209.5" y2="314.8"/>
				<line class="st2" x1="58.2" y1="-136.9" x2="-204.4" y2="317.8"/>
				<line class="st2" x1="63.3" y1="-133.9" x2="-199.2" y2="320.8"/>
				<line class="st2" x1="68.5" y1="-130.9" x2="-194" y2="323.8"/>
				<line class="st2" x1="73.7" y1="-127.9" x2="-188.8" y2="326.8"/>
				<line class="st2" x1="78.9" y1="-124.9" x2="-183.7" y2="329.8"/>
				<line class="st2" x1="84" y1="-122" x2="-178.5" y2="332.7"/>
				<line class="st2" x1="89.2" y1="-119" x2="-173.3" y2="335.7"/>
				<line class="st2" x1="99.5" y1="-113" x2="-163" y2="341.7"/>
				<line class="st2" x1="94.4" y1="-116" x2="-168.1" y2="338.7"/>
				<line class="st2" x1="104.7" y1="-110" x2="-157.8" y2="344.7"/>
				<line class="st2" x1="109.9" y1="-107" x2="-152.6" y2="347.7"/>
				<line class="st2" x1="115.1" y1="-104" x2="-147.5" y2="350.7"/>
				<line class="st2" x1="125.4" y1="-98.1" x2="-137.1" y2="356.6"/>
				<line class="st2" x1="130.6" y1="-95.1" x2="-131.9" y2="359.6"/>
				<line class="st2" x1="151.3" y1="-83.1" x2="-111.2" y2="371.6"/>
				<line class="st2" x1="135.8" y1="-92.1" x2="-126.8" y2="362.6"/>
				<line class="st2" x1="156.5" y1="-80.1" x2="-106.1" y2="374.6"/>
				<line class="st2" x1="161.6" y1="-77.2" x2="-100.9" y2="377.5"/>
				<line class="st2" x1="140.9" y1="-89.1" x2="-121.6" y2="365.6"/>
				<line class="st2" x1="172" y1="-71.2" x2="-90.5" y2="383.5"/>
				<line class="st2" x1="146.1" y1="-86.1" x2="-116.4" y2="368.6"/>
				<line class="st2" x1="187.5" y1="-62.2" x2="-75" y2="392.5"/>
				<line class="st2" x1="218.5" y1="-44.3" x2="-44" y2="410.4"/>
				<line class="st2" x1="203" y1="-53.3" x2="-59.5" y2="401.4"/>
				<line class="st2" x1="182.3" y1="-65.2" x2="-80.2" y2="389.5"/>
				<line class="st2" x1="197.8" y1="-56.2" x2="-64.7" y2="398.5"/>
				<line class="st2" x1="228.9" y1="-38.3" x2="-33.6" y2="416.4"/>
				<line class="st2" x1="353" y1="33.4" x2="90.5" y2="488.1"/>
				<line class="st2" x1="166.8" y1="-74.2" x2="-95.7" y2="380.5"/>
				<line class="st2" x1="177.2" y1="-68.2" x2="-85.4" y2="386.5"/>
				<line class="st2" x1="192.7" y1="-59.2" x2="-69.9" y2="395.5"/>
				<line class="st2" x1="234.1" y1="-35.3" x2="-28.5" y2="419.4"/>
				<line class="st2" x1="306.5" y1="6.5" x2="44" y2="461.2"/>
				<line class="st2" x1="270.3" y1="-14.4" x2="7.7" y2="440.3"/>
				<line class="st2" x1="120.2" y1="-101.1" x2="-142.3" y2="353.7"/>
				<line class="st2" x1="208.2" y1="-50.3" x2="-54.3" y2="404.4"/>
				<line class="st2" x1="249.6" y1="-26.4" x2="-12.9" y2="428.3"/>
				<line class="st2" x1="280.6" y1="-8.5" x2="18.1" y2="446.2"/>
				<line class="st2" x1="213.4" y1="-47.3" x2="-49.2" y2="407.4"/>
				<line class="st2" x1="244.4" y1="-29.4" x2="-18.1" y2="425.3"/>
				<line class="st2" x1="265.1" y1="-17.4" x2="2.6" y2="437.3"/>
				<line class="st2" x1="223.7" y1="-41.3" x2="-38.8" y2="413.4"/>
				<line class="st2" x1="239.2" y1="-32.4" x2="-23.3" y2="422.3"/>
				<line class="st2" x1="259.9" y1="-20.4" x2="-2.6" y2="434.3"/>
				<line class="st2" x1="275.4" y1="-11.4" x2="12.9" y2="443.3"/>
				<line class="st2" x1="301.3" y1="3.5" x2="38.8" y2="458.2"/>
				<line class="st2" x1="296.1" y1="0.5" x2="33.6" y2="455.2"/>
				<line class="st2" x1="337.5" y1="24.4" x2="75" y2="479.1"/>
				<line class="st2" x1="285.8" y1="-5.5" x2="23.3" y2="449.2"/>
				<line class="st2" x1="327.2" y1="18.4" x2="64.7" y2="473.1"/>
				<line class="st2" x1="316.8" y1="12.4" x2="54.3" y2="467.2"/>
				<line class="st2" x1="378.9" y1="48.3" x2="116.4" y2="503"/>
				<line class="st2" x1="347.9" y1="30.4" x2="85.3" y2="485.1"/>
				<line class="st2" x1="322" y1="15.4" x2="59.5" y2="470.1"/>
				<line class="st2" x1="342.7" y1="27.4" x2="80.2" y2="482.1"/>
				<line class="st2" x1="363.4" y1="39.3" x2="100.9" y2="494"/>
				<line class="st2" x1="332.4" y1="21.4" x2="69.8" y2="476.1"/>
				<line class="st2" x1="373.7" y1="45.3" x2="111.2" y2="500"/>
				<line class="st2" x1="368.6" y1="42.3" x2="106" y2="497"/>
				<line class="st2" x1="389.3" y1="54.3" x2="126.7" y2="509"/>
				<line class="st2" x1="384.1" y1="51.3" x2="121.6" y2="506"/>
				<line class="st2" x1="291" y1="-2.5" x2="28.4" y2="452.2"/>
				<line class="st2" x1="358.2" y1="36.3" x2="95.7" y2="491"/>
				<line class="st2" x1="430.6" y1="78.2" x2="168.1" y2="532.9"/>
				<line class="st2" x1="466.9" y1="99.1" x2="204.3" y2="553.8"/>
				<line class="st2" x1="394.4" y1="57.3" x2="131.9" y2="512"/>
				<line class="st2" x1="399.6" y1="60.2" x2="137.1" y2="514.9"/>
				<line class="st2" x1="410" y1="66.2" x2="147.4" y2="520.9"/>
				<line class="st2" x1="425.5" y1="75.2" x2="162.9" y2="529.9"/>
				<line class="st2" x1="420.3" y1="72.2" x2="157.8" y2="526.9"/>
				<line class="st2" x1="435.8" y1="81.1" x2="173.3" y2="535.8"/>
				<line class="st2" x1="404.8" y1="63.2" x2="142.3" y2="517.9"/>
				<line class="st2" x1="415.1" y1="69.2" x2="152.6" y2="523.9"/>
				<line class="st2" x1="254.8" y1="-23.4" x2="-7.8" y2="431.3"/>
				<line class="st2" x1="311.7" y1="9.5" x2="49.1" y2="464.2"/>
				<line class="st2" x1="441" y1="84.1" x2="178.5" y2="538.8"/>
				<line class="st2" x1="451.3" y1="90.1" x2="188.8" y2="544.8"/>
				<line class="st2" x1="446.2" y1="87.1" x2="183.6" y2="541.8"/>
				<line class="st2" x1="508.2" y1="123" x2="245.7" y2="577.7"/>
				<line class="st2" x1="456.5" y1="93.1" x2="194" y2="547.8"/>
				<line class="st2" x1="482.4" y1="108" x2="219.9" y2="562.7"/>
				<line class="st2" x1="492.7" y1="114" x2="230.2" y2="568.7"/>
				<line class="st2" x1="472" y1="102.1" x2="209.5" y2="556.8"/>
				<line class="st2" x1="477.2" y1="105" x2="214.7" y2="559.7"/>
				<line class="st2" x1="497.9" y1="117" x2="235.4" y2="571.7"/>
				<line class="st2" x1="518.6" y1="128.9" x2="256.1" y2="583.6"/>
				<line class="st2" x1="503.1" y1="120" x2="240.5" y2="574.7"/>
				<line class="st2" x1="513.4" y1="125.9" x2="250.9" y2="580.7"/>
				<line class="st2" x1="461.7" y1="96.1" x2="199.2" y2="550.8"/>
				<line class="st2" x1="487.6" y1="111" x2="225" y2="565.7"/>
				<line class="st2" x1="523.8" y1="131.9" x2="261.2" y2="586.6"/>
				<line class="st2" x1="528.9" y1="134.9" x2="266.4" y2="589.6"/>
				<line class="st2" x1="534.1" y1="137.9" x2="271.6" y2="592.6"/>
				<line class="st2" x1="539.3" y1="140.9" x2="276.8" y2="595.6"/>
				<line class="st2" x1="544.5" y1="143.9" x2="281.9" y2="598.6"/>
				<line class="st2" x1="554.8" y1="149.8" x2="292.3" y2="604.5"/>
				<line class="st2" x1="560" y1="152.8" x2="297.5" y2="607.5"/>
				<line class="st2" x1="549.6" y1="146.9" x2="287.1" y2="601.6"/>
				<line class="st2" x1="565.2" y1="155.8" x2="302.6" y2="610.5"/>
				<line class="st2" x1="570.3" y1="158.8" x2="307.8" y2="613.5"/>
				<line class="st2" x1="585.8" y1="167.8" x2="323.3" y2="622.5"/>
				<line class="st2" x1="575.5" y1="161.8" x2="313" y2="616.5"/>
				<line class="st2" x1="580.7" y1="164.8" x2="318.1" y2="619.5"/>
				<line class="st2" x1="591" y1="170.8" x2="328.5" y2="625.5"/>
				<line class="st2" x1="596.2" y1="173.7" x2="333.7" y2="628.4"/>
				<line class="st2" x1="601.4" y1="176.7" x2="338.8" y2="631.4"/>
				<line class="st2" x1="606.5" y1="179.7" x2="344" y2="634.4"/>
				<line class="st2" x1="622.1" y1="188.7" x2="359.5" y2="643.4"/>
				<line class="st2" x1="611.7" y1="182.7" x2="349.2" y2="637.4"/>
				<line class="st2" x1="616.9" y1="185.7" x2="354.4" y2="640.4"/>
			</g>
		</g>
		<g>
			<g>
				<circle class="st3" cx="226.6" cy="233" r="218.3"/>
			</g>
			<line class="st4" x1="369" y1="67.6" x2="276.3" y2="169.7"/>
			<line class="st4" x1="295.8" y1="275.4" x2="425.5" y2="323.2"/>
			<line class="st4" x1="225" y1="314.6" x2="210.5" y2="451.2"/>
			<line class="st4" x1="149" y1="256.6" x2="15.1" y2="289"/>
			<line class="st4" x1="155.9" y1="193.5" x2="32.7" y2="132.7"/>
		</g>
		<circle class="st5" cx="227.4" cy="233" r="80.9"/>
		<g>
			<path class="st6" d="M370.7,81.6c-7.8,0-14.1-6.3-14.1-14.1s6.3-14.1,14.1-14.1s14.1,6.3,14.1,14.1S378.5,81.6,370.7,81.6z"/>
			<path class="st7" d="M370.7,54.5c7.2,0,13.1,5.9,13.1,13.1s-5.9,13.1-13.1,13.1s-13.1-5.9-13.1-13.1S363.5,54.5,370.7,54.5
				 M370.7,52.5c-8.3,0-15.1,6.8-15.1,15.1c0,8.3,6.8,15.1,15.1,15.1c8.3,0,15.1-6.8,15.1-15.1C385.8,59.2,379.1,52.5,370.7,52.5
				L370.7,52.5z"/>
		</g>
		<g>
			<path class="st6" d="M425.5,337.2c-7.8,0-14.1-6.3-14.1-14.1c0-7.8,6.3-14.1,14.1-14.1c7.8,0,14.1,6.3,14.1,14.1
				C439.6,330.9,433.3,337.2,425.5,337.2z"/>
			<path class="st7" d="M425.5,310.1c7.2,0,13.1,5.9,13.1,13.1s-5.9,13.1-13.1,13.1s-13.1-5.9-13.1-13.1S418.3,310.1,425.5,310.1
				 M425.5,308.1c-8.3,0-15.1,6.8-15.1,15.1c0,8.3,6.8,15.1,15.1,15.1c8.3,0,15.1-6.8,15.1-15.1
				C440.6,314.8,433.8,308.1,425.5,308.1L425.5,308.1z"/>
		</g>
		<g>
			<path class="st6" d="M210.5,465.2c-7.8,0-14.1-6.3-14.1-14.1s6.3-14.1,14.1-14.1c7.8,0,14.1,6.3,14.1,14.1
				S218.2,465.2,210.5,465.2z"/>
			<g>
				<path class="st7" d="M210.5,438.1c7.2,0,13.1,5.9,13.1,13.1s-5.9,13.1-13.1,13.1s-13.1-5.9-13.1-13.1S203.3,438.1,210.5,438.1
					 M210.5,436.1c-8.3,0-15.1,6.8-15.1,15.1c0,8.3,6.8,15.1,15.1,15.1s15.1-6.8,15.1-15.1C225.6,442.8,218.8,436.1,210.5,436.1
					L210.5,436.1z"/>
			</g>
		</g>
		<g>
			<path class="st6" d="M15.1,303.1C7.3,303.1,1,296.8,1,289c0-7.8,6.3-14.1,14.1-14.1s14.1,6.3,14.1,14.1
				C29.2,296.8,22.8,303.1,15.1,303.1z"/>
			<g>
				<path class="st7" d="M15.1,275.9c7.2,0,13.1,5.9,13.1,13.1s-5.9,13.1-13.1,13.1S2,296.2,2,289S7.9,275.9,15.1,275.9 M15.1,273.9
					C6.8,273.9,0,280.7,0,289c0,8.3,6.8,15.1,15.1,15.1c8.3,0,15.1-6.8,15.1-15.1C30.2,280.7,23.4,273.9,15.1,273.9L15.1,273.9z"/>
			</g>
		</g>
		<g>
			<path class="st6" d="M30.2,146.8c-7.8,0-14.1-6.3-14.1-14.1s6.3-14.1,14.1-14.1s14.1,6.3,14.1,14.1S37.9,146.8,30.2,146.8z"/>
			<g>
				<path class="st7" d="M30.2,119.6c7.2,0,13.1,5.9,13.1,13.1c0,7.2-5.9,13.1-13.1,13.1s-13.1-5.9-13.1-13.1
					C17.1,125.5,22.9,119.6,30.2,119.6 M30.2,117.6c-8.3,0-15.1,6.8-15.1,15.1s6.8,15.1,15.1,15.1c8.3,0,15.1-6.8,15.1-15.1
					S38.5,117.6,30.2,117.6L30.2,117.6z"/>
			</g>
		</g>
	</g>
</g>
</svg>
