<?xml version="1.0" encoding="utf-8"?>
<!-- Generator: Adobe Illustrator 21.0.2, SVG Export Plug-In . SVG Version: 6.00 Build 0)  -->
<svg version="1.1" id="Layer_1" xmlns="http://www.w3.org/2000/svg" xmlns:xlink="http://www.w3.org/1999/xlink" x="0px" y="0px"
	 width="9.3px" height="17.9px" viewBox="0 0 9.3 17.9" style="enable-background:new 0 0 9.3 17.9;" xml:space="preserve">
<style type="text/css">
	.st0{fill:#B7674A;}
</style>
<path id="Group_260" transform="translate(857.386 13880)" class="st0" d="M-856.8-13872.7h8.1c0.2,0,0.3-0.1,0.4-0.2
	c0.2-0.3,0.2-0.8,0-1.1l-4.1-5.7c-0.1-0.2-0.4-0.3-0.6-0.2c-0.1,0-0.1,0.1-0.2,0.2l-4.1,5.7c-0.2,0.3-0.2,0.8,0,1.1
	C-857.1-13872.8-857-13872.7-856.8-13872.7z M-848.7-13869.4h-8.1c-0.2,0-0.3,0.1-0.4,0.2c-0.2,0.3-0.2,0.8,0,1.1l4.1,5.7
	c0.1,0.2,0.4,0.3,0.6,0.2c0.1,0,0.1-0.1,0.2-0.2l4.1-5.7c0.2-0.3,0.2-0.8,0-1.1C-848.4-13869.3-848.5-13869.4-848.7-13869.4z"/>
</svg>
