<?xml version="1.0" encoding="utf-8"?><svg width="106.016" height="123" viewBox="0 0 106.016 123" xmlns="http://www.w3.org/2000/svg" xmlns:xlink="http://www.w3.org/1999/xlink"><svg viewBox="1069 2099 106.016 122.585" width="106.016" height="122.585" id="alarm"><defs><style>.aa{fill:#e9a868}.ab{fill:#ce2e2e}.ac{fill:#e84a4a}.ad{fill:#f2d057}</style></defs><g transform="translate(1038.25 2099)"><path class="aa" d="M76.012 106.016v-4.041a56.776 56.776 0 0 0 56.712-56.713h4.038a60.755 60.755 0 0 1-60.754 60.754z"/><path class="ab" d="M76.012 0A45.262 45.262 0 1 1 30.75 45.262 45.263 45.263 0 0 1 76.012 0z"/><path class="ac" d="M76.013 8.083a37.18 37.18 0 1 1-37.18 37.18 37.181 37.181 0 0 1 37.18-37.18z"/><path class="ad" d="M76.012 39.874a5.388 5.388 0 1 1-5.388 5.388 5.394 5.394 0 0 1 5.388-5.388z"/><circle class="ad" cx="7.746" cy="7.746" r="7.746" transform="translate(121.274 37.516)"/><path class="ad" d="M100.537 96.391l-.008 26.194H51.495V96.391z"/><path class="aa" d="M59.578 104.473v10.024H92.45v-10.029z"/></g></svg></svg>