<?xml version="1.0" encoding="utf-8"?><svg width="192" height="474" viewBox="0 0 192 474" xmlns="http://www.w3.org/2000/svg" xmlns:xlink="http://www.w3.org/1999/xlink"><svg viewBox="148 1732 179.5 141.531" width="179.5" height="141.531" id="systemOne"><defs><style>.aa{fill:#414141}</style></defs><g transform="rotate(-90 502.266 1449.266)"><circle class="aa" cx="7.121" cy="7.121" r="7.121" transform="translate(97.554 1095)"/><circle class="aa" cx="4.121" cy="4.121" r="4.121" transform="translate(143.247 1112.691)"/><circle class="aa" cx="4.121" cy="4.121" r="4.121" transform="translate(78 1169.49)"/><circle class="aa" cx="5.121" cy="5.121" r="5.121" transform="translate(209.288 1121.071)"/><circle class="aa" cx="7.621" cy="7.621" r="7.621" transform="translate(147.49 1164.834)"/><circle class="aa" cx="5.121" cy="5.121" r="5.121" transform="translate(118.969 1257.015)"/><circle class="aa" cx="3.621" cy="3.621" r="3.621" transform="translate(207.633 1267.258)"/><circle class="aa" cx="4.621" cy="4.621" r="4.621" transform="translate(166.633 1232.258)"/><circle class="aa" cx="3.121" cy="3.121" r="3.121" transform="translate(121.633 1195.258)"/></g></svg><svg viewBox="954 1732 179.5 141.531" width="179.5" height="141.531" id="systemThree" y="142"><defs><style>.ba{fill:none;stroke:#b2b5b7;stroke-width:1px}.bb{fill:#414141}</style></defs><g transform="rotate(-90 905.266 1046.266)"><path class="ba" d="M171.015 1236.75l40 34m0 0l3-145m0 0l-67-9m67 9l-59 47m0 0l56 98m-56-98l16 64m-16-64l-30 26m30-25l-30 88m22-145l8 57m0-1l-73 1m73-1l-50-71m42 15l-42-15m0 0l-23 72m0 0l43 25m0 0l-1 63m1 0l46-25"/><circle class="bb" cx="7.121" cy="7.121" r="7.121" transform="translate(97.554 1095)"/><circle class="bb" cx="4.121" cy="4.121" r="4.121" transform="translate(143.247 1112.691)"/><circle class="bb" cx="4.121" cy="4.121" r="4.121" transform="translate(78 1169.49)"/><circle class="bb" cx="5.121" cy="5.121" r="5.121" transform="translate(209.288 1121.071)"/><circle class="bb" cx="7.621" cy="7.621" r="7.621" transform="translate(147.49 1164.834)"/><circle class="bb" cx="5.121" cy="5.121" r="5.121" transform="translate(118.969 1257.015)"/><circle class="bb" cx="3.621" cy="3.621" r="3.621" transform="translate(207.633 1267.258)"/><circle class="bb" cx="4.621" cy="4.621" r="4.621" transform="translate(166.633 1232.258)"/><circle class="bb" cx="3.121" cy="3.121" r="3.121" transform="translate(121.633 1195.258)"/></g></svg><svg viewBox="545 1708 192 190" width="192" height="190" id="systemTwo" y="284"><defs><style>.ca{fill:none;stroke:#b2b5b7;stroke-width:1px}.cb{fill:#414141}</style></defs><g transform="translate(23 568)"><path class="ca" d="M601.5 1251.5l110-74m-112 74h96m-94 0l88 74m-90-74l-5 43m5-43l-74 56m74-56l-55-34m55 34l24 60m-24-65l31-103m-31 108l-65-87"/><circle class="cb" cx="7.5" cy="7.5" r="7.5" transform="translate(592 1244)"/><circle class="cb" cx="4" cy="4" r="4" transform="translate(626 1140)"/><circle class="cb" cx="4" cy="4" r="4" transform="translate(706 1174)"/><circle class="cb" cx="4" cy="4" r="4" transform="translate(692 1248)"/><circle class="cb" cx="4" cy="4" r="4" transform="translate(686 1322)"/><circle class="cb" cx="4" cy="4" r="4" transform="translate(620 1308)"/><circle class="cb" cx="4" cy="4" r="4" transform="translate(591 1289)"/><circle class="cb" cx="4" cy="4" r="4" transform="translate(522 1304)"/><circle class="cb" cx="4" cy="4" r="4" transform="translate(541 1214)"/><circle class="cb" cx="4" cy="4" r="4" transform="translate(531 1161)"/></g></svg></svg>