<?xml version="1.0" encoding="utf-8"?><svg width="36.1" height="110" viewBox="0 0 36.1 110" xmlns="http://www.w3.org/2000/svg" xmlns:xlink="http://www.w3.org/1999/xlink"><svg id="bus" width="28.9" height="15.1" viewBox="0 0 28.9 15.1"><style>.ast0{fill:#fff}</style><path id="abus-side-view" class="ast0" d="M21.2 12.8c0 1.2 1 2.3 2.3 2.3 1.2 0 2.3-1 2.3-2.3 0-1.2-1-2.3-2.3-2.3-1.3.1-2.3 1.1-2.3 2.3zm.8 0c0-.8.6-1.4 1.4-1.4s1.4.6 1.4 1.4c0 .8-.6 1.4-1.4 1.4-.7 0-1.4-.6-1.4-1.4zm-18.9 0c0 1.2 1 2.3 2.3 2.3 1.2 0 2.3-1 2.3-2.3 0-1.2-1-2.3-2.3-2.3-1.3.1-2.3 1.1-2.3 2.3zm.8 0c0-.8.6-1.4 1.4-1.4s1.4.6 1.4 1.4c0 .8-.6 1.4-1.4 1.4-.7 0-1.4-.6-1.4-1.4zm-2.8-2.7V12c0 .1-.1.2-.2.2H.1v1h2.8v-.3c0-1.4 1.1-2.5 2.5-2.5s2.5 1.1 2.5 2.5v.3H21v-.3c0-1.4 1.1-2.5 2.5-2.5s2.5 1.1 2.5 2.5v.3h.6c1.3 0 2.4-1.1 2.4-2.4V2.3C29 1 27.9-.1 26.6-.1H2.5C1.2-.1.1 1 .1 2.3v7.5h.8c.1.1.2.2.2.3zm16.2-8.9v5.7h-4.4V1.2h4.4zM22.2 7V1.3h4.7c.1 0 .2.1.2.2v4.2c0 .1 0 1.3-2 1.3h-2.9zm-4.7 0V1.3h4.4V7h-4.4zM7.8 1.2h4.8v5.7H7.8V1.2zm-2.1.3c0-.1.1-.2.2-.2h1.7V7H5.9c-.1 0-.2-.1-.2-.2V1.5zM1.4 8.3V2.4c0-.7.6-1.2 1.2-1.2h2.3v5.6c-.1.7-.7 1.2-1.3 1.3-.7.2-1.5.3-2.2.2z"/></svg><svg id="car" width="29" height="13.3" viewBox="0 0 29 13.3" y="16"><style>.bst0{fill:#fff}</style><path id="bGroup_269" transform="translate(170 12823)" class="bst0" d="M-163.7-12814.6c-1.3 0-2.4 1.1-2.4 2.4 0 1.3 1.1 2.4 2.4 2.4s2.4-1.1 2.4-2.4c0-1.3-1.1-2.4-2.4-2.4zm0 3.9c-.8 0-1.5-.6-1.5-1.5 0-.8.6-1.4 1.4-1.4s1.4.6 1.5 1.4c0 .9-.6 1.5-1.4 1.5zm22.2-3.9v-2.9c0-.2-.1-.4-.3-.5l-2.7-.9c-1.1-2.1-3.2-3.6-5.6-3.9-5.8-.8-10.1.5-12.9 3.9-1.9 0-3.7.4-5.4 1.3-.6.4-1 1.1-1.1 1.9l-.1 1.2c-.3 0-.5.2-.5.5v1.9c0 .3.2.5.5.5h1.9c.3 0 .5-.2.5-.5 0-1.9 1.5-3.4 3.4-3.4s3.4 1.5 3.4 3.4c0 .2.2.5.4.5h8.8c.3 0 .5-.2.5-.5 0-1.9 1.5-3.4 3.4-3.4s3.4 1.5 3.4 3.4c0 .2.2.5.4.5h2c.3 0 .5-.2.5-.5v-1.9c0-.3-.2-.6-.5-.6zm-13-4.5c0 .1-.1.2-.2.2h-6.3c-.1 0-.2-.1-.2-.2s0-.1.1-.2c1.8-1.6 4.1-2.5 6.4-2.6.1 0 .3.1.3.2l-.1 2.6zm5.8 0c0 .1-.1.2-.2.2h-4.4c-.1 0-.2-.1-.2-.2v-2.6c0-.1.1-.2.2-.2 1 0 2.1.1 3.1.2.5.1.9.2 1.4.4.1 0 .2.1.2.2l-.1 2zm2.5.2h-1.3c-.1 0-.2-.1-.2-.2v-1.3c0-.1.1-.2.2-.2h.1c.5.4 1 .8 1.3 1.4.1.1.1.3 0 .3h-.1zm-1.1 4.3c-1.3 0-2.4 1.1-2.4 2.4 0 1.3 1.1 2.4 2.4 2.4 1.3 0 2.4-1.1 2.4-2.4 0-1.3-1-2.4-2.4-2.4zm0 3.9c-.8 0-1.4-.6-1.4-1.5s.6-1.4 1.5-1.4 1.4.6 1.4 1.4c0 .9-.7 1.5-1.5 1.5z"/></svg><svg id="footprints" width="36.1" height="36.2" viewBox="0 0 36.1 36.2" y="30"><style>.cst0{fill:#b7674a}</style><path class="cst0" d="M20.6 23.8c-.9-.4-1.8-.6-2.7-.9-.6-.2-1.3-.5-1.8-.9-1.7-1.1-2.5-3.2-2.1-5.1.2-1 .5-2 .7-3 .4-1.4.2-2.8-.5-4.1-.7-1.4-2.2-2-3.7-1.6-.8.3-1.5.6-2.1 1C6.5 10.4 5 12.1 4 14.1c-1 1.7-1.1 3.9-.4 5.7.7 1.6 1.8 3.1 3.3 4.1 1.3 1 2.7 1.8 4 2.6 1.6 1 3 2.3 4.1 3.8l.9 1.2c1 1.2 2.6 1.8 4.1 1.6.9-.2 1.8-.7 2.5-1.4 1.3-1 1.8-2.8 1.2-4.3-.5-1.6-1.6-2.9-3.1-3.6zM11.1 4.5c.1-1.1-.2-2.1-.8-3-.1-.1-.3-.3-.5-.6-.2-.1-.3-.3-.5-.4-.7-.6-1.7-.6-2.4 0-.3.3-.4.6-.5 1-.2 1.7.6 3.4 2 4.4.7.6 1.8.4 2.3-.3.3-.4.4-.7.4-1.1zM6.7 7.2c.2-1.2-.4-2.5-1.5-3.1-.6-.3-1.3-.2-1.7.4-.1.2-.2.4-.2.7 0 .7.1 1.3.5 1.9.3.5.7.8 1.2 1 .6.3 1.3.1 1.6-.5.1-.1.1-.2.1-.4zM4 9.6c0-1.1-.6-2.1-1.6-2.5-.5-.2-1 0-1.2.5 0 .1-.1.2-.1.3C1 9 1.7 10 2.7 10.4c.5.2 1 0 1.2-.5.1 0 .1-.1.1-.3zm-1.4 2.1c-.1-.8-.8-1.5-1.6-1.7-.5 0-.9.2-1 .7v.3c.1.3.1.5.2.8.3.5.8.8 1.4.9.4.1.8-.2.9-.6.1-.2.1-.3.1-.4zm-.7 2.6c0-.3-.1-.7-.2-1-.2-.2-.5-.4-.8-.5-.3-.2-.7 0-.8.3-.1 0-.1.1-.1.2 0 .7.3 1.3 1 1.6.3.2.7.1.8-.2 0-.1.1-.3.1-.4zm21.7-3.5c-.7.2-1.4.6-2.1 1-1.2.8-1.7 2.5-1.1 3.8.6 1.4 1.6 2.4 2.9 3 .9.4 1.9.8 2.8 1.4 1.8 1 2.8 2.9 2.6 4.9-.1.7-.2 1.3-.5 2-.3.9-.7 1.8-1 2.7-.4 1.6-.1 3.3.8 4.7.8 1.5 2.5 2.2 4.1 1.9 1-.1 1.9-.4 2.6-1 1.1-1.1 1.7-2.7 1.4-4.2-.1-.5-.2-1-.3-1.4-.5-1.8-.6-3.7-.4-5.6.2-1.6.4-3.2.5-4.8.1-1.8-.3-3.6-1.1-5.1-.9-1.8-2.7-3-4.6-3.4-2.2-.6-4.5-.5-6.6.1zm-2.6-2c.2-1.7-.7-3.4-2.1-4.3-.8-.5-1.8-.3-2.3.4-.2.3-.3.7-.3 1.1v.7c0 .3.1.6.1.7.3 1 .9 1.9 1.8 2.5.7.6 1.8.5 2.4-.2.3-.2.4-.6.4-.9zm3.9-1.3c.1-.5.1-1-.1-1.5-.2-.6-.6-1.2-1.1-1.6-.5-.4-1.2-.4-1.7.1-.2.2-.3.4-.3.6-.2 1.2.3 2.5 1.4 3.2.5.3 1.3.2 1.6-.3.1-.2.2-.3.2-.5zm3.3-.2c.3-1 0-2.2-.9-2.8-.4-.3-1-.2-1.3.2-.1.1-.1.2-.1.3-.2.5-.2 1.1 0 1.6.1.4.4.8.8 1.1.4.3 1 .3 1.3-.1.1-.1.2-.2.2-.3zm1.1.7c.3.3.7.3 1.1 0l.2-.2c.3-.5.4-1.1.2-1.6-.1-.2-.3-.5-.4-.7-.3-.3-.7-.4-1.1-.1l-.2.2c-.5.8-.4 1.7.2 2.4zm2.8-1c-.3-.2-.6-.2-.9.1-.1.1-.1.2-.1.3 0 .3-.1.6-.1.9.2.3.4.5.6.8.2.2.6.2.9 0 .1-.1.1-.2.2-.3.2-.7 0-1.4-.6-1.8z"/></svg><svg id="house" width="22.1" height="19.6" viewBox="0 0 22.1 19.6" y="67"><style>.dst0{fill:#fff}</style><path id="dicon" transform="translate(352 14069.46)" class="dst0" d="M-349-14050.4c0 .3.2.5.4.5h5.6v-4.6s-.1-.8.7-.8h2.3c.4-.1.8.2.8.6v4.6h5.4c.3 0 .6-.2.6-.6v-8.5l-7.7-6.8-8.1 6.8v8.8zm-3-9.2s.7 1.3 2.2 0l9-7.6 8.5 7.6c1.7 1.3 2.4 0 2.4 0l-10.9-9.8-11.2 9.8zm19.5-7.6h-2.2v2.6l2.2 1.8v-4.4z"/></svg><svg id="plane" width="22.9" height="22.3" viewBox="0 0 22.9 22.3" y="87"><style>.est0{fill:#fff}</style><path id="ePath_1766" class="est0" d="M22.4.6c-.7-.8-2-.8-2.8-.1l-5.3 4.9-12-3.2L.4 4 10 9.4l-5.3 4.9-3.2-.5L0 15.2l4.1 2.5L6.3 22l1.5-1.4-.3-3.3 5.3-4.9 4.7 9.9 1.9-1.8L17 8.3l5.3-4.9c.8-.7.8-2 .1-2.8z"/></svg></svg>