<?xml version="1.0" encoding="utf-8"?>
<!-- Generator: Adobe Illustrator 20.1.0, SVG Export Plug-In . SVG Version: 6.00 Build 0)  -->
<svg version="1.1" id="Layer_1" xmlns="http://www.w3.org/2000/svg" xmlns:xlink="http://www.w3.org/1999/xlink" x="0px" y="0px"
	 width="120px" height="119.9px" viewBox="0 0 120 119.9" style="enable-background:new 0 0 120 119.9;" xml:space="preserve">
<style type="text/css">
	.st0{fill:#0F0C0B;}
</style>
<path id="window-with-side-bar-selection" transform="translate(600 4858.778)" class="st0" d="M-489.4-4858.8h-101.2
	c-5.2,0-9.4,4.2-9.4,9.4v101.1c0,5.2,4.2,9.4,9.4,9.4h101.2c5.2,0,9.4-4.2,9.4-9.4v-101.1C-480-4854.6-484.2-4858.8-489.4-4858.8z
	 M-495.7-4848.1c2.2,0,4,1.8,4,4c0,2.2-1.8,4-4,4c-2.2,0-4-1.8-4-4S-498-4848.1-495.7-4848.1
	C-495.7-4848.1-495.7-4848.1-495.7-4848.1z M-510.2-4848.1c2.2,0,4,1.8,4,4c0,2.2-1.8,4-4,4s-4-1.8-4-4c0,0,0,0,0,0
	C-514.2-4846.3-512.4-4848.1-510.2-4848.1z M-532.7-4749.6h-56.5v-80.4h56.5V-4749.6z M-490.7-4749.6h-37.9v-80.4h37.9
	L-490.7-4749.6L-490.7-4749.6z M-495-4806.6h-28.7v-17.9h28.7V-4806.6z M-495-4781.7h-28.7v-17.9h28.7V-4781.7z M-495-4756.5h-28.7
	v-17.9h28.7V-4756.5z"/>
</svg>
