<?xml version="1.0" encoding="utf-8"?>
<!-- Generator: Adobe Illustrator 20.1.0, SVG Export Plug-In . SVG Version: 6.00 Build 0)  -->
<svg version="1.1" id="Layer_1" xmlns="http://www.w3.org/2000/svg" xmlns:xlink="http://www.w3.org/1999/xlink" x="0px" y="0px"
	 width="23.6px" height="52.5px" viewBox="0 0 23.6 52.5" style="enable-background:new 0 0 23.6 52.5;" xml:space="preserve">
<path d="M23.2,41.5c0.5-0.5,0.5-1.2,0-1.7s-1.2-0.5-1.7,0l-8.6,8.6V1.2c0-0.6-0.5-1.2-1.2-1.2l0,0c-0.7,0-1.2,0.5-1.2,1.2l0,0v47.2
	L2,39.8c-0.5-0.5-1.2-0.5-1.7,0s-0.5,1.2,0,1.7l0,0l10.6,10.6c0.4,0.5,1.2,0.5,1.6,0l0,0L23.2,41.5z"/>
</svg>
