<?xml version="1.0" encoding="utf-8"?>
<!-- Generator: Adobe Illustrator 20.1.0, SVG Export Plug-In . SVG Version: 6.00 Build 0)  -->
<svg version="1.1" id="Layer_1" xmlns="http://www.w3.org/2000/svg" xmlns:xlink="http://www.w3.org/1999/xlink" x="0px" y="0px"
	 width="23.6px" height="52.5px" viewBox="0 0 23.6 52.5" style="enable-background:new 0 0 23.6 52.5;" xml:space="preserve">
<g transform="translate(853.905 2803.828) rotate(180)">
	<path d="M830.7,2762.3c-0.5,0.5-0.5,1.2,0,1.7c0.5,0.5,1.2,0.5,1.7,0l8.6-8.6v47.2c0,0.6,0.5,1.2,1.2,1.2c0,0,0,0,0,0
		c0.7,0,1.2-0.5,1.2-1.2c0,0,0,0,0,0v-47.2l8.5,8.6c0.5,0.5,1.2,0.5,1.7,0c0.5-0.5,0.5-1.2,0-1.7c0,0,0,0,0,0l-10.6-10.6
		c-0.4-0.5-1.2-0.5-1.6,0c0,0,0,0,0,0L830.7,2762.3z"/>
</g>
</svg>
