<?xml version="1.0" encoding="utf-8"?>
<!-- Generator: Adobe Illustrator 20.1.0, SVG Export Plug-In . SVG Version: 6.00 Build 0)  -->
<svg version="1.1" id="Layer_1" xmlns="http://www.w3.org/2000/svg" xmlns:xlink="http://www.w3.org/1999/xlink" x="0px" y="0px"
	 width="109.4px" height="144.6px" viewBox="0 0 109.4 144.6" style="enable-background:new 0 0 109.4 144.6;" xml:space="preserve"
	>
<path id="group" transform="translate(168 4847)" d="M-146.4-4747.4l3.7-3.7h27l-17.2-31.2l-12.8,2.6c-3.3,0.7-6,3.2-6.9,6.5
	l-15.1,49.4c-1.3,4.8,1.6,9.7,6.4,11c0.7,0.2,1.5,0.3,2.3,0.3h12.6L-146.4-4747.4L-146.4-4747.4z M-58.9-4723.7l-15.1-49.4
	c-0.9-3.3-3.6-5.9-7-6.5l-12.7-2.4l-17.2,31h29.1l3.7,3.7v34.9h10.6c4.9,0,9-4,9-9C-58.6-4722.2-58.7-4723-58.9-4723.7L-58.9-4723.7
	z M-139-4712.5h-1v0h53.5v0h1v-31.2H-139V-4712.5z M-153.8-4709.1h80.9v6.7h-80.9V-4709.1z M-142.1-4804c0.1,0.3,0.3,0.7,0.5,1.2
	c0.5,1.5,1.3,2.9,2.3,4.1c4.1,13.4,14.7,22.7,26,22.6c11.2,0,21.7-9.4,25.6-22.8c1-1.2,1.8-2.6,2.3-4.1c0.2-0.5,0.4-0.9,0.5-1.2
	c1.5-3.1,1-6.5-1.1-8.2v-0.3c-0.1-16.6-2.2-34.4-27.5-34.3c-25.5,0.1-27.5,17.1-27.5,34.5c0,0.1,0,0.2,0,0.3
	C-143.2-4810.6-143.6-4807.2-142.1-4804z M-138.6-4809.4L-138.6-4809.4c0.5-0.2,0.8-0.5,1-0.8l4.4,0.7c0.4,0.1,0.8-0.2,1-0.6
	l2.8-6.4c3.2,0.8,15.1,3.5,24.5,3.4c2.4,0.1,4.8-0.2,7.2-0.8l1.8,4.3c0.1,0.4,0.5,0.6,0.9,0.6c0.1,0,0.2,0,0.3,0l5.1-1.4
	c0.2,0.5,0.6,0.8,1.1,1l0.1,0c0.8,0.4,1,2,0.2,3.7c-0.2,0.4-0.4,0.9-0.6,1.4c-0.3,1-0.8,1.9-1.3,2.8c-0.4,0.2-0.7,0.7-0.9,1.1
	c-3.4,12.1-12.5,20.7-22.2,20.7c-9.8,0-19-8.4-22.5-20.5c-0.1-0.5-0.5-0.9-0.9-1.1c-0.6-0.9-1-1.8-1.4-2.8c-0.2-0.5-0.4-1-0.6-1.4
	C-139.6-4807.3-139.3-4809-138.6-4809.4z"/>
</svg>
