<?xml version="1.0" encoding="utf-8"?>
<!-- Generator: Adobe Illustrator 20.1.0, SVG Export Plug-In . SVG Version: 6.00 Build 0)  -->
<svg version="1.1" id="Layer_1" xmlns="http://www.w3.org/2000/svg" xmlns:xlink="http://www.w3.org/1999/xlink" x="0px" y="0px"
	 width="146.8px" height="143.2px" viewBox="0 0 146.8 143.2" style="enable-background:new 0 0 146.8 143.2;" xml:space="preserve"
	>
<style type="text/css">
	.st0{fill:#0C0A09;}
</style>
<path id="github-logo" transform="translate(1009 4839.635)" class="st0" d="M-872-4803.1c-6.4-11.1-15.6-20.3-26.7-26.7
	c-11.2-6.5-23.9-9.9-36.8-9.8c-12.9-0.1-25.7,3.3-36.8,9.8c-11.1,6.4-20.3,15.6-26.7,26.7c-6.5,11.2-9.9,23.9-9.8,36.8
	c-0.2,15.5,4.8,30.7,14,43.2c8.9,12.5,21.6,21.8,36.2,26.5c1.7,0.3,3,0.1,3.8-0.7c0.8-0.7,1.3-1.8,1.2-2.9c0-0.2,0-1.9,0-5.2
	c0-3.2,0-6.1,0-8.5l-2.2,0.4c-1.8,0.3-3.5,0.4-5.3,0.3c-2.2,0-4.5-0.3-6.6-0.7c-2.3-0.4-4.5-1.4-6.4-2.9c-2-1.5-3.4-3.5-4.2-5.9
	l-1-2.2c-0.8-1.7-1.8-3.4-3-4.9c-1.1-1.5-2.5-2.8-4.2-3.6l-0.7-0.5c-0.5-0.3-0.9-0.7-1.2-1.1c-0.4-0.4-0.6-0.9-0.9-1.3
	c-0.2-0.4,0-0.8,0.5-1.1c0.9-0.4,1.8-0.5,2.8-0.4l1.9,0.3c1.7,0.5,3.3,1.2,4.7,2.3c1.9,1.3,3.5,3,4.6,5c1.3,2.4,3.1,4.4,5.3,6
	c1.8,1.3,4,2,6.3,2.1c1.8,0,3.7-0.1,5.4-0.5c1.5-0.3,2.9-0.8,4.3-1.4c0.6-4.3,2.1-7.6,4.7-9.8c-3.3-0.3-6.6-0.9-9.8-1.7
	c-3.1-0.9-6.2-2.1-9-3.7c-3-1.6-5.6-3.8-7.7-6.4c-2.3-3-4-6.4-5-10c-1.4-4.7-2-9.5-2-14.3c-0.2-7.3,2.6-14.4,7.6-19.7
	c-2.4-5.8-2.1-12.3,0.7-19.5c1.8-0.6,4.6-0.1,8.2,1.3c2.8,1,5.4,2.3,8,3.7c1.7,1,3,1.9,4.1,2.6c12-3.3,24.7-3.3,36.7,0l3.6-2.3
	c2.8-1.7,5.7-3.1,8.8-4.2c3.4-1.3,6-1.6,7.7-1c2.9,7.2,3.1,13.7,0.8,19.5c5,5.3,7.7,12.4,7.6,19.7c0.1,4.9-0.6,9.7-2,14.4
	c-1,3.6-2.7,7-5.1,10c-2.2,2.6-4.8,4.7-7.7,6.4c-2.8,1.6-5.8,2.9-9,3.7c-3.2,0.8-6.5,1.4-9.8,1.7c3.3,2.9,5,7.4,5,13.6v20.2
	c0,1.1,0.4,2.1,1.2,2.9c0.8,0.8,2.1,1,3.8,0.7c14.6-4.8,27.3-14,36.2-26.5c9.2-12.5,14.2-27.6,14-43.2
	C-862.1-4779.2-865.5-4791.9-872-4803.1z"/>
</svg>
