<?xml version="1.0" encoding="utf-8"?>
<!-- Generator: Adobe Illustrator 21.0.2, SVG Export Plug-In . SVG Version: 6.00 Build 0)  -->
<svg version="1.1" id="Layer_1" xmlns="http://www.w3.org/2000/svg" xmlns:xlink="http://www.w3.org/1999/xlink" x="0px" y="0px"
	 width="136.7px" height="133.5px" viewBox="0 0 136.7 133.5" style="enable-background:new 0 0 136.7 133.5;" xml:space="preserve"
	>
<style type="text/css">
	.st0{opacity:0.6;}
	.st1{fill:#93A5D6;}
</style>
<g id="github-logo" transform="translate(-411 8918.634)" class="st0">
	<g id="path">
		<path class="st1" d="M459.5-8785.1c-0.6,0-1.2-0.1-1.7-0.3c-13.7-4.5-25.4-13-33.7-24.7c-8.5-11.5-13.2-25.8-13-40.2
			c-0.1-12,3.1-23.9,9.2-34.3c6-10.3,14.6-18.9,24.9-24.9c10.4-6.1,22.3-9.3,34.3-9.2c12-0.1,23.9,3.1,34.3,9.2
			c10.3,6,18.9,14.6,24.9,24.9c6.1,10.4,9.3,22.3,9.2,34.3c0.1,14.3-4.5,28.6-13.1,40.2c-8.4,11.7-20,20.2-33.7,24.7l-0.3,0.1
			c-2.2,0.4-4,0-5.2-1.1c-1.1-1-1.7-2.5-1.7-4.1l0-18.2c0-5-1.3-8.6-3.8-10.8l-3.5-3l4.6-0.5c2.9-0.3,5.8-0.8,8.6-1.5
			c2.6-0.7,5.2-1.8,7.6-3.2c2.5-1.4,4.7-3.1,6.5-5.3c1.9-2.5,3.3-5.3,4.2-8.3c1.2-4.1,1.8-8.2,1.7-12.4c0.1-6.2-2.1-12-6.3-16.5
			l-0.9-0.9l0.5-1.2c1.8-4.5,1.7-9.5-0.3-15.1c-0.9,0-2.4,0.1-4.8,1.1c-2.7,1-5.2,2.2-7.6,3.6l-4,2.5l-0.9-0.2
			c-10.5-2.9-21.6-2.9-32.1,0l-0.9,0.2l-0.8-0.5c-0.9-0.6-2.1-1.4-3.6-2.3c-2.2-1.2-4.5-2.3-6.9-3.2c-2.7-1.1-4.3-1.3-5.3-1.3
			c-2,5.6-2,10.6-0.2,15.1l0.5,1.2l-0.9,0.9c-4.2,4.5-6.4,10.3-6.3,16.4c-0.1,4.3,0.5,8.4,1.7,12.4c0.9,3.1,2.3,5.9,4.2,8.4
			c1.7,2.1,3.9,3.9,6.3,5.2c2.4,1.4,5,2.5,7.7,3.2c2.8,0.7,5.6,1.2,8.5,1.5l4.5,0.4l-3.4,3c-2,1.8-3.1,4.3-3.6,7.7l-0.1,1.1l-1,0.5
			c-1.4,0.7-2.8,1.1-4.3,1.5c-1.8,0.3-3.6,0.5-5.4,0.5c-2.5,0-4.8-0.8-6.8-2.2c-2.2-1.6-4.1-3.7-5.4-6.1c-0.9-1.5-2.1-2.8-3.5-3.8
			c-1.1-0.8-2.3-1.4-3.6-1.8l-1.1-0.2l0.4,0.3c1.7,0.9,3.2,2.2,4.3,3.8c1.2,1.5,2.2,3.1,2.9,4.8l0.9,2.2c0.6,1.7,1.6,3.2,3.1,4.3
			c1.5,1.1,3.2,1.9,4.9,2.2c1.9,0.3,3.8,0.5,5.7,0.6c1.5,0.1,3,0,4.5-0.3l4.3-0.7v2.4c0,2.2,0,4.7,0,7.7c0,3,0,4.5,0,4.7
			c0,1.5-0.6,3-1.8,4.1l-0.1,0.1C462-8785.5,460.8-8785.1,459.5-8785.1z M478.9-8914.6c-11.2,0-22.2,3-31.8,8.6
			c-9.7,5.6-17.8,13.7-23.4,23.4c-5.7,9.8-8.7,21-8.6,32.3c-0.1,13.6,4.2,27,12.3,37.8c7.9,11,18.9,19.1,31.7,23.3
			c0.5,0.2,1.1,0.1,1.6-0.2c0.3-0.3,0.4-0.6,0.4-1c0-0.2,0-1.8,0-4.7c0-1.9,0-3.7,0-5.3c-1.6,0.2-3.2,0.3-4.9,0.3
			c-2.1,0-4.2-0.3-6.3-0.6c-2.4-0.4-4.7-1.5-6.7-3c-2.1-1.6-3.6-3.7-4.4-6.2l-0.8-1.9c-0.6-1.4-1.5-2.7-2.5-4l-0.1-0.1
			c-0.8-1.1-1.8-2-3-2.7l-0.2-0.2l-0.6-0.4c-0.6-0.4-1-0.9-1.5-1.4c-0.4-0.5-0.8-1.1-1.1-1.7c-0.6-1.4-0.1-2.8,1.3-3.6l0.2-0.1
			c1.1-0.4,2.2-0.6,3.4-0.5l0.1,0l2,0.3c1.8,0.5,3.5,1.3,5,2.4c1.9,1.3,3.5,3.1,4.7,5.1c1,1.9,2.5,3.6,4.2,4.8
			c1.4,1,2.9,1.5,4.6,1.5c1.5,0,3-0.1,4.5-0.4c0.8-0.2,1.7-0.4,2.5-0.7c0.4-2.3,1.2-4.3,2.2-6c-1.9-0.3-3.7-0.7-5.5-1.1
			c-3-0.8-5.9-2-8.6-3.6c-2.9-1.6-5.4-3.7-7.5-6.3c-2.3-3-3.9-6.3-4.9-9.8c-1.3-4.4-1.9-9-1.8-13.5c-0.1-6.7,2.2-13.1,6.5-18.2
			c-1.8-5.4-1.5-11.4,1-17.9l0.3-0.9l0.9-0.3c2.1-0.7,5-0.3,8.8,1.2c2.5,0.9,5.1,2.1,7.5,3.4c1.2,0.7,2.2,1.4,3.1,1.9
			c10.7-2.8,21.8-2.8,32.5,0l2.5-1.6c2.7-1.6,5.4-2.9,8.3-4c3.5-1.3,6.2-1.6,8.3-1l0.9,0.3l0.3,0.9c2.6,6.5,3,12.5,1.1,17.9
			c4.4,5.1,6.7,11.5,6.5,18.3c0.1,4.5-0.6,9.1-1.9,13.5c-1,3.5-2.7,6.8-4.9,9.7c-2.2,2.6-4.7,4.7-7.6,6.3c-2.7,1.5-5.6,2.7-8.6,3.5
			c-1.8,0.5-3.7,0.8-5.5,1.1c1.7,2.8,2.6,6.4,2.6,10.8v18.2c0,0.5,0.2,0.9,0.5,1.1c0.2,0.2,0.7,0.3,1.6,0.1
			c12.8-4.2,23.7-12.2,31.6-23.2c8.1-10.9,12.4-24.3,12.3-37.8c0.1-11.4-2.9-22.5-8.6-32.3l0,0c-5.6-9.7-13.7-17.8-23.4-23.4
			c-9.8-5.7-21-8.7-32.3-8.6C479.2-8914.6,479.1-8914.6,478.9-8914.6z"/>
	</g>
</g>
</svg>
