<?xml version="1.0" encoding="utf-8"?>
<!-- Generator: Adobe Illustrator 21.0.2, SVG Export Plug-In . SVG Version: 6.00 Build 0)  -->
<svg version="1.1" id="Capa_1" xmlns="http://www.w3.org/2000/svg" xmlns:xlink="http://www.w3.org/1999/xlink" x="0px" y="0px"
	 width="64.4px" height="47.2px" viewBox="0 0 64.4 47.2" style="enable-background:new 0 0 64.4 47.2;" xml:space="preserve">
<g>
	<path d="M56.9,38.5l6.5-3.2l-17.6-6.5l6.5,17.6l3.2-6.5l6.8,6.8c0.2,0.2,0.5,0.3,0.7,0.3s0.5-0.1,0.7-0.3c0.4-0.4,0.4-1,0-1.4
		L56.9,38.5z M49.1,32.1l9.2,3.4l-3.9,1.9l-1.9,3.9L49.1,32.1z"/>
	<path d="M64.4,1c0-0.1,0-0.2-0.1-0.3c0,0,0,0,0,0c0,0,0,0,0-0.1c0-0.1-0.1-0.2-0.1-0.2c0,0-0.1-0.1-0.1-0.1C64,0.2,64,0.2,63.9,0.1
		c0,0-0.1,0-0.1,0C63.7,0,63.6,0,63.4,0h-56C7.3,0,7.2,0,7.1,0.1c0,0-0.1,0-0.1,0c-0.1,0-0.1,0.1-0.2,0.1c0,0-0.1,0-0.1,0.1
		C6.7,0.4,6.6,0.5,6.6,0.6c0,0,0,0,0,0.1c0,0,0,0,0,0c0,0.1-0.1,0.2-0.1,0.3c0,0,0,0,0,0v39c0,0,0,0,0,0c0,0.1,0,0.2,0.1,0.3
		c0,0,0,0,0,0c0,0,0,0.1,0.1,0.1c0,0.1,0.1,0.1,0.1,0.2c0,0,0.1,0.1,0.1,0.1c0.1,0.1,0.1,0.1,0.2,0.1c0,0,0.1,0,0.1,0.1
		C7.2,41,7.3,41,7.4,41h35c0.6,0,1-0.4,1-1s-0.4-1-1-1H10.3c4.5-3.6,14.8-11.8,20.1-16.4l1.4,1.3c1,0.9,2.3,1.3,3.6,1.3
		c1.3,0,2.6-0.4,3.6-1.3L62.4,3.2V31c0,0.6,0.4,1,1,1s1-0.4,1-1L64.4,1C64.4,1,64.4,1,64.4,1z M8.4,37.9V3.2l20.4,18
		C23.3,26.1,12.5,34.7,8.4,37.9z M37.7,22.4c-1.3,1.1-3.3,1.1-4.6,0l-2-1.7c0,0,0,0,0,0c0,0-0.1,0-0.1-0.1L10.1,2h50.7L37.7,22.4z"
		/>
</g>
<path d="M36,45.2H3.9H2v-1.1c0,0,0,0,0,0V9.4l0,0V8.2v-2H1c-0.1,0-0.2,0-0.4,0.1c0,0-0.1,0-0.1,0c-0.1,0-0.1,0.1-0.2,0.1
	c0,0-0.1,0-0.1,0.1C0.2,6.6,0.2,6.7,0.1,6.7c0,0,0,0,0,0.1c0,0,0,0,0,0C0,6.9,0,7.1,0,7.2c0,0,0,0,0,0v39c0,0,0,0,0,0
	c0,0.1,0,0.2,0.1,0.3c0,0,0,0,0,0c0,0,0,0.1,0.1,0.1c0,0.1,0.1,0.1,0.1,0.2c0,0,0.1,0.1,0.1,0.1C0.4,47,0.5,47,0.5,47.1
	c0,0,0.1,0,0.1,0.1c0.1,0,0.2,0.1,0.4,0.1h35c0.6,0,1-0.4,1-1C37,45.6,36.6,45.2,36,45.2z"/>
</svg>
