<?xml version="1.0" encoding="utf-8"?>
<!-- Generator: Adobe Illustrator 20.1.0, SVG Export Plug-In . SVG Version: 6.00 Build 0)  -->
<svg version="1.1" id="Layer_1" xmlns="http://www.w3.org/2000/svg" xmlns:xlink="http://www.w3.org/1999/xlink" x="0px" y="0px"
	 width="462.2px" height="255.6px" viewBox="0 0 462.2 255.6" style="enable-background:new 0 0 462.2 255.6;" xml:space="preserve"
	>
<style type="text/css">
	.st0{fill:#FFFFFF;}
	.st1{fill:#F2F0F0;}
	.st2{enable-background:new    ;}
	.st3{fill:#666666;}
	.st4{fill:#0EC353;}
	.st5{fill:#0BA4B1;}
	.st6{fill:#6A6565;}
</style>
<g>
	
		<image style="overflow:visible;opacity:0.51;" width="470" height="263" xlink:href="6FFF7D4EB98DB6D3.png"  transform="matrix(1 0 0 1 -2.9 -2.9)">
	</image>
	<g>
		<g>
			<polygon class="st0" points="0,255.6 462.2,255.6 462.2,0.2 444,13.2 425.5,0 407,13.2 388.5,0 370,13.2 351.6,0 333.1,13.2 
				314.6,0 296.1,13.2 277.6,0 259.1,13.2 240.6,0 222.2,13.2 203.7,0 185.2,13.2 166.7,0 148.2,13.2 129.7,0 111.2,13.2 92.8,0 
				74.3,13.2 55.8,0 37.3,13.2 18.8,0 0,13.5 			"/>
		</g>
	</g>
</g>
<g>
	<g>
		<rect x="41.5" y="51.6" class="st1" width="60.1" height="60.1"/>
	</g>
	<g>
		<rect x="121.4" y="51.6" class="st1" width="213.6" height="16.9"/>
	</g>
	<g>
		<rect x="121.4" y="81.7" class="st1" width="152.7" height="8.1"/>
	</g>
	<g>
		<rect x="121.4" y="94.9" class="st1" width="152.7" height="8.8"/>
	</g>
	<g class="st2">
		<path class="st3" d="M368.8,55.7c0,0.7-0.1,1.4-0.4,2.1c-0.3,0.7-0.6,1.4-1,2.1c-0.4,0.7-0.8,1.3-1.3,2s-0.9,1.2-1.4,1.8l-1.1,0.8
			v0.1l1.5-0.3h3.9v2.3h-8.7v-1.4c0.3-0.3,0.7-0.7,1.1-1.2c0.4-0.5,0.8-0.9,1.2-1.5s0.8-1,1.2-1.6s0.8-1.1,1.1-1.7
			c0.3-0.6,0.6-1.1,0.8-1.6c0.2-0.5,0.3-1,0.3-1.5c0-0.6-0.2-1-0.5-1.4c-0.3-0.4-0.8-0.5-1.5-0.5c-0.4,0-0.9,0.1-1.3,0.3
			c-0.5,0.2-0.8,0.4-1.2,0.7l-1.1-1.9c0.5-0.4,1.1-0.8,1.8-1.1c0.7-0.3,1.5-0.4,2.4-0.4c0.6,0,1.1,0.1,1.6,0.2s0.9,0.4,1.3,0.7
			c0.4,0.3,0.6,0.7,0.8,1.2C368.7,54.5,368.8,55,368.8,55.7z"/>
		<path class="st3" d="M375.6,64.6c0.8,0,1.5-0.2,1.9-0.7c0.4-0.5,0.7-1,0.7-1.6c0-0.8-0.2-1.4-0.7-1.7s-1.2-0.6-2.2-0.6h-1.5v-1.4
			l2.5-3.4l1.2-0.9l-1.6,0.2h-3.5v-2.3h7.8v1.5l-2.9,3.9l-0.9,0.6v0.1l0.9-0.1c0.5,0,0.9,0.2,1.4,0.3c0.4,0.2,0.8,0.4,1.1,0.8
			s0.6,0.8,0.8,1.2s0.3,1.1,0.3,1.7c0,0.8-0.1,1.5-0.4,2.1c-0.3,0.6-0.6,1.1-1.1,1.5c-0.5,0.4-1,0.7-1.7,0.9s-1.3,0.3-2,0.3
			c-0.6,0-1.2-0.1-1.9-0.2c-0.6-0.1-1.2-0.3-1.6-0.5L373,64c0.4,0.2,0.8,0.3,1.2,0.4S375.1,64.6,375.6,64.6z"/>
		<path class="st3" d="M386.8,64.5c0.9,0,1.6-0.2,2.1-0.7s0.7-1,0.7-1.8c0-0.8-0.3-1.4-0.8-1.8c-0.6-0.4-1.4-0.6-2.4-0.6l-1.6,0.1
			v-7.5h7.1v2.5h-4.8v2.8l0.8-0.1c0.7,0,1.3,0.2,1.8,0.4c0.5,0.2,1,0.5,1.4,0.9c0.4,0.4,0.7,0.9,0.9,1.4c0.2,0.6,0.3,1.2,0.3,1.9
			c0,0.8-0.1,1.5-0.4,2.1c-0.3,0.6-0.7,1.1-1.1,1.5c-0.5,0.4-1.1,0.7-1.7,0.9c-0.7,0.2-1.4,0.3-2.2,0.3c-0.6,0-1.2-0.1-1.8-0.2
			s-1-0.2-1.4-0.4l0.7-2.2c0.3,0.1,0.7,0.2,1,0.3S386.3,64.5,386.8,64.5z"/>
		<path class="st3" d="M394.8,59.3c0-2.5,0.4-4.4,1.3-5.6c0.9-1.2,2.1-1.8,3.7-1.8c1.7,0,3,0.6,3.8,1.8c0.8,1.2,1.2,3.1,1.2,5.6
			c0,2.5-0.4,4.4-1.3,5.7c-0.9,1.2-2.1,1.8-3.7,1.8c-1.7,0-3-0.6-3.8-1.9C395.2,63.6,394.8,61.7,394.8,59.3z M397.5,59.3
			c0,1.7,0.2,3,0.5,3.9c0.4,0.9,1,1.4,1.8,1.4c0.8,0,1.4-0.4,1.8-1.3c0.4-0.8,0.6-2.2,0.6-4c0-1.7-0.2-2.9-0.5-3.8
			c-0.4-0.9-1-1.4-1.8-1.4c-0.8,0-1.4,0.4-1.8,1.3C397.6,56.3,397.5,57.6,397.5,59.3z"/>
		<path class="st3" d="M411.2,60.7h1.3v-5.3c0.4-0.1,0.9-0.2,1.4-0.2c0.5,0,1-0.1,1.5-0.1c0.6,0,1.1,0,1.6,0.1s1,0.3,1.3,0.5
			c0.4,0.3,0.7,0.6,0.9,1.1c0.2,0.4,0.3,1,0.3,1.7c0,0.7-0.1,1.2-0.3,1.7c-0.2,0.5-0.5,0.8-0.9,1.1c-0.4,0.3-0.8,0.5-1.3,0.6
			c-0.5,0.1-1,0.2-1.5,0.2c-0.1,0-0.3,0-0.6,0c-0.2,0-0.4,0-0.5,0v0.9h2.6v1.5h-2.6v2h-2v-2h-1.3v-1.5h1.3v-0.9h-1.3V60.7z
			 M415.5,56.9c-0.2,0-0.4,0-0.6,0c-0.2,0-0.3,0-0.5,0.1v3.6c0.1,0,0.2,0,0.4,0.1c0.2,0,0.3,0,0.4,0c0.3,0,0.6,0,0.8-0.1
			c0.3-0.1,0.5-0.2,0.7-0.4c0.2-0.2,0.3-0.4,0.5-0.6c0.1-0.2,0.2-0.6,0.2-0.9c0-0.7-0.2-1.1-0.5-1.4
			C416.5,57.1,416.1,56.9,415.5,56.9z"/>
	</g>
	<g>
		<g>
			<g>
				<g>
					<g>
						<polygon class="st3" points="53.8,154.2 53.8,161 43.1,161 43.1,150.3 52.7,150.3 54.4,148.7 41.5,148.7 41.5,162.6 
							55.4,162.6 55.4,152.8 						"/>
					</g>
				</g>
			</g>
		</g>
		<g>
			<g>
				<g>
					<polygon class="st4" points="56.6,148.2 48.2,155.7 45.6,153.1 44.6,154.2 48.3,157.9 57.7,149.2 					"/>
				</g>
			</g>
		</g>
	</g>
	<g>
		<g class="st2">
			<path class="st3" d="M82.8,150.7h-4v9.4h-2.2v-11.4H85V160h-2.2V150.7z"/>
			<path class="st3" d="M86.6,156c0-1.4,0.3-2.4,1-3.2c0.7-0.7,1.6-1.1,2.8-1.1c0.6,0,1.2,0.1,1.7,0.3c0.5,0.2,0.9,0.5,1.2,0.9
				c0.3,0.4,0.5,0.8,0.7,1.4c0.2,0.5,0.2,1.1,0.2,1.8c0,1.4-0.3,2.4-1,3.2c-0.7,0.7-1.6,1.1-2.8,1.1c-0.6,0-1.2-0.1-1.7-0.3
				c-0.5-0.2-0.9-0.5-1.2-0.9c-0.3-0.4-0.6-0.8-0.7-1.4C86.6,157.2,86.6,156.6,86.6,156z M88.7,156c0,0.4,0,0.7,0.1,1
				c0.1,0.3,0.2,0.6,0.3,0.8s0.3,0.4,0.5,0.5c0.2,0.1,0.5,0.2,0.8,0.2c0.6,0,1-0.2,1.2-0.6s0.4-1,0.4-1.9c0-0.7-0.1-1.3-0.4-1.8
				c-0.2-0.5-0.7-0.7-1.3-0.7c-0.5,0-0.9,0.2-1.2,0.6C88.9,154.5,88.7,155.1,88.7,156z"/>
			<path class="st3" d="M100.9,153.8h-3.1v6.3h-2.2v-8.1h5.2V153.8z"/>
			<path class="st3" d="M101.7,152.4c0.4-0.2,0.9-0.3,1.5-0.5c0.6-0.1,1.2-0.2,1.9-0.2c0.6,0,1,0.1,1.4,0.2c0.4,0.1,0.7,0.3,0.9,0.6
				c0.2,0.2,0.4,0.5,0.5,0.9c0.1,0.3,0.1,0.7,0.1,1.2c0,0.5,0,1,0,1.4c0,0.5-0.1,1-0.1,1.4c0,0.5,0,0.9,0,1.4c0,0.4,0.1,0.9,0.2,1.2
				h-1.7l-0.3-1.1h-0.1c-0.2,0.3-0.5,0.6-0.9,0.9s-0.9,0.4-1.5,0.4c-0.4,0-0.7-0.1-1-0.2c-0.3-0.1-0.6-0.3-0.8-0.5
				c-0.2-0.2-0.4-0.5-0.5-0.7c-0.1-0.3-0.2-0.6-0.2-1c0-0.5,0.1-0.9,0.3-1.3c0.2-0.3,0.5-0.6,1-0.8c0.4-0.2,0.9-0.4,1.5-0.4
				c0.6-0.1,1.2-0.1,1.9-0.1c0.1-0.6,0-1-0.1-1.3c-0.2-0.3-0.5-0.4-1.1-0.4c-0.4,0-0.9,0-1.3,0.1c-0.5,0.1-0.9,0.2-1.2,0.3
				L101.7,152.4z M104.4,158.4c0.4,0,0.8-0.1,1-0.3s0.4-0.4,0.6-0.6v-1.1c-0.3,0-0.7,0-1,0s-0.6,0.1-0.8,0.1
				c-0.2,0.1-0.4,0.2-0.6,0.3s-0.2,0.3-0.2,0.5c0,0.3,0.1,0.5,0.3,0.7C103.8,158.4,104.1,158.4,104.4,158.4z"/>
			<path class="st3" d="M115.6,159.5c-0.3,0.2-0.7,0.4-1.2,0.5c-0.5,0.1-0.9,0.2-1.4,0.2c-0.6,0-1.2-0.1-1.6-0.3
				c-0.4-0.2-0.8-0.5-1.1-0.9c-0.3-0.4-0.5-0.8-0.6-1.4c-0.1-0.5-0.2-1.1-0.2-1.8c0-1.4,0.3-2.4,0.9-3.2c0.6-0.7,1.5-1.1,2.7-1.1
				c0.6,0,1.1,0,1.4,0.1c0.4,0.1,0.7,0.2,1,0.4l-0.5,1.7c-0.2-0.1-0.5-0.2-0.7-0.3c-0.2-0.1-0.5-0.1-0.8-0.1c-0.6,0-1,0.2-1.3,0.6
				c-0.3,0.4-0.5,1-0.5,1.8c0,0.3,0,0.7,0.1,1c0.1,0.3,0.2,0.5,0.3,0.8c0.2,0.2,0.3,0.4,0.6,0.5c0.2,0.1,0.5,0.2,0.9,0.2
				c0.4,0,0.7,0,0.9-0.1c0.2-0.1,0.5-0.2,0.7-0.3L115.6,159.5z"/>
			<path class="st3" d="M121.7,156.3l0.1-1.2h0l-0.7,1.2l-2.9,3.7h-1.3v-8.1h2.1v3.9l-0.1,1.1h0.1l0.7-1.2l2.9-3.8h1.3v8.1h-2.1
				V156.3z"/>
			<path class="st3" d="M131.5,153.8h-2.3v6.3h-2.2v-6.3h-2.3v-1.9h6.8V153.8z"/>
			<path class="st3" d="M134.6,154.8c0.3,0,0.5-0.1,0.8-0.1c0.3,0,0.5,0,0.7,0c0.6,0,1,0.1,1.4,0.2c0.4,0.1,0.7,0.3,1,0.5
				c0.2,0.2,0.4,0.5,0.5,0.8c0.1,0.3,0.2,0.6,0.2,1c0,1-0.3,1.7-0.9,2.2s-1.6,0.7-3,0.7c-0.6,0-1.2,0-1.6,0s-0.9,0-1.2-0.1v-8.1h2.1
				V154.8z M134.6,158.3c0.3,0.1,0.6,0.1,0.9,0.1c0.5,0,0.9-0.1,1.1-0.3c0.2-0.2,0.3-0.5,0.3-0.8c0-0.7-0.5-1.1-1.4-1.1
				c-0.4,0-0.7,0-1,0.1V158.3z"/>
			<path class="st3" d="M149.8,159.5c-0.3,0.2-0.7,0.4-1.2,0.5c-0.5,0.1-0.9,0.2-1.4,0.2c-0.6,0-1.2-0.1-1.6-0.3
				c-0.4-0.2-0.8-0.5-1.1-0.9c-0.3-0.4-0.5-0.8-0.6-1.4c-0.1-0.5-0.2-1.1-0.2-1.8c0-1.4,0.3-2.4,0.9-3.2c0.6-0.7,1.5-1.1,2.7-1.1
				c0.6,0,1.1,0,1.4,0.1c0.4,0.1,0.7,0.2,1,0.4l-0.5,1.7c-0.2-0.1-0.5-0.2-0.7-0.3c-0.2-0.1-0.5-0.1-0.8-0.1c-0.6,0-1,0.2-1.3,0.6
				c-0.3,0.4-0.5,1-0.5,1.8c0,0.3,0,0.7,0.1,1c0.1,0.3,0.2,0.5,0.3,0.8c0.2,0.2,0.3,0.4,0.6,0.5c0.2,0.1,0.5,0.2,0.9,0.2
				c0.4,0,0.7,0,0.9-0.1c0.2-0.1,0.5-0.2,0.7-0.3L149.8,159.5z"/>
			<path class="st3" d="M151.1,151.9c0.4,0,0.8-0.1,1.4-0.1c0.5,0,1.1,0,1.7,0c1.2,0,2,0.2,2.5,0.5c0.5,0.3,0.8,0.9,0.8,1.5
				c0,0.4-0.1,0.7-0.3,1.1c-0.2,0.4-0.6,0.6-1,0.8v0.1c0.6,0.1,1,0.4,1.3,0.7c0.3,0.3,0.4,0.8,0.4,1.3c0,0.8-0.3,1.4-0.9,1.8
				s-1.6,0.6-3,0.6c-0.5,0-0.9,0-1.4,0c-0.5,0-1-0.1-1.3-0.1V151.9z M154.3,155.2c0.3,0,0.6-0.1,0.9-0.3c0.2-0.2,0.3-0.4,0.3-0.6
				c0-0.3-0.1-0.5-0.3-0.6c-0.2-0.1-0.5-0.2-1-0.2c-0.2,0-0.4,0-0.6,0c-0.1,0-0.3,0-0.4,0v1.7H154.3z M153.2,158.4
				c0.2,0,0.3,0,0.4,0s0.3,0,0.5,0c0.6,0,1-0.1,1.2-0.2c0.2-0.2,0.4-0.4,0.4-0.7c0-0.3-0.1-0.5-0.3-0.7c-0.2-0.2-0.6-0.3-1.1-0.3
				h-1.1V158.4z"/>
			<path class="st3" d="M158.9,156c0-1.4,0.3-2.4,1-3.2c0.7-0.7,1.6-1.1,2.8-1.1c0.6,0,1.2,0.1,1.7,0.3c0.5,0.2,0.9,0.5,1.2,0.9
				c0.3,0.4,0.5,0.8,0.7,1.4c0.2,0.5,0.2,1.1,0.2,1.8c0,1.4-0.3,2.4-1,3.2c-0.7,0.7-1.6,1.1-2.8,1.1c-0.6,0-1.2-0.1-1.7-0.3
				c-0.5-0.2-0.9-0.5-1.2-0.9c-0.3-0.4-0.6-0.8-0.7-1.4C159,157.2,158.9,156.6,158.9,156z M161.1,156c0,0.4,0,0.7,0.1,1
				c0.1,0.3,0.2,0.6,0.3,0.8s0.3,0.4,0.5,0.5c0.2,0.1,0.5,0.2,0.8,0.2c0.6,0,1-0.2,1.2-0.6s0.4-1,0.4-1.9c0-0.7-0.1-1.3-0.4-1.8
				c-0.2-0.5-0.7-0.7-1.3-0.7c-0.5,0-0.9,0.2-1.2,0.6C161.2,154.5,161.1,155.1,161.1,156z"/>
			<path class="st3" d="M172.9,156.3l0.1-1.2h0l-0.7,1.2l-2.9,3.7H168v-8.1h2.1v3.9l-0.1,1.1h0.1l0.7-1.2l2.9-3.8h1.3v8.1h-2.1
				V156.3z M170.7,148.6c0.1,0.4,0.2,0.7,0.4,0.9c0.2,0.2,0.4,0.3,0.7,0.3c0.3,0,0.5-0.1,0.7-0.3c0.2-0.2,0.3-0.5,0.4-0.9l1.6,0.4
				c-0.1,0.7-0.4,1.2-1,1.6c-0.5,0.3-1.1,0.5-1.8,0.5c-0.3,0-0.7,0-1-0.1c-0.3-0.1-0.6-0.2-0.8-0.4s-0.5-0.4-0.6-0.6s-0.3-0.6-0.4-1
				L170.7,148.6z"/>
			<path class="st3" d="M183.6,156.5l0.3,1.3h0.1l0.2-1.3l1.2-4.5h2.2l-2.5,7.3c-0.2,0.6-0.4,1.2-0.6,1.7c-0.2,0.5-0.4,0.9-0.6,1.3
				c-0.2,0.4-0.5,0.7-0.8,0.9c-0.3,0.2-0.6,0.3-1,0.3c-0.6,0-1-0.1-1.3-0.3l0.4-1.7c0.2,0.1,0.3,0.1,0.5,0.1c0.2,0,0.5-0.1,0.7-0.3
				c0.2-0.2,0.4-0.6,0.5-1.1l-3.4-8.1h2.5L183.6,156.5z"/>
			<path class="st3" d="M193.7,153.8h-3.1v6.3h-2.2v-8.1h5.2V153.8z"/>
			<path class="st3" d="M198.4,153.8h-1.6c-0.1,0.8-0.1,1.5-0.2,2.3c-0.1,0.8-0.2,1.4-0.4,2c-0.2,0.6-0.4,1.1-0.8,1.5
				c-0.3,0.4-0.7,0.6-1.3,0.6c-0.6,0-1.1-0.1-1.3-0.2l0.3-1.7c0.2,0.1,0.3,0.1,0.5,0.1c0.2,0,0.4-0.1,0.6-0.3c0.2-0.2,0.3-0.5,0.4-1
				c0.1-0.5,0.2-1.1,0.3-2s0.1-1.9,0.2-3.1h5.6v8.1h-2.1V153.8z"/>
			<path class="st3" d="M208.8,159.4c-0.3,0.3-0.8,0.5-1.3,0.7c-0.6,0.2-1.2,0.3-1.8,0.3c-1.3,0-2.3-0.4-2.9-1.1
				c-0.6-0.8-0.9-1.8-0.9-3.1c0-1.4,0.3-2.5,1-3.2c0.7-0.7,1.6-1.1,2.9-1.1c0.4,0,0.8,0.1,1.2,0.2s0.7,0.3,1,0.5s0.5,0.6,0.7,1
				c0.2,0.4,0.3,0.9,0.3,1.6c0,0.2,0,0.5,0,0.7c0,0.3-0.1,0.5-0.1,0.8H204c0,0.7,0.2,1.2,0.5,1.5c0.3,0.3,0.8,0.5,1.6,0.5
				c0.4,0,0.8-0.1,1.2-0.2c0.4-0.1,0.6-0.3,0.8-0.4L208.8,159.4z M205.8,153.4c-0.6,0-1,0.2-1.2,0.5s-0.4,0.8-0.5,1.3h3
				c0-0.6,0-1-0.3-1.3C206.6,153.5,206.3,153.4,205.8,153.4z"/>
			<path class="st3" d="M210.6,151.9h1.5l0.2,1h0.1c0.3-0.4,0.6-0.7,1-0.9c0.4-0.2,0.9-0.3,1.4-0.3c1,0,1.8,0.3,2.3,1
				c0.5,0.6,0.8,1.7,0.8,3.1c0,0.7-0.1,1.3-0.2,1.9c-0.2,0.6-0.4,1-0.7,1.4s-0.7,0.7-1.2,0.9c-0.5,0.2-1,0.3-1.6,0.3
				c-0.3,0-0.6,0-0.8-0.1c-0.2,0-0.4-0.1-0.6-0.2v3.3h-2.1V151.9z M214.2,153.5c-0.4,0-0.7,0.1-1,0.3c-0.2,0.2-0.4,0.5-0.5,0.9v3.4
				c0.2,0.1,0.3,0.2,0.5,0.3c0.2,0.1,0.4,0.1,0.7,0.1c0.6,0,1.1-0.2,1.4-0.6c0.3-0.4,0.5-1.1,0.5-2.1c0-0.7-0.1-1.3-0.4-1.7
				C215.1,153.7,214.7,153.5,214.2,153.5z"/>
			<path class="st3" d="M219,156c0-1.4,0.3-2.4,1-3.2c0.7-0.7,1.6-1.1,2.8-1.1c0.6,0,1.2,0.1,1.7,0.3c0.5,0.2,0.9,0.5,1.2,0.9
				c0.3,0.4,0.5,0.8,0.7,1.4c0.2,0.5,0.2,1.1,0.2,1.8c0,1.4-0.3,2.4-1,3.2c-0.7,0.7-1.6,1.1-2.8,1.1c-0.6,0-1.2-0.1-1.7-0.3
				c-0.5-0.2-0.9-0.5-1.2-0.9c-0.3-0.4-0.6-0.8-0.7-1.4C219,157.2,219,156.6,219,156z M221.1,156c0,0.4,0,0.7,0.1,1
				c0.1,0.3,0.2,0.6,0.3,0.8s0.3,0.4,0.5,0.5c0.2,0.1,0.5,0.2,0.8,0.2c0.6,0,1-0.2,1.2-0.6s0.4-1,0.4-1.9c0-0.7-0.1-1.3-0.4-1.8
				c-0.2-0.5-0.7-0.7-1.3-0.7c-0.5,0-0.9,0.2-1.2,0.6C221.3,154.5,221.1,155.1,221.1,156z"/>
			<path class="st3" d="M236.1,161.9h-1.5l-0.2-1.9h-5.5l-0.2,1.9h-1.5v-3.7h1c0.1-0.1,0.2-0.3,0.3-0.6c0.1-0.3,0.3-0.7,0.4-1.2
				s0.3-1.1,0.3-1.9c0.1-0.7,0.1-1.6,0.1-2.6h5.7v6.3h1.2V161.9z M232.8,158.3v-4.6h-1.7c0,0.4-0.1,0.8-0.1,1.2
				c-0.1,0.4-0.1,0.9-0.2,1.3s-0.2,0.8-0.3,1.2c-0.1,0.4-0.2,0.7-0.4,0.9H232.8z"/>
			<path class="st3" d="M242,156.9h-2.6v3.2h-2.1v-8.1h2.1v3.1h2.6v-3.1h2.1v8.1H242V156.9z"/>
			<path class="st3" d="M248.1,154.8c0.3,0,0.5-0.1,0.8-0.1c0.3,0,0.5,0,0.7,0c0.6,0,1,0.1,1.4,0.2c0.4,0.1,0.7,0.3,0.9,0.5
				c0.2,0.2,0.4,0.5,0.5,0.8c0.1,0.3,0.1,0.6,0.1,1c0,0.5-0.1,0.9-0.2,1.3c-0.1,0.4-0.3,0.7-0.6,0.9c-0.3,0.2-0.7,0.4-1.1,0.6
				c-0.5,0.1-1,0.2-1.7,0.2c-0.6,0-1.2,0-1.6,0s-0.9,0-1.2-0.1v-8.1h2.1V154.8z M248.1,158.3c0.3,0.1,0.6,0.1,0.9,0.1
				c0.5,0,0.8-0.1,1-0.3s0.3-0.5,0.3-0.8c0-0.3-0.1-0.6-0.3-0.8c-0.2-0.2-0.5-0.3-1-0.3c-0.4,0-0.7,0-1,0.1V158.3z M253.5,151.9h2.1
				v8.1h-2.1V151.9z"/>
			<path class="st3" d="M262.3,156.3l0.1-1.2h0l-0.7,1.2l-2.9,3.7h-1.3v-8.1h2.1v3.9l-0.1,1.1h0.1l0.7-1.2l2.9-3.8h1.3v8.1h-2.1
				V156.3z M260,148.6c0.1,0.4,0.2,0.7,0.4,0.9c0.2,0.2,0.4,0.3,0.7,0.3c0.3,0,0.5-0.1,0.7-0.3c0.2-0.2,0.3-0.5,0.4-0.9l1.6,0.4
				c-0.1,0.7-0.4,1.2-1,1.6c-0.5,0.3-1.1,0.5-1.8,0.5c-0.3,0-0.7,0-1-0.1c-0.3-0.1-0.6-0.2-0.8-0.4s-0.5-0.4-0.6-0.6s-0.3-0.6-0.4-1
				L260,148.6z"/>
			<path class="st3" d="M276.1,159.5c-0.3,0.2-0.7,0.4-1.2,0.5c-0.5,0.1-0.9,0.2-1.4,0.2c-0.6,0-1.2-0.1-1.6-0.3
				c-0.4-0.2-0.8-0.5-1.1-0.9c-0.3-0.4-0.5-0.8-0.6-1.4c-0.1-0.5-0.2-1.1-0.2-1.8c0-1.4,0.3-2.4,0.9-3.2s1.5-1.1,2.7-1.1
				c0.6,0,1.1,0,1.4,0.1c0.4,0.1,0.7,0.2,1,0.4l-0.5,1.7c-0.2-0.1-0.5-0.2-0.7-0.3c-0.2-0.1-0.5-0.1-0.8-0.1c-0.6,0-1,0.2-1.3,0.6
				c-0.3,0.4-0.5,1-0.5,1.8c0,0.3,0,0.7,0.1,1c0.1,0.3,0.2,0.5,0.3,0.8s0.3,0.4,0.6,0.5c0.2,0.1,0.5,0.2,0.9,0.2
				c0.4,0,0.7,0,0.9-0.1c0.2-0.1,0.5-0.2,0.7-0.3L276.1,159.5z"/>
			<path class="st3" d="M282.1,153.8h-1.6c-0.1,0.8-0.1,1.5-0.2,2.3c-0.1,0.8-0.2,1.4-0.4,2c-0.2,0.6-0.4,1.1-0.8,1.5
				c-0.3,0.4-0.7,0.6-1.3,0.6c-0.6,0-1.1-0.1-1.3-0.2l0.3-1.7c0.2,0.1,0.3,0.1,0.5,0.1c0.2,0,0.4-0.1,0.6-0.3c0.2-0.2,0.3-0.5,0.4-1
				c0.1-0.5,0.2-1.1,0.3-2s0.1-1.9,0.2-3.1h5.6v8.1h-2.1V153.8z"/>
			<path class="st3" d="M292.6,159.4c-0.3,0.3-0.8,0.5-1.3,0.7c-0.6,0.2-1.2,0.3-1.8,0.3c-1.3,0-2.3-0.4-2.9-1.1
				c-0.6-0.8-0.9-1.8-0.9-3.1c0-1.4,0.3-2.5,1-3.2c0.7-0.7,1.6-1.1,2.9-1.1c0.4,0,0.8,0.1,1.2,0.2s0.7,0.3,1,0.5
				c0.3,0.2,0.5,0.6,0.7,1c0.2,0.4,0.3,0.9,0.3,1.6c0,0.2,0,0.5,0,0.7c0,0.3-0.1,0.5-0.1,0.8h-4.9c0,0.7,0.2,1.2,0.5,1.5
				c0.3,0.3,0.8,0.5,1.6,0.5c0.4,0,0.8-0.1,1.2-0.2c0.4-0.1,0.6-0.3,0.8-0.4L292.6,159.4z M289.6,153.4c-0.6,0-1,0.2-1.2,0.5
				c-0.3,0.3-0.4,0.8-0.5,1.3h3c0-0.6,0-1-0.3-1.3C290.4,153.5,290,153.4,289.6,153.4z"/>
			<path class="st3" d="M302.2,161.9h-1.5l-0.2-1.9H295l-0.2,1.9h-1.5v-3.7h1c0.1-0.1,0.2-0.3,0.3-0.6c0.1-0.3,0.3-0.7,0.4-1.2
				c0.1-0.5,0.3-1.1,0.3-1.9c0.1-0.7,0.1-1.6,0.1-2.6h5.7v6.3h1.2V161.9z M298.9,158.3v-4.6h-1.7c0,0.4-0.1,0.8-0.1,1.2
				c-0.1,0.4-0.1,0.9-0.2,1.3s-0.2,0.8-0.3,1.2c-0.1,0.4-0.2,0.7-0.4,0.9H298.9z"/>
			<path class="st3" d="M307.1,156c0-1.4,0.3-2.4,1-3.2c0.7-0.7,1.6-1.1,2.8-1.1c0.6,0,1.2,0.1,1.7,0.3c0.5,0.2,0.9,0.5,1.2,0.9
				c0.3,0.4,0.5,0.8,0.7,1.4s0.2,1.1,0.2,1.8c0,1.4-0.3,2.4-1,3.2c-0.7,0.7-1.6,1.1-2.8,1.1c-0.6,0-1.2-0.1-1.7-0.3
				c-0.5-0.2-0.9-0.5-1.2-0.9c-0.3-0.4-0.6-0.8-0.7-1.4S307.1,156.6,307.1,156z M309.3,156c0,0.4,0,0.7,0.1,1
				c0.1,0.3,0.2,0.6,0.3,0.8s0.3,0.4,0.5,0.5c0.2,0.1,0.5,0.2,0.8,0.2c0.6,0,1-0.2,1.2-0.6s0.4-1,0.4-1.9c0-0.7-0.1-1.3-0.4-1.8
				c-0.2-0.5-0.7-0.7-1.3-0.7c-0.5,0-0.9,0.2-1.2,0.6S309.3,155.1,309.3,156z"/>
			<path class="st3" d="M321.9,153.8h-2.3v6.3h-2.2v-6.3h-2.3v-1.9h6.8V153.8z"/>
			<path class="st3" d="M331.1,153.8h-2.6v6.3h-2.1v-8.1h6.8v8.1h-2.1V153.8z"/>
			<path class="st3" d="M334.7,156c0-1.4,0.3-2.4,1-3.2c0.7-0.7,1.6-1.1,2.8-1.1c0.6,0,1.2,0.1,1.7,0.3c0.5,0.2,0.9,0.5,1.2,0.9
				c0.3,0.4,0.5,0.8,0.7,1.4s0.2,1.1,0.2,1.8c0,1.4-0.3,2.4-1,3.2c-0.7,0.7-1.6,1.1-2.8,1.1c-0.6,0-1.2-0.1-1.7-0.3
				c-0.5-0.2-0.9-0.5-1.2-0.9c-0.3-0.4-0.6-0.8-0.7-1.4S334.7,156.6,334.7,156z M336.9,156c0,0.4,0,0.7,0.1,1
				c0.1,0.3,0.2,0.6,0.3,0.8s0.3,0.4,0.5,0.5c0.2,0.1,0.5,0.2,0.8,0.2c0.6,0,1-0.2,1.2-0.6s0.4-1,0.4-1.9c0-0.7-0.1-1.3-0.4-1.8
				c-0.2-0.5-0.7-0.7-1.3-0.7c-0.5,0-0.9,0.2-1.2,0.6S336.9,155.1,336.9,156z"/>
			<path class="st3" d="M346.5,156.7h-0.6v3.4h-2.1v-8.1h2.1v3.5l0.5-0.2l1.9-3.2h2.3l-2,3.1l-0.8,0.6l0.9,0.6l2.2,3.8h-2.4
				L346.5,156.7z"/>
			<path class="st3" d="M354.5,156.5l0.3,1.3h0.1l0.2-1.3l1.2-4.5h2.2l-2.5,7.3c-0.2,0.6-0.4,1.2-0.6,1.7c-0.2,0.5-0.4,0.9-0.6,1.3
				s-0.5,0.7-0.8,0.9s-0.6,0.3-1,0.3c-0.6,0-1-0.1-1.3-0.3l0.4-1.7c0.2,0.1,0.3,0.1,0.5,0.1c0.2,0,0.5-0.1,0.7-0.3
				c0.2-0.2,0.4-0.6,0.5-1.1l-3.4-8.1h2.5L354.5,156.5z"/>
			<path class="st3" d="M364,153.8h-2.6v6.3h-2.1v-8.1h6.8v8.1H364V153.8z"/>
			<path class="st3" d="M370.6,156.7H370v3.4h-2.1v-8.1h2.1v3.5l0.5-0.2l1.9-3.2h2.3l-2,3.1l-0.8,0.6l0.9,0.6l2.2,3.8h-2.4
				L370.6,156.7z"/>
			<path class="st3" d="M380.8,156.3l0.1-1.2h0l-0.7,1.2l-2.9,3.7h-1.3v-8.1h2.1v3.9l-0.1,1.1h0.1l0.7-1.2l2.9-3.8h1.3v8.1h-2.1
				V156.3z"/>
		</g>
	</g>
	<g>
		<g class="st2">
			<path class="st5" d="M55.2,200.6c0-1.9,0.4-3.4,1.2-4.4c0.8-1,2-1.5,3.6-1.5c0.8,0,1.5,0.1,2.1,0.4c0.6,0.3,1.1,0.7,1.5,1.2
				c0.4,0.5,0.7,1.1,0.9,1.9c0.2,0.7,0.3,1.5,0.3,2.4c0,1.9-0.4,3.4-1.3,4.4c-0.8,1-2,1.5-3.6,1.5c-0.8,0-1.5-0.1-2.1-0.4
				c-0.6-0.3-1.1-0.7-1.5-1.2s-0.7-1.1-0.9-1.9C55.3,202.3,55.2,201.5,55.2,200.6z M57.5,200.6c0,0.6,0,1.1,0.1,1.6
				c0.1,0.5,0.2,0.9,0.4,1.2c0.2,0.3,0.5,0.6,0.8,0.8c0.3,0.2,0.7,0.3,1.1,0.3c0.8,0,1.4-0.3,1.8-0.9c0.4-0.6,0.6-1.6,0.6-3
				c0-0.6,0-1.1-0.1-1.5c-0.1-0.5-0.2-0.9-0.4-1.2s-0.4-0.6-0.8-0.8s-0.7-0.3-1.2-0.3c-0.8,0-1.4,0.3-1.8,1
				C57.8,198.3,57.5,199.2,57.5,200.6z"/>
			<path class="st5" d="M70.1,206.4c-0.2,0.1-0.4,0.1-0.6,0.1c-0.2,0-0.4,0-0.5,0c-1,0-1.7-0.4-2.3-1.1c-0.5-0.7-0.8-1.8-0.8-3.2
				c0-1.4,0.3-2.4,0.9-3.1c0.6-0.7,1.4-1.1,2.5-1.1c0.3,0,0.6,0,0.8,0.1v-3.2h2.1v3.2c0.2,0,0.4-0.1,0.5-0.1c0.2,0,0.3,0,0.4,0
				c1.1,0,1.9,0.3,2.4,1c0.5,0.6,0.8,1.7,0.8,3.1c0,0.7-0.1,1.3-0.2,1.8c-0.1,0.5-0.4,1-0.6,1.4c-0.3,0.4-0.6,0.7-1,0.9
				c-0.4,0.2-0.9,0.3-1.4,0.3c-0.1,0-0.2,0-0.4,0c-0.2,0-0.3,0-0.5-0.1v3.1h-2.1V206.4z M69.5,204.8c0.1,0,0.2,0,0.3,0
				c0.1,0,0.2,0,0.3-0.1v-5c-0.2,0-0.4-0.1-0.6-0.1c-0.5,0-0.9,0.2-1.1,0.6c-0.3,0.4-0.4,1-0.4,2c0,0.8,0.1,1.5,0.4,1.9
				S69,204.8,69.5,204.8z M72.7,199.7c-0.1,0-0.2,0-0.3,0c-0.1,0-0.2,0-0.3,0.1v5c0.1,0,0.2,0,0.3,0c0.1,0,0.2,0,0.4,0
				c0.5,0,0.9-0.2,1.1-0.6c0.2-0.4,0.4-1.1,0.4-2.1c0-0.8-0.1-1.5-0.4-1.8C73.7,199.9,73.3,199.7,72.7,199.7z"/>
			<path class="st5" d="M77.4,202.2c0-1.4,0.3-2.4,1-3.2c0.7-0.7,1.6-1.1,2.8-1.1c0.6,0,1.2,0.1,1.7,0.3c0.5,0.2,0.9,0.5,1.2,0.9
				c0.3,0.4,0.5,0.8,0.7,1.4c0.2,0.5,0.2,1.1,0.2,1.8c0,1.4-0.3,2.4-1,3.2c-0.7,0.7-1.6,1.1-2.8,1.1c-0.6,0-1.2-0.1-1.7-0.3
				c-0.5-0.2-0.9-0.5-1.2-0.9c-0.3-0.4-0.6-0.8-0.7-1.4C77.4,203.4,77.4,202.9,77.4,202.2z M79.5,202.2c0,0.4,0,0.7,0.1,1
				c0.1,0.3,0.2,0.6,0.3,0.8s0.3,0.4,0.5,0.5c0.2,0.1,0.5,0.2,0.8,0.2c0.6,0,1-0.2,1.2-0.6s0.4-1,0.4-1.9c0-0.7-0.1-1.3-0.4-1.8
				c-0.2-0.5-0.7-0.7-1.3-0.7c-0.5,0-0.9,0.2-1.2,0.6C79.7,200.7,79.5,201.3,79.5,202.2z"/>
			<path class="st5" d="M86.5,198.2H88l0.2,1h0.1c0.3-0.4,0.6-0.7,1-0.9c0.4-0.2,0.9-0.3,1.4-0.3c1,0,1.8,0.3,2.3,1
				c0.5,0.6,0.8,1.7,0.8,3.1c0,0.7-0.1,1.3-0.2,1.9c-0.2,0.6-0.4,1-0.7,1.4s-0.7,0.7-1.2,0.9c-0.5,0.2-1,0.3-1.6,0.3
				c-0.3,0-0.6,0-0.8-0.1c-0.2,0-0.4-0.1-0.6-0.2v3.3h-2.1V198.2z M90.1,199.7c-0.4,0-0.7,0.1-1,0.3c-0.2,0.2-0.4,0.5-0.5,0.9v3.4
				c0.2,0.1,0.3,0.2,0.5,0.3c0.2,0.1,0.4,0.1,0.7,0.1c0.6,0,1.1-0.2,1.4-0.6c0.3-0.4,0.5-1.1,0.5-2.1c0-0.7-0.1-1.3-0.4-1.7
				C91,199.9,90.6,199.7,90.1,199.7z"/>
			<path class="st5" d="M102.2,202.6l0.1-1.7h-0.1l-0.6,1.4l-1.5,2.5h-0.8l-1.7-2.5l-0.6-1.4h-0.1l0.2,1.7v3.7h-1.9v-8.1h2.2
				l1.9,3.1l0.5,1h0.1l0.5-1.1l1.7-3h2.2v8.1h-2V202.6z"/>
			<path class="st5" d="M110.9,202.6l0.1-1.2h0l-0.7,1.2l-2.9,3.7h-1.3v-8.1h2.1v3.9l-0.1,1.1h0.1l0.7-1.2l2.9-3.8h1.3v8.1h-2.1
				V202.6z"/>
			<path class="st5" d="M120.7,200h-2.3v6.3h-2.2V200H114v-1.9h6.8V200z"/>
			<path class="st5" d="M123.8,201.1c0.3,0,0.5-0.1,0.8-0.1c0.3,0,0.5,0,0.7,0c0.6,0,1,0.1,1.4,0.2c0.4,0.1,0.7,0.3,1,0.5
				c0.2,0.2,0.4,0.5,0.5,0.8c0.1,0.3,0.2,0.6,0.2,1c0,1-0.3,1.7-0.9,2.2c-0.6,0.5-1.6,0.7-3,0.7c-0.6,0-1.2,0-1.6,0s-0.9,0-1.2-0.1
				v-8.1h2.1V201.1z M123.8,204.5c0.3,0.1,0.6,0.1,0.9,0.1c0.5,0,0.9-0.1,1.1-0.3c0.2-0.2,0.3-0.5,0.3-0.8c0-0.7-0.5-1.1-1.4-1.1
				c-0.4,0-0.7,0-1,0.1V204.5z"/>
			<path class="st5" d="M134.1,202.9v-1.5h1c0.4,0,0.7-0.1,0.9-0.2c0.2-0.2,0.4-0.4,0.4-0.6c0-0.3-0.1-0.5-0.3-0.6
				c-0.2-0.1-0.5-0.2-1-0.2c-0.4,0-0.8,0.1-1.1,0.2c-0.3,0.1-0.6,0.2-0.8,0.3l-0.5-1.6c0.3-0.2,0.8-0.3,1.3-0.5
				c0.5-0.1,1.1-0.2,1.7-0.2c0.9,0,1.6,0.2,2.1,0.5c0.5,0.3,0.7,0.8,0.7,1.5c0,0.2,0,0.4-0.1,0.6c0,0.2-0.1,0.4-0.2,0.5
				c-0.1,0.2-0.2,0.3-0.4,0.5c-0.2,0.1-0.3,0.2-0.6,0.3v0.1c0.6,0.1,1,0.4,1.2,0.7c0.2,0.3,0.4,0.8,0.4,1.3c0,0.3-0.1,0.7-0.2,1
				c-0.1,0.3-0.4,0.6-0.6,0.8c-0.3,0.2-0.6,0.4-1.1,0.5c-0.4,0.1-0.9,0.2-1.5,0.2c-0.6,0-1.1-0.1-1.6-0.2c-0.4-0.1-0.8-0.3-1.1-0.4
				l0.5-1.6c0.2,0.1,0.5,0.3,0.9,0.3s0.7,0.1,1.2,0.1c1,0,1.5-0.3,1.5-0.9c0-0.3-0.1-0.5-0.4-0.6c-0.3-0.1-0.7-0.2-1.4-0.2H134.1z"
				/>
			<path class="st5" d="M140.2,198.6c0.4-0.2,0.9-0.3,1.5-0.5c0.6-0.1,1.2-0.2,1.9-0.2c0.6,0,1,0.1,1.4,0.2c0.4,0.1,0.7,0.3,0.9,0.6
				c0.2,0.2,0.4,0.5,0.5,0.9c0.1,0.3,0.1,0.7,0.1,1.2c0,0.5,0,1,0,1.4c0,0.5-0.1,1-0.1,1.4c0,0.5,0,0.9,0,1.4c0,0.4,0.1,0.9,0.2,1.2
				H145l-0.3-1.1h-0.1c-0.2,0.3-0.5,0.6-0.9,0.9s-0.9,0.4-1.5,0.4c-0.4,0-0.7-0.1-1-0.2c-0.3-0.1-0.6-0.3-0.8-0.5
				c-0.2-0.2-0.4-0.5-0.5-0.7c-0.1-0.3-0.2-0.6-0.2-1c0-0.5,0.1-0.9,0.3-1.3c0.2-0.3,0.5-0.6,1-0.8c0.4-0.2,0.9-0.4,1.5-0.4
				c0.6-0.1,1.2-0.1,1.9-0.1c0.1-0.6,0-1-0.1-1.3c-0.2-0.3-0.5-0.4-1.1-0.4c-0.4,0-0.9,0-1.3,0.1c-0.5,0.1-0.9,0.2-1.2,0.3
				L140.2,198.6z M142.9,204.7c0.4,0,0.8-0.1,1-0.3s0.4-0.4,0.6-0.6v-1.1c-0.3,0-0.7,0-1,0s-0.6,0.1-0.8,0.1
				c-0.2,0.1-0.4,0.2-0.6,0.3s-0.2,0.3-0.2,0.5c0,0.3,0.1,0.5,0.3,0.7C142.4,204.6,142.6,204.7,142.9,204.7z"/>
			<path class="st5" d="M151,202.9h-0.6v3.4h-2.1v-8.1h2.1v3.5l0.5-0.2l1.9-3.2h2.3l-2,3.1l-0.8,0.6l0.9,0.6l2.2,3.8H153L151,202.9z
				"/>
			<path class="st5" d="M156.2,198.6c0.4-0.2,0.9-0.3,1.5-0.5c0.6-0.1,1.2-0.2,1.9-0.2c0.6,0,1,0.1,1.4,0.2c0.4,0.1,0.7,0.3,0.9,0.6
				c0.2,0.2,0.4,0.5,0.5,0.9c0.1,0.3,0.1,0.7,0.1,1.2c0,0.5,0,1,0,1.4c0,0.5-0.1,1-0.1,1.4c0,0.5,0,0.9,0,1.4c0,0.4,0.1,0.9,0.2,1.2
				H161l-0.3-1.1h-0.1c-0.2,0.3-0.5,0.6-0.9,0.9s-0.9,0.4-1.5,0.4c-0.4,0-0.7-0.1-1-0.2c-0.3-0.1-0.6-0.3-0.8-0.5
				c-0.2-0.2-0.4-0.5-0.5-0.7c-0.1-0.3-0.2-0.6-0.2-1c0-0.5,0.1-0.9,0.3-1.3c0.2-0.3,0.5-0.6,1-0.8c0.4-0.2,0.9-0.4,1.5-0.4
				c0.6-0.1,1.2-0.1,1.9-0.1c0.1-0.6,0-1-0.1-1.3c-0.2-0.3-0.5-0.4-1.1-0.4c-0.4,0-0.9,0-1.3,0.1c-0.5,0.1-0.9,0.2-1.2,0.3
				L156.2,198.6z M158.9,204.7c0.4,0,0.8-0.1,1-0.3s0.4-0.4,0.6-0.6v-1.1c-0.3,0-0.7,0-1,0s-0.6,0.1-0.8,0.1
				c-0.2,0.1-0.4,0.2-0.6,0.3s-0.2,0.3-0.2,0.5c0,0.3,0.1,0.5,0.3,0.7C158.4,204.6,158.6,204.7,158.9,204.7z"/>
			<path class="st5" d="M165.2,202.9v-1.5h1c0.4,0,0.7-0.1,0.9-0.2c0.2-0.2,0.4-0.4,0.4-0.6c0-0.3-0.1-0.5-0.3-0.6
				c-0.2-0.1-0.5-0.2-1-0.2c-0.4,0-0.8,0.1-1.1,0.2c-0.3,0.1-0.6,0.2-0.8,0.3l-0.5-1.6c0.3-0.2,0.8-0.3,1.3-0.5
				c0.5-0.1,1.1-0.2,1.7-0.2c0.9,0,1.6,0.2,2.1,0.5c0.5,0.3,0.7,0.8,0.7,1.5c0,0.2,0,0.4-0.1,0.6c0,0.2-0.1,0.4-0.2,0.5
				c-0.1,0.2-0.2,0.3-0.4,0.5c-0.2,0.1-0.3,0.2-0.6,0.3v0.1c0.6,0.1,1,0.4,1.2,0.7c0.2,0.3,0.4,0.8,0.4,1.3c0,0.3-0.1,0.7-0.2,1
				c-0.1,0.3-0.4,0.6-0.6,0.8c-0.3,0.2-0.6,0.4-1.1,0.5c-0.4,0.1-0.9,0.2-1.5,0.2c-0.6,0-1.1-0.1-1.6-0.2c-0.4-0.1-0.8-0.3-1.1-0.4
				l0.5-1.6c0.2,0.1,0.5,0.3,0.9,0.3s0.7,0.1,1.2,0.1c1,0,1.5-0.3,1.5-0.9c0-0.3-0.1-0.5-0.4-0.6c-0.3-0.1-0.7-0.2-1.4-0.2H165.2z"
				/>
		</g>
	</g>
	<g>
		<path class="st5" d="M179.5,217.8h-134c-2.5,0-4.5-2-4.5-4.5v-23.4c0-2.5,2-4.5,4.5-4.5h133.9c2.5,0,4.5,2,4.5,4.5v23.4
			c0.1,1.2-0.4,2.3-1.2,3.1C181.9,217.3,180.7,217.8,179.5,217.8z M45.5,186.4c-1.9,0-3.5,1.6-3.5,3.5v23.4c0,1.9,1.6,3.5,3.5,3.5
			h134c0.9,0,1.8-0.4,2.5-1.1c0.6-0.7,1-1.5,0.9-2.4l0-23.4c0-1.9-1.6-3.5-3.5-3.5H45.5z"/>
	</g>
</g>
<g>
	<g id="clicker">
		<path class="st6" d="M170.6,219.6c-0.3,0-0.6,0.1-0.9,0.2c-0.4-0.9-1.2-1.5-2.2-1.5c-0.4,0-0.7,0.1-1,0.2
			c-0.4-0.8-1.2-1.3-2.1-1.3c-0.3,0-0.5,0-0.8,0.1v-2.6c0-1.3-1.1-2.4-2.4-2.4c-1.3,0-2.4,1.1-2.4,2.4v9.5l-1.7-2l0,0
			c-0.4-0.5-1.1-0.7-1.7-0.7l0,0c-0.6,0-1.2,0.2-1.7,0.7c-0.8,0.9-0.9,2.3-0.1,3.2c0.9,1.6,1.9,3.2,2.8,4.5c0.6,1,1.3,1.9,1.7,2.7
			c0.4,0.7,1.4,2.8,1.4,2.9c0.1,0.3,0.4,0.5,0.7,0.5h10.2c0.4,0,0.7-0.2,0.8-0.6c0.2-0.6,1.9-5.8,1.9-7.9V222
			C173,220.7,172,219.6,170.6,219.6z M169.9,222c0-0.4,0.3-0.8,0.7-0.8s0.8,0.3,0.8,0.7c0,0,0,0,0,0.1v5.5c-0.3,2.3-0.9,4.6-1.6,6.8
			h-9.1c-0.3-0.7-1-2-1.3-2.5c-0.5-0.8-1.1-1.8-1.8-2.8c-0.9-1.3-1.9-2.8-2.8-4.4c-0.2-0.4-0.4-1-0.1-1.3c0.1-0.1,0.3-0.2,0.5-0.2
			s0.4,0.1,0.5,0.2l3.1,3.6c0.3,0.3,0.8,0.4,1.1,0.1c0.2-0.2,0.3-0.4,0.3-0.6v-11.7c0-0.4,0.3-0.8,0.7-0.8s0.8,0.3,0.8,0.7
			c0,0,0,0,0,0.1v7.5c0,0.4,0.4,0.8,0.8,0.8c0.4,0,0.8-0.4,0.8-0.8v-2.6c0-0.4,0.3-0.8,0.7-0.8s0.8,0.3,0.8,0.7c0,0,0,0,0,0.1v3.7
			c0,0.4,0.3,0.8,0.8,0.8c0.4,0,0.8-0.3,0.8-0.8c0,0,0,0,0-0.1v-2.6c0-0.4,0.3-0.8,0.7-0.8s0.8,0.3,0.8,0.7c0,0,0,0,0,0.1v3.7
			c0,0.4,0.3,0.8,0.8,0.8c0.4,0,0.8-0.3,0.8-0.8c0,0,0,0,0-0.1L169.9,222L169.9,222z"/>
	</g>
</g>
</svg>
