<?xml version="1.0" encoding="utf-8"?>
<!-- Generator: Adobe Illustrator 20.1.0, SVG Export Plug-In . SVG Version: 6.00 Build 0)  -->
<svg version="1.1" id="Layer_1" xmlns="http://www.w3.org/2000/svg" xmlns:xlink="http://www.w3.org/1999/xlink" x="0px" y="0px"
	 width="462.2px" height="255.6px" viewBox="0 0 462.2 255.6" style="enable-background:new 0 0 462.2 255.6;" xml:space="preserve"
	>
<style type="text/css">
	.st0{fill:#FFFFFF;}
	.st1{fill:#F2F0F0;}
	.st2{enable-background:new    ;}
	.st3{fill:#666666;}
	.st4{fill:#0EC353;}
	.st5{fill:#0BA4B1;}
	.st6{fill:#6A6565;}
</style>
<g>
	<g>
		<g>
			<polygon class="st0" points="0,255.6 462.2,255.6 462.2,0.2 444,13.2 425.5,0 407,13.2 388.5,0 370,13.2 351.6,0 333.1,13.2 
				314.6,0 296.1,13.2 277.6,0 259.1,13.2 240.6,0 222.2,13.2 203.7,0 185.2,13.2 166.7,0 148.2,13.2 129.7,0 111.2,13.2 92.8,0 
				74.3,13.2 55.8,0 37.3,13.2 18.8,0 0,13.5 			"/>
		</g>
	</g>
	<g>
		<g>
			<rect x="41.5" y="51.6" class="st1" width="60.1" height="60.1"/>
		</g>
		<g>
			<rect x="121.4" y="51.6" class="st1" width="213.6" height="16.9"/>
		</g>
		<g>
			<rect x="121.4" y="81.7" class="st1" width="152.7" height="8.1"/>
		</g>
		<g>
			<rect x="121.4" y="94.9" class="st1" width="152.7" height="8.8"/>
		</g>
		<g class="st2">
			<path class="st3" d="M363.8,66.8c-0.8,0-1.4-0.1-2-0.2s-1-0.3-1.3-0.5l0.8-2.3c0.2,0.1,0.6,0.3,1,0.4c0.4,0.1,1,0.2,1.5,0.3v-4.1
				c-0.4-0.2-0.8-0.4-1.2-0.6c-0.4-0.2-0.8-0.5-1.1-0.8c-0.3-0.3-0.6-0.7-0.8-1.2c-0.2-0.4-0.3-1-0.3-1.6c0-1.1,0.3-2,0.9-2.7
				c0.6-0.6,1.4-1,2.5-1.2v-1.8h2.1v1.7c0.6,0,1.1,0.1,1.5,0.2c0.4,0.1,0.8,0.3,1.2,0.4l-0.7,2.2c-0.2-0.1-0.5-0.2-0.9-0.3
				s-0.7-0.2-1.2-0.2v3.8c0.4,0.2,0.8,0.4,1.2,0.6c0.4,0.2,0.8,0.5,1.1,0.8c0.3,0.3,0.6,0.7,0.8,1.1c0.2,0.4,0.3,1,0.3,1.6
				c0,1.2-0.3,2.2-0.9,2.9c-0.6,0.7-1.5,1.1-2.5,1.3v1.9h-2.1V66.8z M363,56c0,0.4,0.2,0.7,0.5,1c0.3,0.3,0.7,0.5,1.2,0.7v-3.3
				c-0.6,0-1.1,0.2-1.3,0.5C363.1,55.3,363,55.6,363,56z M366.7,62.8c0-0.4-0.2-0.8-0.5-1s-0.8-0.5-1.2-0.7v3.5
				c0.6-0.1,1-0.2,1.3-0.6C366.6,63.6,366.7,63.2,366.7,62.8z"/>
			<path class="st3" d="M379.9,56c0,0.7-0.1,1.4-0.4,2.1c-0.2,0.7-0.6,1.4-0.9,2c-0.4,0.7-0.8,1.3-1.3,1.9s-0.9,1.2-1.3,1.7
				l-1.1,0.8v0.1l1.4-0.3h3.8v2.2h-8.4v-1.3c0.3-0.3,0.7-0.7,1.1-1.2c0.4-0.4,0.8-0.9,1.2-1.4c0.4-0.5,0.8-1,1.2-1.6
				c0.4-0.5,0.7-1.1,1-1.6s0.6-1.1,0.7-1.6s0.3-1,0.3-1.4c0-0.5-0.2-1-0.5-1.4c-0.3-0.4-0.8-0.5-1.5-0.5c-0.4,0-0.9,0.1-1.3,0.3
				c-0.4,0.2-0.8,0.4-1.1,0.7l-1-1.8c0.5-0.4,1.1-0.8,1.8-1c0.7-0.3,1.4-0.4,2.3-0.4c0.6,0,1.1,0.1,1.6,0.2c0.5,0.2,0.9,0.4,1.2,0.7
				s0.6,0.7,0.8,1.1C379.8,54.8,379.9,55.3,379.9,56z"/>
			<path class="st3" d="M386.1,64.5c0.9,0,1.6-0.2,2-0.6s0.7-1,0.7-1.8c0-0.8-0.3-1.4-0.8-1.8s-1.3-0.6-2.3-0.6l-1.6,0.1v-7.3h6.9
				V55h-4.6v2.7l0.8-0.1c0.7,0,1.2,0.1,1.8,0.4c0.5,0.2,1,0.5,1.3,0.9c0.4,0.4,0.7,0.8,0.9,1.4s0.3,1.1,0.3,1.8
				c0,0.8-0.1,1.5-0.4,2.1s-0.6,1.1-1.1,1.5c-0.5,0.4-1,0.7-1.7,0.9c-0.6,0.2-1.3,0.3-2.1,0.3c-0.6,0-1.2,0-1.7-0.2
				c-0.5-0.1-1-0.2-1.4-0.4l0.7-2.2c0.3,0.1,0.6,0.2,1,0.3C385.1,64.5,385.6,64.5,386.1,64.5z"/>
			<path class="st3" d="M393.9,65.2c0-0.5,0.1-0.8,0.4-1.1c0.3-0.3,0.7-0.4,1.2-0.4c0.5,0,0.9,0.1,1.2,0.4c0.3,0.3,0.4,0.6,0.4,1.1
				c0,0.5-0.1,0.8-0.4,1.1c-0.3,0.3-0.7,0.4-1.2,0.4c-0.5,0-0.9-0.1-1.2-0.4C394,66.1,393.9,65.7,393.9,65.2z"/>
			<path class="st3" d="M402.4,64.5c0.9,0,1.6-0.2,2-0.6s0.7-1,0.7-1.8c0-0.8-0.3-1.4-0.8-1.8s-1.3-0.6-2.3-0.6l-1.6,0.1v-7.3h6.9
				V55h-4.6v2.7l0.8-0.1c0.7,0,1.2,0.1,1.8,0.4c0.5,0.2,1,0.5,1.4,0.9c0.4,0.4,0.7,0.8,0.9,1.4c0.2,0.5,0.3,1.1,0.3,1.8
				c0,0.8-0.1,1.5-0.4,2.1s-0.6,1.1-1.1,1.5s-1,0.7-1.7,0.9c-0.6,0.2-1.3,0.3-2.1,0.3c-0.6,0-1.2,0-1.7-0.2c-0.5-0.1-1-0.2-1.4-0.4
				l0.7-2.2c0.3,0.1,0.6,0.2,1,0.3C401.4,64.5,401.8,64.5,402.4,64.5z"/>
			<path class="st3" d="M410.1,59.5c0-2.5,0.4-4.3,1.3-5.5s2-1.8,3.6-1.8c1.7,0,2.9,0.6,3.7,1.8c0.8,1.2,1.2,3,1.2,5.5
				c0,2.5-0.4,4.3-1.3,5.5c-0.8,1.2-2.1,1.8-3.6,1.8c-1.7,0-2.9-0.6-3.7-1.9C410.5,63.7,410.1,61.9,410.1,59.5z M412.7,59.5
				c0,1.6,0.2,2.9,0.5,3.8c0.4,0.9,0.9,1.3,1.8,1.3c0.8,0,1.4-0.4,1.7-1.2c0.4-0.8,0.5-2.1,0.5-3.9c0-1.6-0.2-2.9-0.5-3.7
				s-0.9-1.3-1.8-1.3c-0.8,0-1.4,0.4-1.7,1.2C412.9,56.5,412.7,57.8,412.7,59.5z"/>
		</g>
		<g>
			<g>
				<g>
					<g>
						<g>
							<polygon class="st3" points="53.8,154.2 53.8,161 43.1,161 43.1,150.3 52.7,150.3 54.4,148.7 41.5,148.7 41.5,162.6 
								55.4,162.6 55.4,152.8 							"/>
						</g>
					</g>
				</g>
			</g>
			<g>
				<g>
					<g>
						<polygon class="st4" points="56.6,148.2 48.2,155.7 45.6,153.1 44.6,154.2 48.3,157.9 57.7,149.2 						"/>
					</g>
				</g>
			</g>
		</g>
		<g>
			<g class="st2">
				<path class="st3" d="M76.6,148.8c0.2,0,0.5-0.1,0.8-0.1s0.6-0.1,0.9-0.1c0.3,0,0.6,0,0.8,0s0.5,0,0.7,0c0.5,0,1.1,0,1.6,0.1
					c0.5,0.1,1,0.3,1.4,0.5c0.4,0.2,0.7,0.6,1,1c0.2,0.4,0.4,0.9,0.4,1.6c0,0.9-0.2,1.7-0.6,2.3c-0.4,0.6-1,1-1.7,1.2l0.8,0.5
					l2.6,4.3h-2.6l-2.6-4.4l-1.2-0.2v4.7h-2.2V148.8z M80,150.5c-0.2,0-0.5,0-0.7,0c-0.2,0-0.4,0-0.5,0.1v3.3h0.9
					c0.6,0,1.1-0.1,1.5-0.4c0.4-0.3,0.6-0.7,0.6-1.4c0-0.5-0.2-0.9-0.5-1.1C81.1,150.6,80.6,150.5,80,150.5z"/>
				<path class="st3" d="M92.1,159.4c-0.3,0.3-0.8,0.5-1.3,0.7c-0.6,0.2-1.2,0.3-1.8,0.3c-1.3,0-2.3-0.4-2.9-1.1
					c-0.6-0.8-0.9-1.8-0.9-3.1c0-1.4,0.3-2.5,1-3.2c0.7-0.7,1.6-1.1,2.9-1.1c0.4,0,0.8,0.1,1.2,0.2s0.7,0.3,1,0.5s0.5,0.6,0.7,1
					c0.2,0.4,0.3,0.9,0.3,1.6c0,0.2,0,0.5,0,0.7c0,0.3-0.1,0.5-0.1,0.8h-4.9c0,0.7,0.2,1.2,0.5,1.5c0.3,0.3,0.8,0.5,1.6,0.5
					c0.4,0,0.8-0.1,1.2-0.2c0.4-0.1,0.6-0.3,0.8-0.4L92.1,159.4z M89,153.4c-0.6,0-1,0.2-1.2,0.5s-0.4,0.8-0.5,1.3h3
					c0-0.6,0-1-0.3-1.3C89.9,153.5,89.5,153.4,89,153.4z"/>
				<path class="st3" d="M100.7,157.2c0,0.5,0,0.9,0,1.4c0,0.5,0.1,1,0.1,1.5h-1.5l-0.3-1.1H99c-0.2,0.4-0.5,0.7-0.9,0.9
					c-0.4,0.2-0.9,0.3-1.4,0.3c-1,0-1.8-0.3-2.4-1c-0.6-0.7-0.8-1.7-0.8-3.2c0-1.4,0.3-2.5,0.9-3.2s1.5-1.2,2.8-1.2
					c0.3,0,0.6,0,0.8,0.1c0.2,0,0.4,0.1,0.6,0.2v-3.3h2.1V157.2z M97.1,158.5c0.4,0,0.7-0.1,1-0.3s0.4-0.5,0.5-0.9v-3.4
					c-0.2-0.1-0.3-0.2-0.5-0.3s-0.4-0.1-0.7-0.1c-0.6,0-1,0.2-1.3,0.6c-0.3,0.4-0.4,1.1-0.4,2.1c0,0.7,0.1,1.2,0.4,1.7
					C96.2,158.3,96.6,158.5,97.1,158.5z"/>
				<path class="st3" d="M104.6,151.9v4.6c0,0.7,0.1,1.1,0.2,1.4s0.5,0.4,0.9,0.4c0.4,0,0.7-0.1,1-0.4s0.5-0.5,0.6-0.9v-5.2h2.1v5.7
					c0,0.4,0,0.9,0.1,1.3c0,0.4,0.1,0.8,0.2,1.2h-1.6l-0.4-1.2h-0.1c-0.2,0.4-0.6,0.8-1,1s-1,0.4-1.6,0.4c-0.4,0-0.8-0.1-1.1-0.2
					c-0.3-0.1-0.6-0.3-0.8-0.5c-0.2-0.2-0.4-0.6-0.5-1c-0.1-0.4-0.2-1-0.2-1.6v-5H104.6z"/>
				<path class="st3" d="M117,159.5c-0.3,0.2-0.7,0.4-1.2,0.5c-0.5,0.1-0.9,0.2-1.4,0.2c-0.6,0-1.2-0.1-1.6-0.3
					c-0.4-0.2-0.8-0.5-1.1-0.9c-0.3-0.4-0.5-0.8-0.6-1.4c-0.1-0.5-0.2-1.1-0.2-1.8c0-1.4,0.3-2.4,0.9-3.2c0.6-0.7,1.5-1.1,2.7-1.1
					c0.6,0,1.1,0,1.4,0.1c0.4,0.1,0.7,0.2,1,0.4l-0.5,1.7c-0.2-0.1-0.5-0.2-0.7-0.3c-0.2-0.1-0.5-0.1-0.8-0.1c-0.6,0-1,0.2-1.3,0.6
					c-0.3,0.4-0.5,1-0.5,1.8c0,0.3,0,0.7,0.1,1c0.1,0.3,0.2,0.5,0.3,0.8c0.2,0.2,0.3,0.4,0.6,0.5c0.2,0.1,0.5,0.2,0.9,0.2
					c0.4,0,0.7,0,0.9-0.1c0.2-0.1,0.5-0.2,0.7-0.3L117,159.5z"/>
				<path class="st3" d="M124.6,159.4c-0.3,0.3-0.8,0.5-1.3,0.7c-0.6,0.2-1.2,0.3-1.8,0.3c-1.3,0-2.3-0.4-2.9-1.1
					c-0.6-0.8-0.9-1.8-0.9-3.1c0-1.4,0.3-2.5,1-3.2c0.7-0.7,1.6-1.1,2.9-1.1c0.4,0,0.8,0.1,1.2,0.2s0.7,0.3,1,0.5s0.5,0.6,0.7,1
					c0.2,0.4,0.3,0.9,0.3,1.6c0,0.2,0,0.5,0,0.7c0,0.3-0.1,0.5-0.1,0.8h-4.9c0,0.7,0.2,1.2,0.5,1.5c0.3,0.3,0.8,0.5,1.6,0.5
					c0.4,0,0.8-0.1,1.2-0.2c0.4-0.1,0.6-0.3,0.8-0.4L124.6,159.4z M121.5,153.4c-0.6,0-1,0.2-1.2,0.5s-0.4,0.8-0.5,1.3h3
					c0-0.6,0-1-0.3-1.3C122.4,153.5,122,153.4,121.5,153.4z"/>
				<path class="st3" d="M133,156.5l0.3,1.3h0.1l0.2-1.3l1.2-4.5h2.2l-2.5,7.3c-0.2,0.6-0.4,1.2-0.6,1.7c-0.2,0.5-0.4,0.9-0.6,1.3
					c-0.2,0.4-0.5,0.7-0.8,0.9c-0.3,0.2-0.6,0.3-1,0.3c-0.6,0-1-0.1-1.3-0.3l0.4-1.7c0.2,0.1,0.3,0.1,0.5,0.1c0.2,0,0.5-0.1,0.7-0.3
					c0.2-0.2,0.4-0.6,0.5-1.1l-3.4-8.1h2.5L133,156.5z"/>
				<path class="st3" d="M137.3,156c0-1.4,0.3-2.4,1-3.2c0.7-0.7,1.6-1.1,2.8-1.1c0.6,0,1.2,0.1,1.7,0.3c0.5,0.2,0.9,0.5,1.2,0.9
					c0.3,0.4,0.5,0.8,0.7,1.4c0.2,0.5,0.2,1.1,0.2,1.8c0,1.4-0.3,2.4-1,3.2c-0.7,0.7-1.6,1.1-2.8,1.1c-0.6,0-1.2-0.1-1.7-0.3
					c-0.5-0.2-0.9-0.5-1.2-0.9c-0.3-0.4-0.6-0.8-0.7-1.4C137.4,157.2,137.3,156.6,137.3,156z M139.5,156c0,0.4,0,0.7,0.1,1
					c0.1,0.3,0.2,0.6,0.3,0.8s0.3,0.4,0.5,0.5c0.2,0.1,0.5,0.2,0.8,0.2c0.6,0,1-0.2,1.2-0.6s0.4-1,0.4-1.9c0-0.7-0.1-1.3-0.4-1.8
					c-0.2-0.5-0.7-0.7-1.3-0.7c-0.5,0-0.9,0.2-1.2,0.6C139.7,154.5,139.5,155.1,139.5,156z"/>
				<path class="st3" d="M148.5,151.9v4.6c0,0.7,0.1,1.1,0.2,1.4s0.5,0.4,0.9,0.4c0.4,0,0.7-0.1,1-0.4s0.5-0.5,0.6-0.9v-5.2h2.1v5.7
					c0,0.4,0,0.9,0.1,1.3c0,0.4,0.1,0.8,0.2,1.2H152l-0.4-1.2h-0.1c-0.2,0.4-0.6,0.8-1,1s-1,0.4-1.6,0.4c-0.4,0-0.8-0.1-1.1-0.2
					c-0.3-0.1-0.6-0.3-0.8-0.5c-0.2-0.2-0.4-0.6-0.5-1c-0.1-0.4-0.2-1-0.2-1.6v-5H148.5z"/>
				<path class="st3" d="M159.7,153.9c-0.3-0.1-0.6-0.2-0.9-0.2c-0.4,0-0.7,0.1-0.9,0.3c-0.3,0.2-0.4,0.5-0.5,0.8v5.2h-2.1v-8.1h1.6
					l0.2,1.1h0.1c0.2-0.4,0.4-0.7,0.7-0.9c0.3-0.2,0.7-0.3,1.1-0.3c0.3,0,0.6,0.1,1,0.2L159.7,153.9z"/>
				<path class="st3" d="M170.7,159.5c-0.3,0.2-0.7,0.4-1.2,0.5c-0.5,0.1-0.9,0.2-1.4,0.2c-0.6,0-1.2-0.1-1.6-0.3
					c-0.4-0.2-0.8-0.5-1.1-0.9c-0.3-0.4-0.5-0.8-0.6-1.4c-0.1-0.5-0.2-1.1-0.2-1.8c0-1.4,0.3-2.4,0.9-3.2c0.6-0.7,1.5-1.1,2.7-1.1
					c0.6,0,1.1,0,1.4,0.1c0.4,0.1,0.7,0.2,1,0.4l-0.5,1.7c-0.2-0.1-0.5-0.2-0.7-0.3c-0.2-0.1-0.5-0.1-0.8-0.1c-0.6,0-1,0.2-1.3,0.6
					c-0.3,0.4-0.5,1-0.5,1.8c0,0.3,0,0.7,0.1,1c0.1,0.3,0.2,0.5,0.3,0.8c0.2,0.2,0.3,0.4,0.6,0.5c0.2,0.1,0.5,0.2,0.9,0.2
					c0.4,0,0.7,0,0.9-0.1c0.2-0.1,0.5-0.2,0.7-0.3L170.7,159.5z"/>
				<path class="st3" d="M172,152.4c0.4-0.2,0.9-0.3,1.5-0.5c0.6-0.1,1.2-0.2,1.9-0.2c0.6,0,1,0.1,1.4,0.2c0.4,0.1,0.7,0.3,0.9,0.6
					c0.2,0.2,0.4,0.5,0.5,0.9c0.1,0.3,0.1,0.7,0.1,1.2c0,0.5,0,1,0,1.4c0,0.5-0.1,1-0.1,1.4c0,0.5,0,0.9,0,1.4
					c0,0.4,0.1,0.9,0.2,1.2h-1.7l-0.3-1.1h-0.1c-0.2,0.3-0.5,0.6-0.9,0.9s-0.9,0.4-1.5,0.4c-0.4,0-0.7-0.1-1-0.2
					c-0.3-0.1-0.6-0.3-0.8-0.5c-0.2-0.2-0.4-0.5-0.5-0.7c-0.1-0.3-0.2-0.6-0.2-1c0-0.5,0.1-0.9,0.3-1.3c0.2-0.3,0.5-0.6,1-0.8
					c0.4-0.2,0.9-0.4,1.5-0.4c0.6-0.1,1.2-0.1,1.9-0.1c0.1-0.6,0-1-0.1-1.3c-0.2-0.3-0.5-0.4-1.1-0.4c-0.4,0-0.9,0-1.3,0.1
					c-0.5,0.1-0.9,0.2-1.2,0.3L172,152.4z M174.7,158.4c0.4,0,0.8-0.1,1-0.3s0.4-0.4,0.6-0.6v-1.1c-0.3,0-0.7,0-1,0
					s-0.6,0.1-0.8,0.1c-0.2,0.1-0.4,0.2-0.6,0.3s-0.2,0.3-0.2,0.5c0,0.3,0.1,0.5,0.3,0.7C174.1,158.4,174.3,158.4,174.7,158.4z"/>
				<path class="st3" d="M184.6,153.9c-0.3-0.1-0.6-0.2-0.9-0.2c-0.4,0-0.7,0.1-0.9,0.3c-0.3,0.2-0.4,0.5-0.5,0.8v5.2h-2.1v-8.1h1.6
					l0.2,1.1h0.1c0.2-0.4,0.4-0.7,0.7-0.9c0.3-0.2,0.7-0.3,1.1-0.3c0.3,0,0.6,0.1,1,0.2L184.6,153.9z"/>
				<path class="st3" d="M185.8,148.7h2.1v3.9h0.1c0.2-0.3,0.5-0.5,0.9-0.6c0.4-0.2,0.8-0.2,1.2-0.2c1,0,1.7,0.3,2.2,1
					c0.5,0.7,0.8,1.7,0.8,3c0,1.5-0.4,2.6-1.1,3.3s-1.7,1.1-3,1.1c-0.7,0-1.3-0.1-1.9-0.2c-0.6-0.1-1-0.2-1.3-0.4V148.7z
					 M189.4,153.5c-0.4,0-0.7,0.1-0.9,0.3c-0.2,0.2-0.4,0.5-0.6,0.9v3.5c0.2,0.1,0.4,0.1,0.6,0.2c0.2,0,0.4,0,0.6,0
					c0.6,0,1-0.2,1.3-0.6c0.3-0.4,0.4-1.1,0.4-2C190.8,154.3,190.4,153.5,189.4,153.5z"/>
				<path class="st3" d="M194.1,156c0-1.4,0.3-2.4,1-3.2c0.7-0.7,1.6-1.1,2.8-1.1c0.6,0,1.2,0.1,1.7,0.3c0.5,0.2,0.9,0.5,1.2,0.9
					c0.3,0.4,0.5,0.8,0.7,1.4c0.2,0.5,0.2,1.1,0.2,1.8c0,1.4-0.3,2.4-1,3.2c-0.7,0.7-1.6,1.1-2.8,1.1c-0.6,0-1.2-0.1-1.7-0.3
					c-0.5-0.2-0.9-0.5-1.2-0.9c-0.3-0.4-0.6-0.8-0.7-1.4C194.2,157.2,194.1,156.6,194.1,156z M196.3,156c0,0.4,0,0.7,0.1,1
					c0.1,0.3,0.2,0.6,0.3,0.8s0.3,0.4,0.5,0.5c0.2,0.1,0.5,0.2,0.8,0.2c0.6,0,1-0.2,1.2-0.6s0.4-1,0.4-1.9c0-0.7-0.1-1.3-0.4-1.8
					c-0.2-0.5-0.7-0.7-1.3-0.7c-0.5,0-0.9,0.2-1.2,0.6C196.4,154.5,196.3,155.1,196.3,156z"/>
				<path class="st3" d="M208.2,160v-4.6c0-0.7-0.1-1.1-0.3-1.4s-0.5-0.4-1-0.4c-0.4,0-0.7,0.1-1,0.3c-0.3,0.2-0.5,0.5-0.6,0.9v5.3
					h-2.1v-8.1h1.7l0.2,1.1h0.1c0.2-0.3,0.6-0.6,1-0.9c0.4-0.3,0.9-0.4,1.6-0.4c0.4,0,0.8,0.1,1.1,0.2s0.6,0.3,0.8,0.5
					c0.2,0.2,0.4,0.6,0.5,1c0.1,0.4,0.2,1,0.2,1.6v5H208.2z"/>
				<path class="st3" d="M215.4,151.9h1.1v-0.5c0-1,0.2-1.8,0.6-2.2s1.1-0.7,1.9-0.7c0.9,0,1.6,0.1,2.2,0.3l-0.4,1.7
					c-0.2-0.1-0.5-0.1-0.7-0.2s-0.4,0-0.6,0c-0.2,0-0.4,0-0.5,0.1s-0.2,0.2-0.3,0.3c-0.1,0.1-0.1,0.3-0.1,0.5s0,0.4,0,0.7h1.8v1.8
					h-1.8v6.3h-2.1v-6.3h-1.1V151.9z"/>
				<path class="st3" d="M220.9,156c0-1.4,0.3-2.4,1-3.2c0.7-0.7,1.6-1.1,2.8-1.1c0.6,0,1.2,0.1,1.7,0.3c0.5,0.2,0.9,0.5,1.2,0.9
					c0.3,0.4,0.5,0.8,0.7,1.4c0.2,0.5,0.2,1.1,0.2,1.8c0,1.4-0.3,2.4-1,3.2c-0.7,0.7-1.6,1.1-2.8,1.1c-0.6,0-1.2-0.1-1.7-0.3
					c-0.5-0.2-0.9-0.5-1.2-0.9c-0.3-0.4-0.6-0.8-0.7-1.4C221,157.2,220.9,156.6,220.9,156z M223.1,156c0,0.4,0,0.7,0.1,1
					c0.1,0.3,0.2,0.6,0.3,0.8s0.3,0.4,0.5,0.5c0.2,0.1,0.5,0.2,0.8,0.2c0.6,0,1-0.2,1.2-0.6s0.4-1,0.4-1.9c0-0.7-0.1-1.3-0.4-1.8
					c-0.2-0.5-0.7-0.7-1.3-0.7c-0.5,0-0.9,0.2-1.2,0.6C223.2,154.5,223.1,155.1,223.1,156z"/>
				<path class="st3" d="M229.6,156c0-1.4,0.3-2.4,1-3.2c0.7-0.7,1.6-1.1,2.8-1.1c0.6,0,1.2,0.1,1.7,0.3c0.5,0.2,0.9,0.5,1.2,0.9
					c0.3,0.4,0.5,0.8,0.7,1.4c0.2,0.5,0.2,1.1,0.2,1.8c0,1.4-0.3,2.4-1,3.2s-1.6,1.1-2.8,1.1c-0.6,0-1.2-0.1-1.7-0.3
					c-0.5-0.2-0.9-0.5-1.2-0.9c-0.3-0.4-0.6-0.8-0.7-1.4C229.7,157.2,229.6,156.6,229.6,156z M231.8,156c0,0.4,0,0.7,0.1,1
					c0.1,0.3,0.2,0.6,0.3,0.8s0.3,0.4,0.5,0.5c0.2,0.1,0.5,0.2,0.8,0.2c0.6,0,1-0.2,1.2-0.6s0.4-1,0.4-1.9c0-0.7-0.1-1.3-0.4-1.8
					c-0.2-0.5-0.7-0.7-1.3-0.7c-0.5,0-0.9,0.2-1.2,0.6C231.9,154.5,231.8,155.1,231.8,156z"/>
				<path class="st3" d="M237.9,151.9h1.1v-1.5l2.1-0.6v2.1h2v1.8h-2v3.1c0,0.6,0.1,1,0.2,1.2c0.1,0.2,0.3,0.4,0.6,0.4
					c0.2,0,0.4,0,0.6-0.1c0.2,0,0.3-0.1,0.5-0.2l0.4,1.6c-0.3,0.1-0.6,0.3-1,0.4s-0.8,0.1-1.2,0.1c-0.7,0-1.3-0.2-1.6-0.6
					c-0.4-0.4-0.5-1-0.5-1.9v-4.1h-1.1V151.9z"/>
				<path class="st3" d="M244.4,151.9h1.5l0.2,1h0.1c0.3-0.4,0.6-0.7,1-0.9c0.4-0.2,0.9-0.3,1.4-0.3c1,0,1.8,0.3,2.3,1
					c0.5,0.6,0.8,1.7,0.8,3.1c0,0.7-0.1,1.3-0.2,1.9s-0.4,1-0.7,1.4s-0.7,0.7-1.2,0.9c-0.5,0.2-1,0.3-1.6,0.3c-0.3,0-0.6,0-0.8-0.1
					s-0.4-0.1-0.6-0.2v3.3h-2.1V151.9z M248,153.5c-0.4,0-0.7,0.1-1,0.3c-0.2,0.2-0.4,0.5-0.5,0.9v3.4c0.2,0.1,0.3,0.2,0.5,0.3
					s0.4,0.1,0.7,0.1c0.6,0,1.1-0.2,1.4-0.6s0.5-1.1,0.5-2.1c0-0.7-0.1-1.3-0.4-1.7C248.9,153.7,248.5,153.5,248,153.5z"/>
				<path class="st3" d="M257.6,153.9c-0.3-0.1-0.6-0.2-0.9-0.2c-0.4,0-0.7,0.1-1,0.3s-0.4,0.5-0.5,0.8v5.2h-2.1v-8.1h1.6l0.2,1.1
					h0.1c0.2-0.4,0.4-0.7,0.7-0.9c0.3-0.2,0.7-0.3,1.1-0.3c0.3,0,0.6,0.1,1,0.2L257.6,153.9z"/>
				<path class="st3" d="M258.7,149.6c0-0.3,0.1-0.6,0.3-0.8c0.2-0.2,0.6-0.3,1-0.3c0.4,0,0.7,0.1,1,0.3c0.3,0.2,0.4,0.5,0.4,0.8
					c0,0.3-0.1,0.6-0.4,0.8c-0.3,0.2-0.6,0.3-1,0.3c-0.4,0-0.7-0.1-1-0.3C258.9,150.2,258.7,150,258.7,149.6z M259.1,151.9h2.1v8.1
					h-2.1V151.9z"/>
				<path class="st3" d="M268.2,160v-4.6c0-0.7-0.1-1.1-0.3-1.4s-0.5-0.4-1-0.4c-0.4,0-0.7,0.1-1,0.3c-0.3,0.2-0.5,0.5-0.6,0.9v5.3
					h-2.1v-8.1h1.7l0.2,1.1h0.1c0.2-0.3,0.6-0.6,1-0.9s0.9-0.4,1.6-0.4c0.4,0,0.8,0.1,1.1,0.2c0.3,0.1,0.6,0.3,0.8,0.5
					c0.2,0.2,0.4,0.6,0.5,1c0.1,0.4,0.2,1,0.2,1.6v5H268.2z"/>
				<path class="st3" d="M271.2,151.9h1.1v-1.5l2.1-0.6v2.1h2v1.8h-2v3.1c0,0.6,0.1,1,0.2,1.2c0.1,0.2,0.3,0.4,0.6,0.4
					c0.2,0,0.4,0,0.6-0.1c0.2,0,0.3-0.1,0.5-0.2l0.4,1.6c-0.3,0.1-0.6,0.3-1,0.4s-0.8,0.1-1.2,0.1c-0.7,0-1.3-0.2-1.6-0.6
					c-0.4-0.4-0.5-1-0.5-1.9v-4.1h-1.1V151.9z"/>
				<path class="st3" d="M281.1,151.9h1.1v-0.5c0-1,0.2-1.8,0.6-2.2c0.4-0.5,1.1-0.7,1.9-0.7c0.9,0,1.6,0.1,2.2,0.3l-0.4,1.7
					c-0.2-0.1-0.5-0.1-0.7-0.2s-0.4,0-0.6,0c-0.2,0-0.4,0-0.5,0.1c-0.1,0.1-0.2,0.2-0.3,0.3c-0.1,0.1-0.1,0.3-0.1,0.5
					c0,0.2,0,0.4,0,0.7h1.8v1.8h-1.8v6.3h-2.1v-6.3h-1.1V151.9z"/>
				<path class="st3" d="M291.5,153.9c-0.3-0.1-0.6-0.2-0.9-0.2c-0.4,0-0.7,0.1-1,0.3s-0.4,0.5-0.5,0.8v5.2h-2.1v-8.1h1.6l0.2,1.1
					h0.1c0.2-0.4,0.4-0.7,0.7-0.9c0.3-0.2,0.7-0.3,1.1-0.3c0.3,0,0.6,0.1,1,0.2L291.5,153.9z"/>
				<path class="st3" d="M292.4,156c0-1.4,0.3-2.4,1-3.2c0.7-0.7,1.6-1.1,2.8-1.1c0.6,0,1.2,0.1,1.7,0.3c0.5,0.2,0.9,0.5,1.2,0.9
					c0.3,0.4,0.5,0.8,0.7,1.4s0.2,1.1,0.2,1.8c0,1.4-0.3,2.4-1,3.2c-0.7,0.7-1.6,1.1-2.8,1.1c-0.6,0-1.2-0.1-1.7-0.3
					c-0.5-0.2-0.9-0.5-1.2-0.9c-0.3-0.4-0.6-0.8-0.7-1.4S292.4,156.6,292.4,156z M294.5,156c0,0.4,0,0.7,0.1,1
					c0.1,0.3,0.2,0.6,0.3,0.8s0.3,0.4,0.5,0.5c0.2,0.1,0.5,0.2,0.8,0.2c0.6,0,1-0.2,1.2-0.6s0.4-1,0.4-1.9c0-0.7-0.1-1.3-0.4-1.8
					c-0.2-0.5-0.7-0.7-1.3-0.7c-0.5,0-0.9,0.2-1.2,0.6S294.5,155.1,294.5,156z"/>
				<path class="st3" d="M306.1,160v-4.4c0-0.7-0.1-1.3-0.2-1.6c-0.1-0.3-0.4-0.5-0.9-0.5c-0.4,0-0.7,0.1-0.9,0.3
					c-0.2,0.2-0.4,0.5-0.5,0.8v5.4h-2.1v-8.1h1.6l0.2,1.1h0.1c0.2-0.3,0.6-0.6,1-0.9c0.4-0.3,0.9-0.4,1.5-0.4c0.5,0,0.9,0.1,1.3,0.3
					s0.6,0.6,0.8,1.1c0.2-0.4,0.6-0.8,1-1s0.9-0.4,1.4-0.4c0.5,0,0.8,0.1,1.2,0.2s0.6,0.3,0.8,0.6c0.2,0.3,0.3,0.6,0.4,1.1
					c0.1,0.4,0.1,1,0.1,1.7v4.9h-2.1v-4.6c0-0.6-0.1-1.1-0.2-1.4c-0.1-0.3-0.4-0.5-0.9-0.5c-0.4,0-0.7,0.1-0.9,0.3
					c-0.2,0.2-0.4,0.5-0.5,0.8v5.3H306.1z"/>
				<path class="st3" d="M317.8,151.9h1.1v-1.5l2.1-0.6v2.1h2v1.8h-2v3.1c0,0.6,0.1,1,0.2,1.2c0.1,0.2,0.3,0.4,0.6,0.4
					c0.2,0,0.4,0,0.6-0.1c0.2,0,0.3-0.1,0.5-0.2l0.4,1.6c-0.3,0.1-0.6,0.3-1,0.4s-0.8,0.1-1.2,0.1c-0.7,0-1.3-0.2-1.6-0.6
					c-0.4-0.4-0.5-1-0.5-1.9v-4.1h-1.1V151.9z"/>
				<path class="st3" d="M329.3,160v-4.6c0-0.7-0.1-1.1-0.3-1.4c-0.2-0.3-0.5-0.4-1-0.4c-0.4,0-0.7,0.1-1,0.4s-0.5,0.6-0.6,0.9v5.2
					h-2.1v-11.4h2.1v4.2h0.1c0.3-0.3,0.6-0.6,1-0.8c0.4-0.2,0.9-0.3,1.4-0.3c0.4,0,0.8,0.1,1.1,0.2c0.3,0.1,0.6,0.3,0.8,0.5
					c0.2,0.2,0.4,0.6,0.5,1c0.1,0.4,0.2,1,0.2,1.6v5H329.3z"/>
				<path class="st3" d="M333.1,149.6c0-0.3,0.1-0.6,0.3-0.8c0.2-0.2,0.6-0.3,1-0.3s0.7,0.1,1,0.3c0.3,0.2,0.4,0.5,0.4,0.8
					c0,0.3-0.1,0.6-0.4,0.8c-0.3,0.2-0.6,0.3-1,0.3s-0.7-0.1-1-0.3S333.1,150,333.1,149.6z M333.4,151.9h2.1v8.1h-2.1V151.9z"/>
				<path class="st3" d="M340.9,157.8c0-0.2-0.1-0.4-0.3-0.5c-0.2-0.1-0.4-0.2-0.7-0.4s-0.6-0.2-0.9-0.3c-0.3-0.1-0.6-0.3-0.9-0.5
					s-0.5-0.5-0.7-0.8c-0.2-0.3-0.3-0.7-0.3-1.2c0-0.8,0.2-1.4,0.7-1.8c0.5-0.4,1.2-0.6,2.1-0.6c0.6,0,1.2,0.1,1.7,0.2
					s0.9,0.3,1.2,0.4l-0.5,1.5c-0.2-0.1-0.6-0.2-0.9-0.3c-0.4-0.1-0.8-0.2-1.2-0.2c-0.6,0-0.9,0.2-0.9,0.7c0,0.2,0.1,0.4,0.3,0.5
					c0.2,0.1,0.4,0.2,0.7,0.3c0.3,0.1,0.6,0.2,0.9,0.3c0.3,0.1,0.6,0.3,0.9,0.5c0.3,0.2,0.5,0.4,0.7,0.7c0.2,0.3,0.3,0.7,0.3,1.2
					c0,0.8-0.3,1.5-0.8,1.9c-0.5,0.5-1.3,0.7-2.4,0.7c-0.6,0-1.1-0.1-1.6-0.2c-0.5-0.1-0.9-0.3-1.2-0.5l0.6-1.6
					c0.2,0.1,0.6,0.3,1,0.4c0.4,0.1,0.8,0.2,1.3,0.2c0.3,0,0.6-0.1,0.8-0.2S340.9,158.1,340.9,157.8z"/>
				<path class="st3" d="M348.5,151.9h1.5l0.2,1h0.1c0.3-0.4,0.6-0.7,1-0.9c0.4-0.2,0.9-0.3,1.4-0.3c1,0,1.8,0.3,2.3,1
					c0.5,0.6,0.8,1.7,0.8,3.1c0,0.7-0.1,1.3-0.2,1.9s-0.4,1-0.7,1.4s-0.7,0.7-1.2,0.9c-0.5,0.2-1,0.3-1.6,0.3c-0.3,0-0.6,0-0.8-0.1
					s-0.4-0.1-0.6-0.2v3.3h-2.1V151.9z M352.1,153.5c-0.4,0-0.7,0.1-1,0.3c-0.2,0.2-0.4,0.5-0.5,0.9v3.4c0.2,0.1,0.3,0.2,0.5,0.3
					s0.4,0.1,0.7,0.1c0.6,0,1.1-0.2,1.4-0.6s0.5-1.1,0.5-2.1c0-0.7-0.1-1.3-0.4-1.7C353,153.7,352.7,153.5,352.1,153.5z"/>
				<path class="st3" d="M359.3,151.9v4.6c0,0.7,0.1,1.1,0.2,1.4c0.2,0.3,0.5,0.4,0.9,0.4c0.4,0,0.7-0.1,1-0.4
					c0.3-0.2,0.5-0.5,0.6-0.9v-5.2h2.1v5.7c0,0.4,0,0.9,0.1,1.3s0.1,0.8,0.2,1.2h-1.6l-0.4-1.2h-0.1c-0.2,0.4-0.6,0.8-1,1
					c-0.4,0.3-1,0.4-1.6,0.4c-0.4,0-0.8-0.1-1.1-0.2c-0.3-0.1-0.6-0.3-0.8-0.5c-0.2-0.2-0.4-0.6-0.5-1c-0.1-0.4-0.2-1-0.2-1.6v-5
					H359.3z"/>
				<path class="st3" d="M370.5,153.9c-0.3-0.1-0.6-0.2-0.9-0.2c-0.4,0-0.7,0.1-1,0.3s-0.4,0.5-0.5,0.8v5.2H366v-8.1h1.6l0.2,1.1
					h0.1c0.2-0.4,0.4-0.7,0.7-0.9c0.3-0.2,0.7-0.3,1.1-0.3c0.3,0,0.6,0.1,1,0.2L370.5,153.9z"/>
				<path class="st3" d="M377.5,159.5c-0.3,0.2-0.7,0.4-1.2,0.5c-0.5,0.1-0.9,0.2-1.4,0.2c-0.7,0-1.2-0.1-1.6-0.3
					c-0.4-0.2-0.8-0.5-1.1-0.9c-0.3-0.4-0.5-0.8-0.6-1.4s-0.2-1.1-0.2-1.8c0-1.4,0.3-2.4,0.9-3.2c0.6-0.7,1.5-1.1,2.7-1.1
					c0.6,0,1.1,0,1.4,0.1c0.4,0.1,0.7,0.2,1,0.4l-0.5,1.7c-0.2-0.1-0.5-0.2-0.7-0.3c-0.2-0.1-0.5-0.1-0.8-0.1c-0.6,0-1,0.2-1.3,0.6
					c-0.3,0.4-0.5,1-0.5,1.8c0,0.3,0,0.7,0.1,1c0.1,0.3,0.2,0.5,0.3,0.8c0.2,0.2,0.3,0.4,0.6,0.5c0.2,0.1,0.5,0.2,0.9,0.2
					c0.4,0,0.7,0,0.9-0.1c0.2-0.1,0.5-0.2,0.7-0.3L377.5,159.5z"/>
				<path class="st3" d="M383.7,160v-4.6c0-0.7-0.1-1.1-0.3-1.4c-0.2-0.3-0.5-0.4-1-0.4c-0.4,0-0.7,0.1-1,0.4s-0.5,0.6-0.6,0.9v5.2
					h-2.1v-11.4h2.1v4.2h0.1c0.3-0.3,0.6-0.6,1-0.8c0.4-0.2,0.9-0.3,1.4-0.3c0.4,0,0.8,0.1,1.1,0.2c0.3,0.1,0.6,0.3,0.8,0.5
					s0.4,0.6,0.5,1s0.2,1,0.2,1.6v5H383.7z"/>
				<path class="st3" d="M387.5,152.4c0.4-0.2,0.9-0.3,1.5-0.5s1.2-0.2,1.9-0.2c0.6,0,1,0.1,1.4,0.2c0.4,0.1,0.7,0.3,0.9,0.6
					c0.2,0.2,0.4,0.5,0.5,0.9c0.1,0.3,0.1,0.7,0.1,1.2c0,0.5,0,1,0,1.4c0,0.5-0.1,1-0.1,1.4c0,0.5,0,0.9,0,1.4
					c0,0.4,0.1,0.9,0.2,1.2h-1.7l-0.3-1.1h-0.1c-0.2,0.3-0.5,0.6-0.9,0.9c-0.4,0.2-0.9,0.4-1.5,0.4c-0.4,0-0.7-0.1-1-0.2
					c-0.3-0.1-0.6-0.3-0.8-0.5c-0.2-0.2-0.4-0.5-0.5-0.7s-0.2-0.6-0.2-1c0-0.5,0.1-0.9,0.3-1.3s0.5-0.6,1-0.8s0.9-0.4,1.5-0.4
					c0.6-0.1,1.2-0.1,1.9-0.1c0.1-0.6,0-1-0.1-1.3c-0.2-0.3-0.5-0.4-1.1-0.4c-0.4,0-0.9,0-1.3,0.1c-0.5,0.1-0.9,0.2-1.2,0.3
					L387.5,152.4z M390.2,158.4c0.4,0,0.8-0.1,1-0.3s0.4-0.4,0.6-0.6v-1.1c-0.3,0-0.7,0-1,0s-0.6,0.1-0.8,0.1
					c-0.2,0.1-0.4,0.2-0.6,0.3s-0.2,0.3-0.2,0.5c0,0.3,0.1,0.5,0.3,0.7C389.7,158.4,389.9,158.4,390.2,158.4z"/>
				<path class="st3" d="M399,157.8c0-0.2-0.1-0.4-0.3-0.5c-0.2-0.1-0.4-0.2-0.7-0.4s-0.6-0.2-0.9-0.3c-0.3-0.1-0.6-0.3-0.9-0.5
					s-0.5-0.5-0.7-0.8c-0.2-0.3-0.3-0.7-0.3-1.2c0-0.8,0.2-1.4,0.7-1.8c0.5-0.4,1.2-0.6,2.1-0.6c0.6,0,1.2,0.1,1.7,0.2
					c0.5,0.1,0.9,0.3,1.2,0.4l-0.5,1.5c-0.2-0.1-0.6-0.2-0.9-0.3c-0.4-0.1-0.8-0.2-1.2-0.2c-0.6,0-0.9,0.2-0.9,0.7
					c0,0.2,0.1,0.4,0.3,0.5c0.2,0.1,0.4,0.2,0.7,0.3c0.3,0.1,0.6,0.2,0.9,0.3c0.3,0.1,0.6,0.3,0.9,0.5s0.5,0.4,0.7,0.7
					c0.2,0.3,0.3,0.7,0.3,1.2c0,0.8-0.3,1.5-0.8,1.9c-0.5,0.5-1.3,0.7-2.4,0.7c-0.6,0-1.1-0.1-1.6-0.2c-0.5-0.1-0.9-0.3-1.2-0.5
					l0.6-1.6c0.2,0.1,0.6,0.3,1,0.4c0.4,0.1,0.8,0.2,1.3,0.2c0.3,0,0.6-0.1,0.8-0.2S399,158.1,399,157.8z"/>
				<path class="st3" d="M409,159.4c-0.3,0.3-0.8,0.5-1.3,0.7c-0.6,0.2-1.2,0.3-1.8,0.3c-1.3,0-2.3-0.4-2.9-1.1
					c-0.6-0.8-0.9-1.8-0.9-3.1c0-1.4,0.3-2.5,1-3.2c0.7-0.7,1.6-1.1,2.9-1.1c0.4,0,0.8,0.1,1.2,0.2s0.7,0.3,1,0.5
					c0.3,0.2,0.5,0.6,0.7,1c0.2,0.4,0.3,0.9,0.3,1.6c0,0.2,0,0.5,0,0.7c0,0.3-0.1,0.5-0.1,0.8h-4.9c0,0.7,0.2,1.2,0.5,1.5
					c0.3,0.3,0.8,0.5,1.6,0.5c0.4,0,0.8-0.1,1.2-0.2c0.4-0.1,0.6-0.3,0.8-0.4L409,159.4z M406,153.4c-0.6,0-1,0.2-1.2,0.5
					c-0.3,0.3-0.4,0.8-0.5,1.3h3c0-0.6,0-1-0.3-1.3C406.8,153.5,406.4,153.4,406,153.4z"/>
			</g>
		</g>
		<g>
			<g class="st2">
				<path class="st5" d="M66,205.8c-0.3,0.2-0.8,0.4-1.3,0.5c-0.5,0.1-1.1,0.2-1.6,0.2c-0.7,0-1.3-0.1-1.9-0.3
					c-0.6-0.2-1.2-0.6-1.6-1s-0.8-1.1-1.1-1.8c-0.3-0.8-0.4-1.7-0.4-2.7c0-1.1,0.2-2,0.5-2.8c0.3-0.8,0.7-1.4,1.2-1.8
					c0.5-0.5,1-0.8,1.6-1c0.6-0.2,1.2-0.3,1.8-0.3c0.6,0,1.2,0,1.6,0.1c0.4,0.1,0.8,0.2,1.1,0.3l-0.4,1.9c-0.2-0.1-0.5-0.2-0.9-0.3
					c-0.3-0.1-0.8-0.1-1.2-0.1c-0.9,0-1.6,0.3-2.2,1c-0.5,0.6-0.8,1.6-0.8,3c0,0.6,0.1,1.1,0.2,1.6s0.3,0.9,0.6,1.2
					c0.3,0.3,0.6,0.6,1,0.8s0.9,0.3,1.4,0.3c0.5,0,0.9,0,1.2-0.1c0.3-0.1,0.6-0.2,0.9-0.4L66,205.8z"/>
				<path class="st5" d="M72.3,206.3v-4.6c0-0.7-0.1-1.1-0.3-1.4c-0.2-0.3-0.5-0.4-1-0.4c-0.4,0-0.7,0.1-1,0.4s-0.5,0.6-0.6,0.9v5.2
					h-2.1v-11.4h2.1v4.2h0.1c0.3-0.3,0.6-0.6,1-0.8c0.4-0.2,0.9-0.3,1.4-0.3c0.4,0,0.8,0.1,1.1,0.2s0.6,0.3,0.8,0.5
					c0.2,0.2,0.4,0.6,0.5,1c0.1,0.4,0.2,1,0.2,1.6v5H72.3z"/>
				<path class="st5" d="M82.7,205.6c-0.3,0.3-0.8,0.5-1.3,0.7c-0.6,0.2-1.2,0.3-1.8,0.3c-1.3,0-2.3-0.4-2.9-1.1
					c-0.6-0.8-0.9-1.8-0.9-3.1c0-1.4,0.3-2.5,1-3.2c0.7-0.7,1.6-1.1,2.9-1.1c0.4,0,0.8,0.1,1.2,0.2s0.7,0.3,1,0.5s0.5,0.6,0.7,1
					c0.2,0.4,0.3,0.9,0.3,1.6c0,0.2,0,0.5,0,0.7c0,0.3-0.1,0.5-0.1,0.8H78c0,0.7,0.2,1.2,0.5,1.5c0.3,0.3,0.8,0.5,1.6,0.5
					c0.4,0,0.8-0.1,1.2-0.2c0.4-0.1,0.6-0.3,0.8-0.4L82.7,205.6z M79.7,199.6c-0.6,0-1,0.2-1.2,0.5s-0.4,0.8-0.5,1.3h3
					c0-0.6,0-1-0.3-1.3C80.5,199.8,80.2,199.6,79.7,199.6z"/>
				<path class="st5" d="M90.1,205.8c-0.3,0.2-0.7,0.4-1.2,0.5c-0.5,0.1-0.9,0.2-1.4,0.2c-0.6,0-1.2-0.1-1.6-0.3
					c-0.4-0.2-0.8-0.5-1.1-0.9c-0.3-0.4-0.5-0.8-0.6-1.4c-0.1-0.5-0.2-1.1-0.2-1.8c0-1.4,0.3-2.4,0.9-3.2c0.6-0.7,1.5-1.1,2.7-1.1
					c0.6,0,1.1,0,1.4,0.1c0.4,0.1,0.7,0.2,1,0.4l-0.5,1.7c-0.2-0.1-0.5-0.2-0.7-0.3c-0.2-0.1-0.5-0.1-0.8-0.1c-0.6,0-1,0.2-1.3,0.6
					c-0.3,0.4-0.5,1-0.5,1.8c0,0.3,0,0.7,0.1,1c0.1,0.3,0.2,0.5,0.3,0.8c0.2,0.2,0.3,0.4,0.6,0.5c0.2,0.1,0.5,0.2,0.9,0.2
					c0.4,0,0.7,0,0.9-0.1c0.2-0.1,0.5-0.2,0.7-0.3L90.1,205.8z"/>
				<path class="st5" d="M94.1,202.9h-0.6v3.4h-2.1v-11.4h2.1v6.7l0.5-0.2l1.9-3.2h2.3l-1.9,3.1l-0.8,0.6l0.9,0.6l2.2,3.8h-2.4
					L94.1,202.9z"/>
				<path class="st5" d="M98.8,202.2c0-1.4,0.3-2.4,1-3.2c0.7-0.7,1.6-1.1,2.8-1.1c0.6,0,1.2,0.1,1.7,0.3c0.5,0.2,0.9,0.5,1.2,0.9
					c0.3,0.4,0.5,0.8,0.7,1.4c0.2,0.5,0.2,1.1,0.2,1.8c0,1.4-0.3,2.4-1,3.2c-0.7,0.7-1.6,1.1-2.8,1.1c-0.6,0-1.2-0.1-1.7-0.3
					c-0.5-0.2-0.9-0.5-1.2-0.9c-0.3-0.4-0.6-0.8-0.7-1.4C98.9,203.4,98.8,202.9,98.8,202.2z M101,202.2c0,0.4,0,0.7,0.1,1
					c0.1,0.3,0.2,0.6,0.3,0.8s0.3,0.4,0.5,0.5c0.2,0.1,0.5,0.2,0.8,0.2c0.6,0,1-0.2,1.2-0.6s0.4-1,0.4-1.9c0-0.7-0.1-1.3-0.4-1.8
					c-0.2-0.5-0.7-0.7-1.3-0.7c-0.5,0-0.9,0.2-1.2,0.6C101.1,200.7,101,201.3,101,202.2z"/>
				<path class="st5" d="M110,198.2v4.6c0,0.7,0.1,1.1,0.2,1.4s0.5,0.4,0.9,0.4c0.4,0,0.7-0.1,1-0.4s0.5-0.5,0.6-0.9v-5.2h2.1v5.7
					c0,0.4,0,0.9,0.1,1.3c0,0.4,0.1,0.8,0.2,1.2h-1.6l-0.4-1.2H113c-0.2,0.4-0.6,0.8-1,1s-1,0.4-1.6,0.4c-0.4,0-0.8-0.1-1.1-0.2
					c-0.3-0.1-0.6-0.3-0.8-0.5c-0.2-0.2-0.4-0.6-0.5-1c-0.1-0.4-0.2-1-0.2-1.6v-5H110z"/>
				<path class="st5" d="M115.8,198.2h1.1v-1.5l2.1-0.6v2.1h2v1.8h-2v3.1c0,0.6,0.1,1,0.2,1.2c0.1,0.2,0.3,0.4,0.6,0.4
					c0.2,0,0.4,0,0.6-0.1c0.2,0,0.3-0.1,0.5-0.2l0.4,1.6c-0.3,0.1-0.6,0.3-1,0.4s-0.8,0.1-1.2,0.1c-0.7,0-1.3-0.2-1.6-0.6
					c-0.4-0.4-0.5-1-0.5-1.9v-4.1h-1.1V198.2z"/>
			</g>
		</g>
		<g>
			<path class="st5" d="M134.6,217.8H44.2c-1.8,0-3.2-2-3.2-4.5v-23.4c0-2.5,1.4-4.5,3.2-4.5h90.4c1.8,0,3.2,2,3.2,4.5v23.4
				c0,1.4-0.4,2.8-1.2,3.6C136,217.5,135.3,217.8,134.6,217.8z M44.2,186.4c-1.2,0-2.2,1.6-2.2,3.5v23.4c0,1.9,1,3.5,2.2,3.5h90.4
				c0.5,0,0.9-0.3,1.2-0.6c0.6-0.7,1-1.8,1-2.9v-23.4c0-1.9-1-3.5-2.2-3.5H44.2z"/>
		</g>
	</g>
	<g>
		<g id="clicker_2_">
			<path class="st0" d="M128.9,219.6c-0.3,0-0.6,0.1-0.9,0.2c-0.4-0.9-1.2-1.5-2.2-1.5c-0.4,0-0.7,0.1-1,0.2
				c-0.4-0.8-1.2-1.3-2.1-1.3c-0.3,0-0.5,0-0.8,0.1v-2.6c0-1.3-1.1-2.4-2.4-2.4c-1.3,0-2.4,1.1-2.4,2.4v9.5l-1.7-2l0,0
				c-0.4-0.5-1.1-0.7-1.7-0.7l0,0c-0.6,0-1.2,0.2-1.7,0.7c-0.8,0.9-0.9,2.3-0.1,3.2c0.9,1.6,1.9,3.2,2.8,4.5c0.6,1,1.3,1.9,1.7,2.7
				c0.4,0.7,1.4,2.8,1.4,2.9c0.1,0.3,0.4,0.5,0.7,0.5h10.2c0.4,0,0.7-0.2,0.8-0.6c0.2-0.6,1.9-5.8,1.9-7.9V222
				C131.3,220.7,130.3,219.6,128.9,219.6z"/>
		</g>
	</g>
	<g>
		<g id="clicker_1_">
			<path class="st6" d="M128.9,219.6c-0.3,0-0.6,0.1-0.9,0.2c-0.4-0.9-1.2-1.5-2.2-1.5c-0.4,0-0.7,0.1-1,0.2
				c-0.4-0.8-1.2-1.3-2.1-1.3c-0.3,0-0.5,0-0.8,0.1v-2.6c0-1.3-1.1-2.4-2.4-2.4c-1.3,0-2.4,1.1-2.4,2.4v9.5l-1.7-2l0,0
				c-0.4-0.5-1.1-0.7-1.7-0.7l0,0c-0.6,0-1.2,0.2-1.7,0.7c-0.8,0.9-0.9,2.3-0.1,3.2c0.9,1.6,1.9,3.2,2.8,4.5c0.6,1,1.3,1.9,1.7,2.7
				c0.4,0.7,1.4,2.8,1.4,2.9c0.1,0.3,0.4,0.5,0.7,0.5h10.2c0.4,0,0.7-0.2,0.8-0.6c0.2-0.6,1.9-5.8,1.9-7.9V222
				C131.3,220.7,130.3,219.6,128.9,219.6z M128.2,222c0-0.4,0.3-0.8,0.7-0.8s0.8,0.3,0.8,0.7c0,0,0,0,0,0.1v5.5
				c-0.3,2.3-0.9,4.6-1.6,6.8H119c-0.3-0.7-1-2-1.3-2.5c-0.5-0.8-1.1-1.8-1.8-2.8c-0.9-1.3-1.9-2.8-2.8-4.4c-0.2-0.4-0.4-1-0.1-1.3
				c0.1-0.1,0.3-0.2,0.5-0.2s0.4,0.1,0.5,0.2l3.1,3.6c0.3,0.3,0.8,0.4,1.1,0.1c0.2-0.2,0.3-0.4,0.3-0.6v-11.7c0-0.4,0.3-0.8,0.7-0.8
				s0.8,0.3,0.8,0.7c0,0,0,0,0,0.1v7.5c0,0.4,0.4,0.8,0.8,0.8c0.4,0,0.8-0.4,0.8-0.8v-2.6c0-0.4,0.3-0.8,0.7-0.8s0.8,0.3,0.8,0.7
				c0,0,0,0,0,0.1v3.7c0,0.4,0.3,0.8,0.8,0.8c0.4,0,0.8-0.3,0.8-0.8c0,0,0,0,0-0.1v-2.6c0-0.4,0.3-0.8,0.7-0.8s0.8,0.3,0.8,0.7
				c0,0,0,0,0,0.1v3.7c0,0.4,0.3,0.8,0.8,0.8c0.4,0,0.8-0.3,0.8-0.8c0,0,0,0,0-0.1L128.2,222L128.2,222z"/>
		</g>
	</g>
</g>
</svg>
