<?xml version="1.0" encoding="utf-8"?>
<!-- Generator: Adobe Illustrator 20.1.0, SVG Export Plug-In . SVG Version: 6.00 Build 0)  -->
<svg version="1.1" id="Layer_1" xmlns="http://www.w3.org/2000/svg" xmlns:xlink="http://www.w3.org/1999/xlink" x="0px" y="0px"
	 width="417.6px" height="231px" viewBox="0 0 417.6 231" style="enable-background:new 0 0 417.6 231;" xml:space="preserve">
<style type="text/css">
	.st0{fill:none;}
	.st1{clip-path:url(#SVGID_4_);}
	.st2{clip-path:url(#SVGID_6_);fill:#F2F2F2;}
	.st3{clip-path:url(#SVGID_6_);fill:#F1F1F1;}
	.st4{clip-path:url(#SVGID_6_);fill:#F0F0F0;}
	.st5{clip-path:url(#SVGID_6_);fill:#EFEFEF;}
	.st6{clip-path:url(#SVGID_6_);fill:#EEEEEE;}
	.st7{clip-path:url(#SVGID_6_);fill:#EDEDED;}
	.st8{clip-path:url(#SVGID_6_);fill:#ECECEC;}
	.st9{clip-path:url(#SVGID_6_);fill:#EBEBEB;}
	.st10{clip-path:url(#SVGID_6_);fill:#EAEAEA;}
	.st11{clip-path:url(#SVGID_6_);fill:#E9E9E9;}
	.st12{clip-path:url(#SVGID_6_);fill:#E8E8E8;}
	.st13{clip-path:url(#SVGID_6_);fill:#E7E7E7;}
	.st14{clip-path:url(#SVGID_6_);fill:#E6E6E6;}
	.st15{clip-path:url(#SVGID_6_);fill:#E4E4E4;}
	.st16{clip-path:url(#SVGID_6_);fill:#E3E3E3;}
	.st17{clip-path:url(#SVGID_6_);fill:#E2E2E2;}
	.st18{clip-path:url(#SVGID_6_);fill:#E1E1E1;}
	.st19{clip-path:url(#SVGID_6_);fill:#E0E0E0;}
	.st20{clip-path:url(#SVGID_6_);fill:#DFDFDF;}
	.st21{clip-path:url(#SVGID_6_);fill:#DEDEDE;}
	.st22{clip-path:url(#SVGID_6_);fill:#DDDDDD;}
	.st23{clip-path:url(#SVGID_6_);fill:#DCDCDC;}
	.st24{clip-path:url(#SVGID_6_);fill:#DBDBDB;}
	.st25{clip-path:url(#SVGID_6_);fill:#DADADA;}
	.st26{clip-path:url(#SVGID_6_);fill:#D9D9D9;}
	.st27{fill:#FDC041;}
	.st28{fill:#33C849;}
	.st29{fill:#FC615C;}
	.st30{fill:#454343;}
	.st31{fill:#171814;}
	.st32{fill:#272822;}
	.st33{fill:#3C3D38;}
	.st34{enable-background:new    ;}
	.st35{fill:#D6D6D6;}
	.st36{fill:#484943;}
	.st37{fill:#8F908A;}
	.st38{fill:#F12772;}
	.st39{fill:#E6DB74;}
	.st40{fill:#FFFFFF;}
	.st41{fill:#66D9EF;}
	.st42{fill:#6D715E;}
</style>
<rect x="7.5" y="-5.2" class="st0" width="418.1" height="236.2"/>
<g>
	
		<image style="overflow:visible;opacity:0.51;" width="712" height="334" xlink:href="14693788CE59BB48.png"  transform="matrix(1 0 0 1 -2.7 -2.9)">
	</image>
	<g>
		<g>
			<g>
				<defs>
					<polygon id="SVGID_1_" points="0,0 417.6,0 417.6,230.8 401.2,219 384.5,231 367.8,219 351.1,231 334.3,219 317.6,231 
						300.9,219 284.2,231 267.5,219 250.8,231 234.1,219 217.4,231 200.7,219 184,231 167.3,219 150.6,231 133.9,219 117.2,231 
						100.5,219 83.8,231 67.1,219 50.4,231 33.7,219 17,231 0,218.8 					"/>
				</defs>
				<clipPath id="SVGID_2_">
					<use xlink:href="#SVGID_1_"  style="overflow:visible;"/>
				</clipPath>
			</g>
		</g>
		<g>
			<g>
				<defs>
					<polygon id="SVGID_3_" points="0,0 417.6,0 417.6,230.8 401.2,219 384.5,231 367.8,219 351.1,231 334.3,219 317.6,231 
						300.9,219 284.2,231 267.5,219 250.8,231 234.1,219 217.4,231 200.7,219 184,231 167.3,219 150.6,231 133.9,219 117.2,231 
						100.5,219 83.8,231 67.1,219 50.4,231 33.7,219 17,231 0,218.8 					"/>
				</defs>
				<clipPath id="SVGID_4_">
					<use xlink:href="#SVGID_3_"  style="overflow:visible;"/>
				</clipPath>
				<g class="st1">
					<g>
						<g>
							<defs>
								<path id="SVGID_5_" d="M704.8,18.9H-0.5V3.2c0-1.7,1.3-3,3-3h699.3c1.7,0,3,1.3,3,3V18.9z"/>
							</defs>
							<clipPath id="SVGID_6_">
								<use xlink:href="#SVGID_5_"  style="overflow:visible;"/>
							</clipPath>
							<rect x="-0.5" y="0.2" class="st2" width="705.3" height="0"/>
							<rect x="-0.5" y="0.2" class="st2" width="705.3" height="0.7"/>
							<rect x="-0.5" y="1" class="st3" width="705.3" height="0.7"/>
							<rect x="-0.5" y="1.7" class="st4" width="705.3" height="0.7"/>
							<rect x="-0.5" y="2.5" class="st5" width="705.3" height="0.7"/>
							<rect x="-0.5" y="3.2" class="st6" width="705.3" height="0.7"/>
							<rect x="-0.5" y="4" class="st7" width="705.3" height="0.7"/>
							<rect x="-0.5" y="4.7" class="st8" width="705.3" height="0.7"/>
							<rect x="-0.5" y="5.5" class="st9" width="705.3" height="0.7"/>
							<rect x="-0.5" y="6.2" class="st10" width="705.3" height="0.7"/>
							<rect x="-0.5" y="7" class="st11" width="705.3" height="0.7"/>
							<rect x="-0.5" y="7.7" class="st12" width="705.3" height="0.7"/>
							<rect x="-0.5" y="8.4" class="st13" width="705.3" height="0.7"/>
							<rect x="-0.5" y="9.2" class="st14" width="705.3" height="0.7"/>
							<rect x="-0.5" y="9.9" class="st15" width="705.3" height="0.7"/>
							<rect x="-0.5" y="10.7" class="st16" width="705.3" height="0.7"/>
							<rect x="-0.5" y="11.4" class="st17" width="705.3" height="0.7"/>
							<rect x="-0.5" y="12.2" class="st18" width="705.3" height="0.7"/>
							<rect x="-0.5" y="12.9" class="st19" width="705.3" height="0.7"/>
							<rect x="-0.5" y="13.7" class="st20" width="705.3" height="0.7"/>
							<rect x="-0.5" y="14.4" class="st21" width="705.3" height="0.7"/>
							<rect x="-0.5" y="15.2" class="st22" width="705.3" height="0.7"/>
							<rect x="-0.5" y="15.9" class="st23" width="705.3" height="0.7"/>
							<rect x="-0.5" y="16.7" class="st24" width="705.3" height="0.7"/>
							<rect x="-0.5" y="17.4" class="st25" width="705.3" height="0.7"/>
							<rect x="-0.5" y="18.2" class="st26" width="705.3" height="0.7"/>
						</g>
					</g>
					<g>
						<circle class="st27" cx="25" cy="9.7" r="4.6"/>
					</g>
					<g>
						<circle class="st28" cx="39.6" cy="9.7" r="4.6"/>
					</g>
					<g>
						<g>
							<circle class="st29" cx="10.4" cy="9.7" r="4.6"/>
						</g>
						<g>
							<circle class="st30" cx="10.4" cy="9.7" r="1.2"/>
						</g>
					</g>
					<g>
						<rect x="-0.5" y="18.9" class="st31" width="705.3" height="25.9"/>
					</g>
					<g>
						<path class="st32" d="M177.4,44.8L165.2,30c-3.4-4.3-4.1-5.9-7.5-5.9H35.5c-3.2,0-5.8,2.6-5.8,5.8v14.9H-0.4v281.7h705.3V44.8
							H177.4z"/>
					</g>
					<g>
						<g>
							<path class="st33" d="M157.7,24.5c2.7,0,3.5,1,5.8,4.1c0.4,0.5,0.8,1.1,1.3,1.7L177,45.1l0.1,0.2h0.2h527V326H0V45.3h29.6
								h0.5v-0.5V29.9c0-2.9,2.4-5.3,5.3-5.3L157.7,24.5 M157.7,24H35.5c-3.2,0-5.8,2.6-5.8,5.8v14.9H-0.4v281.7h705.3V44.8H177.4
								L165.2,30C161.8,25.6,161.1,24,157.7,24L157.7,24z"/>
						</g>
					</g>
					<g class="st34">
						<path class="st35" d="M42.2,30.9c0.6-0.1,1.4-0.2,2.2-0.2c1.5,0,2.5,0.3,3.2,1c0.7,0.7,1.1,1.6,1.1,2.9c0,1.3-0.4,2.4-1.2,3.1
							c-0.8,0.8-2,1.2-3.5,1.2c-0.7,0-1.4,0-1.9-0.1V30.9z M43.2,38c0.3,0,0.6,0.1,1,0.1c2.2,0,3.4-1.2,3.4-3.4
							c0-1.9-1.1-3.1-3.2-3.1c-0.5,0-0.9,0-1.2,0.1V38z"/>
					</g>
					<g class="st34">
						<path class="st35" d="M51.3,36.3l-0.8,2.5h-1.1l2.7-8h1.2l2.7,8H55l-0.9-2.5H51.3z M53.9,35.5l-0.8-2.3
							c-0.2-0.5-0.3-1-0.4-1.5h0c-0.1,0.5-0.2,1-0.4,1.5l-0.8,2.3H53.9z"/>
					</g>
					<g class="st34">
						<path class="st35" d="M64,34.8c0,2.8-1.7,4.2-3.7,4.2c-2.1,0-3.6-1.6-3.6-4.1c0-2.5,1.6-4.2,3.7-4.2
							C62.6,30.7,64,32.4,64,34.8z M57.7,34.9c0,1.7,0.9,3.2,2.6,3.2c1.6,0,2.6-1.5,2.6-3.3c0-1.6-0.8-3.3-2.6-3.3
							C58.6,31.6,57.7,33.1,57.7,34.9z"/>
						<path class="st35" d="M68.9,30.8v8h-1v-8H68.9z"/>
						<path class="st35" d="M70.7,30.9c0.5-0.1,1.2-0.2,2-0.2c1,0,1.8,0.2,2.2,0.7c0.4,0.4,0.7,1,0.7,1.7c0,0.7-0.2,1.3-0.6,1.7
							c-0.5,0.6-1.4,0.9-2.5,0.9c-0.3,0-0.6,0-0.8-0.1v3.2h-1V30.9z M71.7,34.8c0.2,0.1,0.5,0.1,0.9,0.1c1.2,0,2-0.6,2-1.7
							c0-1.1-0.7-1.6-1.9-1.6c-0.5,0-0.8,0-1,0.1V34.8z"/>
						<path class="st35" d="M82.6,38.6c-0.4,0.2-1.1,0.4-2.1,0.4c-2.3,0-4-1.4-4-4.1c0-2.5,1.7-4.2,4.2-4.2c1,0,1.6,0.2,1.9,0.4
							l-0.2,0.8c-0.4-0.2-1-0.3-1.6-0.3c-1.9,0-3.1,1.2-3.1,3.3c0,2,1.1,3.2,3.1,3.2c0.6,0,1.3-0.1,1.7-0.3L82.6,38.6z"/>
						<path class="st35" d="M84.9,30.8v8h-1v-8H84.9z"/>
						<path class="st35" d="M88.4,39.3l3.3-8.6h0.8l-3.3,8.6H88.4z"/>
					</g>
					<g class="st34">
						<path class="st35" d="M101.4,38.6c-0.4,0.2-1.1,0.4-2.1,0.4c-2.3,0-4-1.4-4-4.1c0-2.5,1.7-4.2,4.2-4.2c1,0,1.6,0.2,1.9,0.4
							l-0.2,0.8c-0.4-0.2-1-0.3-1.6-0.3c-1.9,0-3.1,1.2-3.1,3.3c0,2,1.1,3.2,3.1,3.2c0.6,0,1.3-0.1,1.7-0.3L101.4,38.6z"/>
					</g>
					<g class="st34">
						<path class="st35" d="M107.8,35.9c0,2.1-1.5,3.1-2.9,3.1c-1.6,0-2.8-1.1-2.8-3c0-1.9,1.3-3.1,2.9-3.1
							C106.7,33,107.8,34.2,107.8,35.9z M103.2,36c0,1.3,0.7,2.2,1.7,2.2c1,0,1.7-0.9,1.7-2.2c0-1-0.5-2.2-1.7-2.2
							C103.8,33.8,103.2,34.9,103.2,36z"/>
					</g>
					<g class="st34">
						<path class="st35" d="M109.1,34.7c0-0.6,0-1.1,0-1.6h0.9l0.1,1h0c0.3-0.5,1-1.1,1.9-1.1c0.8,0,2,0.5,2,2.5v3.4h-1v-3.3
							c0-0.9-0.3-1.7-1.3-1.7c-0.7,0-1.2,0.5-1.4,1.1c0,0.1-0.1,0.3-0.1,0.5v3.5h-1V34.7z"/>
					</g>
					<g class="st34">
						<path class="st35" d="M116.9,31.4v1.7h1.5v0.8h-1.5V37c0,0.7,0.2,1.1,0.8,1.1c0.3,0,0.5,0,0.6-0.1l0,0.8
							c-0.2,0.1-0.5,0.1-0.9,0.1c-0.5,0-0.9-0.2-1.1-0.4c-0.3-0.3-0.4-0.8-0.4-1.5v-3.1H115v-0.8h0.9v-1.4L116.9,31.4z"/>
					</g>
					<g class="st34">
						<path class="st35" d="M119.6,34.9c0-0.7,0-1.3,0-1.8h0.9l0,1.1h0c0.3-0.8,0.9-1.3,1.6-1.3c0.1,0,0.2,0,0.3,0v1
							c-0.1,0-0.2,0-0.4,0c-0.7,0-1.3,0.6-1.4,1.3c0,0.1,0,0.3,0,0.5v3.1h-1V34.9z"/>
					</g>
					<g class="st34">
						<path class="st35" d="M126.6,38.9l-0.1-0.7h0c-0.3,0.5-0.9,0.9-1.8,0.9c-1.2,0-1.8-0.8-1.8-1.7c0-1.4,1.2-2.2,3.5-2.1v-0.1
							c0-0.5-0.1-1.3-1.3-1.3c-0.5,0-1.1,0.2-1.5,0.4l-0.2-0.7c0.5-0.3,1.2-0.5,1.9-0.5c1.8,0,2.2,1.2,2.2,2.4v2.2
							c0,0.5,0,1,0.1,1.4H126.6z M126.4,35.9c-1.1,0-2.4,0.2-2.4,1.3c0,0.7,0.5,1,1,1c0.8,0,1.2-0.5,1.4-1c0-0.1,0.1-0.2,0.1-0.3
							V35.9z"/>
					</g>
					<g class="st34">
						<path class="st35" d="M133.3,38.6c-0.3,0.1-0.9,0.3-1.7,0.3c-1.7,0-2.9-1.2-2.9-2.9c0-1.8,1.2-3.1,3.1-3.1
							c0.6,0,1.2,0.2,1.5,0.3l-0.2,0.8c-0.2-0.1-0.6-0.3-1.2-0.3c-1.3,0-2,1-2,2.2c0,1.3,0.9,2.2,2,2.2c0.6,0,1-0.2,1.3-0.3
							L133.3,38.6z"/>
					</g>
					<g class="st34">
						<path class="st35" d="M135.9,31.4v1.7h1.5v0.8h-1.5V37c0,0.7,0.2,1.1,0.8,1.1c0.3,0,0.5,0,0.6-0.1l0,0.8
							c-0.2,0.1-0.5,0.1-0.9,0.1c-0.5,0-0.9-0.2-1.1-0.4c-0.3-0.3-0.4-0.8-0.4-1.5v-3.1H134v-0.8h0.9v-1.4L135.9,31.4z"/>
					</g>
					<g>
						<circle class="st36" cx="151.8" cy="35.4" r="2.7"/>
					</g>
					<g class="st34">
						<path class="st37" d="M19.8,62.1h1.8v-5.2l-1.6,0.4v-1.4l1.7-0.4h1.5v6.6h1.8v1.4h-5.1V62.1z"/>
					</g>
					<g class="st34">
						<path class="st37" d="M21.1,77.7h3.4v1.4h-5.1v-1.4l0.9-0.9c1-1.1,1.6-1.8,1.9-2c0.3-0.3,0.5-0.6,0.6-0.8s0.2-0.5,0.2-0.7
							c0-0.4-0.1-0.6-0.3-0.8c-0.2-0.2-0.5-0.3-0.9-0.3c-0.3,0-0.6,0.1-1,0.2c-0.4,0.1-0.7,0.3-1.1,0.5v-1.5
							c0.4-0.1,0.8-0.2,1.1-0.3c0.4-0.1,0.7-0.1,1.1-0.1c0.8,0,1.5,0.2,2,0.6c0.5,0.4,0.7,0.9,0.7,1.6c0,0.3-0.1,0.6-0.2,0.9
							c-0.1,0.3-0.3,0.6-0.5,0.9c-0.2,0.2-0.7,0.8-1.6,1.6C21.8,77.1,21.4,77.4,21.1,77.7z"/>
					</g>
					<g class="st34">
						<path class="st37" d="M21.7,91.1h-0.8v-1.4h0.8c0.4,0,0.7-0.1,0.9-0.2c0.2-0.2,0.3-0.4,0.3-0.7c0-0.3-0.1-0.5-0.3-0.7
							c-0.2-0.2-0.5-0.2-0.9-0.2c-0.3,0-0.6,0-1,0.1c-0.3,0.1-0.7,0.2-1.1,0.3v-1.4c0.4-0.1,0.7-0.2,1.1-0.3c0.4-0.1,0.7-0.1,1-0.1
							c0.8,0,1.5,0.2,2,0.6c0.5,0.4,0.7,0.9,0.7,1.5c0,0.5-0.1,0.9-0.4,1.2s-0.7,0.5-1.2,0.6c0.6,0.1,1,0.3,1.3,0.7s0.5,0.8,0.5,1.4
							c0,0.8-0.2,1.4-0.7,1.8s-1.2,0.6-2.2,0.6c-0.4,0-0.8,0-1.2-0.1c-0.4-0.1-0.8-0.2-1.1-0.3V93c0.3,0.2,0.7,0.3,1.1,0.4
							s0.8,0.1,1.2,0.1s0.8-0.1,1-0.3c0.3-0.2,0.4-0.5,0.4-0.8c0-0.4-0.1-0.7-0.4-1S22.2,91.1,21.7,91.1z"/>
					</g>
					<g class="st34">
						<path class="st37" d="M22.4,102.3H24v4.9h0.9v1.4H24v1.7h-1.5v-1.7h-3.2v-1.5L22.4,102.3z M22.5,104.1l-2,3.2h2V104.1z"/>
					</g>
					<g class="st34">
						<path class="st37" d="M19.8,117.9h4.4v1.4h-3.1v1.5c0.1,0,0.3-0.1,0.4-0.1s0.3,0,0.5,0c0.8,0,1.4,0.2,1.9,0.8
							c0.5,0.5,0.7,1.2,0.7,2c0,0.8-0.3,1.5-0.8,2c-0.5,0.5-1.3,0.7-2.2,0.7c-0.3,0-0.7,0-1-0.1c-0.4-0.1-0.7-0.1-1.1-0.3v-1.4
							c0.3,0.1,0.6,0.3,0.9,0.3c0.3,0.1,0.6,0.1,0.9,0.1c0.6,0,1-0.1,1.3-0.4s0.4-0.6,0.4-1c0-0.4-0.1-0.8-0.4-1
							c-0.3-0.3-0.7-0.4-1.2-0.4c-0.3,0-0.6,0-0.9,0.1c-0.3,0.1-0.6,0.2-0.9,0.3V117.9z"/>
					</g>
					<g class="st34">
						<path class="st37" d="M24.3,133.7v1.4c-0.3-0.2-0.6-0.3-0.8-0.4c-0.3-0.1-0.5-0.1-0.7-0.1c-0.6,0-1,0.2-1.3,0.6
							c-0.3,0.4-0.5,1-0.5,1.7c0.2-0.2,0.4-0.4,0.6-0.5s0.6-0.2,0.9-0.2c0.7,0,1.3,0.2,1.7,0.7c0.4,0.5,0.6,1.1,0.6,1.9
							c0,0.9-0.2,1.6-0.7,2.1c-0.4,0.5-1.1,0.7-1.9,0.7c-1,0-1.7-0.3-2.1-1c-0.4-0.7-0.7-1.7-0.7-3.2c0-1.4,0.3-2.4,0.8-3.1
							c0.5-0.7,1.4-1,2.4-1c0.3,0,0.5,0,0.8,0.1C23.8,133.5,24.1,133.6,24.3,133.7z M22.2,137.5c-0.3,0-0.6,0.1-0.8,0.4
							c-0.2,0.2-0.3,0.6-0.3,1.1c0,0.5,0.1,0.8,0.3,1.1c0.2,0.2,0.4,0.4,0.8,0.4s0.6-0.1,0.8-0.4c0.2-0.2,0.3-0.6,0.3-1.1
							c0-0.5-0.1-0.8-0.3-1.1C22.9,137.7,22.6,137.5,22.2,137.5z"/>
					</g>
					<g class="st34">
						<path class="st37" d="M19.5,149.1h5.1v1.1l-2.7,6.9h-1.6l2.6-6.6h-3.3V149.1z"/>
					</g>
					<g>
						<g class="st34">
							<path class="st37" d="M20.9,168.5c-0.4-0.1-0.7-0.4-0.9-0.7s-0.3-0.7-0.3-1.1c0-0.7,0.2-1.2,0.6-1.6s1-0.6,1.8-0.6
								c0.7,0,1.3,0.2,1.8,0.6s0.6,0.9,0.6,1.6c0,0.4-0.1,0.8-0.3,1.1s-0.5,0.5-0.9,0.7c0.4,0.1,0.8,0.4,1,0.7
								c0.3,0.4,0.4,0.8,0.4,1.3c0,0.8-0.2,1.4-0.7,1.8s-1.1,0.6-1.9,0.6c-0.8,0-1.5-0.2-1.9-0.6s-0.7-1-0.7-1.8
								c0-0.5,0.1-0.9,0.4-1.3S20.5,168.7,20.9,168.5z M22.1,169.2c-0.4,0-0.6,0.1-0.9,0.3s-0.3,0.5-0.3,0.9s0.1,0.7,0.3,0.9
								s0.5,0.3,0.9,0.3s0.6-0.1,0.9-0.3c0.2-0.2,0.3-0.5,0.3-0.9c0-0.4-0.1-0.7-0.3-0.9S22.5,169.2,22.1,169.2z M21.1,166.9
								c0,0.3,0.1,0.6,0.3,0.7c0.2,0.2,0.4,0.3,0.7,0.3c0.3,0,0.6-0.1,0.7-0.3c0.2-0.2,0.3-0.4,0.3-0.7c0-0.3-0.1-0.6-0.3-0.7
								c-0.2-0.2-0.4-0.3-0.7-0.3c-0.3,0-0.6,0.1-0.7,0.3C21.2,166.3,21.1,166.6,21.1,166.9z"/>
						</g>
					</g>
					<g>
						<g class="st34">
							<path class="st37" d="M19.9,188.3v-1.4c0.3,0.2,0.6,0.3,0.8,0.4c0.3,0.1,0.5,0.1,0.7,0.1c0.6,0,1-0.2,1.3-0.6
								c0.3-0.4,0.5-1,0.5-1.7c-0.2,0.2-0.4,0.4-0.6,0.5s-0.6,0.2-0.9,0.2c-0.7,0-1.3-0.2-1.7-0.7c-0.4-0.5-0.6-1.1-0.6-1.9
								c0-0.9,0.2-1.6,0.7-2.1s1.1-0.7,1.9-0.7c1,0,1.7,0.3,2.1,1c0.4,0.7,0.7,1.7,0.7,3.2c0,1.4-0.3,2.4-0.8,3.1
								c-0.5,0.7-1.4,1-2.4,1c-0.3,0-0.5,0-0.8-0.1C20.4,188.5,20.2,188.4,19.9,188.3z M22,184.4c0.3,0,0.6-0.1,0.8-0.4
								c0.2-0.2,0.3-0.6,0.3-1.1c0-0.5-0.1-0.8-0.3-1.1c-0.2-0.2-0.4-0.4-0.8-0.4c-0.3,0-0.6,0.1-0.8,0.4c-0.2,0.2-0.3,0.6-0.3,1.1
								s0.1,0.8,0.3,1.1C21.4,184.3,21.6,184.4,22,184.4z"/>
						</g>
					</g>
					<g>
						<g class="st34">
							<path class="st37" d="M13.2,202.6H15v-5.2l-1.6,0.4v-1.4L15,196h1.5v6.6h1.8v1.4h-5.1V202.6z"/>
							<path class="st37" d="M19.5,200c0-1.4,0.2-2.4,0.7-3.1c0.4-0.7,1.1-1,2-1c0.9,0,1.6,0.3,2,1c0.4,0.7,0.7,1.7,0.7,3.1
								c0,1.4-0.2,2.4-0.7,3.1s-1.1,1-2,1c-0.9,0-1.5-0.3-2-1C19.7,202.4,19.5,201.4,19.5,200z M22.1,197.2c-0.4,0-0.6,0.2-0.8,0.7
								c-0.2,0.4-0.3,1.2-0.3,2.1c0,0.3,0,0.6,0,0.8l1.8-2.9c0,0,0,0,0,0C22.7,197.4,22.5,197.2,22.1,197.2z M21.3,202.1
								c0.2,0.4,0.4,0.7,0.8,0.7c0.4,0,0.6-0.2,0.8-0.7s0.3-1.2,0.3-2.1c0-0.4,0-0.7,0-1l-1.9,3C21.3,202,21.3,202.1,21.3,202.1z"/>
						</g>
					</g>
					<g>
						<g class="st34">
							<path class="st37" d="M13.2,218.2H15V213l-1.6,0.4V212l1.7-0.4h1.5v6.6h1.8v1.4h-5.1V218.2z"/>
							<path class="st37" d="M19.8,218.2h1.8V213l-1.6,0.4V212l1.7-0.4h1.5v6.6h1.8v1.4h-5.1V218.2z"/>
						</g>
					</g>
					<g class="st34">
						<path class="st38" d="M40.8,57.5h3.1v4.8h2v1.2h-5.5v-1.2h2v-3.6h-1.5V57.5z M42.3,54.6h1.6v1.8h-1.6V54.6z"/>
						<path class="st38" d="M49.9,58.1c0.1-0.3,0.3-0.4,0.5-0.6c0.2-0.1,0.4-0.2,0.7-0.2c0.5,0,0.9,0.2,1.1,0.5
							c0.2,0.4,0.3,1.1,0.3,2.2v3.4h-1.3v-3.9c0-0.4,0-0.7-0.1-0.9s-0.2-0.2-0.4-0.2s-0.3,0.1-0.4,0.2c-0.1,0.2-0.1,0.5-0.1,0.9v3.9
							h-1.3v-3.9c0-0.4,0-0.7-0.1-0.9c-0.1-0.2-0.2-0.2-0.4-0.2s-0.3,0.1-0.4,0.2S48,59.2,48,59.6v3.9h-1.3v-6h1.1v0.6
							c0.1-0.2,0.2-0.4,0.4-0.6s0.4-0.2,0.7-0.2s0.5,0.1,0.7,0.2C49.8,57.7,49.9,57.9,49.9,58.1z"/>
						<path class="st38" d="M55.2,62.7v3.1h-1.6v-8.3h1.6v0.9c0.2-0.3,0.4-0.6,0.6-0.8s0.6-0.3,0.9-0.3c0.7,0,1.2,0.3,1.6,0.8
							c0.4,0.6,0.6,1.3,0.6,2.3c0,1-0.2,1.8-0.6,2.3c-0.4,0.5-0.9,0.8-1.6,0.8c-0.3,0-0.6-0.1-0.9-0.2C55.6,63.2,55.4,63,55.2,62.7z
							 M57.4,60.5c0-0.6-0.1-1-0.3-1.4c-0.2-0.3-0.5-0.5-0.8-0.5s-0.6,0.2-0.8,0.5c-0.2,0.3-0.3,0.8-0.3,1.4s0.1,1,0.3,1.4
							c0.2,0.3,0.5,0.5,0.8,0.5s0.6-0.2,0.8-0.5C57.3,61.5,57.4,61.1,57.4,60.5z"/>
						<path class="st38" d="M60,60.5c0-1,0.3-1.7,0.8-2.3c0.5-0.6,1.2-0.9,2-0.9c0.9,0,1.5,0.3,2,0.9c0.5,0.6,0.8,1.3,0.8,2.3
							c0,1-0.3,1.7-0.8,2.3c-0.5,0.6-1.2,0.9-2,0.9c-0.8,0-1.5-0.3-2-0.9C60.3,62.2,60,61.5,60,60.5z M62.8,58.6
							c-0.4,0-0.7,0.2-0.9,0.5s-0.3,0.8-0.3,1.4c0,0.6,0.1,1.1,0.3,1.4s0.5,0.5,0.9,0.5c0.4,0,0.7-0.2,0.9-0.5s0.3-0.8,0.3-1.4
							c0-0.6-0.1-1.1-0.3-1.4S63.2,58.6,62.8,58.6z"/>
						<path class="st38" d="M72.3,59.2c-0.2-0.2-0.4-0.3-0.6-0.4c-0.2-0.1-0.5-0.1-0.8-0.1c-0.3,0-0.6,0.1-0.9,0.2
							c-0.2,0.1-0.4,0.3-0.6,0.5c-0.1,0.1-0.1,0.3-0.2,0.5c0,0.2-0.1,0.5-0.1,0.9v2.8h-1.6v-6h1.6v0.9c0.2-0.3,0.4-0.6,0.7-0.8
							c0.3-0.2,0.7-0.3,1.1-0.3c0.2,0,0.4,0,0.6,0.1c0.2,0.1,0.4,0.1,0.6,0.2V59.2z"/>
						<path class="st38" d="M76.4,55.8v1.7h2.1v1.2h-2.1v2.8c0,0.3,0.1,0.5,0.2,0.6c0.1,0.1,0.3,0.2,0.7,0.2h1.2v1.2h-1.3
							c-0.9,0-1.5-0.1-1.8-0.4s-0.5-0.8-0.5-1.6v-2.8h-1.5v-1.2h1.5v-1.7H76.4z"/>
					</g>
					<g class="st34">
						<path class="st39" d="M90,55.5v3h-1.4v-3H90z"/>
						<path class="st39" d="M96.3,55.8v1.7h2.1v1.2h-2.1v2.8c0,0.3,0.1,0.5,0.2,0.6c0.1,0.1,0.3,0.2,0.7,0.2h1.2v1.2h-1.3
							c-0.9,0-1.5-0.1-1.8-0.4s-0.5-0.8-0.5-1.6v-2.8h-1.5v-1.2h1.5v-1.7H96.3z"/>
						<path class="st39" d="M99.8,60.5c0-1,0.3-1.7,0.8-2.3c0.5-0.6,1.2-0.9,2-0.9c0.9,0,1.5,0.3,2,0.9c0.5,0.6,0.8,1.3,0.8,2.3
							c0,1-0.3,1.7-0.8,2.3c-0.5,0.6-1.2,0.9-2,0.9c-0.8,0-1.5-0.3-2-0.9C100,62.2,99.8,61.5,99.8,60.5z M102.6,58.6
							c-0.4,0-0.7,0.2-0.9,0.5s-0.3,0.8-0.3,1.4c0,0.6,0.1,1.1,0.3,1.4s0.5,0.5,0.9,0.5c0.4,0,0.7-0.2,0.9-0.5s0.3-0.8,0.3-1.4
							c0-0.6-0.1-1.1-0.3-1.4S102.9,58.6,102.6,58.6z"/>
						<path class="st39" d="M106.8,55.2h1.6v4.4l1.9-2h1.9l-2.3,2.2l2.4,3.8h-1.7l-1.6-2.8l-0.5,0.5v2.3h-1.6V55.2z"/>
						<path class="st39" d="M118.4,63.2c-0.4,0.2-0.7,0.3-1.1,0.3s-0.8,0.1-1.2,0.1c-1,0-1.8-0.3-2.3-0.8c-0.5-0.5-0.8-1.3-0.8-2.3
							c0-1,0.3-1.8,0.8-2.3s1.2-0.9,2.1-0.9c0.9,0,1.6,0.3,2.1,0.8c0.5,0.5,0.7,1.3,0.7,2.2V61h-4.1c0,0.5,0.1,0.8,0.4,1.1
							s0.7,0.3,1.2,0.3c0.4,0,0.7-0.1,1.1-0.2s0.7-0.3,1.1-0.5V63.2z M117.1,59.8c0-0.4-0.1-0.7-0.3-0.9c-0.2-0.2-0.5-0.3-0.9-0.3
							c-0.4,0-0.6,0.1-0.9,0.3c-0.2,0.2-0.3,0.5-0.4,0.9L117.1,59.8z"/>
						<path class="st39" d="M124.9,59.6v3.9h-1.6v-3.7c0-0.4-0.1-0.7-0.2-0.9c-0.1-0.2-0.3-0.3-0.6-0.3c-0.3,0-0.5,0.1-0.7,0.4
							c-0.2,0.3-0.2,0.6-0.2,1.1v3.4H120v-6h1.6v0.9c0.1-0.3,0.3-0.6,0.6-0.8s0.6-0.3,1-0.3c0.6,0,1,0.2,1.3,0.6
							S124.9,58.9,124.9,59.6z"/>
						<path class="st39" d="M130.6,55.5h1.2l-4.2,9h-1.2L130.6,55.5z"/>
						<path class="st39" d="M136.5,63.5h-1.6v-6.6h-2v-1.4h5.7v1.4h-2V63.5z"/>
						<path class="st39" d="M139.5,60.5c0-1,0.3-1.7,0.8-2.3c0.5-0.6,1.2-0.9,2-0.9c0.9,0,1.5,0.3,2,0.9c0.5,0.6,0.8,1.3,0.8,2.3
							c0,1-0.3,1.7-0.8,2.3c-0.5,0.6-1.2,0.9-2,0.9c-0.8,0-1.5-0.3-2-0.9C139.8,62.2,139.5,61.5,139.5,60.5z M142.3,58.6
							c-0.4,0-0.7,0.2-0.9,0.5s-0.3,0.8-0.3,1.4c0,0.6,0.1,1.1,0.3,1.4s0.5,0.5,0.9,0.5c0.4,0,0.7-0.2,0.9-0.5s0.3-0.8,0.3-1.4
							c0-0.6-0.1-1.1-0.3-1.4S142.7,58.6,142.3,58.6z"/>
						<path class="st39" d="M146.5,55.2h1.6v4.4l1.9-2h1.9l-2.3,2.2l2.4,3.8h-1.7l-1.6-2.8l-0.5,0.5v2.3h-1.6V55.2z"/>
						<path class="st39" d="M158.2,63.2c-0.4,0.2-0.7,0.3-1.1,0.3c-0.4,0.1-0.8,0.1-1.2,0.1c-1,0-1.8-0.3-2.3-0.8
							c-0.5-0.5-0.8-1.3-0.8-2.3c0-1,0.3-1.8,0.8-2.3s1.2-0.9,2.1-0.9c0.9,0,1.6,0.3,2.1,0.8s0.7,1.3,0.7,2.2V61h-4.1
							c0,0.5,0.1,0.8,0.4,1.1s0.7,0.3,1.2,0.3c0.4,0,0.7-0.1,1.1-0.2c0.4-0.1,0.7-0.3,1.1-0.5V63.2z M156.8,59.8
							c0-0.4-0.1-0.7-0.3-0.9c-0.2-0.2-0.5-0.3-0.9-0.3c-0.4,0-0.6,0.1-0.9,0.3c-0.2,0.2-0.3,0.5-0.4,0.9L156.8,59.8z"/>
						<path class="st39" d="M164.6,59.6v3.9H163v-3.7c0-0.4-0.1-0.7-0.2-0.9c-0.1-0.2-0.3-0.3-0.6-0.3c-0.3,0-0.5,0.1-0.7,0.4
							s-0.2,0.6-0.2,1.1v3.4h-1.6v-6h1.6v0.9c0.1-0.3,0.3-0.6,0.6-0.8s0.6-0.3,1-0.3c0.6,0,1,0.2,1.3,0.6S164.6,58.9,164.6,59.6z"/>
						<path class="st39" d="M171.4,63.5h-5v-8h5v1.4H168v1.7h3.1V60H168v2.1h3.4V63.5z"/>
						<path class="st39" d="M175.8,58.1c0.1-0.3,0.3-0.4,0.5-0.6c0.2-0.1,0.4-0.2,0.7-0.2c0.5,0,0.9,0.2,1.1,0.5
							c0.2,0.4,0.3,1.1,0.3,2.2v3.4H177v-3.9c0-0.4,0-0.7-0.1-0.9c-0.1-0.2-0.2-0.2-0.4-0.2c-0.2,0-0.3,0.1-0.4,0.2
							c-0.1,0.2-0.1,0.5-0.1,0.9v3.9h-1.3v-3.9c0-0.4,0-0.7-0.1-0.9c-0.1-0.2-0.2-0.2-0.4-0.2c-0.2,0-0.3,0.1-0.4,0.2
							c-0.1,0.2-0.1,0.4-0.1,0.9v3.9h-1.3v-6h1.1v0.6c0.1-0.2,0.2-0.4,0.4-0.6c0.2-0.1,0.4-0.2,0.7-0.2c0.2,0,0.5,0.1,0.7,0.2
							C175.6,57.7,175.8,57.9,175.8,58.1z"/>
						<path class="st39" d="M179.9,57.5h3.1v4.8h2v1.2h-5.5v-1.2h2v-3.6h-1.5V57.5z M181.5,54.6h1.6v1.8h-1.6V54.6z"/>
						<path class="st39" d="M190.7,57.7v1.4c-0.3-0.2-0.6-0.3-0.9-0.4s-0.6-0.1-0.9-0.1c-0.4,0-0.6,0.1-0.8,0.2
							c-0.2,0.1-0.3,0.3-0.3,0.5c0,0.3,0.4,0.5,1.1,0.7l0.1,0l0.5,0.1c0.6,0.1,1,0.4,1.3,0.7s0.4,0.7,0.4,1.2c0,0.6-0.2,1.1-0.6,1.4
							c-0.4,0.3-1,0.5-1.8,0.5c-0.4,0-0.7,0-1.1-0.1c-0.4-0.1-0.8-0.2-1.2-0.3v-1.4c0.3,0.2,0.7,0.3,1.1,0.5c0.4,0.1,0.7,0.2,1,0.2
							c0.4,0,0.6-0.1,0.8-0.2c0.2-0.1,0.3-0.3,0.3-0.5c0-0.2-0.1-0.4-0.2-0.5c-0.1-0.1-0.5-0.2-1-0.3L188,61c-0.6-0.1-1-0.3-1.3-0.6
							c-0.3-0.3-0.4-0.7-0.4-1.2c0-0.6,0.2-1,0.6-1.4s1-0.5,1.8-0.5c0.3,0,0.7,0,1,0.1C190,57.5,190.3,57.6,190.7,57.7z"/>
						<path class="st39" d="M197.3,57.7v1.4c-0.3-0.2-0.6-0.3-0.9-0.4c-0.3-0.1-0.6-0.1-0.9-0.1c-0.4,0-0.6,0.1-0.8,0.2
							c-0.2,0.1-0.3,0.3-0.3,0.5c0,0.3,0.4,0.5,1.1,0.7l0.1,0l0.5,0.1c0.6,0.1,1,0.4,1.3,0.7c0.3,0.3,0.4,0.7,0.4,1.2
							c0,0.6-0.2,1.1-0.6,1.4s-1,0.5-1.8,0.5c-0.4,0-0.7,0-1.1-0.1c-0.4-0.1-0.8-0.2-1.2-0.3v-1.4c0.3,0.2,0.7,0.3,1.1,0.5
							c0.4,0.1,0.7,0.2,1,0.2c0.4,0,0.6-0.1,0.8-0.2c0.2-0.1,0.3-0.3,0.3-0.5c0-0.2-0.1-0.4-0.2-0.5c-0.1-0.1-0.5-0.2-1-0.3
							l-0.4-0.1c-0.6-0.1-1-0.3-1.3-0.6c-0.3-0.3-0.4-0.7-0.4-1.2c0-0.6,0.2-1,0.6-1.4s1-0.5,1.8-0.5c0.3,0,0.7,0,1,0.1
							C196.6,57.5,197,57.6,197.3,57.7z"/>
						<path class="st39" d="M199.8,57.5h3.1v4.8h2v1.2h-5.5v-1.2h2v-3.6h-1.5V57.5z M201.3,54.6h1.6v1.8h-1.6V54.6z"/>
						<path class="st39" d="M205.7,60.5c0-1,0.3-1.7,0.8-2.3c0.5-0.6,1.2-0.9,2-0.9c0.9,0,1.5,0.3,2,0.9c0.5,0.6,0.8,1.3,0.8,2.3
							c0,1-0.3,1.7-0.8,2.3c-0.5,0.6-1.2,0.9-2,0.9c-0.8,0-1.5-0.3-2-0.9C206,62.2,205.7,61.5,205.7,60.5z M208.5,58.6
							c-0.4,0-0.7,0.2-0.9,0.5s-0.3,0.8-0.3,1.4c0,0.6,0.1,1.1,0.3,1.4s0.5,0.5,0.9,0.5c0.4,0,0.7-0.2,0.9-0.5s0.3-0.8,0.3-1.4
							c0-0.6-0.1-1.1-0.3-1.4S208.9,58.6,208.5,58.6z"/>
						<path class="st39" d="M217.6,59.6v3.9H216v-3.7c0-0.4-0.1-0.7-0.2-0.9c-0.1-0.2-0.3-0.3-0.6-0.3c-0.3,0-0.5,0.1-0.7,0.4
							s-0.2,0.6-0.2,1.1v3.4h-1.6v-6h1.6v0.9c0.1-0.3,0.3-0.6,0.6-0.8s0.6-0.3,1-0.3c0.6,0,1,0.2,1.3,0.6S217.6,58.9,217.6,59.6z"/>
						<path class="st39" d="M220.9,61.5h1.8v2h-1.8V61.5z"/>
						<path class="st39" d="M230.4,57.7v1.4c-0.3-0.2-0.6-0.3-0.9-0.4s-0.6-0.1-0.9-0.1c-0.4,0-0.6,0.1-0.8,0.2
							c-0.2,0.1-0.3,0.3-0.3,0.5c0,0.3,0.4,0.5,1.1,0.7l0.1,0l0.5,0.1c0.6,0.1,1,0.4,1.3,0.7s0.4,0.7,0.4,1.2c0,0.6-0.2,1.1-0.6,1.4
							c-0.4,0.3-1,0.5-1.8,0.5c-0.4,0-0.7,0-1.1-0.1c-0.4-0.1-0.8-0.2-1.2-0.3v-1.4c0.3,0.2,0.7,0.3,1.1,0.5c0.4,0.1,0.7,0.2,1,0.2
							c0.4,0,0.6-0.1,0.8-0.2c0.2-0.1,0.3-0.3,0.3-0.5c0-0.2-0.1-0.4-0.2-0.5c-0.1-0.1-0.5-0.2-1-0.3l-0.4-0.1
							c-0.6-0.1-1-0.3-1.3-0.6c-0.3-0.3-0.4-0.7-0.4-1.2c0-0.6,0.2-1,0.6-1.4s1-0.5,1.8-0.5c0.3,0,0.7,0,1,0.1
							C229.8,57.5,230.1,57.6,230.4,57.7z"/>
						<path class="st39" d="M232.2,60.5c0-1,0.3-1.7,0.8-2.3c0.5-0.6,1.2-0.9,2-0.9c0.9,0,1.5,0.3,2,0.9c0.5,0.6,0.8,1.3,0.8,2.3
							c0,1-0.3,1.7-0.8,2.3c-0.5,0.6-1.2,0.9-2,0.9c-0.8,0-1.5-0.3-2-0.9C232.5,62.2,232.2,61.5,232.2,60.5z M235,58.6
							c-0.4,0-0.7,0.2-0.9,0.5s-0.3,0.8-0.3,1.4c0,0.6,0.1,1.1,0.3,1.4s0.5,0.5,0.9,0.5c0.4,0,0.7-0.2,0.9-0.5s0.3-0.8,0.3-1.4
							c0-0.6-0.1-1.1-0.3-1.4S235.4,58.6,235,58.6z"/>
						<path class="st39" d="M240.4,61v-4.6h-1.6v-1.2h3.2V61c0,0.5,0.1,0.8,0.2,1c0.1,0.2,0.4,0.3,0.7,0.3h1.3v1.2h-1.7
							c-0.7,0-1.3-0.2-1.6-0.6C240.6,62.5,240.4,61.9,240.4,61z"/>
						<path class="st39" d="M248.9,55.5v3h-1.4v-3H248.9z"/>
					</g>
					<g class="st34">
						<path class="st40" d="M253.9,61.5h1.8V63l-1.1,2.1h-1.2l0.4-2.1V61.5z M253.9,57.8h1.8v2h-1.8V57.8z"/>
					</g>
					<g class="st34">
						<path class="st38" d="M40.8,73.1h3.1v4.8h2v1.2h-5.5v-1.2h2v-3.6h-1.5V73.1z M42.3,70.2h1.6V72h-1.6V70.2z"/>
						<path class="st38" d="M49.9,73.7c0.1-0.3,0.3-0.4,0.5-0.6c0.2-0.1,0.4-0.2,0.7-0.2c0.5,0,0.9,0.2,1.1,0.5
							c0.2,0.4,0.3,1.1,0.3,2.2v3.4h-1.3v-3.9c0-0.4,0-0.7-0.1-0.9s-0.2-0.2-0.4-0.2s-0.3,0.1-0.4,0.2c-0.1,0.2-0.1,0.5-0.1,0.9v3.9
							h-1.3v-3.9c0-0.4,0-0.7-0.1-0.9c-0.1-0.2-0.2-0.2-0.4-0.2s-0.3,0.1-0.4,0.2S48,74.8,48,75.3v3.9h-1.3v-6h1.1v0.6
							c0.1-0.2,0.2-0.4,0.4-0.6s0.4-0.2,0.7-0.2s0.5,0.1,0.7,0.2C49.8,73.3,49.9,73.5,49.9,73.7z"/>
						<path class="st38" d="M55.2,78.3v3.1h-1.6v-8.3h1.6V74c0.2-0.3,0.4-0.6,0.6-0.8s0.6-0.3,0.9-0.3c0.7,0,1.2,0.3,1.6,0.8
							c0.4,0.6,0.6,1.3,0.6,2.3c0,1-0.2,1.8-0.6,2.3c-0.4,0.5-0.9,0.8-1.6,0.8c-0.3,0-0.6-0.1-0.9-0.2
							C55.6,78.9,55.4,78.6,55.2,78.3z M57.4,76.1c0-0.6-0.1-1-0.3-1.4c-0.2-0.3-0.5-0.5-0.8-0.5s-0.6,0.2-0.8,0.5
							c-0.2,0.3-0.3,0.8-0.3,1.4s0.1,1,0.3,1.4c0.2,0.3,0.5,0.5,0.8,0.5s0.6-0.2,0.8-0.5C57.3,77.1,57.4,76.7,57.4,76.1z"/>
						<path class="st38" d="M60,76.1c0-1,0.3-1.7,0.8-2.3c0.5-0.6,1.2-0.9,2-0.9c0.9,0,1.5,0.3,2,0.9c0.5,0.6,0.8,1.3,0.8,2.3
							c0,1-0.3,1.7-0.8,2.3c-0.5,0.6-1.2,0.9-2,0.9c-0.8,0-1.5-0.3-2-0.9C60.3,77.9,60,77.1,60,76.1z M62.8,74.2
							c-0.4,0-0.7,0.2-0.9,0.5s-0.3,0.8-0.3,1.4c0,0.6,0.1,1.1,0.3,1.4s0.5,0.5,0.9,0.5c0.4,0,0.7-0.2,0.9-0.5s0.3-0.8,0.3-1.4
							c0-0.6-0.1-1.1-0.3-1.4S63.2,74.2,62.8,74.2z"/>
						<path class="st38" d="M72.3,74.8c-0.2-0.2-0.4-0.3-0.6-0.4c-0.2-0.1-0.5-0.1-0.8-0.1c-0.3,0-0.6,0.1-0.9,0.2
							c-0.2,0.1-0.4,0.3-0.6,0.5c-0.1,0.1-0.1,0.3-0.2,0.5c0,0.2-0.1,0.5-0.1,0.9v2.8h-1.6v-6h1.6V74c0.2-0.3,0.4-0.6,0.7-0.8
							c0.3-0.2,0.7-0.3,1.1-0.3c0.2,0,0.4,0,0.6,0.1c0.2,0.1,0.4,0.1,0.6,0.2V74.8z"/>
						<path class="st38" d="M76.4,71.4v1.7h2.1v1.2h-2.1v2.8c0,0.3,0.1,0.5,0.2,0.6c0.1,0.1,0.3,0.2,0.7,0.2h1.2v1.2h-1.3
							c-0.9,0-1.5-0.1-1.8-0.4s-0.5-0.8-0.5-1.6v-2.8h-1.5v-1.2h1.5v-1.7H76.4z"/>
					</g>
					<g class="st34">
						<path class="st39" d="M90,71.1v3h-1.4v-3H90z"/>
						<path class="st39" d="M95,77.1h1.8v2H95V77.1z"/>
						<path class="st39" d="M104.1,71.1h1.2l-4.2,9h-1.2L104.1,71.1z"/>
						<path class="st39" d="M106.8,72.5v-1.4h4.8v1.4H110v5.2h1.6v1.4h-4.8v-1.4h1.6v-5.2H106.8z"/>
						<path class="st39" d="M118.3,75.2v3.9h-1.6v-3.7c0-0.4-0.1-0.7-0.2-0.9c-0.1-0.2-0.3-0.3-0.6-0.3c-0.3,0-0.5,0.1-0.7,0.4
							c-0.2,0.3-0.2,0.6-0.2,1.1v3.4h-1.6v-6h1.6V74c0.1-0.3,0.3-0.6,0.6-0.8s0.6-0.3,1-0.3c0.6,0,1,0.2,1.3,0.6
							S118.3,74.5,118.3,75.2z"/>
						<path class="st39" d="M124.4,73.3v1.4c-0.3-0.2-0.6-0.3-0.9-0.4c-0.3-0.1-0.6-0.1-0.9-0.1c-0.4,0-0.6,0.1-0.8,0.2
							c-0.2,0.1-0.3,0.3-0.3,0.5c0,0.3,0.4,0.5,1.1,0.7l0.1,0l0.5,0.1c0.6,0.1,1,0.4,1.3,0.7c0.3,0.3,0.4,0.7,0.4,1.2
							c0,0.6-0.2,1.1-0.6,1.4c-0.4,0.3-1,0.5-1.8,0.5c-0.4,0-0.7,0-1.1-0.1s-0.8-0.2-1.2-0.3v-1.4c0.3,0.2,0.7,0.3,1.1,0.5
							c0.4,0.1,0.7,0.2,1,0.2c0.4,0,0.6-0.1,0.8-0.2s0.3-0.3,0.3-0.5c0-0.2-0.1-0.4-0.2-0.5c-0.1-0.1-0.5-0.2-1-0.3l-0.4-0.1
							c-0.6-0.1-1-0.3-1.3-0.6s-0.4-0.7-0.4-1.2c0-0.6,0.2-1,0.6-1.4s1-0.5,1.8-0.5c0.3,0,0.7,0,1,0.1
							C123.8,73.1,124.1,73.2,124.4,73.3z"/>
						<path class="st39" d="M126.6,77v-3.9h1.6v3.7c0,0.4,0.1,0.7,0.2,0.9c0.1,0.2,0.3,0.3,0.6,0.3s0.5-0.1,0.7-0.4
							c0.2-0.2,0.2-0.6,0.2-1.1v-3.5h1.6v6h-1.6v-0.9c-0.1,0.3-0.3,0.6-0.6,0.8c-0.3,0.2-0.6,0.3-1,0.3c-0.6,0-1-0.2-1.3-0.6
							C126.7,78.3,126.6,77.8,126.6,77z"/>
						<path class="st39" d="M138.5,74.8c-0.2-0.2-0.4-0.3-0.6-0.4c-0.2-0.1-0.5-0.1-0.8-0.1c-0.3,0-0.6,0.1-0.9,0.2
							c-0.2,0.1-0.4,0.3-0.6,0.5c-0.1,0.1-0.1,0.3-0.2,0.5c0,0.2-0.1,0.5-0.1,0.9v2.8h-1.6v-6h1.6V74c0.2-0.3,0.4-0.6,0.7-0.8
							c0.3-0.2,0.7-0.3,1.1-0.3c0.2,0,0.4,0,0.6,0.1c0.2,0.1,0.4,0.1,0.6,0.2V74.8z"/>
						<path class="st39" d="M144.9,75.7v3.4h-1.6v-0.7c-0.2,0.3-0.4,0.5-0.7,0.6c-0.3,0.1-0.6,0.2-1,0.2c-0.7,0-1.2-0.2-1.6-0.5
							c-0.4-0.4-0.6-0.9-0.6-1.5c0-0.7,0.2-1.2,0.7-1.6s1.2-0.5,2.1-0.5h1.1v-0.3c0-0.3-0.1-0.4-0.3-0.6c-0.2-0.1-0.5-0.2-0.8-0.2
							c-0.4,0-0.7,0-1.1,0.1c-0.4,0.1-0.7,0.2-1.1,0.5v-1.3c0.3-0.1,0.7-0.2,1.1-0.3s0.7-0.1,1.1-0.1c1,0,1.7,0.2,2.1,0.6
							C144.7,73.9,144.9,74.7,144.9,75.7z M142.7,76.3c-0.6,0-1,0.1-1.2,0.2s-0.3,0.4-0.3,0.8c0,0.3,0.1,0.5,0.2,0.7
							c0.2,0.2,0.4,0.2,0.7,0.2c0.4,0,0.7-0.2,1-0.5s0.3-0.8,0.3-1.3v-0.1H142.7z"/>
						<path class="st39" d="M151.4,75.2v3.9h-1.6v-3.7c0-0.4-0.1-0.7-0.2-0.9c-0.1-0.2-0.3-0.3-0.6-0.3c-0.3,0-0.5,0.1-0.7,0.4
							c-0.2,0.3-0.2,0.6-0.2,1.1v3.4h-1.6v-6h1.6V74c0.1-0.3,0.3-0.6,0.6-0.8s0.6-0.3,1-0.3c0.6,0,1,0.2,1.3,0.6
							S151.4,74.5,151.4,75.2z"/>
						<path class="st39" d="M157.9,78.8c-0.3,0.2-0.5,0.3-0.9,0.3c-0.3,0.1-0.6,0.1-1,0.1c-0.9,0-1.7-0.3-2.2-0.8s-0.8-1.3-0.8-2.3
							c0-1,0.3-1.8,0.8-2.3s1.3-0.8,2.2-0.8c0.3,0,0.6,0,0.9,0.1s0.6,0.2,0.9,0.3v1.4c-0.2-0.2-0.5-0.3-0.8-0.5
							c-0.3-0.1-0.6-0.2-0.9-0.2c-0.5,0-0.9,0.2-1.2,0.5s-0.4,0.8-0.4,1.4s0.1,1.1,0.4,1.4s0.7,0.5,1.2,0.5c0.3,0,0.6-0.1,0.9-0.2
							c0.3-0.1,0.5-0.3,0.8-0.5V78.8z"/>
						<path class="st39" d="M164.8,78.8c-0.4,0.2-0.7,0.3-1.1,0.3c-0.4,0.1-0.8,0.1-1.2,0.1c-1,0-1.8-0.3-2.3-0.8
							c-0.5-0.5-0.8-1.3-0.8-2.3c0-1,0.3-1.8,0.8-2.3c0.5-0.6,1.2-0.9,2.1-0.9c0.9,0,1.6,0.3,2.1,0.8S165,75,165,76v0.6H161
							c0,0.5,0.1,0.8,0.4,1.1c0.3,0.2,0.7,0.3,1.2,0.3c0.4,0,0.7-0.1,1.1-0.2c0.4-0.1,0.7-0.3,1.1-0.5V78.8z M163.4,75.4
							c0-0.4-0.1-0.7-0.3-0.9c-0.2-0.2-0.5-0.3-0.9-0.3c-0.4,0-0.6,0.1-0.9,0.3c-0.2,0.2-0.3,0.5-0.4,0.9L163.4,75.4z"/>
						<path class="st39" d="M166.2,71.1h1.6v3.1h2v-3.1h1.6v8h-1.6v-3.6h-2v3.6h-1.6V71.1z"/>
						<path class="st39" d="M172.6,76.1c0-1,0.3-1.7,0.8-2.3c0.5-0.6,1.2-0.9,2-0.9c0.9,0,1.5,0.3,2,0.9c0.5,0.6,0.8,1.3,0.8,2.3
							c0,1-0.3,1.7-0.8,2.3c-0.5,0.6-1.2,0.9-2,0.9c-0.8,0-1.5-0.3-2-0.9C172.9,77.9,172.6,77.1,172.6,76.1z M175.4,74.2
							c-0.4,0-0.7,0.2-0.9,0.5s-0.3,0.8-0.3,1.4c0,0.6,0.1,1.1,0.3,1.4s0.5,0.5,0.9,0.5c0.4,0,0.7-0.2,0.9-0.5s0.3-0.8,0.3-1.4
							c0-0.6-0.1-1.1-0.3-1.4S175.8,74.2,175.4,74.2z"/>
						<path class="st39" d="M180.8,76.6V72h-1.6v-1.2h3.2v5.8c0,0.5,0.1,0.8,0.2,1c0.1,0.2,0.4,0.3,0.7,0.3h1.3v1.2h-1.7
							c-0.7,0-1.3-0.2-1.6-0.6C181,78.1,180.8,77.5,180.8,76.6z"/>
						<path class="st39" d="M189.6,74v-3.2h1.6v8.4h-1.6v-0.9c-0.2,0.3-0.4,0.6-0.7,0.8s-0.6,0.3-0.9,0.3c-0.7,0-1.2-0.3-1.6-0.8
							c-0.4-0.6-0.6-1.3-0.6-2.3c0-1,0.2-1.8,0.6-2.3c0.4-0.5,0.9-0.8,1.6-0.8c0.3,0,0.6,0.1,0.9,0.2
							C189.2,73.4,189.4,73.6,189.6,74z M187.4,76.1c0,0.6,0.1,1,0.3,1.4c0.2,0.3,0.5,0.5,0.8,0.5c0.3,0,0.6-0.2,0.8-0.5
							c0.2-0.3,0.3-0.8,0.3-1.4s-0.1-1-0.3-1.4c-0.2-0.3-0.5-0.5-0.8-0.5c-0.3,0-0.6,0.2-0.8,0.5C187.5,75.1,187.4,75.5,187.4,76.1z
							"/>
						<path class="st39" d="M197.9,78.8c-0.4,0.2-0.7,0.3-1.1,0.3c-0.4,0.1-0.8,0.1-1.2,0.1c-1,0-1.8-0.3-2.3-0.8
							c-0.5-0.5-0.8-1.3-0.8-2.3c0-1,0.3-1.8,0.8-2.3c0.5-0.6,1.2-0.9,2.1-0.9c0.9,0,1.6,0.3,2.1,0.8c0.5,0.5,0.7,1.3,0.7,2.2v0.6
							h-4.1c0,0.5,0.1,0.8,0.4,1.1c0.3,0.2,0.7,0.3,1.2,0.3c0.4,0,0.7-0.1,1.1-0.2c0.4-0.1,0.7-0.3,1.1-0.5V78.8z M196.6,75.4
							c0-0.4-0.1-0.7-0.3-0.9s-0.5-0.3-0.9-0.3c-0.4,0-0.7,0.1-0.9,0.3c-0.2,0.2-0.3,0.5-0.4,0.9L196.6,75.4z"/>
						<path class="st39" d="M204.8,74.8c-0.2-0.2-0.4-0.3-0.6-0.4c-0.2-0.1-0.5-0.1-0.8-0.1c-0.3,0-0.6,0.1-0.9,0.2
							c-0.2,0.1-0.4,0.3-0.6,0.5c-0.1,0.1-0.1,0.3-0.2,0.5s-0.1,0.5-0.1,0.9v2.8h-1.6v-6h1.6V74c0.2-0.3,0.4-0.6,0.7-0.8
							c0.3-0.2,0.7-0.3,1.1-0.3c0.2,0,0.4,0,0.6,0.1s0.4,0.1,0.6,0.2V74.8z"/>
						<path class="st39" d="M207.6,77.1h1.8v2h-1.8V77.1z"/>
						<path class="st39" d="M217.2,73.3v1.4c-0.3-0.2-0.6-0.3-0.9-0.4c-0.3-0.1-0.6-0.1-0.9-0.1c-0.4,0-0.6,0.1-0.8,0.2
							c-0.2,0.1-0.3,0.3-0.3,0.5c0,0.3,0.4,0.5,1.1,0.7l0.1,0l0.5,0.1c0.6,0.1,1,0.4,1.3,0.7c0.3,0.3,0.4,0.7,0.4,1.2
							c0,0.6-0.2,1.1-0.6,1.4s-1,0.5-1.8,0.5c-0.4,0-0.7,0-1.1-0.1c-0.4-0.1-0.8-0.2-1.2-0.3v-1.4c0.3,0.2,0.7,0.3,1.1,0.5
							c0.4,0.1,0.7,0.2,1,0.2c0.4,0,0.6-0.1,0.8-0.2c0.2-0.1,0.3-0.3,0.3-0.5c0-0.2-0.1-0.4-0.2-0.5c-0.1-0.1-0.5-0.2-1-0.3
							l-0.4-0.1c-0.6-0.1-1-0.3-1.3-0.6c-0.3-0.3-0.4-0.7-0.4-1.2c0-0.6,0.2-1,0.6-1.4s1-0.5,1.8-0.5c0.3,0,0.7,0,1,0.1
							C216.5,73.1,216.8,73.2,217.2,73.3z"/>
						<path class="st39" d="M219,76.1c0-1,0.3-1.7,0.8-2.3s1.2-0.9,2-0.9c0.9,0,1.5,0.3,2,0.9s0.8,1.3,0.8,2.3c0,1-0.3,1.7-0.8,2.3
							s-1.2,0.9-2,0.9c-0.8,0-1.5-0.3-2-0.9S219,77.1,219,76.1z M221.8,74.2c-0.4,0-0.7,0.2-0.9,0.5s-0.3,0.8-0.3,1.4
							c0,0.6,0.1,1.1,0.3,1.4s0.5,0.5,0.9,0.5c0.4,0,0.7-0.2,0.9-0.5s0.3-0.8,0.3-1.4c0-0.6-0.1-1.1-0.3-1.4S222.1,74.2,221.8,74.2z
							"/>
						<path class="st39" d="M227.2,76.6V72h-1.6v-1.2h3.2v5.8c0,0.5,0.1,0.8,0.2,1c0.1,0.2,0.4,0.3,0.7,0.3h1.3v1.2h-1.7
							c-0.7,0-1.3-0.2-1.6-0.6C227.3,78.1,227.2,77.5,227.2,76.6z"/>
						<path class="st39" d="M235.7,71.1v3h-1.4v-3H235.7z"/>
					</g>
					<g class="st34">
						<path class="st40" d="M240.7,77.1h1.8v1.5l-1.1,2.1h-1.2l0.4-2.1V77.1z M240.7,73.4h1.8v2h-1.8V73.4z"/>
					</g>
					<g class="st34">
						<path class="st38" d="M40.8,88.7h3.1v4.8h2v1.2h-5.5v-1.2h2v-3.6h-1.5V88.7z M42.3,85.8h1.6v1.8h-1.6V85.8z"/>
						<path class="st38" d="M49.9,89.3c0.1-0.3,0.3-0.4,0.5-0.6c0.2-0.1,0.4-0.2,0.7-0.2c0.5,0,0.9,0.2,1.1,0.5
							c0.2,0.4,0.3,1.1,0.3,2.2v3.4h-1.3v-3.9c0-0.4,0-0.7-0.1-0.9s-0.2-0.2-0.4-0.2s-0.3,0.1-0.4,0.2c-0.1,0.2-0.1,0.5-0.1,0.9v3.9
							h-1.3v-3.9c0-0.4,0-0.7-0.1-0.9c-0.1-0.2-0.2-0.2-0.4-0.2s-0.3,0.1-0.4,0.2S48,90.4,48,90.9v3.9h-1.3v-6h1.1v0.6
							c0.1-0.2,0.2-0.4,0.4-0.6s0.4-0.2,0.7-0.2s0.5,0.1,0.7,0.2C49.8,88.9,49.9,89.1,49.9,89.3z"/>
						<path class="st38" d="M55.2,93.9V97h-1.6v-8.3h1.6v0.9c0.2-0.3,0.4-0.6,0.6-0.8s0.6-0.3,0.9-0.3c0.7,0,1.2,0.3,1.6,0.8
							c0.4,0.6,0.6,1.3,0.6,2.3c0,1-0.2,1.8-0.6,2.3c-0.4,0.5-0.9,0.8-1.6,0.8c-0.3,0-0.6-0.1-0.9-0.2
							C55.6,94.5,55.4,94.2,55.2,93.9z M57.4,91.7c0-0.6-0.1-1-0.3-1.4c-0.2-0.3-0.5-0.5-0.8-0.5s-0.6,0.2-0.8,0.5
							c-0.2,0.3-0.3,0.8-0.3,1.4s0.1,1,0.3,1.4c0.2,0.3,0.5,0.5,0.8,0.5s0.6-0.2,0.8-0.5C57.3,92.7,57.4,92.3,57.4,91.7z"/>
						<path class="st38" d="M60,91.7c0-1,0.3-1.7,0.8-2.3c0.5-0.6,1.2-0.9,2-0.9c0.9,0,1.5,0.3,2,0.9c0.5,0.6,0.8,1.3,0.8,2.3
							c0,1-0.3,1.7-0.8,2.3c-0.5,0.6-1.2,0.9-2,0.9c-0.8,0-1.5-0.3-2-0.9C60.3,93.5,60,92.7,60,91.7z M62.8,89.8
							c-0.4,0-0.7,0.2-0.9,0.5s-0.3,0.8-0.3,1.4c0,0.6,0.1,1.1,0.3,1.4s0.5,0.5,0.9,0.5c0.4,0,0.7-0.2,0.9-0.5s0.3-0.8,0.3-1.4
							c0-0.6-0.1-1.1-0.3-1.4S63.2,89.8,62.8,89.8z"/>
						<path class="st38" d="M72.3,90.4c-0.2-0.2-0.4-0.3-0.6-0.4c-0.2-0.1-0.5-0.1-0.8-0.1c-0.3,0-0.6,0.1-0.9,0.2
							c-0.2,0.1-0.4,0.3-0.6,0.5c-0.1,0.1-0.1,0.3-0.2,0.5c0,0.2-0.1,0.5-0.1,0.9v2.8h-1.6v-6h1.6v0.9c0.2-0.3,0.4-0.6,0.7-0.8
							c0.3-0.2,0.7-0.3,1.1-0.3c0.2,0,0.4,0,0.6,0.1c0.2,0.1,0.4,0.1,0.6,0.2V90.4z"/>
						<path class="st38" d="M76.4,87v1.7h2.1v1.2h-2.1v2.8c0,0.3,0.1,0.5,0.2,0.6c0.1,0.1,0.3,0.2,0.7,0.2h1.2v1.2h-1.3
							c-0.9,0-1.5-0.1-1.8-0.4s-0.5-0.8-0.5-1.6v-2.8h-1.5v-1.2h1.5V87H76.4z"/>
					</g>
					<g class="st34">
						<path class="st39" d="M90,86.7v3h-1.4v-3H90z"/>
						<path class="st39" d="M95,92.8h1.8v2H95V92.8z"/>
						<path class="st39" d="M104.1,86.7h1.2l-4.2,9h-1.2L104.1,86.7z"/>
						<path class="st39" d="M106.4,90.7c0-1.4,0.2-2.4,0.7-3.1c0.5-0.7,1.2-1.1,2.1-1.1c0.9,0,1.6,0.4,2.1,1.1
							c0.5,0.7,0.7,1.7,0.7,3.1c0,1.4-0.2,2.4-0.7,3.1c-0.5,0.7-1.2,1.1-2.1,1.1c-0.9,0-1.6-0.4-2.1-1.1
							C106.6,93.1,106.4,92.1,106.4,90.7z M109.2,88c-0.4,0-0.7,0.2-0.9,0.6s-0.3,1.1-0.3,2.1c0,1,0.1,1.7,0.3,2.1s0.5,0.6,0.9,0.6
							c0.4,0,0.7-0.2,0.9-0.6s0.3-1.1,0.3-2.1c0-1-0.1-1.7-0.3-2.1S109.6,88,109.2,88z"/>
						<path class="st39" d="M114.9,93.9V97h-1.6v-8.3h1.6v0.9c0.2-0.3,0.4-0.6,0.6-0.8s0.6-0.3,0.9-0.3c0.7,0,1.2,0.3,1.6,0.8
							c0.4,0.6,0.6,1.3,0.6,2.3c0,1-0.2,1.8-0.6,2.3c-0.4,0.5-0.9,0.8-1.6,0.8c-0.3,0-0.6-0.1-0.9-0.2
							C115.3,94.5,115.1,94.2,114.9,93.9z M117.1,91.7c0-0.6-0.1-1-0.3-1.4c-0.2-0.3-0.5-0.5-0.8-0.5s-0.6,0.2-0.8,0.5
							c-0.2,0.3-0.3,0.8-0.3,1.4s0.1,1,0.3,1.4c0.2,0.3,0.5,0.5,0.8,0.5s0.6-0.2,0.8-0.5C117,92.7,117.1,92.3,117.1,91.7z"/>
						<path class="st39" d="M125,94.4c-0.4,0.2-0.7,0.3-1.1,0.3s-0.8,0.1-1.2,0.1c-1,0-1.8-0.3-2.3-0.8c-0.5-0.5-0.8-1.3-0.8-2.3
							c0-1,0.3-1.8,0.8-2.3s1.2-0.9,2.1-0.9c0.9,0,1.6,0.3,2.1,0.8c0.5,0.5,0.7,1.3,0.7,2.2v0.6h-4.1c0,0.5,0.1,0.8,0.4,1.1
							s0.7,0.3,1.2,0.3c0.4,0,0.7-0.1,1.1-0.2s0.7-0.3,1.1-0.5V94.4z M123.7,91c0-0.4-0.1-0.7-0.3-0.9c-0.2-0.2-0.5-0.3-0.9-0.3
							c-0.4,0-0.6,0.1-0.9,0.3c-0.2,0.2-0.3,0.5-0.4,0.9L123.7,91z"/>
						<path class="st39" d="M131.9,90.4c-0.2-0.2-0.4-0.3-0.6-0.4c-0.2-0.1-0.5-0.1-0.8-0.1c-0.3,0-0.6,0.1-0.9,0.2
							c-0.2,0.1-0.4,0.3-0.6,0.5c-0.1,0.1-0.1,0.3-0.2,0.5c0,0.2-0.1,0.5-0.1,0.9v2.8h-1.6v-6h1.6v0.9c0.2-0.3,0.4-0.6,0.7-0.8
							c0.3-0.2,0.7-0.3,1.1-0.3c0.2,0,0.4,0,0.6,0.1c0.2,0.1,0.4,0.1,0.6,0.2V90.4z"/>
						<path class="st39" d="M138.3,91.3v3.4h-1.6v-0.7c-0.2,0.3-0.4,0.5-0.7,0.6c-0.3,0.1-0.6,0.2-1,0.2c-0.7,0-1.2-0.2-1.6-0.5
							c-0.4-0.4-0.6-0.9-0.6-1.5c0-0.7,0.2-1.2,0.7-1.6s1.2-0.5,2.1-0.5h1.1v-0.3c0-0.3-0.1-0.4-0.3-0.6c-0.2-0.1-0.5-0.2-0.8-0.2
							c-0.4,0-0.7,0-1.1,0.1c-0.4,0.1-0.7,0.2-1.1,0.5V89c0.3-0.1,0.7-0.2,1.1-0.3s0.7-0.1,1.1-0.1c1,0,1.7,0.2,2.1,0.6
							C138.1,89.6,138.3,90.3,138.3,91.3z M136.1,91.9c-0.6,0-1,0.1-1.2,0.2s-0.3,0.4-0.3,0.8c0,0.3,0.1,0.5,0.2,0.7
							c0.2,0.2,0.4,0.2,0.7,0.2c0.4,0,0.7-0.2,1-0.5s0.3-0.8,0.3-1.3v-0.1H136.1z"/>
						<path class="st39" d="M142.7,87v1.7h2.1v1.2h-2.1v2.8c0,0.3,0.1,0.5,0.2,0.6c0.1,0.1,0.3,0.2,0.7,0.2h1.2v1.2h-1.3
							c-0.9,0-1.5-0.1-1.8-0.4s-0.5-0.8-0.5-1.6v-2.8h-1.5v-1.2h1.5V87H142.7z"/>
						<path class="st39" d="M151.5,94.4c-0.4,0.2-0.7,0.3-1.1,0.3s-0.8,0.1-1.2,0.1c-1,0-1.8-0.3-2.3-0.8c-0.5-0.5-0.8-1.3-0.8-2.3
							c0-1,0.3-1.8,0.8-2.3s1.2-0.9,2.1-0.9c0.9,0,1.6,0.3,2.1,0.8c0.5,0.5,0.7,1.3,0.7,2.2v0.6h-4.1c0,0.5,0.1,0.8,0.4,1.1
							s0.7,0.3,1.2,0.3c0.4,0,0.7-0.1,1.1-0.2s0.7-0.3,1.1-0.5V94.4z M150.2,91c0-0.4-0.1-0.7-0.3-0.9c-0.2-0.2-0.5-0.3-0.9-0.3
							c-0.4,0-0.6,0.1-0.9,0.3c-0.2,0.2-0.3,0.5-0.4,0.9L150.2,91z"/>
						<path class="st39" d="M156.5,89.6v-3.2h1.6v8.4h-1.6v-0.9c-0.2,0.3-0.4,0.6-0.7,0.8c-0.3,0.2-0.6,0.3-0.9,0.3
							c-0.7,0-1.2-0.3-1.6-0.8c-0.4-0.6-0.6-1.3-0.6-2.3c0-1,0.2-1.8,0.6-2.3c0.4-0.5,0.9-0.8,1.6-0.8c0.3,0,0.6,0.1,0.9,0.2
							C156.1,89,156.3,89.2,156.5,89.6z M154.3,91.7c0,0.6,0.1,1,0.3,1.4c0.2,0.3,0.5,0.5,0.8,0.5s0.6-0.2,0.8-0.5
							c0.2-0.3,0.3-0.8,0.3-1.4s-0.1-1-0.3-1.4c-0.2-0.3-0.5-0.5-0.8-0.5s-0.6,0.2-0.8,0.5C154.4,90.7,154.3,91.2,154.3,91.7z"/>
						<path class="st39" d="M161.3,92.8h1.8v2h-1.8V92.8z"/>
						<path class="st39" d="M170.8,88.9v1.4c-0.3-0.2-0.6-0.3-0.9-0.4s-0.6-0.1-0.9-0.1c-0.4,0-0.6,0.1-0.8,0.2
							c-0.2,0.1-0.3,0.3-0.3,0.5c0,0.3,0.4,0.5,1.1,0.7l0.1,0l0.5,0.1c0.6,0.1,1,0.4,1.3,0.7s0.4,0.7,0.4,1.2c0,0.6-0.2,1.1-0.6,1.4
							c-0.4,0.3-1,0.5-1.8,0.5c-0.4,0-0.7,0-1.1-0.1c-0.4-0.1-0.8-0.2-1.2-0.3v-1.4c0.3,0.2,0.7,0.3,1.1,0.5c0.4,0.1,0.7,0.2,1,0.2
							c0.4,0,0.6-0.1,0.8-0.2c0.2-0.1,0.3-0.3,0.3-0.5c0-0.2-0.1-0.4-0.2-0.5c-0.1-0.1-0.5-0.2-1-0.3l-0.4-0.1
							c-0.6-0.1-1-0.3-1.3-0.6c-0.3-0.3-0.4-0.7-0.4-1.2c0-0.6,0.2-1,0.6-1.4s1-0.5,1.8-0.5c0.3,0,0.7,0,1,0.1
							C170.2,88.7,170.5,88.8,170.8,88.9z"/>
						<path class="st39" d="M172.6,91.7c0-1,0.3-1.7,0.8-2.3c0.5-0.6,1.2-0.9,2-0.9c0.9,0,1.5,0.3,2,0.9c0.5,0.6,0.8,1.3,0.8,2.3
							c0,1-0.3,1.7-0.8,2.3c-0.5,0.6-1.2,0.9-2,0.9c-0.8,0-1.5-0.3-2-0.9C172.9,93.5,172.6,92.7,172.6,91.7z M175.4,89.8
							c-0.4,0-0.7,0.2-0.9,0.5s-0.3,0.8-0.3,1.4c0,0.6,0.1,1.1,0.3,1.4s0.5,0.5,0.9,0.5c0.4,0,0.7-0.2,0.9-0.5s0.3-0.8,0.3-1.4
							c0-0.6-0.1-1.1-0.3-1.4S175.8,89.8,175.4,89.8z"/>
						<path class="st39" d="M180.8,92.2v-4.6h-1.6v-1.2h3.2v5.8c0,0.5,0.1,0.8,0.2,1c0.1,0.2,0.4,0.3,0.7,0.3h1.3v1.2h-1.7
							c-0.7,0-1.3-0.2-1.6-0.6C181,93.8,180.8,93.1,180.8,92.2z"/>
						<path class="st39" d="M189.3,86.7v3H188v-3H189.3z"/>
					</g>
					<g class="st34">
						<path class="st40" d="M194.3,92.8h1.8v1.5l-1.1,2.1h-1.2l0.4-2.1V92.8z M194.3,89h1.8v2h-1.8V89z"/>
					</g>
					<g class="st34">
						<path class="st40" d="M44.8,125.4c-0.2,0.1-0.5,0.2-0.8,0.3c-0.3,0.1-0.6,0.1-0.9,0.1c-0.8,0-1.5-0.3-2-0.8s-0.7-1.2-0.7-2.1
							c0-0.9,0.2-1.6,0.7-2.1c0.5-0.5,1.1-0.8,2-0.8c0.3,0,0.6,0,0.8,0.1s0.5,0.2,0.8,0.3v1.3c-0.2-0.2-0.4-0.3-0.7-0.4
							c-0.2-0.1-0.5-0.1-0.8-0.1c-0.5,0-0.8,0.1-1.1,0.4s-0.4,0.7-0.4,1.3s0.1,1,0.4,1.3s0.6,0.4,1.1,0.4c0.3,0,0.5,0,0.8-0.1
							c0.2-0.1,0.5-0.2,0.7-0.4V125.4z"/>
						<path class="st40" d="M46.1,123c0-0.9,0.2-1.6,0.7-2.1c0.5-0.5,1.1-0.8,1.8-0.8c0.8,0,1.4,0.3,1.8,0.8
							c0.5,0.5,0.7,1.2,0.7,2.1s-0.2,1.6-0.7,2.1c-0.5,0.5-1.1,0.8-1.8,0.8c-0.8,0-1.4-0.3-1.8-0.8C46.3,124.6,46.1,123.9,46.1,123z
							 M48.6,121.3c-0.3,0-0.6,0.2-0.8,0.5c-0.2,0.3-0.3,0.7-0.3,1.3s0.1,1,0.3,1.3c0.2,0.3,0.5,0.5,0.8,0.5c0.3,0,0.6-0.2,0.8-0.5
							c0.2-0.3,0.3-0.7,0.3-1.3s-0.1-1-0.3-1.3C49.3,121.4,49,121.3,48.6,121.3z"/>
						<path class="st40" d="M56.9,122.2v3.5h-1.4v-3.3c0-0.4-0.1-0.7-0.2-0.9c-0.1-0.2-0.3-0.3-0.5-0.3c-0.3,0-0.5,0.1-0.6,0.3
							s-0.2,0.6-0.2,1v3.1h-1.4v-5.5h1.4v0.8c0.1-0.3,0.3-0.5,0.5-0.7s0.5-0.2,0.9-0.2c0.5,0,0.9,0.2,1.2,0.5
							C56.7,121,56.9,121.5,56.9,122.2z"/>
						<path class="st40" d="M61,118.7v1.6h1.9v1.1H61v2.6c0,0.2,0.1,0.4,0.2,0.5c0.1,0.1,0.3,0.2,0.6,0.2h1.1v1.1h-1.2
							c-0.8,0-1.4-0.1-1.7-0.4c-0.3-0.3-0.4-0.7-0.4-1.5v-2.5h-1.4v-1.1h1.4v-1.6H61z"/>
						<path class="st40" d="M69.3,121.7c-0.2-0.1-0.3-0.3-0.5-0.3s-0.4-0.1-0.7-0.1c-0.3,0-0.6,0.1-0.8,0.2
							c-0.2,0.1-0.4,0.3-0.5,0.5c-0.1,0.1-0.1,0.3-0.2,0.4s0,0.4,0,0.8v2.5h-1.4v-5.5h1.4v0.8c0.1-0.3,0.4-0.6,0.6-0.7
							c0.3-0.2,0.6-0.3,1-0.3c0.2,0,0.4,0,0.6,0.1c0.2,0,0.4,0.1,0.5,0.2V121.7z"/>
						<path class="st40" d="M75.1,122.6v3.1h-1.4v-0.6c-0.2,0.2-0.4,0.4-0.7,0.6s-0.6,0.2-0.9,0.2c-0.6,0-1.1-0.2-1.5-0.5
							s-0.5-0.8-0.5-1.4c0-0.6,0.2-1.1,0.6-1.4c0.4-0.3,1.1-0.5,1.9-0.5h1v-0.2c0-0.2-0.1-0.4-0.3-0.5c-0.2-0.1-0.4-0.2-0.7-0.2
							c-0.3,0-0.7,0-1,0.1c-0.3,0.1-0.7,0.2-1,0.4v-1.2c0.3-0.1,0.6-0.2,1-0.3s0.7-0.1,1-0.1c0.9,0,1.5,0.2,1.9,0.5
							S75.1,121.7,75.1,122.6z M73.1,123.1c-0.5,0-0.9,0.1-1.1,0.2s-0.3,0.4-0.3,0.7c0,0.2,0.1,0.4,0.2,0.6s0.3,0.2,0.6,0.2
							c0.4,0,0.7-0.1,0.9-0.4c0.2-0.3,0.3-0.7,0.3-1.2v-0.1H73.1z"/>
						<path class="st40" d="M80.9,125.4c-0.2,0.1-0.5,0.2-0.8,0.3c-0.3,0.1-0.6,0.1-0.9,0.1c-0.8,0-1.5-0.3-2-0.8s-0.7-1.2-0.7-2.1
							c0-0.9,0.2-1.6,0.7-2.1c0.5-0.5,1.1-0.8,2-0.8c0.3,0,0.6,0,0.8,0.1s0.5,0.2,0.8,0.3v1.3c-0.2-0.2-0.4-0.3-0.7-0.4
							c-0.2-0.1-0.5-0.1-0.8-0.1c-0.5,0-0.8,0.1-1.1,0.4S78,122.4,78,123s0.1,1,0.4,1.3s0.6,0.4,1.1,0.4c0.3,0,0.5,0,0.8-0.1
							c0.2-0.1,0.5-0.2,0.7-0.4V125.4z"/>
						<path class="st40" d="M85.1,118.7v1.6H87v1.1h-1.9v2.6c0,0.2,0.1,0.4,0.2,0.5c0.1,0.1,0.3,0.2,0.6,0.2H87v1.1h-1.2
							c-0.8,0-1.4-0.1-1.7-0.4c-0.3-0.3-0.4-0.7-0.4-1.5v-2.5h-1.4v-1.1h1.4v-1.6H85.1z"/>
					</g>
					<g class="st34">
					</g>
					<g class="st34">
						<path class="st41" d="M96.7,118.4h1.8l0.6,7.3h-1.4l-0.1-1.8h-2l-0.8,1.8h-1.5L96.7,118.4z M97.3,119.8l-1.3,3h1.4L97.3,119.8
							z"/>
						<path class="st41" d="M100.4,123.8l0.7-3.6h1.4l-0.6,3.3c0,0.1,0,0.2,0,0.3s0,0.2,0,0.2c0,0.2,0,0.3,0.1,0.4
							c0.1,0.1,0.2,0.2,0.4,0.2c0.3,0,0.5-0.1,0.7-0.3s0.3-0.6,0.4-1l0.6-3.1h1.4l-1.1,5.5H103l0.2-0.8c-0.1,0.3-0.4,0.5-0.6,0.7
							c-0.3,0.2-0.6,0.3-0.9,0.3c-0.4,0-0.7-0.1-1-0.3c-0.2-0.2-0.3-0.6-0.3-1c0-0.1,0-0.2,0-0.3S100.4,124,100.4,123.8z"/>
						<path class="st41" d="M110,121.3l0.6-3.1h1.4l-1.5,7.6h-1.4l0.2-0.8c-0.2,0.3-0.5,0.5-0.7,0.7c-0.3,0.2-0.6,0.2-0.9,0.2
							c-0.5,0-0.9-0.2-1.1-0.5s-0.4-0.8-0.4-1.5c0-0.4,0.1-0.8,0.2-1.3c0.1-0.4,0.2-0.8,0.4-1.2c0.2-0.4,0.5-0.7,0.8-1
							s0.7-0.4,1.1-0.4c0.4,0,0.7,0.1,0.9,0.3C109.8,120.6,110,120.9,110,121.3z M108.9,121.3c-0.4,0-0.7,0.2-0.9,0.7
							c-0.3,0.5-0.4,1-0.4,1.7c0,0.3,0.1,0.6,0.2,0.8s0.3,0.3,0.6,0.3c0.4,0,0.7-0.2,1-0.7c0.3-0.5,0.4-1,0.4-1.6
							c0-0.3-0.1-0.6-0.2-0.8C109.4,121.4,109.2,121.3,108.9,121.3z"/>
						<path class="st41" d="M113.4,120.2h2.8l-0.8,4.4h1.8l-0.2,1.1h-5l0.2-1.1h1.8l0.6-3.3h-1.4L113.4,120.2z M115.3,117.6h1.4
							l-0.3,1.7H115L115.3,117.6z"/>
						<path class="st41" d="M122,118.7l-0.3,1.6h1.9l-0.2,1.1h-1.9l-0.5,2.6c0,0.1,0,0.1,0,0.2s0,0.1,0,0.1c0,0.1,0,0.2,0.1,0.3
							c0.1,0.1,0.3,0.1,0.5,0.1h1.1l-0.2,1.1h-1.2c-0.7,0-1.1-0.1-1.4-0.3c-0.3-0.2-0.4-0.5-0.4-0.9c0-0.1,0-0.2,0-0.3
							s0-0.2,0.1-0.4l0.5-2.5h-1.4l0.2-1.1h1.4l0.3-1.6H122z"/>
						<path class="st41" d="M124.3,123.6c0-1,0.3-1.9,0.8-2.6c0.5-0.7,1.2-1,2.1-1c0.7,0,1.2,0.2,1.6,0.6c0.4,0.4,0.6,0.9,0.6,1.6
							c0,1.1-0.3,1.9-0.8,2.6s-1.2,1-2.1,1c-0.7,0-1.2-0.2-1.6-0.6C124.5,124.9,124.3,124.3,124.3,123.6z M128.1,122.4
							c0-0.4-0.1-0.6-0.2-0.8s-0.4-0.3-0.6-0.3c-0.4,0-0.7,0.2-1,0.7s-0.4,1-0.4,1.7c0,0.3,0.1,0.6,0.2,0.8c0.2,0.2,0.4,0.3,0.6,0.3
							c0.4,0,0.7-0.2,1-0.7C127.9,123.6,128.1,123,128.1,122.4z"/>
						<path class="st41" d="M135.7,121.7c-0.2-0.1-0.3-0.2-0.5-0.3c-0.2-0.1-0.4-0.1-0.6-0.1c-0.5,0-1,0.1-1.2,0.4s-0.5,0.8-0.6,1.4
							l-0.5,2.5h-1.4l1.1-5.5h1.4l-0.2,0.8c0.2-0.3,0.5-0.6,0.8-0.7c0.3-0.2,0.7-0.3,1.1-0.3c0.2,0,0.4,0,0.6,0.1s0.3,0.1,0.5,0.2
							L135.7,121.7z"/>
					</g>
					<g class="st34">
						<path class="st38" d="M143,120.2h2.8v4.4h1.8v1.1h-5v-1.1h1.8v-3.3H143V120.2z M144.4,117.6h1.4v1.7h-1.4V117.6z"/>
						<path class="st38" d="M152.8,120.4v1.2c-0.3-0.2-0.5-0.3-0.8-0.4c-0.3-0.1-0.6-0.1-0.9-0.1c-0.3,0-0.6,0-0.7,0.1
							c-0.2,0.1-0.2,0.2-0.2,0.4c0,0.3,0.3,0.5,1,0.6l0.1,0l0.4,0.1c0.5,0.1,0.9,0.3,1.1,0.6c0.2,0.3,0.4,0.6,0.4,1.1
							c0,0.6-0.2,1-0.6,1.3c-0.4,0.3-0.9,0.4-1.7,0.4c-0.3,0-0.7,0-1-0.1c-0.3-0.1-0.7-0.1-1-0.3v-1.2c0.3,0.2,0.6,0.3,1,0.4
							s0.6,0.1,0.9,0.1c0.3,0,0.6,0,0.8-0.1s0.3-0.2,0.3-0.4c0-0.2-0.1-0.3-0.2-0.4s-0.4-0.2-0.9-0.3l-0.4-0.1
							c-0.5-0.1-0.9-0.3-1.2-0.6s-0.4-0.6-0.4-1.1c0-0.5,0.2-0.9,0.6-1.2s0.9-0.4,1.6-0.4c0.3,0,0.6,0,0.9,0.1
							C152.2,120.2,152.5,120.3,152.8,120.4z"/>
					</g>
					<g class="st34">
						<path class="st41" d="M160.3,123.4c0-0.7,0.1-1.3,0.2-2c0.2-0.7,0.4-1.3,0.7-1.8c0.3-0.5,0.6-0.8,1-1.1
							c0.4-0.2,0.9-0.4,1.4-0.4c0.7,0,1.2,0.2,1.6,0.6c0.4,0.4,0.6,1,0.6,1.8c0,0.7-0.1,1.3-0.2,2c-0.2,0.7-0.4,1.3-0.6,1.7
							c-0.3,0.5-0.6,0.8-1,1.1c-0.4,0.2-0.9,0.4-1.4,0.4c-0.7,0-1.2-0.2-1.6-0.6C160.5,124.8,160.3,124.2,160.3,123.4z M164.2,120.7
							c0-0.4-0.1-0.7-0.2-0.9c-0.1-0.2-0.3-0.3-0.6-0.3c-0.2,0-0.4,0.1-0.5,0.2c-0.2,0.1-0.3,0.3-0.4,0.5c-0.1,0.1-0.1,0.3-0.2,0.5
							c-0.1,0.2-0.1,0.5-0.2,0.8c-0.1,0.4-0.2,0.7-0.2,1c0,0.3-0.1,0.6-0.1,0.9c0,0.4,0.1,0.7,0.2,0.9c0.1,0.2,0.3,0.3,0.6,0.3
							c0.2,0,0.4-0.1,0.5-0.2c0.2-0.1,0.3-0.3,0.4-0.5c0.1-0.1,0.1-0.3,0.2-0.5c0.1-0.2,0.1-0.5,0.2-0.7c0.1-0.4,0.2-0.7,0.2-1
							C164.2,121.3,164.2,121,164.2,120.7z"/>
						<path class="st41" d="M167.9,124.7l-0.6,3.1h-1.4l1.5-7.5h1.4l-0.2,0.8c0.2-0.3,0.5-0.6,0.7-0.7c0.3-0.2,0.6-0.2,0.9-0.2
							c0.5,0,0.9,0.2,1.1,0.5c0.3,0.4,0.4,0.8,0.4,1.5c0,0.4,0,0.8-0.2,1.3c-0.1,0.4-0.2,0.8-0.4,1.2c-0.2,0.4-0.5,0.7-0.8,1
							s-0.7,0.4-1.1,0.4c-0.4,0-0.7-0.1-0.9-0.3S167.9,125.1,167.9,124.7z M169,124.7c0.4,0,0.7-0.2,0.9-0.7c0.3-0.5,0.4-1,0.4-1.7
							c0-0.3-0.1-0.6-0.2-0.8c-0.1-0.2-0.3-0.3-0.6-0.3c-0.4,0-0.7,0.2-1,0.7c-0.3,0.5-0.4,1-0.4,1.6c0,0.3,0.1,0.6,0.2,0.8
							C168.5,124.6,168.7,124.7,169,124.7z"/>
						<path class="st41" d="M176.9,125.4c-0.3,0.1-0.6,0.2-1,0.3c-0.3,0.1-0.7,0.1-1,0.1c-0.8,0-1.4-0.2-1.8-0.6
							c-0.4-0.4-0.6-0.9-0.6-1.7c0-0.5,0.1-0.9,0.2-1.3c0.1-0.4,0.3-0.8,0.6-1.1c0.3-0.3,0.6-0.6,1-0.8c0.4-0.2,0.8-0.3,1.2-0.3
							c0.7,0,1.2,0.2,1.6,0.6s0.6,0.9,0.6,1.6c0,0.1,0,0.3,0,0.5c0,0.2-0.1,0.4-0.1,0.7h-3.7c0,0.1,0,0.1,0,0.2s0,0.1,0,0.1
							c0,0.3,0.1,0.6,0.3,0.7c0.2,0.2,0.5,0.2,1,0.2c0.4,0,0.7-0.1,1.1-0.2s0.7-0.2,1-0.4L176.9,125.4z M176.3,122.4
							c0,0,0-0.1,0-0.1c0,0,0-0.1,0-0.1c0-0.3-0.1-0.5-0.2-0.7s-0.4-0.2-0.7-0.2c-0.3,0-0.6,0.1-0.8,0.3c-0.2,0.2-0.4,0.5-0.5,0.9
							H176.3z"/>
						<path class="st41" d="M183.8,121.7c-0.2-0.1-0.3-0.2-0.5-0.3c-0.2-0.1-0.4-0.1-0.6-0.1c-0.5,0-1,0.1-1.2,0.4
							c-0.3,0.3-0.5,0.8-0.6,1.4l-0.5,2.5h-1.4l1.1-5.5h1.4l-0.2,0.8c0.2-0.3,0.5-0.6,0.8-0.7c0.3-0.2,0.7-0.3,1.1-0.3
							c0.2,0,0.4,0,0.6,0.1s0.3,0.1,0.5,0.2L183.8,121.7z"/>
						<path class="st41" d="M189.5,122.6l-0.6,3.1h-1.4l0.1-0.6c-0.2,0.3-0.5,0.4-0.7,0.6c-0.3,0.1-0.6,0.2-1,0.2
							c-0.5,0-0.9-0.1-1.2-0.4c-0.3-0.3-0.4-0.7-0.4-1.2c0-0.7,0.3-1.2,0.8-1.6c0.5-0.4,1.2-0.6,2.2-0.6h0.9l0-0.2c0,0,0,0,0-0.1
							c0,0,0,0,0-0.1c0-0.2-0.1-0.3-0.2-0.4s-0.4-0.1-0.7-0.1c-0.3,0-0.6,0-0.9,0.1c-0.3,0.1-0.7,0.2-1.1,0.4l0.2-1.2
							c0.4-0.1,0.7-0.2,1-0.3c0.3-0.1,0.6-0.1,0.9-0.1c0.7,0,1.2,0.1,1.6,0.4c0.4,0.2,0.5,0.6,0.5,1.1c0,0.1,0,0.3,0,0.4
							C189.6,122.2,189.6,122.4,189.5,122.6z M187.5,123.1c-0.6,0-1,0.1-1.2,0.3c-0.3,0.2-0.4,0.4-0.4,0.8c0,0.2,0.1,0.4,0.2,0.5
							s0.3,0.2,0.5,0.2c0.4,0,0.7-0.2,1-0.5c0.3-0.3,0.4-0.7,0.5-1.3H187.5z"/>
						<path class="st41" d="M194.3,118.7l-0.3,1.6h1.9l-0.2,1.1h-1.9l-0.5,2.6c0,0.1,0,0.1,0,0.2c0,0,0,0.1,0,0.1
							c0,0.1,0,0.2,0.1,0.3c0.1,0.1,0.3,0.1,0.5,0.1h1.1l-0.2,1.1h-1.2c-0.7,0-1.1-0.1-1.4-0.3c-0.3-0.2-0.4-0.5-0.4-0.9
							c0-0.1,0-0.2,0-0.3s0-0.2,0.1-0.4l0.5-2.5h-1.4l0.2-1.1h1.4l0.3-1.6H194.3z"/>
						<path class="st41" d="M201,125.4c-0.3,0.1-0.6,0.2-1,0.3c-0.3,0.1-0.7,0.1-1,0.1c-0.8,0-1.4-0.2-1.8-0.6
							c-0.4-0.4-0.6-0.9-0.6-1.7c0-0.5,0.1-0.9,0.2-1.3c0.1-0.4,0.3-0.8,0.6-1.1c0.3-0.3,0.6-0.6,1-0.8c0.4-0.2,0.8-0.3,1.2-0.3
							c0.7,0,1.2,0.2,1.6,0.6s0.6,0.9,0.6,1.6c0,0.1,0,0.3,0,0.5c0,0.2-0.1,0.4-0.1,0.7h-3.7c0,0.1,0,0.1,0,0.2s0,0.1,0,0.1
							c0,0.3,0.1,0.6,0.3,0.7c0.2,0.2,0.5,0.2,1,0.2c0.4,0,0.7-0.1,1.1-0.2s0.7-0.2,1-0.4L201,125.4z M200.4,122.4c0,0,0-0.1,0-0.1
							c0,0,0-0.1,0-0.1c0-0.3-0.1-0.5-0.2-0.7s-0.4-0.2-0.7-0.2c-0.3,0-0.6,0.1-0.8,0.3c-0.2,0.2-0.4,0.5-0.5,0.9H200.4z"/>
						<path class="st41" d="M206.3,121.3l0.6-3.1h1.4l-1.5,7.6h-1.4l0.2-0.8c-0.2,0.3-0.5,0.5-0.7,0.7c-0.3,0.2-0.6,0.2-0.9,0.2
							c-0.5,0-0.9-0.2-1.1-0.5s-0.4-0.8-0.4-1.5c0-0.4,0.1-0.8,0.2-1.3c0.1-0.4,0.2-0.8,0.4-1.2c0.2-0.4,0.5-0.7,0.8-1
							s0.7-0.4,1.1-0.4c0.4,0,0.7,0.1,0.9,0.3C206.1,120.6,206.3,120.9,206.3,121.3z M205.2,121.3c-0.4,0-0.7,0.2-0.9,0.7
							c-0.3,0.5-0.4,1-0.4,1.7c0,0.3,0.1,0.6,0.2,0.8c0.1,0.2,0.3,0.3,0.6,0.3c0.4,0,0.7-0.2,1-0.7c0.3-0.5,0.4-1,0.4-1.6
							c0-0.3-0.1-0.6-0.2-0.8C205.7,121.4,205.5,121.3,205.2,121.3z"/>
					</g>
					<g class="st34">
					</g>
					<g class="st34">
						<path class="st40" d="M219.3,126.4v0.9h-0.7c-0.8,0-1.4-0.1-1.6-0.4c-0.3-0.2-0.4-0.7-0.4-1.4v-1c0-0.5-0.1-0.8-0.3-1
							c-0.2-0.2-0.5-0.3-0.9-0.3h-0.3v-0.9h0.3c0.5,0,0.8-0.1,0.9-0.3c0.2-0.2,0.3-0.5,0.3-1v-1c0-0.7,0.1-1.2,0.4-1.4
							c0.3-0.2,0.8-0.4,1.6-0.4h0.7v0.9h-0.6c-0.3,0-0.6,0.1-0.7,0.2c-0.1,0.1-0.2,0.4-0.2,0.9v1c0,0.5-0.1,0.9-0.2,1.1
							c-0.2,0.2-0.4,0.4-0.9,0.4c0.4,0.1,0.7,0.2,0.9,0.4c0.2,0.2,0.2,0.6,0.2,1.1v1c0,0.5,0.1,0.8,0.2,0.9c0.1,0.1,0.3,0.2,0.7,0.2
							H219.3z"/>
					</g>
					<g class="st34">
						<path class="st41" d="M68.5,156.9h-1.4v-6h-1.9v-1.3h5.1v1.3h-1.9V156.9z"/>
						<path class="st41" d="M71.3,154.2c0-0.9,0.2-1.6,0.7-2.1c0.5-0.5,1.1-0.8,1.8-0.8c0.8,0,1.4,0.3,1.8,0.8
							c0.5,0.5,0.7,1.2,0.7,2.1s-0.2,1.6-0.7,2.1c-0.5,0.5-1.1,0.8-1.8,0.8c-0.8,0-1.4-0.3-1.8-0.8
							C71.5,155.8,71.3,155.1,71.3,154.2z M73.8,152.5c-0.3,0-0.6,0.2-0.8,0.5c-0.2,0.3-0.3,0.7-0.3,1.3s0.1,1,0.3,1.3
							c0.2,0.3,0.5,0.5,0.8,0.5c0.3,0,0.6-0.2,0.8-0.5c0.2-0.3,0.3-0.7,0.3-1.3s-0.1-1-0.3-1.3C74.4,152.6,74.1,152.5,73.8,152.5z"
							/>
						<path class="st41" d="M77.7,149.3h1.4v4l1.7-1.9h1.7l-2.1,2l2.2,3.4h-1.6l-1.5-2.6l-0.5,0.5v2.1h-1.4V149.3z"/>
						<path class="st41" d="M88.2,156.7c-0.3,0.1-0.7,0.2-1,0.3s-0.7,0.1-1.1,0.1c-0.9,0-1.6-0.2-2.1-0.7c-0.5-0.5-0.7-1.2-0.7-2.1
							c0-0.9,0.2-1.6,0.7-2.1s1.1-0.8,1.9-0.8c0.8,0,1.4,0.2,1.9,0.7c0.4,0.5,0.7,1.2,0.7,2v0.6h-3.7c0,0.4,0.1,0.8,0.4,1
							s0.6,0.3,1.1,0.3c0.3,0,0.7,0,1-0.1s0.7-0.2,1-0.4V156.7z M87,153.6c0-0.4-0.1-0.7-0.3-0.9c-0.2-0.2-0.5-0.3-0.8-0.3
							c-0.3,0-0.6,0.1-0.8,0.3c-0.2,0.2-0.3,0.5-0.3,0.9L87,153.6z"/>
						<path class="st41" d="M94.1,153.4v3.5h-1.4v-3.3c0-0.4-0.1-0.7-0.2-0.9c-0.1-0.2-0.3-0.3-0.5-0.3c-0.3,0-0.5,0.1-0.6,0.3
							s-0.2,0.6-0.2,1v3.1h-1.4v-5.5h1.4v0.8c0.1-0.3,0.3-0.5,0.5-0.7s0.5-0.2,0.9-0.2c0.5,0,0.9,0.2,1.2,0.5
							C93.9,152.2,94.1,152.7,94.1,153.4z"/>
						<path class="st41" d="M100.2,156.9h-4.5v-7.3h4.5v1.3h-3.1v1.6h2.8v1.3h-2.8v1.9h3.1V156.9z"/>
						<path class="st41" d="M104.3,152c0.1-0.2,0.2-0.4,0.4-0.5s0.4-0.2,0.6-0.2c0.5,0,0.8,0.2,1,0.5s0.3,1,0.3,2v3.1h-1.2v-3.5
							c0-0.4,0-0.7-0.1-0.8s-0.2-0.2-0.3-0.2s-0.3,0.1-0.3,0.2s-0.1,0.4-0.1,0.8v3.5h-1.2v-3.5c0-0.4,0-0.7-0.1-0.8
							s-0.2-0.2-0.3-0.2s-0.3,0.1-0.3,0.2s-0.1,0.4-0.1,0.8v3.5h-1.2v-5.5h1v0.6c0.1-0.2,0.2-0.4,0.4-0.5c0.2-0.1,0.4-0.2,0.6-0.2
							s0.4,0.1,0.6,0.2C104.1,151.7,104.2,151.8,104.3,152z"/>
						<path class="st41" d="M108,151.5h2.8v4.4h1.8v1.1h-5v-1.1h1.8v-3.3H108V151.5z M109.4,148.8h1.4v1.7h-1.4V148.8z"/>
						<path class="st41" d="M117.8,151.6v1.2c-0.3-0.2-0.5-0.3-0.8-0.4c-0.3-0.1-0.6-0.1-0.9-0.1c-0.3,0-0.6,0-0.7,0.1
							c-0.2,0.1-0.2,0.2-0.2,0.4c0,0.3,0.3,0.5,1,0.6l0.1,0l0.4,0.1c0.5,0.1,0.9,0.3,1.1,0.6c0.2,0.3,0.4,0.6,0.4,1.1
							c0,0.6-0.2,1-0.6,1.3c-0.4,0.3-0.9,0.4-1.7,0.4c-0.3,0-0.7,0-1-0.1c-0.3-0.1-0.7-0.1-1-0.3v-1.2c0.3,0.2,0.6,0.3,1,0.4
							s0.6,0.1,0.9,0.1c0.3,0,0.6,0,0.8-0.1s0.3-0.2,0.3-0.4c0-0.2-0.1-0.3-0.2-0.4s-0.4-0.2-0.9-0.3l-0.4-0.1
							c-0.5-0.1-0.9-0.3-1.2-0.6s-0.4-0.6-0.4-1.1c0-0.5,0.2-0.9,0.6-1.2s0.9-0.4,1.6-0.4c0.3,0,0.6,0,0.9,0.1
							C117.2,151.5,117.5,151.5,117.8,151.6z"/>
						<path class="st41" d="M123.8,151.6v1.2c-0.3-0.2-0.5-0.3-0.8-0.4c-0.3-0.1-0.6-0.1-0.9-0.1c-0.3,0-0.6,0-0.7,0.1
							c-0.2,0.1-0.2,0.2-0.2,0.4c0,0.3,0.3,0.5,1,0.6l0.1,0l0.4,0.1c0.5,0.1,0.9,0.3,1.1,0.6c0.2,0.3,0.4,0.6,0.4,1.1
							c0,0.6-0.2,1-0.6,1.3c-0.4,0.3-0.9,0.4-1.7,0.4c-0.3,0-0.7,0-1-0.1c-0.3-0.1-0.7-0.1-1-0.3v-1.2c0.3,0.2,0.6,0.3,1,0.4
							s0.6,0.1,0.9,0.1c0.3,0,0.6,0,0.8-0.1s0.3-0.2,0.3-0.4c0-0.2-0.1-0.3-0.2-0.4s-0.4-0.2-0.9-0.3l-0.4-0.1
							c-0.5-0.1-0.9-0.3-1.2-0.6s-0.4-0.6-0.4-1.1c0-0.5,0.2-0.9,0.6-1.2s0.9-0.4,1.6-0.4c0.3,0,0.6,0,0.9,0.1
							C123.2,151.5,123.5,151.5,123.8,151.6z"/>
						<path class="st41" d="M126.1,151.5h2.8v4.4h1.8v1.1h-5v-1.1h1.8v-3.3h-1.4V151.5z M127.5,148.8h1.4v1.7h-1.4V148.8z"/>
						<path class="st41" d="M131.5,154.2c0-0.9,0.2-1.6,0.7-2.1c0.5-0.5,1.1-0.8,1.8-0.8c0.8,0,1.4,0.3,1.8,0.8
							c0.5,0.5,0.7,1.2,0.7,2.1s-0.2,1.6-0.7,2.1c-0.5,0.5-1.1,0.8-1.8,0.8c-0.8,0-1.4-0.3-1.8-0.8
							C131.7,155.8,131.5,155.1,131.5,154.2z M134,152.5c-0.3,0-0.6,0.2-0.8,0.5c-0.2,0.3-0.3,0.7-0.3,1.3s0.1,1,0.3,1.3
							c0.2,0.3,0.5,0.5,0.8,0.5c0.3,0,0.6-0.2,0.8-0.5c0.2-0.3,0.3-0.7,0.3-1.3s-0.1-1-0.3-1.3C134.6,152.6,134.3,152.5,134,152.5z"
							/>
						<path class="st41" d="M142.2,153.4v3.5h-1.4v-3.3c0-0.4-0.1-0.7-0.2-0.9c-0.1-0.2-0.3-0.3-0.5-0.3c-0.3,0-0.5,0.1-0.6,0.3
							s-0.2,0.6-0.2,1v3.1h-1.4v-5.5h1.4v0.8c0.1-0.3,0.3-0.5,0.5-0.7s0.5-0.2,0.9-0.2c0.5,0,0.9,0.2,1.2,0.5
							C142.1,152.2,142.2,152.7,142.2,153.4z"/>
					</g>
					<g class="st34">
					</g>
					<g class="st34">
						<path class="st38" d="M151.2,156.2v2.9h-1.4v-7.5h1.4v0.8c0.1-0.3,0.3-0.6,0.6-0.7s0.5-0.2,0.9-0.2c0.6,0,1.1,0.3,1.5,0.8
							s0.5,1.2,0.5,2.1c0,0.9-0.2,1.6-0.5,2.1s-0.8,0.7-1.5,0.7c-0.3,0-0.6-0.1-0.8-0.2C151.6,156.7,151.4,156.5,151.2,156.2z
							 M153.2,154.2c0-0.5-0.1-0.9-0.3-1.2s-0.4-0.4-0.7-0.4s-0.6,0.1-0.7,0.4s-0.3,0.7-0.3,1.2s0.1,0.9,0.3,1.2s0.4,0.4,0.7,0.4
							s0.6-0.1,0.7-0.4S153.2,154.7,153.2,154.2z"/>
						<path class="st38" d="M155.9,155v-3.6h1.4v3.3c0,0.4,0.1,0.7,0.2,0.8c0.1,0.2,0.3,0.3,0.6,0.3c0.3,0,0.5-0.1,0.6-0.3
							c0.1-0.2,0.2-0.5,0.2-1v-3.1h1.4v5.5h-1.4v-0.8c-0.1,0.3-0.3,0.5-0.5,0.7c-0.2,0.2-0.5,0.2-0.9,0.2c-0.5,0-0.9-0.2-1.2-0.5
							S155.9,155.7,155.9,155z"/>
						<path class="st38" d="M163.3,152.2c0.2-0.3,0.4-0.5,0.6-0.7c0.2-0.2,0.5-0.2,0.8-0.2c0.6,0,1.1,0.2,1.5,0.7
							c0.3,0.5,0.5,1.2,0.5,2.1c0,0.9-0.2,1.6-0.5,2.1c-0.3,0.5-0.8,0.8-1.5,0.8c-0.3,0-0.6-0.1-0.9-0.2s-0.4-0.4-0.6-0.7v0.8h-1.4
							v-7.6h1.4V152.2z M165.3,154.2c0-0.5-0.1-0.9-0.3-1.2s-0.4-0.4-0.7-0.4c-0.3,0-0.6,0.1-0.7,0.4c-0.2,0.3-0.3,0.7-0.3,1.2
							s0.1,0.9,0.3,1.2c0.2,0.3,0.4,0.4,0.7,0.4c0.3,0,0.6-0.1,0.7-0.4S165.3,154.7,165.3,154.2z"/>
						<path class="st38" d="M169,154.6v-4.2h-1.5v-1.1h2.9v5.3c0,0.4,0.1,0.7,0.2,0.9c0.1,0.2,0.4,0.3,0.7,0.3h1.1v1.1h-1.5
							c-0.7,0-1.2-0.2-1.5-0.5C169.2,156,169,155.5,169,154.6z"/>
						<path class="st38" d="M174.2,151.5h2.8v4.4h1.8v1.1h-5v-1.1h1.8v-3.3h-1.4V151.5z M175.6,148.8h1.4v1.7h-1.4V148.8z"/>
						<path class="st38" d="M184.4,156.6c-0.2,0.1-0.5,0.2-0.8,0.3c-0.3,0.1-0.6,0.1-0.9,0.1c-0.8,0-1.5-0.3-2-0.8
							c-0.5-0.5-0.7-1.2-0.7-2.1c0-0.9,0.2-1.6,0.7-2.1c0.5-0.5,1.1-0.8,2-0.8c0.3,0,0.6,0,0.8,0.1c0.3,0.1,0.5,0.2,0.8,0.3v1.3
							c-0.2-0.2-0.4-0.3-0.7-0.4c-0.2-0.1-0.5-0.1-0.8-0.1c-0.5,0-0.8,0.1-1.1,0.4c-0.2,0.3-0.4,0.7-0.4,1.3s0.1,1,0.4,1.3
							c0.3,0.3,0.6,0.4,1.1,0.4c0.3,0,0.5,0,0.8-0.1c0.2-0.1,0.5-0.2,0.7-0.4V156.6z"/>
					</g>
					<g class="st34">
						<path class="st40" d="M194.6,149.9v1.6h1.9v1.1h-1.9v2.6c0,0.2,0.1,0.4,0.2,0.5c0.1,0.1,0.3,0.2,0.6,0.2h1.1v1.1h-1.2
							c-0.8,0-1.4-0.1-1.7-0.4c-0.3-0.3-0.4-0.7-0.4-1.5v-2.5h-1.4v-1.1h1.4v-1.6H194.6z"/>
						<path class="st40" d="M197.7,154.2c0-0.9,0.2-1.6,0.7-2.1c0.5-0.5,1.1-0.8,1.8-0.8c0.8,0,1.4,0.3,1.8,0.8
							c0.5,0.5,0.7,1.2,0.7,2.1s-0.2,1.6-0.7,2.1c-0.5,0.5-1.1,0.8-1.8,0.8c-0.8,0-1.4-0.3-1.8-0.8
							C197.9,155.8,197.7,155.1,197.7,154.2z M200.2,152.5c-0.3,0-0.6,0.2-0.8,0.5c-0.2,0.3-0.3,0.7-0.3,1.3s0.1,1,0.3,1.3
							c0.2,0.3,0.5,0.5,0.8,0.5c0.3,0,0.6-0.2,0.8-0.5c0.2-0.3,0.3-0.7,0.3-1.3s-0.1-1-0.3-1.3C200.8,152.6,200.6,152.5,200.2,152.5
							z"/>
						<path class="st40" d="M204.1,149.3h1.4v4l1.7-1.9h1.7l-2.1,2l2.2,3.4h-1.6l-1.5-2.6l-0.5,0.5v2.1h-1.4V149.3z"/>
						<path class="st40" d="M214.6,156.7c-0.3,0.1-0.7,0.2-1,0.3c-0.3,0.1-0.7,0.1-1.1,0.1c-0.9,0-1.6-0.2-2.1-0.7
							c-0.5-0.5-0.7-1.2-0.7-2.1c0-0.9,0.2-1.6,0.7-2.1c0.5-0.5,1.1-0.8,1.9-0.8c0.8,0,1.4,0.2,1.9,0.7c0.4,0.5,0.7,1.2,0.7,2v0.6
							h-3.7c0,0.4,0.1,0.8,0.4,1c0.2,0.2,0.6,0.3,1.1,0.3c0.3,0,0.7,0,1-0.1c0.3-0.1,0.7-0.2,1-0.4V156.7z M213.4,153.6
							c0-0.4-0.1-0.7-0.3-0.9c-0.2-0.2-0.5-0.3-0.8-0.3c-0.3,0-0.6,0.1-0.8,0.3c-0.2,0.2-0.3,0.5-0.3,0.9L213.4,153.6z"/>
						<path class="st40" d="M220.5,153.4v3.5h-1.4v-3.3c0-0.4-0.1-0.7-0.2-0.9c-0.1-0.2-0.3-0.3-0.5-0.3c-0.3,0-0.5,0.1-0.6,0.3
							c-0.1,0.2-0.2,0.6-0.2,1v3.1h-1.4v-5.5h1.4v0.8c0.1-0.3,0.3-0.5,0.5-0.7s0.5-0.2,0.9-0.2c0.5,0,0.9,0.2,1.2,0.5
							C220.4,152.2,220.5,152.7,220.5,153.4z"/>
						<path class="st40" d="M223.5,155.1h1.6v1.3l-1,1.9h-1l0.4-1.9V155.1z M223.5,151.7h1.6v1.8h-1.6V151.7z"/>
					</g>
					<g class="st34">
						<path class="st41" d="M65.6,201.8v-3.6H67v3.3c0,0.4,0.1,0.7,0.2,0.8s0.3,0.3,0.6,0.3s0.5-0.1,0.6-0.3s0.2-0.5,0.2-1v-3.1H70
							v5.5h-1.4v-0.8c-0.1,0.3-0.3,0.5-0.5,0.7s-0.5,0.2-0.9,0.2c-0.5,0-0.9-0.2-1.2-0.5S65.6,202.5,65.6,201.8z"/>
						<path class="st41" d="M71.9,198.3h2.8v4.4h1.8v1.1h-5v-1.1h1.8v-3.3h-1.4V198.3z M73.3,195.6h1.4v1.7h-1.4V195.6z"/>
						<path class="st41" d="M82,200.2v3.5h-1.4v-3.3c0-0.4-0.1-0.7-0.2-0.9c-0.1-0.2-0.3-0.3-0.5-0.3c-0.3,0-0.5,0.1-0.6,0.3
							s-0.2,0.6-0.2,1v3.1h-1.4v-5.5h1.4v0.8c0.1-0.3,0.3-0.5,0.5-0.7s0.5-0.2,0.9-0.2c0.5,0,0.9,0.2,1.2,0.5
							C81.9,199,82,199.5,82,200.2z"/>
						<path class="st41" d="M86.2,196.7v1.6h1.9v1.1h-1.9v2.6c0,0.2,0.1,0.4,0.2,0.5c0.1,0.1,0.3,0.2,0.6,0.2h1.1v1.1h-1.2
							c-0.8,0-1.4-0.1-1.7-0.4c-0.3-0.3-0.4-0.7-0.4-1.5v-2.5h-1.4v-1.1h1.4v-1.6H86.2z"/>
					</g>
					<g class="st34">
						<path class="st38" d="M97,203v2.9h-1.4v-7.5H97v0.8c0.1-0.3,0.3-0.6,0.6-0.7s0.5-0.2,0.9-0.2c0.6,0,1.1,0.3,1.5,0.8
							s0.5,1.2,0.5,2.1c0,0.9-0.2,1.6-0.5,2.1s-0.8,0.7-1.5,0.7c-0.3,0-0.6-0.1-0.8-0.2C97.4,203.5,97.2,203.3,97,203z M99,201
							c0-0.5-0.1-0.9-0.3-1.2s-0.4-0.4-0.7-0.4s-0.6,0.1-0.7,0.4S97,200.5,97,201s0.1,0.9,0.3,1.2s0.4,0.4,0.7,0.4s0.6-0.1,0.7-0.4
							S99,201.5,99,201z"/>
						<path class="st38" d="M101.7,201.8v-3.6h1.4v3.3c0,0.4,0.1,0.7,0.2,0.8s0.3,0.3,0.6,0.3s0.5-0.1,0.6-0.3s0.2-0.5,0.2-1v-3.1
							h1.4v5.5h-1.4v-0.8c-0.1,0.3-0.3,0.5-0.5,0.7s-0.5,0.2-0.9,0.2c-0.5,0-0.9-0.2-1.2-0.5S101.7,202.5,101.7,201.8z"/>
						<path class="st38" d="M109.1,199.1c0.2-0.3,0.4-0.5,0.6-0.7c0.2-0.2,0.5-0.2,0.8-0.2c0.6,0,1.1,0.2,1.5,0.7s0.5,1.2,0.5,2.1
							c0,0.9-0.2,1.6-0.5,2.1s-0.8,0.8-1.5,0.8c-0.3,0-0.6-0.1-0.9-0.2s-0.4-0.4-0.6-0.7v0.8h-1.4v-7.6h1.4V199.1z M111.1,201
							c0-0.5-0.1-0.9-0.3-1.2s-0.4-0.4-0.7-0.4s-0.6,0.1-0.7,0.4s-0.3,0.7-0.3,1.2s0.1,0.9,0.3,1.2s0.4,0.4,0.7,0.4s0.6-0.1,0.7-0.4
							S111.1,201.6,111.1,201z"/>
						<path class="st38" d="M114.8,201.5v-4.2h-1.5v-1.1h2.9v5.3c0,0.4,0.1,0.7,0.2,0.9s0.4,0.3,0.7,0.3h1.1v1.1h-1.5
							c-0.7,0-1.2-0.2-1.5-0.5S114.8,202.3,114.8,201.5z"/>
						<path class="st38" d="M120,198.3h2.8v4.4h1.8v1.1h-5v-1.1h1.8v-3.3H120V198.3z M121.4,195.6h1.4v1.7h-1.4V195.6z"/>
						<path class="st38" d="M130.2,203.5c-0.2,0.1-0.5,0.2-0.8,0.3c-0.3,0.1-0.6,0.1-0.9,0.1c-0.8,0-1.5-0.3-2-0.8s-0.7-1.2-0.7-2.1
							c0-0.9,0.2-1.6,0.7-2.1c0.5-0.5,1.1-0.8,2-0.8c0.3,0,0.6,0,0.8,0.1s0.5,0.2,0.8,0.3v1.3c-0.2-0.2-0.4-0.3-0.7-0.4
							c-0.2-0.1-0.5-0.1-0.8-0.1c-0.5,0-0.8,0.1-1.1,0.4s-0.4,0.7-0.4,1.3s0.1,1,0.4,1.3s0.6,0.4,1.1,0.4c0.3,0,0.5,0,0.8-0.1
							c0.2-0.1,0.5-0.2,0.7-0.4V203.5z"/>
					</g>
					<g class="st34">
					</g>
					<g class="st34">
						<path class="st40" d="M142.4,203.5c-0.3,0.1-0.7,0.2-1,0.3c-0.3,0.1-0.7,0.1-1.1,0.1c-0.9,0-1.6-0.2-2.1-0.7
							c-0.5-0.5-0.7-1.2-0.7-2.1c0-0.9,0.2-1.6,0.7-2.1c0.5-0.5,1.1-0.8,1.9-0.8c0.8,0,1.4,0.2,1.9,0.7c0.4,0.5,0.7,1.2,0.7,2v0.6
							h-3.7c0,0.4,0.1,0.8,0.4,1c0.2,0.2,0.6,0.3,1.1,0.3c0.3,0,0.7,0,1-0.1c0.3-0.1,0.7-0.2,1-0.4V203.5z M141.1,200.4
							c0-0.4-0.1-0.7-0.3-0.9c-0.2-0.2-0.5-0.3-0.8-0.3c-0.3,0-0.6,0.1-0.8,0.3c-0.2,0.2-0.3,0.5-0.3,0.9L141.1,200.4z"/>
						<path class="st40" d="M146.4,198.8c0.1-0.2,0.2-0.4,0.4-0.5s0.4-0.2,0.6-0.2c0.5,0,0.8,0.2,1,0.5s0.3,1,0.3,2v3.1h-1.2v-3.5
							c0-0.4,0-0.7-0.1-0.8c-0.1-0.1-0.2-0.2-0.3-0.2c-0.2,0-0.3,0.1-0.3,0.2c-0.1,0.1-0.1,0.4-0.1,0.8v3.5h-1.2v-3.5
							c0-0.4,0-0.7-0.1-0.8c-0.1-0.1-0.2-0.2-0.3-0.2c-0.2,0-0.3,0.1-0.3,0.2c-0.1,0.1-0.1,0.4-0.1,0.8v3.5h-1.2v-5.5h1v0.6
							c0.1-0.2,0.2-0.4,0.4-0.5c0.2-0.1,0.4-0.2,0.6-0.2c0.2,0,0.4,0.1,0.6,0.2C146.2,198.5,146.3,198.6,146.4,198.8z"/>
						<path class="st40" d="M150.1,198.3h2.8v4.4h1.8v1.1h-5v-1.1h1.8v-3.3h-1.4V198.3z M151.5,195.6h1.4v1.7h-1.4V195.6z"/>
						<path class="st40" d="M159.9,198.5v1.2c-0.3-0.2-0.5-0.3-0.8-0.4c-0.3-0.1-0.6-0.1-0.9-0.1c-0.3,0-0.6,0-0.7,0.1
							c-0.2,0.1-0.2,0.2-0.2,0.4c0,0.3,0.3,0.5,1,0.6l0.1,0l0.4,0.1c0.5,0.1,0.9,0.3,1.1,0.6c0.2,0.3,0.4,0.6,0.4,1.1
							c0,0.6-0.2,1-0.6,1.3c-0.4,0.3-0.9,0.4-1.7,0.4c-0.3,0-0.7,0-1-0.1c-0.3-0.1-0.7-0.1-1-0.3v-1.2c0.3,0.2,0.6,0.3,1,0.4
							s0.6,0.1,1,0.1c0.3,0,0.6,0,0.8-0.1c0.2-0.1,0.3-0.2,0.3-0.4c0-0.2-0.1-0.3-0.2-0.4s-0.4-0.2-0.9-0.3l-0.4-0.1
							c-0.5-0.1-0.9-0.3-1.2-0.6c-0.3-0.3-0.4-0.6-0.4-1.1c0-0.5,0.2-0.9,0.6-1.2s0.9-0.4,1.6-0.4c0.3,0,0.6,0,0.9,0.1
							C159.3,198.3,159.6,198.4,159.9,198.5z"/>
						<path class="st40" d="M165.9,198.5v1.2c-0.3-0.2-0.5-0.3-0.8-0.4c-0.3-0.1-0.6-0.1-0.9-0.1c-0.3,0-0.6,0-0.7,0.1
							c-0.2,0.1-0.2,0.2-0.2,0.4c0,0.3,0.3,0.5,1,0.6l0.1,0l0.4,0.1c0.5,0.1,0.9,0.3,1.1,0.6c0.2,0.3,0.4,0.6,0.4,1.1
							c0,0.6-0.2,1-0.6,1.3c-0.4,0.3-0.9,0.4-1.7,0.4c-0.3,0-0.7,0-1-0.1c-0.3-0.1-0.7-0.1-1-0.3v-1.2c0.3,0.2,0.6,0.3,1,0.4
							s0.6,0.1,1,0.1c0.3,0,0.6,0,0.8-0.1c0.2-0.1,0.3-0.2,0.3-0.4c0-0.2-0.1-0.3-0.2-0.4s-0.4-0.2-0.9-0.3l-0.4-0.1
							c-0.5-0.1-0.9-0.3-1.2-0.6c-0.3-0.3-0.4-0.6-0.4-1.1c0-0.5,0.2-0.9,0.6-1.2s0.9-0.4,1.6-0.4c0.3,0,0.6,0,0.9,0.1
							C165.3,198.3,165.6,198.4,165.9,198.5z"/>
						<path class="st40" d="M168.2,198.3h2.8v4.4h1.8v1.1h-5v-1.1h1.8v-3.3h-1.4V198.3z M169.6,195.6h1.4v1.7h-1.4V195.6z"/>
						<path class="st40" d="M173.6,201c0-0.9,0.2-1.6,0.7-2.1c0.5-0.5,1.1-0.8,1.8-0.8c0.8,0,1.4,0.3,1.8,0.8
							c0.5,0.5,0.7,1.2,0.7,2.1s-0.2,1.6-0.7,2.1c-0.5,0.5-1.1,0.8-1.8,0.8c-0.8,0-1.4-0.3-1.8-0.8
							C173.8,202.6,173.6,201.9,173.6,201z M176.1,199.3c-0.3,0-0.6,0.2-0.8,0.5c-0.2,0.3-0.3,0.7-0.3,1.3s0.1,1,0.3,1.3
							c0.2,0.3,0.5,0.5,0.8,0.5c0.3,0,0.6-0.2,0.8-0.5c0.2-0.3,0.3-0.7,0.3-1.3s-0.1-1-0.3-1.3C176.7,199.5,176.4,199.3,176.1,199.3
							z"/>
						<path class="st40" d="M184.3,200.2v3.5h-1.4v-3.3c0-0.4-0.1-0.7-0.2-0.9c-0.1-0.2-0.3-0.3-0.5-0.3c-0.3,0-0.5,0.1-0.6,0.3
							c-0.1,0.2-0.2,0.6-0.2,1v3.1H180v-5.5h1.4v0.8c0.1-0.3,0.3-0.5,0.5-0.7s0.5-0.2,0.9-0.2c0.5,0,0.9,0.2,1.2,0.5
							C184.2,199,184.3,199.5,184.3,200.2z"/>
						<path class="st40" d="M188.1,202.6l1.3-6.1h1.5l-1.7,7.3h-2l-1.7-7.3h1.5L188.1,202.6z"/>
						<path class="st40" d="M196.6,200.6v3.1h-1.4v-0.6c-0.2,0.2-0.4,0.4-0.7,0.6c-0.3,0.1-0.6,0.2-0.9,0.2c-0.6,0-1.1-0.2-1.5-0.5
							s-0.5-0.8-0.5-1.4c0-0.6,0.2-1.1,0.6-1.4c0.4-0.3,1.1-0.5,1.9-0.5h1v-0.2c0-0.2-0.1-0.4-0.3-0.5c-0.2-0.1-0.4-0.2-0.7-0.2
							c-0.3,0-0.7,0-1,0.1c-0.3,0.1-0.7,0.2-1,0.4v-1.2c0.3-0.1,0.6-0.2,1-0.3c0.3-0.1,0.7-0.1,1-0.1c0.9,0,1.5,0.2,1.9,0.5
							C196.4,199.1,196.6,199.7,196.6,200.6z M194.6,201.2c-0.5,0-0.9,0.1-1.1,0.2c-0.2,0.1-0.3,0.4-0.3,0.7c0,0.2,0.1,0.4,0.2,0.6
							s0.3,0.2,0.6,0.2c0.4,0,0.7-0.1,0.9-0.4c0.2-0.3,0.3-0.7,0.3-1.2v-0.1H194.6z"/>
						<path class="st40" d="M199.1,201.5v-4.2h-1.5v-1.1h2.9v5.3c0,0.4,0.1,0.7,0.2,0.9c0.1,0.2,0.4,0.3,0.7,0.3h1.1v1.1H201
							c-0.7,0-1.2-0.2-1.5-0.5C199.2,202.9,199.1,202.3,199.1,201.5z"/>
						<path class="st40" d="M204,201.8v-3.6h1.4v3.3c0,0.4,0.1,0.7,0.2,0.8c0.1,0.2,0.3,0.3,0.6,0.3c0.3,0,0.5-0.1,0.6-0.3
							c0.1-0.2,0.2-0.5,0.2-1v-3.1h1.4v5.5h-1.4v-0.8c-0.1,0.3-0.3,0.5-0.5,0.7c-0.2,0.2-0.5,0.2-0.9,0.2c-0.5,0-0.9-0.2-1.2-0.5
							C204.1,203,204,202.5,204,201.8z"/>
						<path class="st40" d="M214.6,203.5c-0.3,0.1-0.7,0.2-1,0.3c-0.3,0.1-0.7,0.1-1.1,0.1c-0.9,0-1.6-0.2-2.1-0.7
							c-0.5-0.5-0.7-1.2-0.7-2.1c0-0.9,0.2-1.6,0.7-2.1c0.5-0.5,1.1-0.8,1.9-0.8c0.8,0,1.4,0.2,1.9,0.7c0.4,0.5,0.7,1.2,0.7,2v0.6
							h-3.7c0,0.4,0.1,0.8,0.4,1c0.2,0.2,0.6,0.3,1.1,0.3c0.3,0,0.7,0,1-0.1c0.3-0.1,0.7-0.2,1-0.4V203.5z M213.4,200.4
							c0-0.4-0.1-0.7-0.3-0.9c-0.2-0.2-0.5-0.3-0.8-0.3c-0.3,0-0.6,0.1-0.8,0.3c-0.2,0.2-0.3,0.5-0.3,0.9L213.4,200.4z"/>
						<path class="st40" d="M217.4,202h1.6v1.3l-1,1.9h-1l0.4-1.9V202z M217.4,198.6h1.6v1.8h-1.6V198.6z"/>
					</g>
					<g class="st34">
						<path class="st42" d="M69.2,134h1.1l-3.8,8.2h-1.1L69.2,134z"/>
						<path class="st42" d="M75.2,134h1.1l-3.8,8.2h-1.1L75.2,134z"/>
						<path class="st42" d="M83.3,137.7c0-1.2,0.2-2.2,0.6-2.8s1.1-1,1.9-1c0.8,0,1.5,0.3,1.9,1s0.6,1.6,0.6,2.8
							c0,1.2-0.2,2.2-0.6,2.8s-1.1,1-1.9,1c-0.8,0-1.5-0.3-1.9-1S83.3,138.9,83.3,137.7z M85.8,135.2c-0.4,0-0.6,0.2-0.8,0.6
							c-0.2,0.4-0.3,1-0.3,1.9c0,0.9,0.1,1.5,0.3,1.9c0.2,0.4,0.4,0.6,0.8,0.6c0.4,0,0.6-0.2,0.8-0.6c0.2-0.4,0.3-1,0.3-1.9
							c0-0.9-0.1-1.5-0.3-1.9C86.5,135.4,86.2,135.2,85.8,135.2z"/>
						<path class="st42" d="M91,140.5v2.9h-1.4v-7.5H91v0.8c0.1-0.3,0.3-0.6,0.6-0.7s0.5-0.2,0.9-0.2c0.6,0,1.1,0.3,1.5,0.8
							s0.5,1.2,0.5,2.1c0,0.9-0.2,1.6-0.5,2.1s-0.8,0.7-1.5,0.7c-0.3,0-0.6-0.1-0.8-0.2C91.4,141.1,91.2,140.9,91,140.5z M93,138.6
							c0-0.5-0.1-0.9-0.3-1.2s-0.4-0.4-0.7-0.4s-0.6,0.1-0.7,0.4s-0.3,0.7-0.3,1.2s0.1,0.9,0.3,1.2s0.4,0.4,0.7,0.4s0.6-0.1,0.7-0.4
							S93,139.1,93,138.6z"/>
						<path class="st42" d="M100.3,141c-0.3,0.1-0.7,0.2-1,0.3s-0.7,0.1-1.1,0.1c-0.9,0-1.6-0.2-2.1-0.7c-0.5-0.5-0.7-1.2-0.7-2.1
							c0-0.9,0.2-1.6,0.7-2.1s1.1-0.8,1.9-0.8c0.8,0,1.4,0.2,1.9,0.7c0.4,0.5,0.7,1.2,0.7,2v0.6h-3.7c0,0.4,0.1,0.8,0.4,1
							s0.6,0.3,1.1,0.3c0.3,0,0.7,0,1-0.1s0.7-0.2,1-0.4V141z M99,138c0-0.4-0.1-0.7-0.3-0.9c-0.2-0.2-0.5-0.3-0.8-0.3
							c-0.3,0-0.6,0.1-0.8,0.3c-0.2,0.2-0.3,0.5-0.3,0.9L99,138z"/>
						<path class="st42" d="M106.5,137.4c-0.2-0.1-0.3-0.3-0.5-0.3s-0.4-0.1-0.7-0.1c-0.3,0-0.6,0.1-0.8,0.2
							c-0.2,0.1-0.4,0.3-0.5,0.5c-0.1,0.1-0.1,0.3-0.2,0.4s0,0.4,0,0.8v2.5h-1.4v-5.5h1.4v0.8c0.1-0.3,0.4-0.6,0.6-0.7
							c0.3-0.2,0.6-0.3,1-0.3c0.2,0,0.4,0,0.6,0.1c0.2,0,0.4,0.1,0.5,0.2V137.4z"/>
						<path class="st42" d="M112.3,138.2v3.1h-1.4v-0.6c-0.2,0.2-0.4,0.4-0.7,0.6s-0.6,0.2-0.9,0.2c-0.6,0-1.1-0.2-1.5-0.5
							s-0.5-0.8-0.5-1.4c0-0.6,0.2-1.1,0.6-1.4c0.4-0.3,1.1-0.5,1.9-0.5h1v-0.2c0-0.2-0.1-0.4-0.3-0.5c-0.2-0.1-0.4-0.2-0.7-0.2
							c-0.3,0-0.7,0-1,0.1c-0.3,0.1-0.7,0.2-1,0.4v-1.2c0.3-0.1,0.6-0.2,1-0.3s0.7-0.1,1-0.1c0.9,0,1.5,0.2,1.9,0.5
							S112.3,137.3,112.3,138.2z M110.3,138.7c-0.5,0-0.9,0.1-1.1,0.2s-0.3,0.4-0.3,0.7c0,0.2,0.1,0.4,0.2,0.6s0.3,0.2,0.6,0.2
							c0.4,0,0.7-0.1,0.9-0.4c0.2-0.3,0.3-0.7,0.3-1.2v-0.1H110.3z"/>
						<path class="st42" d="M116.3,134.3v1.6h1.9v1.1h-1.9v2.6c0,0.2,0.1,0.4,0.2,0.5c0.1,0.1,0.3,0.2,0.6,0.2h1.1v1.1H117
							c-0.8,0-1.4-0.1-1.7-0.4c-0.3-0.3-0.4-0.7-0.4-1.5v-2.5h-1.4v-1.1h1.4v-1.6H116.3z"/>
						<path class="st42" d="M124.3,141c-0.3,0.1-0.7,0.2-1,0.3s-0.7,0.1-1.1,0.1c-0.9,0-1.6-0.2-2.1-0.7c-0.5-0.5-0.7-1.2-0.7-2.1
							c0-0.9,0.2-1.6,0.7-2.1s1.1-0.8,1.9-0.8c0.8,0,1.4,0.2,1.9,0.7c0.4,0.5,0.7,1.2,0.7,2v0.6h-3.7c0,0.4,0.1,0.8,0.4,1
							s0.6,0.3,1.1,0.3c0.3,0,0.7,0,1-0.1s0.7-0.2,1-0.4V141z M123.1,138c0-0.4-0.1-0.7-0.3-0.9c-0.2-0.2-0.5-0.3-0.8-0.3
							c-0.3,0-0.6,0.1-0.8,0.3c-0.2,0.2-0.3,0.5-0.3,0.9L123.1,138z"/>
						<path class="st42" d="M128.8,136.6v-2.9h1.4v7.6h-1.4v-0.8c-0.2,0.3-0.4,0.6-0.6,0.7s-0.5,0.2-0.9,0.2c-0.6,0-1.1-0.3-1.5-0.8
							s-0.5-1.2-0.5-2.1c0-0.9,0.2-1.6,0.5-2.1s0.8-0.7,1.5-0.7c0.3,0,0.6,0.1,0.8,0.2C128.5,136.1,128.7,136.3,128.8,136.6z
							 M126.8,138.6c0,0.5,0.1,0.9,0.3,1.2s0.4,0.4,0.7,0.4s0.6-0.1,0.7-0.4s0.3-0.7,0.3-1.2s-0.1-0.9-0.3-1.2s-0.4-0.4-0.7-0.4
							s-0.6,0.1-0.7,0.4S126.8,138.1,126.8,138.6z"/>
						<path class="st42" d="M140.4,134.3v1.6h1.9v1.1h-1.9v2.6c0,0.2,0.1,0.4,0.2,0.5c0.1,0.1,0.3,0.2,0.6,0.2h1.1v1.1h-1.2
							c-0.8,0-1.4-0.1-1.7-0.4c-0.3-0.3-0.4-0.7-0.4-1.5v-2.5h-1.4v-1.1h1.4v-1.6H140.4z"/>
						<path class="st42" d="M143.5,138.6c0-0.9,0.2-1.6,0.7-2.1c0.5-0.5,1.1-0.8,1.8-0.8c0.8,0,1.4,0.3,1.8,0.8
							c0.5,0.5,0.7,1.2,0.7,2.1s-0.2,1.6-0.7,2.1c-0.5,0.5-1.1,0.8-1.8,0.8c-0.8,0-1.4-0.3-1.8-0.8
							C143.7,140.2,143.5,139.5,143.5,138.6z M146,136.9c-0.3,0-0.6,0.2-0.8,0.5c-0.2,0.3-0.3,0.7-0.3,1.3s0.1,1,0.3,1.3
							c0.2,0.3,0.5,0.5,0.8,0.5c0.3,0,0.6-0.2,0.8-0.5c0.2-0.3,0.3-0.7,0.3-1.3s-0.1-1-0.3-1.3C146.7,137,146.4,136.9,146,136.9z"/>
						<path class="st42" d="M149.9,133.7h1.4v4l1.7-1.9h1.7l-2.1,2l2.2,3.4h-1.6l-1.5-2.6l-0.5,0.5v2.1h-1.4V133.7z"/>
						<path class="st42" d="M160.5,141c-0.3,0.1-0.7,0.2-1,0.3c-0.3,0.1-0.7,0.1-1.1,0.1c-0.9,0-1.6-0.2-2.1-0.7
							c-0.5-0.5-0.7-1.2-0.7-2.1c0-0.9,0.2-1.6,0.7-2.1c0.5-0.5,1.1-0.8,1.9-0.8c0.8,0,1.4,0.2,1.9,0.7c0.4,0.5,0.7,1.2,0.7,2v0.6
							H157c0,0.4,0.1,0.8,0.4,1c0.2,0.2,0.6,0.3,1.1,0.3c0.3,0,0.7,0,1-0.1c0.3-0.1,0.7-0.2,1-0.4V141z M159.2,138
							c0-0.4-0.1-0.7-0.3-0.9c-0.2-0.2-0.5-0.3-0.8-0.3c-0.3,0-0.6,0.1-0.8,0.3c-0.2,0.2-0.3,0.5-0.3,0.9L159.2,138z"/>
						<path class="st42" d="M166.3,137.8v3.5h-1.4V138c0-0.4-0.1-0.7-0.2-0.9c-0.1-0.2-0.3-0.3-0.5-0.3c-0.3,0-0.5,0.1-0.6,0.3
							c-0.1,0.2-0.2,0.6-0.2,1v3.1h-1.4v-5.5h1.4v0.8c0.1-0.3,0.3-0.5,0.5-0.7s0.5-0.2,0.9-0.2c0.5,0,0.9,0.2,1.2,0.5
							C166.2,136.6,166.3,137.1,166.3,137.8z"/>
					</g>
					<g class="st34">
						<path class="st42" d="M69.2,180.9h1.1l-3.8,8.2h-1.1L69.2,180.9z"/>
						<path class="st42" d="M75.2,180.9h1.1l-3.8,8.2h-1.1L75.2,180.9z"/>
						<path class="st42" d="M88.2,188.1h-4.5v-7.3h4.5v1.3h-3.1v1.6h2.8v1.3h-2.8v1.9h3.1V188.1z"/>
						<path class="st42" d="M92.2,183.2c0.1-0.2,0.2-0.4,0.4-0.5s0.4-0.2,0.6-0.2c0.5,0,0.8,0.2,1,0.5s0.3,1,0.3,2v3.1h-1.2v-3.5
							c0-0.4,0-0.7-0.1-0.8s-0.2-0.2-0.3-0.2s-0.3,0.1-0.3,0.2s-0.1,0.4-0.1,0.8v3.5h-1.2v-3.5c0-0.4,0-0.7-0.1-0.8
							s-0.2-0.2-0.3-0.2s-0.3,0.1-0.3,0.2s-0.1,0.4-0.1,0.8v3.5h-1.2v-5.5h1v0.6c0.1-0.2,0.2-0.4,0.4-0.5c0.2-0.1,0.4-0.2,0.6-0.2
							s0.4,0.1,0.6,0.2C92.1,182.9,92.2,183,92.2,183.2z"/>
						<path class="st42" d="M96,182.7h2.8v4.4h1.8v1.1h-5V187h1.8v-3.3H96V182.7z M97.4,180h1.4v1.7h-1.4V180z"/>
						<path class="st42" d="M105.7,182.8v1.2c-0.3-0.2-0.5-0.3-0.8-0.4c-0.3-0.1-0.6-0.1-0.9-0.1c-0.3,0-0.6,0-0.7,0.1
							c-0.2,0.1-0.2,0.2-0.2,0.4c0,0.3,0.3,0.5,1,0.6l0.1,0l0.4,0.1c0.5,0.1,0.9,0.3,1.1,0.6c0.2,0.3,0.4,0.6,0.4,1.1
							c0,0.6-0.2,1-0.6,1.3c-0.4,0.3-0.9,0.4-1.7,0.4c-0.3,0-0.7,0-1-0.1c-0.3-0.1-0.7-0.1-1-0.3v-1.2c0.3,0.2,0.6,0.3,1,0.4
							s0.6,0.1,0.9,0.1c0.3,0,0.6,0,0.8-0.1s0.3-0.2,0.3-0.4c0-0.2-0.1-0.3-0.2-0.4s-0.4-0.2-0.9-0.3l-0.4-0.1
							c-0.5-0.1-0.9-0.3-1.2-0.6s-0.4-0.6-0.4-1.1c0-0.5,0.2-0.9,0.6-1.2s0.9-0.4,1.6-0.4c0.3,0,0.6,0,0.9,0.1
							C105.1,182.7,105.4,182.7,105.7,182.8z"/>
						<path class="st42" d="M111.8,182.8v1.2c-0.3-0.2-0.5-0.3-0.8-0.4c-0.3-0.1-0.6-0.1-0.9-0.1c-0.3,0-0.6,0-0.7,0.1
							c-0.2,0.1-0.2,0.2-0.2,0.4c0,0.3,0.3,0.5,1,0.6l0.1,0l0.4,0.1c0.5,0.1,0.9,0.3,1.1,0.6c0.2,0.3,0.4,0.6,0.4,1.1
							c0,0.6-0.2,1-0.6,1.3c-0.4,0.3-0.9,0.4-1.7,0.4c-0.3,0-0.7,0-1-0.1c-0.3-0.1-0.7-0.1-1-0.3v-1.2c0.3,0.2,0.6,0.3,1,0.4
							s0.6,0.1,0.9,0.1c0.3,0,0.6,0,0.8-0.1s0.3-0.2,0.3-0.4c0-0.2-0.1-0.3-0.2-0.4s-0.4-0.2-0.9-0.3l-0.4-0.1
							c-0.5-0.1-0.9-0.3-1.2-0.6s-0.4-0.6-0.4-1.1c0-0.5,0.2-0.9,0.6-1.2s0.9-0.4,1.6-0.4c0.3,0,0.6,0,0.9,0.1
							C111.2,182.7,111.5,182.7,111.8,182.8z"/>
						<path class="st42" d="M114,182.7h2.8v4.4h1.8v1.1h-5V187h1.8v-3.3H114V182.7z M115.4,180h1.4v1.7h-1.4V180z"/>
						<path class="st42" d="M119.4,185.4c0-0.9,0.2-1.6,0.7-2.1c0.5-0.5,1.1-0.8,1.8-0.8c0.8,0,1.4,0.3,1.8,0.8
							c0.5,0.5,0.7,1.2,0.7,2.1s-0.2,1.6-0.7,2.1c-0.5,0.5-1.1,0.8-1.8,0.8c-0.8,0-1.4-0.3-1.8-0.8
							C119.7,187,119.4,186.3,119.4,185.4z M122,183.7c-0.3,0-0.6,0.2-0.8,0.5c-0.2,0.3-0.3,0.7-0.3,1.3s0.1,1,0.3,1.3
							c0.2,0.3,0.5,0.5,0.8,0.5c0.3,0,0.6-0.2,0.8-0.5c0.2-0.3,0.3-0.7,0.3-1.3s-0.1-1-0.3-1.3C122.6,183.9,122.3,183.7,122,183.7z"
							/>
						<path class="st42" d="M130.2,184.6v3.5h-1.4v-3.3c0-0.4-0.1-0.7-0.2-0.9c-0.1-0.2-0.3-0.3-0.5-0.3c-0.3,0-0.5,0.1-0.6,0.3
							s-0.2,0.6-0.2,1v3.1h-1.4v-5.5h1.4v0.8c0.1-0.3,0.3-0.5,0.5-0.7s0.5-0.2,0.9-0.2c0.5,0,0.9,0.2,1.2,0.5
							C130.1,183.4,130.2,183.9,130.2,184.6z"/>
						<path class="st42" d="M142.2,187.9c-0.2,0.1-0.5,0.2-0.8,0.3c-0.3,0.1-0.6,0.1-0.9,0.1c-0.8,0-1.5-0.3-2-0.8s-0.7-1.2-0.7-2.1
							c0-0.9,0.2-1.6,0.7-2.1c0.5-0.5,1.1-0.8,2-0.8c0.3,0,0.6,0,0.8,0.1s0.5,0.2,0.8,0.3v1.3c-0.2-0.2-0.4-0.3-0.7-0.4
							c-0.2-0.1-0.5-0.1-0.8-0.1c-0.5,0-0.8,0.1-1.1,0.4s-0.4,0.7-0.4,1.3s0.1,1,0.4,1.3s0.6,0.4,1.1,0.4c0.3,0,0.5,0,0.8-0.1
							c0.2-0.1,0.5-0.2,0.7-0.4V187.9z"/>
						<path class="st42" d="M143.8,186.2v-3.6h1.4v3.3c0,0.4,0.1,0.7,0.2,0.8s0.3,0.3,0.6,0.3s0.5-0.1,0.6-0.3s0.2-0.5,0.2-1v-3.1
							h1.4v5.5h-1.4v-0.8c-0.1,0.3-0.3,0.5-0.5,0.7s-0.5,0.2-0.9,0.2c-0.5,0-0.9-0.2-1.2-0.5S143.8,186.9,143.8,186.2z"/>
						<path class="st42" d="M154.7,184.2c-0.2-0.1-0.3-0.3-0.5-0.3s-0.4-0.1-0.7-0.1c-0.3,0-0.6,0.1-0.8,0.2
							c-0.2,0.1-0.4,0.3-0.5,0.5c-0.1,0.1-0.1,0.3-0.2,0.4s0,0.4,0,0.8v2.5h-1.4v-5.5h1.4v0.8c0.1-0.3,0.4-0.6,0.6-0.7
							c0.3-0.2,0.6-0.3,1-0.3c0.2,0,0.4,0,0.6,0.1c0.2,0,0.4,0.1,0.5,0.2V184.2z"/>
						<path class="st42" d="M160.7,184.2c-0.2-0.1-0.3-0.3-0.5-0.3s-0.4-0.1-0.7-0.1c-0.3,0-0.6,0.1-0.8,0.2
							c-0.2,0.1-0.4,0.3-0.5,0.5c-0.1,0.1-0.1,0.3-0.2,0.4c0,0.2,0,0.4,0,0.8v2.5h-1.4v-5.5h1.4v0.8c0.1-0.3,0.4-0.6,0.6-0.7
							c0.3-0.2,0.6-0.3,1-0.3c0.2,0,0.4,0,0.6,0.1c0.2,0,0.4,0.1,0.5,0.2V184.2z"/>
						<path class="st42" d="M166.5,187.9c-0.3,0.1-0.7,0.2-1,0.3c-0.3,0.1-0.7,0.1-1.1,0.1c-0.9,0-1.6-0.2-2.1-0.7
							c-0.5-0.5-0.7-1.2-0.7-2.1c0-0.9,0.2-1.6,0.7-2.1c0.5-0.5,1.1-0.8,1.9-0.8c0.8,0,1.4,0.2,1.9,0.7c0.4,0.5,0.7,1.2,0.7,2v0.6
							H163c0,0.4,0.1,0.8,0.4,1c0.2,0.2,0.6,0.3,1.1,0.3c0.3,0,0.7,0,1-0.1c0.3-0.1,0.7-0.2,1-0.4V187.9z M165.3,184.8
							c0-0.4-0.1-0.7-0.3-0.9c-0.2-0.2-0.5-0.3-0.8-0.3c-0.3,0-0.6,0.1-0.8,0.3c-0.2,0.2-0.3,0.5-0.3,0.9L165.3,184.8z"/>
						<path class="st42" d="M172.3,184.6v3.5h-1.4v-3.3c0-0.4-0.1-0.7-0.2-0.9c-0.1-0.2-0.3-0.3-0.5-0.3c-0.3,0-0.5,0.1-0.6,0.3
							c-0.1,0.2-0.2,0.6-0.2,1v3.1H168v-5.5h1.4v0.8c0.1-0.3,0.3-0.5,0.5-0.7s0.5-0.2,0.9-0.2c0.5,0,0.9,0.2,1.2,0.5
							C172.2,183.4,172.3,183.9,172.3,184.6z"/>
						<path class="st42" d="M176.5,181.1v1.6h1.9v1.1h-1.9v2.6c0,0.2,0.1,0.4,0.2,0.5c0.1,0.1,0.3,0.2,0.6,0.2h1.1v1.1h-1.2
							c-0.8,0-1.4-0.1-1.7-0.4c-0.3-0.3-0.4-0.7-0.4-1.5v-2.5h-1.4v-1.1h1.4v-1.6H176.5z"/>
						<path class="st42" d="M190.8,182.7l-1.7,5.5h-1.8l-1.7-5.5h1.5l1.2,4.3l1.2-4.3H190.8z"/>
						<path class="st42" d="M196.6,185v3.1h-1.4v-0.6c-0.2,0.2-0.4,0.4-0.7,0.6c-0.3,0.1-0.6,0.2-0.9,0.2c-0.6,0-1.1-0.2-1.5-0.5
							s-0.5-0.8-0.5-1.4c0-0.6,0.2-1.1,0.6-1.4c0.4-0.3,1.1-0.5,1.9-0.5h1v-0.2c0-0.2-0.1-0.4-0.3-0.5c-0.2-0.1-0.4-0.2-0.7-0.2
							c-0.3,0-0.7,0-1,0.1c-0.3,0.1-0.7,0.2-1,0.4v-1.2c0.3-0.1,0.6-0.2,1-0.3c0.3-0.1,0.7-0.1,1-0.1c0.9,0,1.5,0.2,1.9,0.5
							C196.4,183.4,196.6,184.1,196.6,185z M194.6,185.6c-0.5,0-0.9,0.1-1.1,0.2c-0.2,0.1-0.3,0.4-0.3,0.7c0,0.2,0.1,0.4,0.2,0.6
							s0.3,0.2,0.6,0.2c0.4,0,0.7-0.1,0.9-0.4c0.2-0.3,0.3-0.7,0.3-1.2v-0.1H194.6z"/>
						<path class="st42" d="M199.1,185.9v-4.2h-1.5v-1.1h2.9v5.3c0,0.4,0.1,0.7,0.2,0.9c0.1,0.2,0.4,0.3,0.7,0.3h1.1v1.1H201
							c-0.7,0-1.2-0.2-1.5-0.5C199.3,187.3,199.1,186.7,199.1,185.9z"/>
						<path class="st42" d="M204,186.2v-3.6h1.4v3.3c0,0.4,0.1,0.7,0.2,0.8c0.1,0.2,0.3,0.3,0.6,0.3c0.3,0,0.5-0.1,0.6-0.3
							c0.1-0.2,0.2-0.5,0.2-1v-3.1h1.4v5.5H207v-0.8c-0.1,0.3-0.3,0.5-0.5,0.7c-0.2,0.2-0.5,0.2-0.9,0.2c-0.5,0-0.9-0.2-1.2-0.5
							C204.2,187.4,204,186.9,204,186.2z"/>
						<path class="st42" d="M214.6,187.9c-0.3,0.1-0.7,0.2-1,0.3c-0.3,0.1-0.7,0.1-1.1,0.1c-0.9,0-1.6-0.2-2.1-0.7
							c-0.5-0.5-0.7-1.2-0.7-2.1c0-0.9,0.2-1.6,0.7-2.1c0.5-0.5,1.1-0.8,1.9-0.8c0.8,0,1.4,0.2,1.9,0.7c0.4,0.5,0.7,1.2,0.7,2v0.6
							h-3.7c0,0.4,0.1,0.8,0.4,1c0.2,0.2,0.6,0.3,1.1,0.3c0.3,0,0.7,0,1-0.1c0.3-0.1,0.7-0.2,1-0.4V187.9z M213.4,184.8
							c0-0.4-0.1-0.7-0.3-0.9c-0.2-0.2-0.5-0.3-0.8-0.3c-0.3,0-0.6,0.1-0.8,0.3c-0.2,0.2-0.3,0.5-0.3,0.9L213.4,184.8z"/>
					</g>
				</g>
			</g>
		</g>
		<g>
			<g>
				<defs>
					<polygon id="SVGID_7_" points="0,0 417.6,0 417.6,230.8 401.2,219 384.5,231 367.8,219 351.1,231 334.3,219 317.6,231 
						300.9,219 284.2,231 267.5,219 250.8,231 234.1,219 217.4,231 200.7,219 184,231 167.3,219 150.6,231 133.9,219 117.2,231 
						100.5,219 83.8,231 67.1,219 50.4,231 33.7,219 17,231 0,218.8 					"/>
				</defs>
				<clipPath id="SVGID_8_">
					<use xlink:href="#SVGID_7_"  style="overflow:visible;"/>
				</clipPath>
			</g>
		</g>
	</g>
</g>
</svg>
