<svg xmlns="http://www.w3.org/2000/svg" viewBox="2914.102 9628.602 58.495 79.493">
  <defs>
    <style>
      .cls-1 {
        fill: #693928;
      }

      .cls-2 {
        fill: #ffa62c;
      }
    </style>
  </defs>
  <g id="attach" transform="translate(2846.479 9628.602)">
    <path id="Path_1178" data-name="Path 1178" class="cls-1" d="M125.678,15.11,110.989.438A1.506,1.506,0,0,0,109.928,0H69.123a1.5,1.5,0,0,0-1.5,1.5V77.993a1.5,1.5,0,0,0,1.5,1.5h55.5a1.5,1.5,0,0,0,1.5-1.5V16.172A1.5,1.5,0,0,0,125.678,15.11Z"/>
    <g id="Group_177" data-name="Group 177" transform="translate(70.623 3)">
      <path id="Path_1179" data-name="Path 1179" class="cls-2" d="M357.652,42.859h-9.878V32.981Z" transform="translate(-307.277 -30.86)"/>
      <path id="Path_1180" data-name="Path 1180" class="cls-2" d="M86.943,92.814V19.321h37.5v13.5a1.5,1.5,0,0,0,1.5,1.5h13.5V92.814Z" transform="translate(-86.943 -19.321)"/>
    </g>
    <g id="Group_178" data-name="Group 178" transform="translate(80.176 27.15)">
      <path id="Path_1181" data-name="Path 1181" class="cls-1" d="M167.175,269.385l-5.831,5.83a4.9,4.9,0,0,1-3.792,1.384,6.383,6.383,0,0,1-4.164-1.911c-2.339-2.338-2.575-5.909-.527-7.958l5.83-5.83a1.5,1.5,0,1,0-2.121-2.121l-5.83,5.83c-3.218,3.219-2.982,8.693.527,12.2a9.371,9.371,0,0,0,6.127,2.786q.235.013.466.013a7.822,7.822,0,0,0,5.605-2.272l5.831-5.83a1.5,1.5,0,0,0-2.121-2.121Z" transform="translate(-148.472 -245.38)"/>
      <path id="Path_1182" data-name="Path 1182" class="cls-1" d="M238.213,177.132l-5.831,5.831a1.5,1.5,0,1,0,2.121,2.121l5.831-5.831c2.048-2.046,5.62-1.812,7.958.527s2.575,5.909.527,7.958l-5.831,5.83a1.5,1.5,0,1,0,2.121,2.121l5.831-5.83c3.217-3.218,2.981-8.69-.527-12.2S241.432,173.916,238.213,177.132Z" transform="translate(-218.983 -174.866)"/>
      <path id="Path_1183" data-name="Path 1183" class="cls-1" d="M215.668,238.289l-10.606,10.6a1.5,1.5,0,1,0,2.121,2.121l10.606-10.6a1.5,1.5,0,0,0-2.121-2.121Z" transform="translate(-195.905 -228.071)"/>
    </g>
  </g>
</svg>
