<?xml version="1.0" encoding="utf-8"?>
<!-- Generator: Adobe Illustrator 20.1.0, SVG Export Plug-In . SVG Version: 6.00 Build 0)  -->
<svg version="1.1" id="Layer_1" xmlns="http://www.w3.org/2000/svg" xmlns:xlink="http://www.w3.org/1999/xlink" x="0px" y="0px"
	 width="9.3px" height="17.9px" viewBox="0 0 9.3 17.9" style="enable-background:new 0 0 9.3 17.9;" xml:space="preserve">
<style type="text/css">
	.st0{fill:#939596;}
</style>
<path class="st0" d="M0.6,7.3h8.1c0.2,0,0.3-0.1,0.4-0.2c0.2-0.3,0.2-0.8,0-1.1L5,0.2C4.9,0,4.6-0.1,4.4,0.1c-0.1,0-0.1,0.1-0.2,0.2
	L0.2,6c-0.2,0.3-0.2,0.8,0,1.1C0.3,7.2,0.4,7.3,0.6,7.3z M8.7,10.6H0.6c-0.2,0-0.3,0.1-0.4,0.2c-0.2,0.3-0.2,0.8,0,1.1l4.1,5.7
	c0.1,0.2,0.4,0.3,0.6,0.2c0.1,0,0.1-0.1,0.2-0.2L9.1,12c0.2-0.3,0.2-0.8,0-1.1C9,10.7,8.9,10.6,8.7,10.6z"/>
</svg>
