<svg xmlns="http://www.w3.org/2000/svg" viewBox="545 1708 192 190"><defs><style>.a{fill:none;stroke:#b2b5b7;stroke-width:1px;}.b{fill:#414141;}</style></defs><g transform="translate(23 568)"><line class="a" y1="74" x2="110" transform="translate(601.5 1177.5)"/><line class="a" x2="96" transform="translate(599.5 1251.5)"/><line class="a" x2="88" y2="74" transform="translate(601.5 1251.5)"/><line class="a" x1="5" y2="43" transform="translate(594.5 1251.5)"/><line class="a" x1="74" y2="56" transform="translate(525.5 1251.5)"/><line class="a" x1="55" y1="34" transform="translate(544.5 1217.5)"/><line class="a" x2="24" y2="60" transform="translate(599.5 1251.5)"/><line class="a" y1="103" x2="31" transform="translate(599.5 1143.5)"/><line class="a" x1="65" y1="87" transform="translate(534.5 1164.5)"/><circle class="b" cx="7.5" cy="7.5" r="7.5" transform="translate(592 1244)"/><circle class="b" cx="4" cy="4" r="4" transform="translate(626 1140)"/><circle class="b" cx="4" cy="4" r="4" transform="translate(706 1174)"/><circle class="b" cx="4" cy="4" r="4" transform="translate(692 1248)"/><circle class="b" cx="4" cy="4" r="4" transform="translate(686 1322)"/><circle class="b" cx="4" cy="4" r="4" transform="translate(620 1308)"/><circle class="b" cx="4" cy="4" r="4" transform="translate(591 1289)"/><circle class="b" cx="4" cy="4" r="4" transform="translate(522 1304)"/><circle class="b" cx="4" cy="4" r="4" transform="translate(541 1214)"/><circle class="b" cx="4" cy="4" r="4" transform="translate(531 1161)"/></g></svg>