<svg xmlns="http://www.w3.org/2000/svg" viewBox="954 1732 179.5 141.531"><defs><style>.a{fill:none;stroke:#b2b5b7;stroke-width:1px;}.b{fill:#414141;}</style></defs><g transform="translate(-141 1951.531) rotate(-90)"><line class="a" x2="40" y2="34" transform="translate(171.015 1236.75)"/><line class="a" y1="145" x2="3" transform="translate(211.015 1125.75)"/><line class="a" x1="67" y1="9" transform="translate(147.015 1116.75)"/><line class="a" x1="59" y2="47" transform="translate(155.015 1125.75)"/><line class="a" x2="56" y2="98" transform="translate(155.015 1172.75)"/><line class="a" x2="16" y2="64" transform="translate(155.015 1172.75)"/><line class="a" x1="30" y2="26" transform="translate(125.015 1172.75)"/><line class="a" x1="30" y2="88" transform="translate(125.015 1173.75)"/><line class="a" x2="8" y2="57" transform="translate(147.015 1116.75)"/><line class="a" x1="73" y2="1" transform="translate(82.015 1172.75)"/><line class="a" x1="50" y1="71" transform="translate(105.015 1101.75)"/><line class="a" x1="42" y1="15" transform="translate(105.015 1101.75)"/><line class="a" x1="23" y2="72" transform="translate(82.015 1101.75)"/><line class="a" x2="43" y2="25" transform="translate(82.015 1173.75)"/><line class="a" x1="1" y2="63" transform="translate(124.015 1198.75)"/><line class="a" y1="25" x2="46" transform="translate(125.015 1236.75)"/><circle class="b" cx="7.121" cy="7.121" r="7.121" transform="translate(97.554 1095)"/><circle class="b" cx="4.121" cy="4.121" r="4.121" transform="translate(143.247 1112.691)"/><circle class="b" cx="4.121" cy="4.121" r="4.121" transform="translate(78 1169.49)"/><circle class="b" cx="5.121" cy="5.121" r="5.121" transform="translate(209.288 1121.071)"/><circle class="b" cx="7.621" cy="7.621" r="7.621" transform="translate(147.49 1164.834)"/><circle class="b" cx="5.121" cy="5.121" r="5.121" transform="translate(118.969 1257.015)"/><circle class="b" cx="3.621" cy="3.621" r="3.621" transform="translate(207.633 1267.258)"/><circle class="b" cx="4.621" cy="4.621" r="4.621" transform="translate(166.633 1232.258)"/><circle class="b" cx="3.121" cy="3.121" r="3.121" transform="translate(121.633 1195.258)"/></g></svg>