<?xml version="1.0" encoding="utf-8"?>
<!-- Generator: Adobe Illustrator 21.0.2, SVG Export Plug-In . SVG Version: 6.00 Build 0)  -->
<svg version="1.1" id="Layer_1" xmlns="http://www.w3.org/2000/svg" xmlns:xlink="http://www.w3.org/1999/xlink" x="0px" y="0px"
	 width="28.9px" height="15.1px" viewBox="0 0 28.9 15.1" style="enable-background:new 0 0 28.9 15.1;" xml:space="preserve">
<style type="text/css">
	.st0{fill:#FFFFFF;}
</style>
<path id="bus-side-view" class="st0" d="M21.2,12.8c0,1.2,1,2.3,2.3,2.3c1.2,0,2.3-1,2.3-2.3c0-1.2-1-2.3-2.3-2.3
	C22.2,10.6,21.2,11.6,21.2,12.8z M22,12.8c0-0.8,0.6-1.4,1.4-1.4s1.4,0.6,1.4,1.4c0,0.8-0.6,1.4-1.4,1.4C22.7,14.2,22,13.6,22,12.8z
	 M3.1,12.8c0,1.2,1,2.3,2.3,2.3c1.2,0,2.3-1,2.3-2.3c0-1.2-1-2.3-2.3-2.3C4.1,10.6,3.1,11.6,3.1,12.8z M3.9,12.8
	c0-0.8,0.6-1.4,1.4-1.4s1.4,0.6,1.4,1.4c0,0.8-0.6,1.4-1.4,1.4C4.6,14.2,3.9,13.6,3.9,12.8z M1.1,10.1V12c0,0.1-0.1,0.2-0.2,0.2H0.1
	v1h2.8c0-0.1,0-0.2,0-0.3c0-1.4,1.1-2.5,2.5-2.5s2.5,1.1,2.5,2.5c0,0.1,0,0.2,0,0.3H21c0-0.1,0-0.2,0-0.3c0-1.4,1.1-2.5,2.5-2.5
	s2.5,1.1,2.5,2.5c0,0.1,0,0.2,0,0.3h0.6c1.3,0,2.4-1.1,2.4-2.4l0,0V2.3c0-1.3-1.1-2.4-2.4-2.4l0,0H2.5C1.2-0.1,0.1,1,0.1,2.3v7.5
	h0.8C1,9.9,1.1,10,1.1,10.1L1.1,10.1L1.1,10.1z M17.3,1.2v5.7h-4.4V1.2H17.3z M22.2,7V1.3h4.7c0.1,0,0.2,0.1,0.2,0.2v4.2
	c0,0.1,0,1.3-2,1.3H22.2L22.2,7z M17.5,7V1.3h4.4V7H17.5z M7.8,1.2h4.8v5.7H7.8V1.2z M5.7,1.5c0-0.1,0.1-0.2,0.2-0.2h1.7V7H5.9
	C5.8,7,5.7,6.9,5.7,6.8l0,0V1.5z M1.4,8.3L1.4,8.3V2.4c0-0.7,0.6-1.2,1.2-1.2h2.3v5.6C4.8,7.5,4.2,8,3.6,8.1
	C2.9,8.3,2.1,8.4,1.4,8.3L1.4,8.3z"/>
</svg>
