<?xml version="1.0" encoding="utf-8"?>
<!-- Generator: Adobe Illustrator 21.0.2, SVG Export Plug-In . SVG Version: 6.00 Build 0)  -->
<svg version="1.1" id="Layer_1" xmlns="http://www.w3.org/2000/svg" xmlns:xlink="http://www.w3.org/1999/xlink" x="0px" y="0px"
	 width="29px" height="13.3px" viewBox="0 0 29 13.3" style="enable-background:new 0 0 29 13.3;" xml:space="preserve">
<style type="text/css">
	.st0{fill:#FFFFFF;}
</style>
<path id="Group_269" transform="translate(170 12823)" class="st0" d="M-163.7-12814.6c-1.3,0-2.4,1.1-2.4,2.4
	c0,1.3,1.1,2.4,2.4,2.4s2.4-1.1,2.4-2.4l0,0C-161.3-12813.5-162.4-12814.6-163.7-12814.6z M-163.7-12810.7c-0.8,0-1.5-0.6-1.5-1.5
	c0-0.8,0.6-1.4,1.4-1.4s1.4,0.6,1.5,1.4C-162.3-12811.3-162.9-12810.7-163.7-12810.7L-163.7-12810.7z M-141.5-12814.6v-2.9
	c0-0.2-0.1-0.4-0.3-0.5l-2.7-0.9c-1.1-2.1-3.2-3.6-5.6-3.9h0c-5.8-0.8-10.1,0.5-12.9,3.9c-1.9,0-3.7,0.4-5.4,1.3
	c-0.6,0.4-1,1.1-1.1,1.9l-0.1,1.2c-0.3,0-0.5,0.2-0.5,0.5v1.9c0,0.3,0.2,0.5,0.5,0.5c0,0,0,0,0,0h1.9c0.3,0,0.5-0.2,0.5-0.5l0,0
	c0,0,0,0,0,0c0-1.9,1.5-3.4,3.4-3.4c1.9,0,3.4,1.5,3.4,3.4l0,0c0,0.2,0.2,0.5,0.4,0.5c0,0,0.1,0,0.1,0h8.7c0.3,0,0.5-0.2,0.5-0.5
	l0,0c0,0,0,0,0,0c0-1.9,1.5-3.4,3.4-3.4c1.9,0,3.4,1.5,3.4,3.4c0,0.2,0.2,0.5,0.4,0.5c0,0,0.1,0,0.1,0h1.9c0.3,0,0.5-0.2,0.5-0.5
	v-1.9C-141-12814.3-141.2-12814.6-141.5-12814.6z M-154.5-12819.1c0,0.1-0.1,0.2-0.2,0.2c0,0,0,0,0,0h-6.3c-0.1,0-0.2-0.1-0.2-0.2
	c0-0.1,0-0.1,0.1-0.2c1.8-1.6,4.1-2.5,6.4-2.6c0.1,0,0.3,0.1,0.3,0.2c0,0,0,0,0,0L-154.5-12819.1z M-148.7-12819.1
	c0,0.1-0.1,0.2-0.2,0.2h-4.4c-0.1,0-0.2-0.1-0.2-0.2l0,0v-2.6c0-0.1,0.1-0.2,0.2-0.2c0,0,0,0,0,0c1,0,2.1,0.1,3.1,0.2
	c0.5,0.1,0.9,0.2,1.4,0.4c0.1,0,0.2,0.1,0.2,0.2L-148.7-12819.1z M-146.2-12818.9h-1.3c-0.1,0-0.2-0.1-0.2-0.2c0,0,0,0,0,0l0-1.3
	c0-0.1,0.1-0.2,0.2-0.2c0.1,0,0.1,0,0.1,0c0.5,0.4,1,0.8,1.3,1.4c0.1,0.1,0.1,0.3,0,0.3C-146.1-12818.9-146.1-12818.9-146.2-12818.9
	L-146.2-12818.9z M-147.3-12814.6c-1.3,0-2.4,1.1-2.4,2.4c0,1.3,1.1,2.4,2.4,2.4c1.3,0,2.4-1.1,2.4-2.4c0,0,0,0,0,0
	C-144.9-12813.5-145.9-12814.6-147.3-12814.6z M-147.3-12810.7c-0.8,0-1.4-0.6-1.4-1.5s0.6-1.4,1.5-1.4s1.4,0.6,1.4,1.4
	C-145.8-12811.3-146.5-12810.7-147.3-12810.7L-147.3-12810.7z"/>
</svg>
