<?xml version="1.0" encoding="utf-8"?>
<!-- Generator: Adobe Illustrator 21.0.2, SVG Export Plug-In . SVG Version: 6.00 Build 0)  -->
<svg version="1.1" id="Layer_1" xmlns="http://www.w3.org/2000/svg" xmlns:xlink="http://www.w3.org/1999/xlink" x="0px" y="0px"
	 width="36.1px" height="36.2px" viewBox="0 0 36.1 36.2" style="enable-background:new 0 0 36.1 36.2;" xml:space="preserve">
<style type="text/css">
	.st0{fill:#B7674A;}
</style>
<path class="st0" d="M20.6,23.8c-0.9-0.4-1.8-0.6-2.7-0.9c-0.6-0.2-1.3-0.5-1.8-0.9c-1.7-1.1-2.5-3.2-2.1-5.1c0.2-1,0.5-2,0.7-3
	c0.4-1.4,0.2-2.8-0.5-4.1c-0.7-1.4-2.2-2-3.7-1.6C9.7,8.5,9,8.8,8.4,9.2C6.5,10.4,5,12.1,4,14.1c-1,1.7-1.1,3.9-0.4,5.7
	c0.7,1.6,1.8,3.1,3.3,4.1c1.3,1,2.7,1.8,4,2.6c1.6,1,3,2.3,4.1,3.8c0.3,0.4,0.6,0.8,0.9,1.2c1,1.2,2.6,1.8,4.1,1.6
	c0.9-0.2,1.8-0.7,2.5-1.4c1.3-1,1.8-2.8,1.2-4.3C23.2,25.8,22.1,24.5,20.6,23.8z M11.1,4.5c0.1-1.1-0.2-2.1-0.8-3
	C10.2,1.4,10,1.2,9.8,0.9C9.6,0.8,9.5,0.6,9.3,0.5c-0.7-0.6-1.7-0.6-2.4,0c-0.3,0.3-0.4,0.6-0.5,1C6.2,3.2,7,4.9,8.4,5.9
	c0.7,0.6,1.8,0.4,2.3-0.3C11,5.2,11.1,4.9,11.1,4.5z M6.7,7.2C6.9,6,6.3,4.7,5.2,4.1C4.6,3.8,3.9,3.9,3.5,4.5
	C3.4,4.7,3.3,4.9,3.3,5.2c0,0.7,0.1,1.3,0.5,1.9c0.3,0.5,0.7,0.8,1.2,1c0.6,0.3,1.3,0.1,1.6-0.5C6.7,7.5,6.7,7.4,6.7,7.2z M4,9.6
	c0-1.1-0.6-2.1-1.6-2.5c-0.5-0.2-1,0-1.2,0.5c0,0.1-0.1,0.2-0.1,0.3c-0.1,1.1,0.6,2.1,1.6,2.5c0.5,0.2,1,0,1.2-0.5
	C4,9.9,4,9.8,4,9.6z M2.6,11.7c-0.1-0.8-0.8-1.5-1.6-1.7C0.5,10,0.1,10.2,0,10.7c0,0.1,0,0.2,0,0.3c0.1,0.3,0.1,0.5,0.2,0.8
	c0.3,0.5,0.8,0.8,1.4,0.9c0.4,0.1,0.8-0.2,0.9-0.6C2.6,11.9,2.6,11.8,2.6,11.7z M1.9,14.3c0-0.3-0.1-0.7-0.2-1
	c-0.2-0.2-0.5-0.4-0.8-0.5c-0.3-0.2-0.7,0-0.8,0.3C0,13.1,0,13.2,0,13.3C0,14,0.3,14.6,1,14.9c0.3,0.2,0.7,0.1,0.8-0.2
	C1.8,14.6,1.9,14.4,1.9,14.3z M23.6,10.8c-0.7,0.2-1.4,0.6-2.1,1c-1.2,0.8-1.7,2.5-1.1,3.8C21,17,22,18,23.3,18.6
	c0.9,0.4,1.9,0.8,2.8,1.4c1.8,1,2.8,2.9,2.6,4.9c-0.1,0.7-0.2,1.3-0.5,2c-0.3,0.9-0.7,1.8-1,2.7c-0.4,1.6-0.1,3.3,0.8,4.7
	c0.8,1.5,2.5,2.2,4.1,1.9c1-0.1,1.9-0.4,2.6-1c1.1-1.1,1.7-2.7,1.4-4.2c-0.1-0.5-0.2-1-0.3-1.4c-0.5-1.8-0.6-3.7-0.4-5.6
	c0.2-1.6,0.4-3.2,0.5-4.8c0.1-1.8-0.3-3.6-1.1-5.1c-0.9-1.8-2.7-3-4.6-3.4C28,10.1,25.7,10.2,23.6,10.8z M21,8.8
	c0.2-1.7-0.7-3.4-2.1-4.3c-0.8-0.5-1.8-0.3-2.3,0.4c-0.2,0.3-0.3,0.7-0.3,1.1c0,0.2,0,0.5,0,0.7c0,0.3,0.1,0.6,0.1,0.7
	c0.3,1,0.9,1.9,1.8,2.5c0.7,0.6,1.8,0.5,2.4-0.2C20.9,9.5,21,9.1,21,8.8z M24.9,7.5C25,7,25,6.5,24.8,6c-0.2-0.6-0.6-1.2-1.1-1.6
	C23.2,4,22.5,4,22,4.5c-0.2,0.2-0.3,0.4-0.3,0.6c-0.2,1.2,0.3,2.5,1.4,3.2c0.5,0.3,1.3,0.2,1.6-0.3C24.8,7.8,24.9,7.7,24.9,7.5z
	 M28.2,7.3c0.3-1,0-2.2-0.9-2.8c-0.4-0.3-1-0.2-1.3,0.2c-0.1,0.1-0.1,0.2-0.1,0.3c-0.2,0.5-0.2,1.1,0,1.6C26,7,26.3,7.4,26.7,7.7
	c0.4,0.3,1,0.3,1.3-0.1C28.1,7.5,28.2,7.4,28.2,7.3z M29.3,8C29.6,8.3,30,8.3,30.4,8c0.1-0.1,0.1-0.1,0.2-0.2
	c0.3-0.5,0.4-1.1,0.2-1.6c-0.1-0.2-0.3-0.5-0.4-0.7c-0.3-0.3-0.7-0.4-1.1-0.1c-0.1,0.1-0.1,0.1-0.2,0.2C28.6,6.4,28.7,7.3,29.3,8z
	 M32.1,7c-0.3-0.2-0.6-0.2-0.9,0.1c-0.1,0.1-0.1,0.2-0.1,0.3c0,0.3-0.1,0.6-0.1,0.9c0.2,0.3,0.4,0.5,0.6,0.8c0.2,0.2,0.6,0.2,0.9,0
	c0.1-0.1,0.1-0.2,0.2-0.3C32.9,8.1,32.7,7.4,32.1,7z"/>
</svg>
