<?xml version="1.0" encoding="utf-8"?>
<!-- Generator: Adobe Illustrator 21.0.2, SVG Export Plug-In . SVG Version: 6.00 Build 0)  -->
<svg version="1.1" id="Layer_1" xmlns="http://www.w3.org/2000/svg" xmlns:xlink="http://www.w3.org/1999/xlink" x="0px" y="0px"
	 width="22.1px" height="19.6px" viewBox="0 0 22.1 19.6" style="enable-background:new 0 0 22.1 19.6;" xml:space="preserve">
<style type="text/css">
	.st0{fill:#FFFFFF;}
</style>
<path id="icon" transform="translate(352 14069.46)" class="st0" d="M-349-14050.4c0,0.3,0.2,0.5,0.4,0.5c0,0,0,0,0,0l5.6,0l0-4.6
	c0,0-0.1-0.8,0.7-0.8h2.3c0.4-0.1,0.8,0.2,0.8,0.6c0,0,0,0.1,0,0.1l0,4.5h5.4c0.3,0,0.6-0.2,0.6-0.6c0,0,0,0,0-0.1v-8.4l-7.7-6.8
	l-8.1,6.8V-14050.4z M-352-14059.6c0,0,0.7,1.3,2.2,0l9-7.6l8.5,7.6c1.7,1.3,2.4,0,2.4,0l-10.9-9.8L-352-14059.6z M-332.5-14067.2
	h-2.2l0,2.6l2.2,1.8V-14067.2z"/>
</svg>
