<svg xmlns="http://www.w3.org/2000/svg" viewBox="4635 570 64 63.995">
  <defs>
    <style>
      .cls-1 {
        fill: #fff;
      }
    </style>
  </defs>
  <g id="_004-chrome" data-name="004-chrome" transform="translate(4635 569.988)">
    <path id="XMLID_17_" class="cls-1" d="M95.506,107.477a11.959,11.959,0,1,0,11.959-11.959A11.972,11.972,0,0,0,95.506,107.477Z" transform="translate(-75.465 -75.465)"/>
    <path id="XMLID_18_" class="cls-1" d="M85.406,16.226a.525.525,0,0,0,0-.527A31.982,31.982,0,0,0,57.868.012,31.86,31.86,0,0,0,32.853,12.058a.524.524,0,0,0-.044.59l9.008,15.6a.525.525,0,0,0,.454.262.543.543,0,0,0,.071,0,.525.525,0,0,0,.437-.389A15.582,15.582,0,0,1,57.868,16.43c.441,0,.9.02,1.354.059l.045,0H84.95A.524.524,0,0,0,85.406,16.226Z" transform="translate(-25.868)"/>
    <path id="XMLID_19_" class="cls-1" d="M36.729,107.623a.524.524,0,0,0-.555-.184,15.583,15.583,0,0,1-18.285-8.411c-.006-.013-.013-.026-.021-.039L5.017,76.731a.524.524,0,0,0-.454-.262h0a.524.524,0,0,0-.454.267,32.008,32.008,0,0,0,23.12,47.335.513.513,0,0,0,.078.006.525.525,0,0,0,.454-.262l9.011-15.607A.525.525,0,0,0,36.729,107.623Z" transform="translate(0 -60.414)"/>
    <path id="XMLID_20_" class="cls-1" d="M181.178,95.226h-18.04a.525.525,0,0,0-.367.9,15.549,15.549,0,0,1,1.9,20c-.008.012-.016.025-.023.037l-12.873,22.3a.524.524,0,0,0,.454.787h.006a32.015,32.015,0,0,0,29.434-43.683A.524.524,0,0,0,181.178,95.226Z" transform="translate(-119.87 -75.235)"/>
  </g>
</svg>
