<svg xmlns="http://www.w3.org/2000/svg" xmlns:xlink="http://www.w3.org/1999/xlink" viewBox="4635 570 64 64">
  <defs>
    <style>
      .cls-1 {
        clip-path: url(#clip-path);
      }

      .cls-2 {
        fill: #db4437;
      }

      .cls-3 {
        fill: url(#linear-gradient);
      }

      .cls-4 {
        fill: rgba(62,39,35,0.15);
      }

      .cls-5 {
        fill: #0f9d58;
      }

      .cls-6 {
        fill: url(#linear-gradient-2);
      }

      .cls-7 {
        fill: rgba(38,50,56,0.15);
      }

      .cls-8 {
        clip-path: url(#clip-path-6);
      }

      .cls-9 {
        fill: #ffcd40;
      }

      .cls-10 {
        fill: url(#linear-gradient-3);
      }

      .cls-11 {
        clip-path: url(#clip-path-9);
      }

      .cls-12 {
        fill: url(#radial-gradient);
      }

      .cls-13 {
        clip-path: url(#clip-path-12);
      }

      .cls-14 {
        fill: url(#radial-gradient-2);
      }

      .cls-15 {
        fill: url(#radial-gradient-3);
      }

      .cls-16 {
        fill: #f1f1f1;
      }

      .cls-17 {
        fill: #4285f4;
      }

      .cls-18 {
        fill: rgba(62,39,35,0.2);
      }

      .cls-19 {
        fill: rgba(255,255,255,0.1);
      }

      .cls-20 {
        fill: #3e2723;
        opacity: 0.1;
      }

      .cls-21 {
        fill: rgba(255,255,255,0.2);
      }

      .cls-22 {
        fill: url(#radial-gradient-4);
      }

      .cls-23 {
        fill: none;
      }
    </style>
    <clipPath id="clip-path">
      <circle id="Ellipse_28" data-name="Ellipse 28" cx="32" cy="32" r="32"/>
    </clipPath>
    <linearGradient id="linear-gradient" x1="0.045" y1="1.028" x2="0.369" y2="1.311" gradientUnits="objectBoundingBox">
      <stop offset="0" stop-color="#a52714" stop-opacity="0.6"/>
      <stop offset="0.66" stop-color="#a52714" stop-opacity="0"/>
    </linearGradient>
    <linearGradient id="linear-gradient-2" x1="0.838" y1="0.031" x2="0.363" y2="0.246" gradientUnits="objectBoundingBox">
      <stop offset="0" stop-color="#055524" stop-opacity="0.4"/>
      <stop offset="0.33" stop-color="#055524" stop-opacity="0"/>
    </linearGradient>
    <clipPath id="clip-path-6">
      <path id="Path_2209" data-name="Path 2209" d="M0,74.5H30.473L44.655,60.318V49.773H19.345L0,16.5Z" transform="translate(0 -16.5)"/>
    </clipPath>
    <linearGradient id="linear-gradient-3" x1="0.326" y1="0.689" x2="0.485" y2="0.187" gradientUnits="objectBoundingBox">
      <stop offset="0" stop-color="#ea6100" stop-opacity="0.302"/>
      <stop offset="0.66" stop-color="#ea6100" stop-opacity="0"/>
    </linearGradient>
    <clipPath id="clip-path-9">
      <path id="Path_2214" data-name="Path 2214" d="M85.455,48,98.036,69.818,84,94.545h33.455V48Z" transform="translate(-84 -48)"/>
    </clipPath>
    <radialGradient id="radial-gradient" cx="296.065" cy="77.836" r="30.575" gradientUnits="userSpaceOnUse">
      <stop offset="0" stop-color="#3e2723" stop-opacity="0.2"/>
      <stop offset="1" stop-color="#3e2723" stop-opacity="0"/>
    </radialGradient>
    <clipPath id="clip-path-12">
      <path id="Path_2218" data-name="Path 2218" d="M14,0V14.655L28.327,39.273,40.909,17.455h32V0Z" transform="translate(-14)"/>
    </clipPath>
    <radialGradient id="radial-gradient-2" cx="223.411" cy="75.765" r="28.378" xlink:href="#radial-gradient"/>
    <radialGradient id="radial-gradient-3" cx="294.724" cy="94.849" r="31.953" gradientUnits="userSpaceOnUse">
      <stop offset="0" stop-color="#263238" stop-opacity="0.2"/>
      <stop offset="1" stop-color="#263238" stop-opacity="0"/>
    </radialGradient>
    <radialGradient id="radial-gradient-4" cx="9.56" cy="55.996" r="64.273" gradientUnits="userSpaceOnUse">
      <stop offset="0" stop-color="#fff" stop-opacity="0.102"/>
      <stop offset="1" stop-color="#fff" stop-opacity="0"/>
    </radialGradient>
  </defs>
  <g id="Chrome" transform="translate(4635 570)">
    <g id="Group_361" data-name="Group 361">
      <g id="Group_360" data-name="Group 360" class="cls-1">
        <path id="Path_2201" data-name="Path 2201" class="cls-2" d="M14,0V39.273H28.327L40.909,17.455h32V0Z" transform="translate(-8.909)"/>
        <path id="Path_2202" data-name="Path 2202" class="cls-3" d="M14,0V39.273H28.327L40.909,17.455h32V0Z" transform="translate(-8.909)"/>
      </g>
    </g>
    <g id="Group_363" data-name="Group 363">
      <g id="Group_362" data-name="Group 362" class="cls-1">
        <path id="Path_2203" data-name="Path 2203" class="cls-4" d="M28.591,64.236,14.118,39.4l-.218.364L28.082,64.418Z" transform="translate(-8.845 -25.073)"/>
      </g>
    </g>
    <g id="Group_365" data-name="Group 365">
      <g id="Group_364" data-name="Group 364" class="cls-1">
        <path id="Path_2204" data-name="Path 2204" class="cls-5" d="M0,74.5H30.473L44.655,60.318V49.773H19.345L0,16.5Z" transform="translate(0 -10.5)"/>
        <path id="Path_2205" data-name="Path 2205" class="cls-6" d="M0,74.5H30.473L44.655,60.318V49.773H19.345L0,16.5Z" transform="translate(0 -10.5)"/>
      </g>
    </g>
    <g id="Group_367" data-name="Group 367">
      <g id="Group_366" data-name="Group 366" class="cls-1">
        <path id="Path_2206" data-name="Path 2206" class="cls-7" d="M96.918,109.045l-.291-.145L82.7,133.264h.364L96.991,108.9Z" transform="translate(-52.627 -69.3)"/>
      </g>
    </g>
    <g id="Group_393" data-name="Group 393">
      <g id="Group_392" data-name="Group 392" class="cls-1">
        <g id="Group_369" data-name="Group 369" transform="translate(0 6)">
          <g id="Group_368" data-name="Group 368" class="cls-8">
            <path id="Path_2207" data-name="Path 2207" class="cls-9" d="M85.455,48,98.036,69.818,84,94.545h33.455V48Z" transform="translate(-53.455 -36.545)"/>
            <path id="Path_2208" data-name="Path 2208" class="cls-10" d="M85.455,48,98.036,69.818,84,94.545h33.455V48Z" transform="translate(-53.455 -36.545)"/>
          </g>
        </g>
        <g id="Group_371" data-name="Group 371">
          <g id="Group_370" data-name="Group 370" class="cls-1">
            <path id="Path_2210" data-name="Path 2210" class="cls-9" d="M85.455,48,98.036,69.818,84,94.545h33.455V48Z" transform="translate(-53.455 -30.545)"/>
            <path id="Path_2211" data-name="Path 2211" class="cls-10" d="M85.455,48,98.036,69.818,84,94.545h33.455V48Z" transform="translate(-53.455 -30.545)"/>
          </g>
        </g>
        <g id="Group_391" data-name="Group 391">
          <g id="Group_390" data-name="Group 390" class="cls-1">
            <g id="Group_373" data-name="Group 373" transform="translate(30.545 17.455)">
              <g id="Group_372" data-name="Group 372" class="cls-11">
                <path id="Path_2212" data-name="Path 2212" class="cls-2" d="M14,0V39.273H28.327L40.909,17.455h32V0Z" transform="translate(-39.455 -17.455)"/>
                <path id="Path_2213" data-name="Path 2213" class="cls-3" d="M14,0V39.273H28.327L40.909,17.455h32V0Z" transform="translate(-39.455 -17.455)"/>
              </g>
            </g>
            <g id="Group_375" data-name="Group 375">
              <g id="Group_374" data-name="Group 374" class="cls-1">
                <path id="Path_2215" data-name="Path 2215" class="cls-12" d="M88,48v7.636L116.509,48Z" transform="translate(-56 -30.545)"/>
              </g>
            </g>
            <g id="Group_389" data-name="Group 389">
              <g id="Group_388" data-name="Group 388" class="cls-1">
                <g id="Group_377" data-name="Group 377" transform="translate(5.091)">
                  <g id="Group_376" data-name="Group 376" class="cls-13">
                    <path id="Path_2216" data-name="Path 2216" class="cls-5" d="M0,74.5H30.473L44.655,60.318V49.773H19.345L0,16.5Z" transform="translate(-5.091 -10.5)"/>
                    <path id="Path_2217" data-name="Path 2217" class="cls-6" d="M0,74.5H30.473L44.655,60.318V49.773H19.345L0,16.5Z" transform="translate(-5.091 -10.5)"/>
                  </g>
                </g>
                <g id="Group_379" data-name="Group 379">
                  <g id="Group_378" data-name="Group 378" class="cls-1">
                    <path id="Path_2219" data-name="Path 2219" class="cls-14" d="M14,40.5,34.8,61.3l-6.473,3.745Z" transform="translate(-8.909 -25.773)"/>
                  </g>
                </g>
                <g id="Group_381" data-name="Group 381">
                  <g id="Group_380" data-name="Group 380" class="cls-1">
                    <path id="Path_2220" data-name="Path 2220" class="cls-15" d="M83.8,126.173,91.436,97.7l6.473,3.745Z" transform="translate(-53.327 -62.173)"/>
                  </g>
                </g>
                <g id="Group_383" data-name="Group 383">
                  <g id="Group_382" data-name="Group 382" class="cls-1">
                    <circle id="Ellipse_36" data-name="Ellipse 36" class="cls-16" cx="14.545" cy="14.545" r="14.545" transform="translate(17.455 17.455)"/>
                    <circle id="Ellipse_37" data-name="Ellipse 37" class="cls-17" cx="11.636" cy="11.636" r="11.636" transform="translate(20.364 20.364)"/>
                  </g>
                </g>
                <g id="Group_385" data-name="Group 385">
                  <g id="Group_384" data-name="Group 384" class="cls-1">
                    <path id="Path_2221" data-name="Path 2221" class="cls-18" d="M62.545,47A14.588,14.588,0,0,0,48,61.545v.364A14.588,14.588,0,0,1,62.545,47.364h32V47Z" transform="translate(-30.545 -29.909)"/>
                    <path id="Path_2222" data-name="Path 2222" class="cls-19" d="M44.582,49.773a14.52,14.52,0,0,1-25.164,0L0,16.5v.364L19.418,50.136a14.52,14.52,0,0,0,25.164,0Z" transform="translate(0 -10.5)"/>
                    <path id="Path_2223" data-name="Path 2223" class="cls-20" d="M88.682,48H88.5a14.547,14.547,0,0,1,0,29.091h.182a14.545,14.545,0,0,0,0-29.091Z" transform="translate(-56.318 -30.545)"/>
                    <path id="Path_2224" data-name="Path 2224" class="cls-21" d="M98.182,88.936a14.306,14.306,0,0,0,1.964-7.273,13.73,13.73,0,0,0-.727-4.364A13.8,13.8,0,0,1,100,81.191a14.609,14.609,0,0,1-1.964,7.273L84,113.191h.364L98.255,89.009Z" transform="translate(-53.455 -49.191)"/>
                  </g>
                </g>
                <g id="Group_387" data-name="Group 387">
                  <g id="Group_386" data-name="Group 386" class="cls-1">
                    <path id="Path_2225" data-name="Path 2225" class="cls-21" d="M32,.364A31.985,31.985,0,0,1,64,32.182V32A32,32,0,0,0,0,32v.182A31.985,31.985,0,0,1,32,.364Z"/>
                    <path id="Path_2226" data-name="Path 2226" class="cls-4" d="M32,119.318A31.985,31.985,0,0,0,64,87.5v.182a32,32,0,1,1-64,0V87.5A31.985,31.985,0,0,0,32,119.318Z" transform="translate(0 -55.682)"/>
                  </g>
                </g>
                <circle id="Ellipse_41" data-name="Ellipse 41" class="cls-22" cx="32" cy="32" r="32"/>
                <path id="Path_2227" data-name="Path 2227" class="cls-23" d="M-8-8H61.818V61.818H-8Z" transform="translate(5.091 5.091)"/>
              </g>
            </g>
          </g>
        </g>
      </g>
    </g>
  </g>
</svg>
