<svg xmlns="http://www.w3.org/2000/svg" viewBox="4848 572 72.05 64">
  <defs>
    <style>
      .cls-1 {
        fill: #fff;
      }
    </style>
  </defs>
  <g id="_003-mozilla-firefox" data-name="003-mozilla-firefox" transform="translate(4848 542.205)">
    <path id="Path_2200" data-name="Path 2200" class="cls-1" d="M71.947,49.28l-.835,5.353s-1.193-9.911-2.655-13.616c-2.241-5.677-3.238-5.632-3.244-5.623,1.5,3.814,1.228,5.863,1.228,5.863S63.782,34.01,56.752,31.7c-7.788-2.553-12-1.855-12.488-1.723h-.213l.171.015s-.006,0-.006,0c.031.039,8.605,1.5,10.126,3.588a29.748,29.748,0,0,0-7.266,1.044c-.164.047,13.335,1.686,16.095,15.175,0,0-1.48-3.087-3.31-3.611,1.2,3.661.895,10.609-.252,14.062-.148.444-.3-1.92-2.556-2.938.723,5.182-.043,13.4-3.638,15.665-.28.176,2.254-8.113.509-4.909-10.041,15.4-21.911,7.1-27.248,3.456,2.735.6,7.927-.093,10.225-1.8l.008-.006c2.5-1.706,3.973-2.952,5.3-2.658s2.212-1.036,1.181-2.219a6.878,6.878,0,0,0-6.932-1.926c-2.392.627-5.357,3.273-9.882.593-3.473-2.058-3.8-3.768-3.831-4.952a8.556,8.556,0,0,1,.322-1.17c.4-1.117,1.612-1.453,2.286-1.719a10.67,10.67,0,0,1,3.164,1.084c.013-.344.018-.8,0-1.32a3.378,3.378,0,0,0-.121-1.518,11,11,0,0,0-.475-2.159h0l.011,0a.052.052,0,0,0,.015-.013l0,0a.1.1,0,0,0,.014-.033c.072-.325.846-.952,1.81-1.625.864-.6,1.879-1.245,2.679-1.742.708-.44,1.247-.766,1.361-.851.043-.033.1-.071.152-.115L34,47.345l.02-.016a2.827,2.827,0,0,0,1.068-2.081s0-.006,0-.009q.005-.053.009-.108c0-.025,0-.051.005-.077s0-.04,0-.06c0-.048,0-.1,0-.145,0,0,0-.005,0-.008,0-.117,0-.238-.007-.366a1.31,1.31,0,0,0-.021-.194l0-.01,0-.017c0-.01-.005-.021-.009-.03v0c0-.011-.008-.022-.012-.033h0c-.123-.289-.585-.4-2.494-.431h-.005c-.779-.013-1.8-.014-3.131-.008-2.339.009-3.633-2.287-4.045-3.176A9.389,9.389,0,0,1,30.263,33.7c.051-.029.041-.052-.019-.069.525-.318-6.35-.009-9.512,4.013a15.488,15.488,0,0,0-7.361-.156,8.609,8.609,0,0,1-1.508-.187c-1.4-1.27-3.409-3.617-3.517-6.418l-.018.014c0-.027,0-.053-.005-.08,0,0-4.272,3.283-3.633,12.235,0,.143,0,.28-.008.413A11.214,11.214,0,0,0,2.91,46.647,38.1,38.1,0,0,0,0,56.637a23.918,23.918,0,0,1,1.779-4C.906,55.311.22,59.472.623,65.713c0,0,.107-1.384.484-3.377A33.564,33.564,0,0,0,5.951,76.6C12.21,87.392,21.83,92.839,32.463,93.675a36.281,36.281,0,0,0,5.729.013c.177-.012.354-.025.531-.04a39.786,39.786,0,0,0,6.56-1.011C75.2,85.4,71.947,49.28,71.947,49.28Z"/>
  </g>
</svg>
