<svg xmlns="http://www.w3.org/2000/svg" viewBox="5066 570 64 64">
  <defs>
    <style>
      .cls-1 {
        fill: #fff;
      }
    </style>
  </defs>
  <path id="_001-opera" data-name="001-opera" class="cls-1" d="M32,64c-.508,0-1.016-.02-1.524-.041A32,32,0,0,1,32,0h.122A31.836,31.836,0,0,1,53.333,8.147a23.044,23.044,0,0,0-12.82-3.921,24.069,24.069,0,0,0-19.037,9.732c-3.535,4.185-5.831,10.342-5.994,17.27v1.5c.163,6.928,2.438,13.1,5.994,17.27a24.069,24.069,0,0,0,19.037,9.732,22.945,22.945,0,0,0,12.82-3.921A31.784,31.784,0,0,1,32,64Zm22.715-9.468a20.659,20.659,0,0,1-19.891.792C42.971,53.638,49.209,43.845,49.209,32S42.971,10.342,34.824,8.676a20.644,20.644,0,0,1,9.2-2.174A20.908,20.908,0,0,1,54.715,9.488a31.957,31.957,0,0,1,0,45.044Z" transform="translate(5066 570)"/>
</svg>
